<svg width="229" height="236" viewBox="0 0 229 236" fill="none" xmlns="http://www.w3.org/2000/svg">
<path d="M226.14 177.279C224.35 175.929 200.08 157.289 185.56 119.639C184.31 116.389 183.12 112.999 182.05 109.459C179.53 101.309 177.52 92.3991 176.26 82.7191C174.32 67.7891 174.17 51.0391 176.72 32.3891L121.95 1.03906L122.75 118.409L222.72 175.339L226.14 177.279Z" fill="#50B84C"/>
<path d="M228.14 179.527L227.68 111.367L176.27 82.7266C177.53 92.3966 179.54 101.317 182.06 109.467L185.57 119.647C200.09 157.297 224.36 175.937 226.15 177.287L222.73 175.347L228.15 179.537L228.14 179.527Z" fill="url(#paint0_linear_194_104)"/>
<path d="M13.6602 201.587C15.7102 200.687 43.8602 188.667 83.7902 194.457C87.2402 194.957 90.7702 195.577 94.3802 196.387C102.72 198.187 111.47 200.797 120.52 204.437C134.48 210.057 149.16 218.137 164.17 229.497L218.33 197.107L115.62 140.297L17.0202 199.557L13.6602 201.587Z" fill="#50B84C"/>
<path d="M10.7197 202.229L70.3698 235.219L120.52 204.429C111.47 200.789 102.72 198.169 94.3797 196.379L83.7897 194.449C43.8597 188.669 15.7097 200.679 13.6597 201.579L17.0197 199.549L10.7197 202.219V202.229Z" fill="url(#paint1_linear_194_104)"/>
<path d="M99.7002 2.86719C99.4502 5.09719 95.7802 35.4772 70.8002 67.1572C68.6402 69.8872 66.3302 72.6372 63.8302 75.3672C58.1002 81.6872 51.4602 87.9572 43.7802 93.9772C31.9302 103.257 17.5902 111.927 0.240234 119.237L1.19022 182.337L101.76 121.827L99.7702 6.80717L99.6902 2.87718L99.7002 2.86719Z" fill="#50B84C"/>
<path d="M100.61 0L42.21 35.14L43.78 93.97C51.46 87.96 58.1 81.69 63.83 75.36L70.8 67.15C95.79 35.47 99.46 5.08 99.7 2.86L99.78 6.79001L100.62 0H100.61Z" fill="url(#paint2_linear_194_104)"/>
<defs>
<linearGradient id="paint0_linear_194_104" x1="176.26" y1="131.127" x2="228.14" y2="131.127" gradientUnits="userSpaceOnUse">
<stop stop-color="#22499C"/>
<stop offset="1" stop-color="#3C92CF"/>
</linearGradient>
<linearGradient id="paint1_linear_194_104" x1="10.7197" y1="214.049" x2="120.52" y2="214.049" gradientUnits="userSpaceOnUse">
<stop stop-color="#22499C"/>
<stop offset="1" stop-color="#3C92CF"/>
</linearGradient>
<linearGradient id="paint2_linear_194_104" x1="42.21" y1="46.99" x2="100.61" y2="46.99" gradientUnits="userSpaceOnUse">
<stop stop-color="#22499C"/>
<stop offset="1" stop-color="#3C92CF"/>
</linearGradient>
</defs>
</svg>
