<svg width="34" height="33" viewBox="0 0 34 33" fill="none" xmlns="http://www.w3.org/2000/svg">
<path d="M16.131 9.98686C16.131 8.90606 16.131 8.36565 15.9548 7.89633C15.8118 7.51539 15.5864 7.17076 15.2947 6.88706C14.9354 6.53755 14.4403 6.32095 13.4501 5.88773L0.507254 0.225168L6.16969 13.168C6.6029 14.1583 6.81951 14.6534 7.16903 15.0127C7.45273 15.3044 7.79737 15.5298 8.17832 15.6728C8.64765 15.849 9.18807 15.849 10.2689 15.849L14.6396 15.849C15.1726 15.849 15.4391 15.849 15.6412 15.7419C15.8043 15.6556 15.9377 15.5222 16.024 15.3591C16.131 15.157 16.131 14.8905 16.131 14.3575L16.131 9.98686Z" fill="#FA6444"/>
<path d="M23.2951 17.151C24.3759 17.151 24.9163 17.151 25.3856 17.3272C25.7666 17.4701 26.1112 17.6956 26.3949 17.9872C26.7444 18.3466 26.961 18.8417 27.3942 19.8319L33.0568 32.7747L20.1139 27.1123C19.1237 26.6791 18.6286 26.4625 18.2692 26.1129C17.9775 25.8292 17.7521 25.4846 17.6091 25.1036C17.433 24.6343 17.433 24.0939 17.433 23.0131L17.433 18.6424C17.433 18.1094 17.433 17.8429 17.54 17.6408C17.6264 17.4777 17.7598 17.3443 17.9229 17.2579C18.125 17.1509 18.3915 17.1509 18.9245 17.1509L23.2951 17.151Z" fill="#FA6444"/>
<path d="M33.0568 0.225292L27.3942 13.1681C26.961 14.1583 26.7444 14.6534 26.3949 15.0128C26.1112 15.3044 25.7666 15.5299 25.3856 15.6728C24.9163 15.849 24.3759 15.849 23.2951 15.849L18.9245 15.8491C18.3915 15.8491 18.125 15.8491 17.9229 15.7421C17.7598 15.6557 17.6264 15.5223 17.54 15.3592C17.433 15.1571 17.433 14.8906 17.433 14.3576L17.433 9.98694C17.433 8.90611 17.433 8.36569 17.6091 7.89636C17.7521 7.51541 17.9775 7.17077 18.2692 6.88707C18.6286 6.53755 19.1237 6.32094 20.1139 5.88773L33.0568 0.225292Z" fill="#FA6444"/>
<path d="M16.131 23.0131C16.131 24.0939 16.131 24.6343 15.9548 25.1037C15.8118 25.4846 15.5864 25.8292 15.2947 26.1129C14.9354 26.4624 14.4403 26.6791 13.4501 27.1123L0.507254 32.7748L6.16969 19.832C6.6029 18.8417 6.81951 18.3466 7.16903 17.9873C7.45273 17.6956 7.79737 17.4702 8.17832 17.3272C8.64765 17.151 9.18807 17.151 10.2689 17.151L14.6396 17.151C15.1726 17.151 15.4391 17.151 15.6412 17.2581C15.8043 17.3444 15.9377 17.4778 16.024 17.6409C16.131 17.843 16.131 18.1095 16.131 18.6425L16.131 23.0131Z" fill="#FA6444"/>
</svg>
