<svg width="20" height="20" viewBox="0 0 20 20" fill="none" xmlns="http://www.w3.org/2000/svg">
<path d="M15.8332 3.33463H14.1665V2.5013C14.1665 2.28029 14.0787 2.06832 13.9224 1.91204C13.7661 1.75576 13.5542 1.66797 13.3332 1.66797C13.1122 1.66797 12.9002 1.75576 12.7439 1.91204C12.5876 2.06832 12.4998 2.28029 12.4998 2.5013V3.33463H7.49984V2.5013C7.49984 2.28029 7.41204 2.06832 7.25576 1.91204C7.09948 1.75576 6.88752 1.66797 6.6665 1.66797C6.44549 1.66797 6.23353 1.75576 6.07725 1.91204C5.92097 2.06832 5.83317 2.28029 5.83317 2.5013V3.33463H4.1665C3.50346 3.33463 2.86758 3.59802 2.39874 4.06687C1.9299 4.53571 1.6665 5.17159 1.6665 5.83463V15.8346C1.6665 16.4976 1.9299 17.1335 2.39874 17.6023C2.86758 18.0712 3.50346 18.3347 4.1665 18.3347H15.8332C16.4962 18.3347 17.1321 18.0712 17.6009 17.6023C18.0698 17.1335 18.3332 16.4976 18.3332 15.8346V5.83463C18.3332 5.17159 18.0698 4.53571 17.6009 4.06687C17.1321 3.59802 16.4962 3.33463 15.8332 3.33463ZM16.6665 15.8346C16.6665 16.0556 16.5787 16.2676 16.4224 16.4238C16.2661 16.5801 16.0542 16.6679 15.8332 16.6679H4.1665C3.94549 16.6679 3.73353 16.5801 3.57725 16.4238C3.42097 16.2676 3.33317 16.0556 3.33317 15.8346V10.0013H16.6665V15.8346ZM16.6665 8.33463H3.33317V5.83463C3.33317 5.61362 3.42097 5.40166 3.57725 5.24538C3.73353 5.0891 3.94549 5.0013 4.1665 5.0013H5.83317V5.83463C5.83317 6.05565 5.92097 6.26761 6.07725 6.42389C6.23353 6.58017 6.44549 6.66797 6.6665 6.66797C6.88752 6.66797 7.09948 6.58017 7.25576 6.42389C7.41204 6.26761 7.49984 6.05565 7.49984 5.83463V5.0013H12.4998V5.83463C12.4998 6.05565 12.5876 6.26761 12.7439 6.42389C12.9002 6.58017 13.1122 6.66797 13.3332 6.66797C13.5542 6.66797 13.7661 6.58017 13.9224 6.42389C14.0787 6.26761 14.1665 6.05565 14.1665 5.83463V5.0013H15.8332C16.0542 5.0013 16.2661 5.0891 16.4224 5.24538C16.5787 5.40166 16.6665 5.61362 16.6665 5.83463V8.33463Z" fill="#235AA8"/>
<path d="M7.9 12H6.1C6.04477 12 6 12.0448 6 12.1V13.9C6 13.9552 6.04477 14 6.1 14H7.9C7.95523 14 8 13.9552 8 13.9V12.1C8 12.0448 7.95523 12 7.9 12Z" fill="#235AA8"/>
<path d="M10.9 12H9.1C9.04477 12 9 12.0448 9 12.1V13.9C9 13.9552 9.04477 14 9.1 14H10.9C10.9552 14 11 13.9552 11 13.9V12.1C11 12.0448 10.9552 12 10.9 12Z" fill="#235AA8"/>
<path d="M13.9 12H12.1C12.0448 12 12 12.0448 12 12.1V13.9C12 13.9552 12.0448 14 12.1 14H13.9C13.9552 14 14 13.9552 14 13.9V12.1C14 12.0448 13.9552 12 13.9 12Z" fill="#235AA8"/>
</svg>
