<svg width="78" height="57" viewBox="0 0 78 57" fill="none" xmlns="http://www.w3.org/2000/svg">
<g clip-path="url(#clip0_190_2)">
<path d="M75.9587 26.868L75.677 26.7889L75.2298 26.9154L74.8865 26.889L74.7668 26.7994L74.9271 26.513L74.9077 26.4655L74.6489 26.2388L74.6771 26.1721L75.1296 26.1264L75.4007 26.0438L75.5046 25.891L75.4659 25.7961L75.2652 25.7117L74.9606 25.7802L74.413 25.8645L73.9324 25.9769L73.376 26.1755L72.6947 26.2035L72.6142 26.2159L72.6137 26.2088L72.1471 26.2878L72.1309 26.3017L72.0996 26.3071L71.9182 26.2702L71.8936 26.142L71.7193 25.7149L71.7035 25.4725L71.6454 25.3301L71.4923 25.2264L71.3637 25.251L71.2405 25.3564L70.9729 25.244L70.8303 25.3019L70.5539 25.3037L70.3884 25.5092L70.1507 25.6059L70.1612 25.7675L70.0203 26.1014L70.0643 26.2771L70.1611 26.5143L69.9956 26.7199L69.9287 26.6918L69.4622 26.7708L68.7244 26.9324L68.2579 27.0114L67.6487 27.1484L67.646 27.149L67.6224 27.1392L67.6506 27.0724L67.7651 27.0812L68.2457 26.9687L68.3689 26.8633L68.2633 26.7403L67.9763 26.5804L67.7475 26.5628L67.5292 26.7069L67.3196 26.7367L67.6419 26.4398L68.2 26.5172L68.6243 26.5383L68.8954 26.4557L69.0327 26.3169L68.8989 26.2607L68.4799 26.3204L68.1031 26.2799L67.6788 26.2588L67.7723 26.1789L67.9081 26.1576L68.1119 26.1657L68.3496 26.0691L68.7106 25.867L68.6859 25.7388L68.3655 25.5648L68.2704 25.6034L68.075 25.5999L68.112 25.4189L68.0205 25.2625L67.5275 24.9374L67.5682 24.8408L67.5793 24.8395L67.6012 24.837L67.8462 24.8355L67.9981 24.7925L68.096 24.7815L68.1013 24.769L68.1428 24.7604L68.1436 24.7622L68.8337 24.6199L68.8359 24.5914L68.8954 24.5672L68.8901 24.4864L68.7176 24.3353L68.3496 24.1806L68.2352 24.1718L67.9165 24.2737L67.8243 24.2349L67.9272 24.0834L67.7882 23.9464L67.7112 23.9262L67.5943 23.8238L67.6507 23.6903L67.7792 23.6657L68.2317 23.6201L68.3092 23.6122L68.3127 23.6148L68.6841 23.5744L69.2651 23.5042L69.7317 23.4251L69.8409 23.3531L69.8884 23.3338L69.9004 23.3138L69.9501 23.2811L69.9733 23.1926L70.0205 23.1141L70.0093 23.0558L70.0152 23.0333L70.002 23.018L69.9958 22.9859L69.9518 22.9595L69.8568 22.8488L69.5029 22.6608L69.6543 22.4886L69.8779 22.4253L70.2019 22.4043L70.2829 22.399L70.3639 22.3938L70.6016 22.2971L70.7988 21.8297L71.0136 21.8807L71.2513 21.7841L71.4784 21.5258L71.7214 21.51L71.533 21.8632L71.6527 21.9528L72.1457 21.5311L72.4058 21.5295L72.6421 21.6612L72.6896 21.6419L72.6934 21.6173L72.7448 21.5734L72.9608 21.5593L73.2336 21.7526L73.278 21.7595L73.334 21.7948L73.3815 21.7755L73.4467 21.5277L73.7231 21.526L73.9643 21.2343L74.0489 21.034L74.0246 20.8116L74.026 20.4348L73.9204 20.3118L73.857 20.0886L73.7321 19.9182L73.4644 19.8057L73.2549 19.8355L73.2395 19.8487L73.0789 19.8795L72.688 19.8724L72.4926 19.8689L72.418 19.89L72.364 19.8935L72.3435 19.911L72.2689 19.9321L71.9872 19.853L71.4151 19.809L70.7002 19.823L70.4185 19.7439L70.5014 19.6336L70.5586 19.6194L70.9608 19.5788L71.1228 19.5683L71.7038 19.498L71.7346 19.4716L71.7989 19.4593L71.8271 19.3926L71.9113 19.2595L72.2743 19.2661L72.5313 19.2169L72.5542 19.0693L72.1669 18.8672L72.1229 18.6915L72.0701 18.63L72.0313 18.5351L71.8306 18.4507L71.1292 18.4703L71.1158 18.4647L70.9538 18.4752L70.6105 18.4488L70.7619 18.2767L70.7736 18.2195L70.8042 18.1765L70.7857 18.1603L70.8359 17.9147L70.7919 17.7389L70.7823 17.7258L70.7725 17.6915L70.7383 17.6659L70.6669 17.5685L69.4627 17.0623L69.1476 16.9691L69.2092 16.9164L69.8853 16.8075L70.8184 16.6495L71.1846 16.5283L71.3184 16.5845L71.4663 16.6073L71.6124 16.3543L71.8184 16.5195L71.8208 16.504L71.8286 16.5092L71.8184 16.5195L71.8853 16.5476L72.042 16.4563L72.2903 16.5213L72.4329 16.4633L72.7339 16.5899L72.7814 16.5705L72.9188 16.4318L73.0755 16.3404L73.2568 16.3773L73.2198 16.5583L73.3061 16.6338L73.4628 16.5425L73.6441 16.5794L73.7621 16.3931L73.8431 16.3879L74.1635 16.5619L74.2586 16.5232L74.3149 16.3897L74.3907 16.3036L74.5914 16.388L74.7533 16.3774L74.9189 16.1719L75.0527 16.2281L75.2006 16.2509L75.3185 16.0647L75.5228 15.954L75.5615 16.0489L75.6618 16.0911L75.7041 15.9909L75.7798 15.9048L75.9805 15.9892L76.0897 15.9171L76.1408 15.7028L76.2886 15.7256L76.433 15.9435L76.5862 16.0472L76.6091 15.8996L76.7358 15.5991L76.9365 15.6835L77.0123 15.5974L76.9207 15.441L76.9564 15.2663L77.2975 15.4815L77.2869 15.3198L77.1144 15.1687L77.1901 15.0826L77.4718 15.1617L77.5 15.0949L77.1796 14.9209L77.2077 14.8541L77.2062 14.831L77.2729 14.6063L77.2342 14.5115L77.0616 14.3603L77.0458 14.1178L76.8539 13.9193L76.7906 13.6961L76.5899 13.6117L76.5089 13.617L76.3082 13.5326L76.2061 13.2146L76.0582 13.1917L75.8275 13.645L75.4842 13.6187L75.4102 13.9806L75.2676 14.0386L75.0247 14.0544L74.6233 13.8857L74.4947 13.9103L74.2852 13.9401L73.7042 14.0104L73.294 13.9558L73.0308 13.9729L73.0176 13.9575L72.6126 13.9839L72.6079 13.995L72.4411 13.9983L72.3362 13.9856L72.1016 14.0049L72.0123 14.0066L71.5021 14.0542L71.3978 14.0628L71.3924 14.0645L70.8643 14.1137L70.44 14.0926L70.3027 14.2314L70.0932 14.2613L69.9752 14.4475L69.7463 14.4299L69.5263 14.2981L69.2587 14.1857L68.9629 14.1399L68.5163 14.1002L68.3572 14.0819L68.2615 14.0775L68.0139 14.0555L67.6231 14.0485L67.5993 14.0581L67.4611 14.059L66.6089 14.2118L65.7515 14.2838L65.6932 14.3154L65.5279 14.347L64.88 14.3891L64.5121 14.2345L64.4592 14.173L64.4874 14.1062L64.5684 14.1009L64.641 14.0921L64.6494 14.0956L64.7304 14.0904L64.8589 14.0658L65.1494 14.0307L65.4399 13.9956L65.8924 13.9499L66.0211 13.9223L66.0209 13.9253L66.1089 13.9034L66.3255 13.8568L66.9541 13.7673L67.683 13.7199L67.764 13.7147L68.2414 13.7031L68.7518 13.695L68.7552 13.6989L68.8362 13.6937L69.4083 13.7377L69.5316 13.6322L69.1496 13.511L69.0774 13.402L68.8767 13.3176L68.7459 13.3076L68.7288 13.2948L68.2235 13.2789L68.2193 13.2888L68.1569 13.2883L68.1425 13.2842L68.0481 13.2874L67.8661 13.286L67.2323 13.2947L66.8414 13.2876L66.2205 13.3018L65.2164 13.3121L65.1543 13.3174H65.1354L65.1346 13.3191L64.4399 13.3788L64.116 13.3998L63.873 13.4156L63.792 13.4209L63.711 13.4262L63.6964 13.4428L63.5898 13.4592L63.5825 13.4507L63.3254 13.4999L62.4011 13.5437L62.3871 13.5457L62.3201 13.549L62.2963 13.5587L61.7726 13.6333L61.3201 13.679L60.8764 13.6104L60.4559 13.4336L60.7675 13.3305L60.7956 13.2637L60.8625 13.2919L61.3238 13.132L61.852 13.0003L61.8802 12.9335L61.9471 12.9616L61.9437 12.9096L62.0015 12.9041L62.1917 12.8268L62.5114 12.7411L62.9488 12.7127L63.2481 12.5634L63.513 12.6354L63.5967 12.6706L63.778 12.7075L63.9541 12.6636L63.9822 12.5968L64.0492 12.6249L64.2252 12.581L64.5157 12.5459L64.6583 12.4879L64.8045 12.2349L64.7129 12.0785L64.5651 12.0556L64.5349 12.0648L64.4841 12.0609L64.0562 12.2348L63.7464 12.2225L63.4559 12.2577L63.2182 12.3543L63.0954 12.3165L63.3962 12.2343L63.8434 12.1078L64.1955 12.02L64.6568 11.8601L64.8416 11.702L65.0652 11.6388L65.4577 11.5315L65.4649 11.5316L65.6885 11.4684L66.2413 11.4649L66.5935 11.3771L67.0882 11.2313L67.5971 11.0521L68.0918 10.9063L68.5531 10.7464L68.9193 10.6252L69.5848 10.3547L70.2222 10.1509L70.7253 9.9651L70.731 9.97178L70.9687 9.87515L71.4634 9.72936L71.6677 9.61868L71.6545 9.60329L71.6818 9.58528L71.6384 9.58449L71.6149 9.55716L71.4863 9.58175L71.2293 9.63093L71.0172 9.69342L70.8296 9.73809L70.6617 9.78215L70.6535 9.78201L70.4775 9.82592L70.4718 9.83071L70.2539 9.88914L69.6781 10.0401L69.1499 10.1719L68.9739 10.2158L68.8971 10.2509L68.7118 10.3089L68.7027 10.2984L68.5601 10.3563L67.9227 10.5601L67.7919 10.5959L67.905 10.3937L67.9062 10.384L67.9191 10.3603L67.9156 10.3064L67.9234 10.2421L67.942 10.2127L68.0443 10.1788L68.3911 10.0102L68.5285 9.87142L68.4281 9.82925L68.2996 9.85383L68.2116 9.87578L67.995 9.92232L67.8771 9.9592L67.7714 9.98557L67.6367 10.0276L67.3117 10.0264L67.1039 10.0515L67.2996 9.98377L67.4727 9.93644L67.4756 9.93986L67.6992 9.87661L67.9228 9.81337L68.2556 9.6781L68.333 9.61895L68.5831 9.462L68.5862 9.45457L68.9299 9.29333L69.0532 9.18791L69.1201 9.21603L69.2574 9.07723L69.1236 9.021L68.7433 9.17559L68.6958 9.19491L68.5725 9.30032L68.5056 9.27221L68.1869 9.3741L67.7793 9.43685L67.6336 9.37561L67.8577 9.31434L68.238 9.15973L68.6042 9.03852L69.0848 8.9261L69.6888 8.70827L70.3261 8.50449L70.4535 8.47854L70.4546 8.47991L71.1448 8.33765L71.5826 8.23342L71.754 8.20063L71.7847 8.18531L71.8015 8.18131L71.8537 8.15085L72.0533 8.0513L72.0561 8.03286L72.1149 7.9986L72.2135 7.76491L72.203 7.60324L72.0832 7.51361L71.9741 7.58565L71.8755 7.81934L71.6096 7.98275L71.048 8.10043L70.4194 8.18999L70.224 8.18646L70.4617 8.08983L70.8279 7.96862L70.8842 7.83509L70.7839 7.79292L70.6219 7.80344L70.5585 7.82922L70.2392 7.88063L70.2363 7.87721L69.7698 7.95625L69.555 7.90529L69.6485 7.84355L70.0638 7.72609L70.2772 7.65095L70.2874 7.66284L70.5726 7.5469L70.886 7.36418L70.9899 7.2113L70.8896 7.16912L70.6994 7.24643L70.0761 7.41683L69.6289 7.5433L69.0198 7.6803L68.8243 7.67677L68.937 7.40967L69.004 7.43779L69.0321 7.37101L69.099 7.39913L69.3226 7.3359L70.2259 6.96874L70.5921 6.84753L70.6678 6.76144L70.5815 6.68586L70.1959 6.75964L70.086 6.79203L70.0674 6.78422L69.835 6.85498L69.732 6.87907L69.4107 6.94054L69.409 6.94447L68.9917 7.00025L68.933 7.0149L68.8631 7.02484L68.3911 7.14726L68.3825 7.13725L68.1113 7.21982L67.4969 7.27598L67.025 7.27419L66.9053 7.18455L67.1624 7.13537L67.1865 7.12131L67.2099 7.11604L67.2146 7.10491L67.4758 6.95264L67.9177 6.74533L68.055 6.60653L67.9212 6.5503L67.8262 6.58894L67.379 6.71542L66.7839 6.81904L66.1131 7.00876L65.6465 7.08779L65.8032 6.99643L66.1694 6.87522L66.1976 6.80844L66.2645 6.83656L66.8068 6.67144L67.5445 6.50986L67.8632 6.40797L68.1766 6.22525L68.5621 6.15148L68.9759 6.01095L69.0992 5.90553L68.9794 5.8159L68.7699 5.84574L68.6684 5.86857L68.5129 5.89491L68.2826 5.95535L67.5516 6.11974L66.9759 6.2708L66.3667 6.4078L65.4388 6.64668L64.8631 6.79774L64.1447 7.00678L63.569 7.15783L63.0408 7.28957L62.3031 7.45115L61.5178 7.63205L60.8752 7.75499L60.2467 7.84456L60.0178 7.82697L60.0794 7.77425L60.5407 7.6144L62.0249 7.177L62.0531 7.11022L62.12 7.13833L62.8331 6.84846L63.3895 6.64994L63.5127 6.54452L63.4458 6.51641L62.9651 6.62882L62.8032 6.63935L62.8313 6.57257L63.0215 6.49526L63.4828 6.33542L63.849 6.21421L63.8771 6.14743L63.944 6.17554L64.1958 6.04554L64.3332 5.90674L64.2469 5.83117L64.1659 5.83643L64.1501 5.84286L63.9564 5.86628L63.4088 5.95058L62.5901 6.11742L62.1429 6.2439L61.2767 6.43008L60.701 6.58114L58.5882 7.1081L57.9033 7.3312L57.0371 7.51739L56.2994 7.67897L55.8389 7.78252L55.8538 7.68646L55.6724 7.64955L55.6363 7.82629L55.0476 7.93893L54.5669 8.05135L53.5721 8.26212L52.9436 8.35168L51.9101 8.46756L51.9048 8.38673L52.0334 8.36214L52.4665 8.26905L54.5229 7.87564L55.0986 7.72458L55.817 7.51555L56.6357 7.34868L57.4684 7.14843L58.2202 6.95345L58.715 6.80766L59.1763 6.64781L59.8805 6.47214L60.5038 6.30174L61.0126 6.12255L61.6218 5.98555L61.9687 5.81688L62.0227 5.75539L62.0303 5.76419L62.1201 5.64471L62.187 5.67283L62.2152 5.60605L62.4493 5.70447L62.4211 5.77125L62.5549 5.82748L62.6447 5.708L62.606 5.61311L62.3719 5.51468L62.0673 5.5832L61.7152 5.67103L61.0866 5.76059L60.5391 5.84489L60.4053 5.78866L60.4757 5.62172L60.8895 5.48119L61.356 5.40216L61.7223 5.28095L61.7201 5.2785L61.7698 5.26163L61.893 5.15621L61.7593 5.09995L61.4687 5.13506L60.6976 5.28259L59.893 5.41606L59.8025 5.46005L59.7979 5.4547L59.5461 5.5847L59.3982 5.56185L59.4992 5.44705L59.6175 5.36903L59.753 5.32775L60.0779 5.25794L60.6254 5.17364L60.9159 5.13853L61.3825 5.05949L61.5585 5.01557L61.6871 4.99098L61.6994 4.98043L61.7346 4.97166L61.7487 4.93828L61.8103 4.88556L61.8772 4.91368L62.0674 4.83637L62.1178 4.81037L62.1625 4.79771L62.4864 4.77666L62.7241 4.68003L63.1432 4.62031L63.1854 4.52016L63.1628 4.4938L63.166 4.47272L63.1402 4.46744L63.1326 4.45864L62.9847 4.43579L62.6467 4.49024L62.1326 4.5886L62.1273 4.50777L62.2699 4.4498L62.485 4.3864L62.4935 4.38656L62.7646 4.30399L62.8544 4.18451L62.7541 4.14232L62.6397 4.13352L62.1925 4.25999L61.8403 4.34782L61.5639 4.34956L61.6484 4.14924L61.5287 4.05961L61.3333 4.05608L60.6097 4.18429L60.5845 4.19056L60.4812 4.20887L60.1766 4.27738L59.6946 4.3696L59.1624 4.44072L59.0758 4.45934L59.0339 4.4653L58.8737 4.50277L58.7293 4.53381L57.7821 4.72526L56.9159 4.91145L55.9687 5.1029L55.6447 5.12395L55.8296 4.96581L56.5427 4.67596L56.9142 4.63559L57.4617 4.55129L57.6131 4.37909L57.7557 4.3211L58.1466 4.32817L58.6132 4.24913L58.9459 4.11386L59.1308 3.95575L59.3491 3.81169L59.5845 3.78922L59.5921 3.79587L59.8826 3.76076L60.3492 3.68173L60.9443 3.57811L61.344 3.47095L61.8951 3.1916L62.2613 3.0704L62.7701 2.8912L63.2648 2.74541L63.4022 2.60661L63.2684 2.55038L63.0589 2.58023L62.8493 2.61008L61.9162 2.76813L61.1591 2.88227L60.9972 2.8928L60.7234 2.93495L60.5781 2.95251L60.4861 2.97148L60.4496 2.9771L59.7594 3.11936L59.0217 3.28097L58.8483 3.32595L58.8457 3.32487L58.4936 3.4127L58.392 3.43553L58.07 3.50193L57.8811 3.52646L57.8279 3.52237L57.8655 3.51034L58.2981 3.40917L58.3862 3.38722L58.6027 3.34066L58.8263 3.27741L59.0024 3.23351L59.1309 3.20892L59.9021 3.0614L59.9302 2.99462L59.9972 3.02273L60.1106 2.99788L60.1257 2.99815L60.1984 2.97867L60.7349 2.86115L60.8075 2.84167L61.3441 2.72415L61.7913 2.59768L62.1716 2.44309L62.2948 2.33768L62.161 2.28142L61.661 2.3464L61.1082 2.34987L60.7314 2.30943L60.8265 2.27078L60.9304 2.11793L60.7631 2.04762L60.1011 2.1231L59.6487 2.16876L59.443 2.2081L59.3106 2.22319L59.2774 2.23979L59.1346 2.26712L58.7877 2.43578L58.5113 2.43752L58.1873 2.45857L58.1063 2.46383L58.1023 2.47337L57.998 2.49154L57.9778 2.48842L57.7758 2.52706L57.7683 2.51826L57.5922 2.56217L57.564 2.62895L57.3827 2.59204L57.4109 2.52526L57.2577 2.42157L57.1843 2.43563L57.1767 2.42683L57.1292 2.44615L56.8915 2.54278L56.6098 2.46367L56.3334 2.46541L56.3182 2.48264L56.1239 2.49528L56.0957 2.56205L56.057 2.46716L56.1788 2.43977L56.1855 2.44258L56.3616 2.39867L56.451 2.37337L56.7137 2.31084L57.3229 2.17384L57.8845 2.05617L58.4743 1.87171L59.2173 1.79094L59.4216 1.68026L59.4445 1.53267L59.2297 1.4817L58.33 1.65383L57.8775 1.69947L57.4444 1.79256L56.9454 1.88802L56.9585 1.82414L57.0254 1.85225L57.344 1.75037L57.8247 1.63795L58.2244 1.5308L58.8195 1.42718L59.6241 1.29371L59.8408 1.22444L59.8477 1.23049L60.2614 1.08996L60.3847 0.984534L60.2174 0.914225L59.9269 0.949334L59.5361 0.942272L59.1311 0.968588L58.7121 1.02831L58.036 1.13719L57.7261 1.12486L57.6777 1.13071L57.6451 1.13013L57.5697 1.14378L57.4357 1.16L57.4 1.17448L56.6645 1.30752L56.1363 1.43926L55.8933 1.45505L55.9832 1.33557L56.0501 1.36368L56.4973 1.23721L57.154 1.08089L57.6399 1.04931L57.9727 0.914045L58.4674 0.768252L59.3583 0.710335L59.853 0.564543L60.1295 0.56281L60.339 0.532964L60.5767 0.436338L60.4235 0.332651L60.0045 0.392366L59.2281 0.459055L58.4657 0.492366L57.8847 0.562585L57.3213 0.653319L56.8372 0.711843L56.6765 0.742566L56.4991 0.766273L55.7421 0.88042L55.0378 1.05608L54.1047 1.21414L53.462 1.33708L52.1099 1.55484L51.2718 1.67425L50.6292 1.79719L50.1626 1.87623L49.2154 2.06768L48.9055 2.05536L48.9812 1.96926L49.057 1.88316L49.1239 1.91127L49.1855 1.85855L49.7471 1.74087L50.5377 1.64078L51.7472 1.481L53.1134 1.22986L53.8987 1.04895L54.6698 0.901426L55.5748 0.810132L55.9938 0.750416L56.7034 0.655589L57.427 0.527385L57.8936 0.448349L58.7651 0.342996L59.3602 0.239376L59.6119 0.109373L59.4447 0.0390625L59.3637 0.0443258L59.3651 0.0477221L59.2961 0.0552121L59.2827 0.0495891L58.7968 0.0811676L58.7873 0.0919194L58.3109 0.112746L57.5679 0.193515L56.9059 0.26902L56.3425 0.359754L56.0203 0.407751L56.0044 0.414184L54.5396 0.650102L53.5114 0.846816L52.7878 0.975021L52.0307 1.08917L51.4832 1.17347L51.0641 1.23316L50.8546 1.26301L50.1592 1.32444L49.9778 1.28753L50.2965 1.18564L50.5201 1.12239L51.3863 0.936199L51.7579 0.895827L52.272 0.79747L52.3001 0.73069L52.2332 0.702575L51.8142 0.762292L51.786 0.82907L51.6857 0.786898L51.3001 0.860672L50.5571 0.941441L50.2952 0.978755L50.2666 0.97655L49.9286 1.03098L49.719 1.06083L49.043 1.16971L48.2384 1.30318L48.2131 1.30759L48.1977 1.28436L48.0445 1.18067L48.0164 1.24745L48.0724 1.33208L47.6433 1.4068L47.0341 1.5438L46.9053 1.57149L46.9055 1.56841L46.6485 1.61757L46.439 1.64742L46.277 1.65795L45.7979 1.7317L45.6432 1.66667L45.7383 1.62803L46.233 1.48224L46.6622 1.38573L46.6661 1.38917L46.991 1.31935L47.4373 1.24164L48.3369 1.06951L49.013 0.960625L49.2158 0.925741L49.2226 0.930779L50.0747 0.777991L50.6029 0.646256L51.0026 0.539105L50.9497 0.477588L50.6117 0.53202L50.4022 0.561866L50.3036 0.591893L49.8521 0.686494L49.6263 0.720546L49.293 0.763866L49.2831 0.772301L49.1642 0.790227L49.1644 0.78845L49.1216 0.796636L48.6169 0.872727L48.5312 0.889123L48.2789 0.92718L48.2742 0.938313L47.9743 0.995691L47.2648 1.09194L47.2647 1.09052L47.0552 1.12037L46.9267 1.14495L46.726 1.06058L46.5165 1.09043L46.0024 1.18879L45.5024 1.25377L45.2259 1.2555L45.0023 1.31875L44.7928 1.34859L44.5023 1.3837L44.2026 1.46407L44.0829 1.49099L43.8262 1.49259L44.0111 1.33447L44.0199 1.22025L43.8526 1.14994L43.7241 1.17453L43.4353 1.48552L43.2258 1.51537L43.2346 1.40116L43.1149 1.31153L43.0339 1.31679L42.7681 1.48017L42.5638 1.59085L42.3314 1.76831L42.0691 1.73667L41.9459 1.84209L41.7029 1.85788L41.5127 1.93518L41.1553 1.94218L40.8613 2.17234L40.6078 2.02648L40.6359 1.9597L40.5497 1.88413L40.4739 1.97022L40.5461 2.07918L40.4704 2.16527L40.2468 2.22852L39.6993 2.31282L39.2186 2.42524L39.0513 2.35493L38.9756 2.44103L38.7802 2.43749L38.3136 2.51653L38.289 2.38826L38.3454 2.25473L38.4158 2.08781L38.5021 2.16339L38.5461 2.33912L38.6939 2.36197L38.8201 2.21847L39.032 2.30751L39.1746 2.24953L39.2221 2.23021L39.2294 2.20553L39.2837 2.17749L39.4105 1.87702L39.664 2.02288L39.8454 2.05979L39.9299 1.85947L40.1834 2.00533L40.2116 1.93856L40.1535 1.79623L40.1148 1.70133L40.2057 1.56757L40.2803 1.49576L40.2914 1.44146L40.3226 1.3956L40.312 1.23393L40.2152 0.996703L40.048 0.926393L39.6483 1.03355L39.6381 1.04234L39.6008 1.05289L39.5251 1.13899L39.4018 1.24441L39.3032 1.4781L39.2222 1.48336L39.2645 1.38321L39.1588 1.2602L38.9634 1.25667L38.9405 1.40428L38.7891 1.57648L38.7715 1.80491L38.5091 1.77326L38.5373 1.70648L38.6975 1.42007L38.4634 1.32165L38.4158 1.34097L38.3079 1.34798L38.1869 1.32338L38.1891 1.35572L38.1567 1.35781L38.1394 1.3427L38.0919 1.36202L37.9545 1.50082L37.8401 1.49202L37.8195 1.50959L37.7925 1.51134L37.7708 1.55131L37.5936 1.70284L37.4844 1.77488L37.4758 1.83023L37.4422 1.87504L37.4809 1.96993L37.5396 1.95529L37.5619 1.96467L37.5865 1.94359L37.657 1.92603L37.8717 1.97699L37.8488 2.12459L37.9545 2.24759L37.8752 2.52874L37.7273 2.50589L37.7309 2.31084L37.5495 2.27393L37.3541 2.2704L37.458 2.11755L37.3717 2.04197L37.3664 1.96114L37.2133 1.85745L37.0848 1.88203L37.0344 1.90803L36.9897 1.92067L36.9589 1.94704L36.833 2.01204L36.8219 2.00736L36.8277 1.93122L36.7309 1.694L36.5778 1.59031L36.3595 1.73437L36.3432 1.78907L36.3313 1.80115L36.3361 1.81301L36.2661 2.0489L36.1517 2.04011L35.9316 1.9083L35.7996 2.12794L35.627 1.97679L35.3401 1.81687L35.1869 1.71319L35.0637 1.81861L34.8964 1.7483L34.7873 1.82034L34.7503 2.00133L34.9175 2.07164L35.0073 1.95216L35.4087 2.1209L35.4924 2.21829L35.4633 2.4583L35.4932 2.66741L35.3928 2.62524L35.2115 2.58832L35.127 2.78864L35.1991 2.89759L35.3664 2.9679L35.4139 2.94858L35.4844 2.78164L35.6041 2.87127L35.6428 2.96617L35.6445 3.24205L35.4104 3.14363L35.3294 3.14889L35.1375 2.95031L34.9702 2.88L34.7994 3.00474L34.6093 3.08205L34.5195 3.09484L34.4948 3.07325L34.3998 3.11189L34.1991 3.02753L34.1515 3.04685L34.1487 3.06077L34.0899 3.09954L34.0771 3.11662L34.0424 3.11887L34.0001 3.21902L33.9473 3.15751L33.8276 3.06788L33.7325 3.10652L33.685 3.12584L33.6136 3.24455L33.4895 3.12228L33.417 3.10753L33.3557 3.06605L33.3082 3.08537L33.2256 3.22838L33.0564 3.21538L33.0793 3.06776L32.979 3.02559L32.9226 3.15913L32.6691 3.01327L32.5265 3.07123L32.4068 2.9816L32.3686 2.97159L32.3399 2.95348L32.324 2.95991L32.1585 2.91655L32.1533 2.83571L32.1409 2.82492L32.1339 2.78828L31.9332 2.70391L31.8223 2.50007L31.6832 2.363L31.7537 2.19609L31.6199 2.13984L31.5248 2.17848L31.4544 2.34541L31.5072 2.40693L31.4314 2.49303L31.317 2.48423L31.3875 2.3173L31.1674 2.18549L31.1058 2.23822L31.0054 2.19604L30.9667 2.10115L30.8135 1.99746L30.6516 2.00799L30.6234 2.07477L30.6762 2.13628L30.4491 2.39458L30.2114 2.4912L29.9825 2.47362L29.8874 2.51228L29.817 2.67919L29.7994 2.90762L29.9472 2.93047L29.8434 3.08333L29.7395 3.23618L29.5916 3.21333L29.5493 3.31349L29.7025 3.41718L29.618 3.61749L29.3944 3.68071L29.4384 3.85644L29.6584 3.98825L29.6496 4.10246L29.5317 4.28872L29.5845 4.35021L29.5422 4.45037L29.4436 4.68406L29.2482 4.68053L29.1866 4.73325L28.9436 4.74904L28.8961 4.76836L28.5633 4.90362L28.0827 5.01604L27.5545 5.14777L27.2921 5.11613L27.2305 5.16885L27.1548 5.25495L26.8308 5.276L26.66 5.40074L26.3977 5.36909L26.3114 5.29352L26.41 5.05983L26.6301 5.19163L26.7586 5.16705L26.8344 5.08095L27.0016 5.15126L27.058 5.0177L26.9435 5.00891L26.9154 5.07569L26.7957 4.98606L26.852 4.85252L26.7323 4.76289L26.676 4.89643L26.6038 4.78747L26.5369 4.75936L26.4506 4.68379L26.7165 4.52038L27.0122 4.56609L27.0211 4.45187L26.7676 4.30601L26.7764 4.1918L26.9841 3.88606L26.7641 3.75426L26.8398 3.66816L26.9542 3.67696L27.2254 3.59439L27.4261 3.67876L27.5353 3.60672L27.7025 3.67703L27.8064 3.52417L28.0265 3.65597L28.1885 3.64545L28.1374 3.85982L28.1902 3.92133L28.449 4.14803L28.3169 4.36766L28.456 4.50473L28.5458 4.38525L28.6884 4.32727L28.7782 4.20779L28.7624 3.9653L28.9526 3.888L29.0705 3.70174L29.0301 3.33096L28.8628 3.26065L28.6868 3.30456L28.7519 3.05681L28.4509 2.93027L28.6357 2.77213L28.516 2.6825L28.5389 2.53491L28.4386 2.49273L28.2432 2.4892L28.4087 2.28363L28.3559 2.22213L28.1129 2.23792L28.289 2.194L28.2978 2.07978L28.0777 1.94798L28.002 2.03408L27.965 2.21507L27.7344 1.9216L27.6534 1.92686L27.502 2.09906L27.3735 2.12364L27.1728 2.03928L26.9914 2.00236L26.8383 1.89868L26.5847 1.7528L26.5175 1.72965L26.4844 1.71062L26.0689 1.57529L25.7115 1.58228L25.7168 1.66312L25.8981 1.70003L26.3136 1.83536L26.414 1.87753L26.6816 1.99002L26.8488 2.06033L26.9069 2.20266L27.0073 2.24483L26.9034 2.39768L26.9756 2.50663L26.9861 2.66831L26.8435 2.72627L26.7784 2.97402L26.4685 2.96169L26.2308 3.05832L26.1269 3.21117L26.1656 3.30607L26.3329 3.37638L26.3626 3.3643L26.4808 3.39923L26.5529 3.50818L26.5441 3.62239L26.4772 3.59428L26.5114 3.61987L26.4297 3.6136L26.2431 3.49585L26.1339 3.56789L26.0494 3.76821L26.1075 3.91056L25.9613 4.16357L26.0335 4.27252L26.0247 4.38674L25.9103 4.37794L25.1656 4.18282L25.0846 4.18809L25.1092 4.31636L25.53 4.53253L25.7113 4.56944L26.074 4.64328L25.9894 4.84359L26.0282 4.93849L26.1338 5.06149L26.1109 5.20909L26.0933 5.43751L25.9647 5.4621L25.8415 5.56752L25.4823 5.67204L25.1707 5.75724L25.0905 5.78504L24.3713 5.97154L24.0764 6.06376L23.8291 6.13665L23.8019 6.14961L23.7815 6.15597L23.2868 6.30177L22.9765 6.41103L22.9681 6.40365L22.778 6.48096L22.5467 6.71474L22.3481 6.81128L22.0895 6.89911L21.6423 7.02558L21.3043 7.08001L20.9434 7.28206L20.5243 7.34177L19.8253 7.59825L19.3781 7.72472L19.1739 7.8354L18.8024 7.87578L18.4028 7.98293L17.7566 8.30092L17.3569 8.40807L17.2196 8.54687L17.1527 8.51875L17.0963 8.65229L17.2636 8.7226L17.3129 8.97914L17.223 9.09862L17.1561 9.0705L16.9185 9.16713L16.5857 9.30239L16.4959 9.42187L16.5346 9.51676L16.7635 9.53435L17.1156 9.44652L17.1911 9.4277L17.323 9.43008L17.3713 9.47237L17.4413 9.70134L17.3374 9.85421L17.2141 9.95963L17.1472 9.93152L17.0046 9.9895L16.7951 10.0193L16.6384 10.1107L16.7247 10.1862L16.8673 10.1282L17.0627 10.1318L17.2669 10.0211L17.524 9.97198L17.6525 9.9474L17.9201 10.0598L17.8972 10.2074L17.9976 10.2496L18.1261 10.225L18.6543 10.0933L18.8445 10.016L19.1015 9.96685L19.5619 9.80257L19.7723 9.77716L19.311 9.937L18.8163 10.0827L18.4835 10.218L17.9888 10.3638L17.656 10.4991L17.5662 10.6186L17.6666 10.6607L17.8761 10.6309L17.8925 10.6122L18.0997 10.5676L18.3479 10.6327L18.4306 10.9033L18.6507 11.0351L18.5609 11.1546L18.494 11.1265L18.1753 11.2284L17.6665 11.4075L17.4288 11.5041L17.2914 11.6429L17.4252 11.6992L17.6429 11.5906L17.8056 11.5446L17.9816 11.5007L18.0068 11.4877L18.3544 11.3894L18.7764 11.3159L18.9049 11.2992L18.9344 11.3116L18.7908 11.3857L18.5791 11.4628L18.2298 11.5657L17.7826 11.6922L17.4305 11.78L17.3548 11.8661L17.4551 11.9083L17.8601 11.882L17.8671 11.8653L18.1506 11.8469L18.1224 11.9137L18.2421 12.0033L18.3847 11.9453L18.9798 11.8417L19.2809 11.9682L19.2052 12.0543L18.758 12.1808L18.7122 12.2271L18.6488 12.2528L18.4252 12.3161L18.1875 12.4127L17.6787 12.5919L17.441 12.6885L17.4938 12.75L17.7984 12.6815L18.2456 12.555L18.4551 12.5252L18.6119 12.4338L18.8517 12.3695L18.8689 12.3847L19.0115 12.3267L19.2686 12.2775L19.0555 12.5024L18.9235 12.722L18.8002 12.8275L18.6523 12.8046L18.6277 12.6763L18.5414 12.6008L18.4939 12.6201L18.4853 12.6754L18.4517 12.7202L18.471 12.7677L18.4792 12.8934L18.3724 13.0014L17.8776 13.1472L17.2403 13.351L16.617 13.5214L16.0888 13.6531L15.6698 13.7128L15.0606 13.8498L14.7842 13.8515L14.5113 13.6582L14.3617 13.3595L14.3336 13.3229L14.2701 13.2031L14.2207 13.1755L14.1839 13.1275L14.0738 13.0937L13.9832 13.0432L13.8353 13.0203L13.6258 13.0502L13.4409 13.2083L13.2261 13.1573L13.0501 13.2013L12.881 13.6019L12.6539 13.8602L12.5869 13.8321L12.5682 13.8766L12.4919 13.8707L12.388 14.0236L12.6133 14.2362L12.6045 14.3504L12.5147 14.4699L12.3862 14.4945L12.2436 14.5525L12.5446 14.679L12.7542 14.6492L13.5922 14.5297L14.0253 14.4366L14.4919 14.3576L15.0817 14.1732L15.9726 14.1152L16.5201 14.0309L17.154 14.0222L16.9163 14.1188L16.4691 14.2453L14.7595 14.4701L14.1926 14.5069L13.726 14.586L12.9742 14.781L12.628 14.8756L12.6221 14.8688L12.351 14.9514L12.0517 15.1007L12.0622 15.2623L11.9583 15.4152L11.8738 15.6155L11.9037 15.8246L12.2716 15.9793L12.5146 15.9635L12.5956 15.9582L12.9477 15.8704L13.0762 15.8458L13.3333 15.7966L13.534 15.881L13.4776 16.0145L13.4107 15.9864L13.1395 16.069L13.0022 16.2078L13.1695 16.2781L13.0938 16.3642L12.8508 16.38L12.6078 16.3958L12.6836 16.3097L12.8068 16.2043L12.7065 16.1621L12.4688 16.2587L11.974 16.4045L11.4511 16.6171L11.3472 16.7699L11.4053 16.9123L11.6923 17.0722L11.9881 17.1179L11.9264 17.1707L11.6553 17.2532L11.2222 17.3463L10.5795 17.4693L9.97034 17.6063L9.28018 17.7485L9.16282 17.7778L8.97561 17.817L8.94765 17.8315L8.75201 17.8803L8.33298 17.94L7.93331 18.0471L7.69563 18.1437L7.74845 18.2053L8.08649 18.1508L8.43861 18.063L8.91927 17.9506L9.14815 17.9682L8.93922 18.09L8.64461 18.2282L8.18332 18.388L7.68857 18.5338L7.35581 18.6691L7.47552 18.7587L7.60404 18.7341L7.75722 18.6885L7.82764 18.6709L8.43011 18.4956L8.68096 18.4531L8.83754 18.4429L8.83999 18.4806L8.80258 18.5304L8.68506 18.5989L8.31885 18.7201L7.98609 18.8554L7.67219 18.9593L7.44381 19.0205L7.33541 19.0732L7.20613 19.1171L7.16998 19.1537L7.09696 19.1892L7.09376 19.2307L7.06879 19.2559L7.09056 19.2722L7.08815 19.3034L7.14859 19.3157L7.1885 19.3455L7.24358 19.335L7.2695 19.3403L7.3813 19.3086L7.44557 19.2963L8.02129 19.1453L8.5354 19.0469L8.76427 19.0645L8.7361 19.1313L8.66919 19.1032L8.30299 19.2244L7.71843 19.4897L7.60046 19.6759L7.76772 19.7462L8.02476 19.6971L8.49659 19.6989L8.42087 19.785L8.19727 19.8482L7.73599 20.0081L7.64618 20.1275L7.86097 20.1785L8.40325 20.0134L8.56524 20.0029L8.46662 20.2366L8.42437 20.3367L8.422 20.4667L8.40077 20.5474L8.12678 20.7619L7.60386 20.9745L6.98059 21.1449L6.33796 21.2678L6.21471 21.3732L6.28162 21.4013L6.49113 21.3715L6.7503 21.3547L6.94888 21.4067L6.77808 21.5314L6.16008 21.7826L6.02275 21.9214L6.15655 21.9777L6.41359 21.9285L6.64834 21.87L6.89425 21.8161L7.53688 21.6932L7.81331 21.6914L7.64251 21.8162L7.05268 22.0006L6.65707 22.1125L6.65301 22.1078L6.60548 22.1271L6.17237 22.2202L6.09664 22.3063L6.27799 22.3432L6.82554 22.2589L7.64424 22.092L7.56852 22.1781L7.42592 22.2361L7.37839 22.2555L6.60724 22.403L6.17412 22.4961L5.80792 22.6173L5.80472 22.6216L5.76039 22.6366L5.74806 22.6969L5.71813 22.7368L5.73012 22.7847L5.72341 22.8176L5.74452 22.8422L5.76212 22.9125L5.93466 23.0636L6.25861 23.0426L6.72517 22.9635L7.35371 22.874L7.92943 22.7229L8.51926 22.5385L9.19534 22.4296L9.5862 22.4367L9.51048 22.5227L9.15836 22.6106L8.39248 22.8389L7.60724 23.0199L7.53963 23.0308L7.52625 23.0251L7.49456 23.038L7.2692 23.0743L6.93117 23.1288L6.70757 23.192L6.58432 23.2974L6.65123 23.3255L7.1037 23.2799L7.65125 23.1956L7.86077 23.1657L7.91549 23.1527L7.98929 23.1412L8.27121 23.068L8.51748 23.0094L8.86291 22.9188L9.35025 22.8092L9.85027 22.7442L10.1936 22.7706L9.76047 22.8637L9.13719 23.0341L8.68999 23.1606L8.39656 23.2338L7.90476 23.3415L7.491 23.482L7.11596 23.7174L6.41697 23.9739L5.95997 24.1388L5.95568 24.1338L5.81308 24.1918L5.72327 24.3112L5.76199 24.4061L6.0296 24.5186L5.9398 24.6381L5.60703 24.7734L5.51195 24.812L5.51655 24.8174L5.26018 24.942L5.06295 25.4094L5.10167 25.5043L5.12756 25.5198L5.15449 25.5658L5.2484 25.5922L5.32175 25.6361L5.55063 25.6537L5.8913 25.6397L6.26895 25.6353L6.48023 25.6907L6.40451 25.7768L6.2619 25.8348L5.76715 25.9805L5.71079 26.1141L5.81114 26.1563L6.31116 26.0913L6.64393 25.956L6.69145 25.9367L6.82879 25.7979L6.8957 25.826L7.24782 25.7382L7.59467 25.5695L8.00842 25.429L8.58942 25.3588L8.95736 25.5134L9.05771 25.5556L9.09336 25.5411L9.1387 25.5503L9.51018 25.5099L10.3007 25.4099L11.005 25.2342L11.4715 25.1552L12.1423 24.9655L12.6371 24.8197L12.9121 24.8472L12.9328 24.8654L13.1283 24.8689L13.1705 24.7688L13.1987 24.702L13.3748 24.6581L13.7367 24.6065L14.2322 24.5861L14.984 24.3911L15.5403 24.1926L15.9875 24.0661L16.5105 23.8536L17.0721 23.7359L17.5862 23.6375L17.9524 23.5163L18.2905 23.4619L18.2147 23.548L17.639 23.699L17.4629 23.7429L17.3774 23.7856L16.9066 23.9414L16.3977 24.1206L16.0315 24.2418L15.6037 24.4157L14.9998 24.6336L14.4434 24.8321L13.7444 25.0886L12.9257 25.2554L12.1211 25.3889L11.6985 25.4647L11.4378 25.493L11.3323 25.5296L11.2689 25.5417L10.2355 25.6576L9.65446 25.7278L8.34103 26.0405L7.88856 26.0861L7.38853 26.1511L6.57864 26.2037L6.43603 26.2617L6.44131 26.3425L6.60857 26.4128L7.04696 26.4006L7.33393 26.5605L7.31103 26.7081L7.08655 26.8201L6.83284 26.908L6.67633 26.9523L6.2265 27.0384L5.55042 27.1472L4.84089 27.2421L4.23697 27.4599L4.15244 27.6602L4.37777 27.8729L4.29358 27.9849L4.18645 28.0152L3.67881 28.1293L3.55864 28.1575L3.37421 28.1979L2.90765 28.2769L2.40236 28.261L2.22628 28.3049L2.08014 28.558L2.03261 28.5773L1.91464 28.7635L1.94454 28.9727L2.04136 29.2099L2.32305 29.289L2.77025 29.1625L3.11356 29.1889L3.23327 29.2785L3.07302 29.5649L3.09238 29.6124L3.35116 29.8391L3.32299 29.9059L2.87051 29.9515L2.59936 30.0341L2.49547 30.1869L2.53419 30.2818L2.73489 30.3662L3.03949 30.2977L3.58704 30.2134L4.0677 30.101L4.62407 29.9025L5.30541 29.8744L5.38593 29.862L5.38641 29.8692L5.85297 29.7901L5.86919 29.7762L5.90052 29.7708L6.08186 29.8077L6.10649 29.936L6.28076 30.363L6.29658 30.6055L6.35468 30.7478L6.50783 30.8515L6.63635 30.8269L6.7596 30.7215L7.02722 30.834L7.16982 30.776L7.44625 30.7743L7.61177 30.5687L7.84945 30.4721L7.83891 30.3104L7.97978 29.9765L7.93579 29.8008L7.83898 29.5636L8.0045 29.358L8.07141 29.3861L8.53797 29.3071L9.27568 29.1455L9.74224 29.0665L10.3514 28.9294L10.3541 28.9288L10.3777 28.9387L10.3495 29.0055L10.2351 28.9967L9.75443 29.1091L9.63118 29.2146L9.7368 29.3376L10.0238 29.4975L10.2526 29.5151L10.471 29.371L10.6805 29.3412L10.3583 29.6381L9.80017 29.5607L9.37587 29.5396L9.10472 29.6222L8.96739 29.761L9.10118 29.8172L9.52021 29.7575L9.89699 29.798L10.3213 29.8191L10.2278 29.899L10.092 29.9203L9.88818 29.9122L9.65049 30.0088L9.28956 30.2109L9.31419 30.3391L9.6346 30.5131L9.72968 30.4745L9.92511 30.478L9.88813 30.659L9.97967 30.8154L10.4726 31.1405L10.4319 31.2371L10.4208 31.2384L10.3989 31.2409L10.1539 31.2424L10.002 31.2854L9.90409 31.2963L9.89881 31.3088L9.85728 31.3174L9.85656 31.3157L9.16638 31.4579L9.16417 31.4865L9.10474 31.5106L9.11002 31.5915L9.28255 31.7426L9.65049 31.8973L9.76493 31.906L10.0836 31.8042L10.1758 31.8429L10.0729 31.9944L10.2119 32.1315L10.2889 32.1517L10.4058 32.254L10.3494 32.3876L10.2209 32.4122L9.7684 32.4578L9.69083 32.4657L9.6874 32.4631L9.31597 32.5037L8.73497 32.574L8.26842 32.653L8.15925 32.725L8.11173 32.7443L8.09972 32.7643L8.05009 32.797L8.02681 32.8855L7.97964 32.964L7.99084 33.0223L7.98492 33.0448L7.99812 33.0602L8.00427 33.0923L8.04829 33.1186L8.14334 33.2293L8.4972 33.4174L8.34578 33.5896L8.12218 33.6528L7.79823 33.6739L7.71724 33.6792L7.63624 33.6844L7.39856 33.781L7.20133 34.2485L6.98654 34.1975L6.74885 34.2941L6.52171 34.5524L6.27876 34.5681L6.46718 34.215L6.34747 34.1253L5.85445 34.547L5.5943 34.5486L5.35797 34.4169L5.31044 34.4363L5.30663 34.4609L5.25527 34.5048L5.03931 34.5188L4.76643 34.3255L4.72205 34.3187L4.66607 34.2833L4.61855 34.3026L4.55337 34.5504L4.27695 34.5521L4.03573 34.8438L3.95119 35.0441L3.97547 35.2666L3.97402 35.6433L4.07965 35.7663L4.14302 35.9895L4.268 36.16L4.53561 36.2724L4.74513 36.2426L4.76055 36.2294L4.9212 36.1987L5.31206 36.2057L5.50749 36.2093L5.58202 36.1882L5.63601 36.1847L5.65657 36.1671L5.73109 36.146L6.01279 36.2252L6.58497 36.2692L7.29978 36.2552L7.58148 36.3343L7.4986 36.4446L7.4414 36.4588L7.0392 36.4994L6.87722 36.5099L6.29622 36.5802L6.26542 36.6065L6.20114 36.6188L6.17297 36.6856L6.08871 36.8186L5.72577 36.8121L5.46873 36.8613L5.44584 37.0089L5.83316 37.211L5.87715 37.3867L5.92995 37.4482L5.96867 37.5431L6.16937 37.6275L6.87079 37.6079L6.88418 37.6135L7.04617 37.603L7.38948 37.6293L7.23806 37.8015L7.22639 37.8587L7.1958 37.9017L7.21428 37.9179L7.1641 38.1635L7.20809 38.3392L7.21771 38.3524L7.22747 38.3867L7.26168 38.4123L7.33309 38.5097L8.53729 39.0159L8.85243 39.109L8.7908 39.1618L8.11472 39.2707L7.18158 39.4287L6.81538 39.5499L6.68158 39.4937L6.5337 39.4708L6.38756 39.7239L6.18158 39.5587L6.17917 39.5742L6.17142 39.5689L6.18158 39.5587L6.11467 39.5305L5.95798 39.6219L5.70975 39.5569L5.56715 39.6148L5.26609 39.4883L5.21856 39.5076L5.08123 39.6464L4.92454 39.7378L4.74319 39.7009L4.78017 39.5199L4.69391 39.4443L4.53721 39.5357L4.35587 39.4988L4.2379 39.685L4.1569 39.6903L3.83649 39.5163L3.74141 39.5549L3.68505 39.6885L3.60933 39.7746L3.40862 39.6902L3.24664 39.7007L3.08111 39.9063L2.94732 39.85L2.79944 39.8272L2.68146 40.0134L2.47722 40.1241L2.4385 40.0292L2.33815 39.9871L2.2959 40.0872L2.22018 40.1733L2.01947 40.089L1.91031 40.161L1.85922 40.3754L1.71134 40.3525L1.567 40.1346L1.41385 40.0309L1.39095 40.1785L1.26417 40.479L1.06346 40.3946L0.987741 40.4807L1.07928 40.6371L1.04356 40.8119L0.702506 40.5967L0.713053 40.7583L0.885587 40.9095L0.809867 40.9956L0.52817 40.9165L0.5 40.9832L0.820413 41.1572L0.792244 41.224L0.793753 41.2471L0.727093 41.4718L0.765809 41.5667L0.938343 41.7178L0.954163 41.9603L1.14606 42.1589L1.20943 42.382L1.41013 42.4664L1.49112 42.4611L1.69183 42.5455L1.79391 42.8636L1.94179 42.8864L2.17247 42.4331L2.51578 42.4595L2.58976 42.0975L2.73237 42.0395L2.97533 42.0237L3.37674 42.1925L3.50526 42.1679L3.71477 42.138L4.29577 42.0678L4.70599 42.1223L4.9692 42.1052L4.98241 42.1206L5.38735 42.0943L5.39204 42.0832L5.55883 42.0799L5.66376 42.0926L5.89835 42.0733L5.98771 42.0715L6.49789 42.0239L6.60217 42.0153L6.6076 42.0137L7.13563 41.9644L7.55994 41.9855L7.69727 41.8467L7.90679 41.8169L8.02476 41.6306L8.25363 41.6482L8.4737 41.78L8.74131 41.8925L9.03709 41.9382L9.48366 41.978L9.64274 41.9963L9.73849 42.0006L9.98605 42.0227L10.3769 42.0297L10.4007 42.02L10.5389 42.0192L11.391 41.8664L12.2485 41.7944L12.3068 41.7628L12.4721 41.7312L13.12 41.6891L13.4879 41.8437L13.5407 41.9052L13.5126 41.972L13.4316 41.9773L13.3589 41.986L13.3506 41.9825L13.2696 41.9878L13.1411 42.0124L12.8505 42.0475L12.56 42.0826L12.1076 42.1283L11.9788 42.1559L11.979 42.1528L11.891 42.1748L11.6745 42.2213L11.0459 42.3109L10.317 42.3583L10.236 42.3635L9.75853 42.3751L9.24816 42.3832L9.24478 42.3792L9.16379 42.3845L8.5916 42.3405L8.46835 42.4459L8.8504 42.5672L8.92259 42.6762L9.12329 42.7605L9.25409 42.7706L9.27119 42.7834L9.77649 42.7992L9.78063 42.7894L9.84304 42.7899L9.85748 42.794L9.95191 42.7908L10.1339 42.7922L10.7677 42.7835L11.1586 42.7905L11.7795 42.7764L12.7836 42.7661L12.8457 42.7607L12.8646 42.7608L12.8653 42.7591L13.56 42.6994L13.884 42.6783L14.1269 42.6626L14.2079 42.6573L14.2889 42.652L14.3036 42.6354L14.4102 42.619L14.4174 42.6274L14.6745 42.5783L15.5988 42.5344L15.6128 42.5325L15.6798 42.5292L15.7036 42.5195L16.2274 42.4449L16.6798 42.3992L17.1235 42.4678L17.544 42.6446L17.2324 42.7477L17.2043 42.8145L17.1374 42.7863L16.6761 42.9462L16.1479 43.0779L16.1197 43.1447L16.0528 43.1166L16.0562 43.1686L15.9984 43.1741L15.8082 43.2514L15.4885 43.3371L15.0511 43.3655L14.7518 43.5148L14.4868 43.4428L14.4032 43.4076L14.2219 43.3707L14.0458 43.4146L14.0176 43.4814L13.9507 43.4533L13.7746 43.4972L13.4841 43.5323L13.3415 43.5903L13.1954 43.8433L13.2869 43.9997L13.4348 44.0226L13.4649 44.0134L13.5158 44.0173L13.9436 43.8434L14.2535 43.8557L14.544 43.8206L14.7817 43.7239L14.9045 43.7617L14.6037 43.8439L14.1565 43.9704L13.8044 44.0582L13.3431 44.2181L13.1582 44.3762L12.9346 44.4395L12.5422 44.5467L12.535 44.5466L12.3114 44.6099L11.7585 44.6133L11.4064 44.7012L10.9117 44.8469L10.4028 45.0261L9.90807 45.1719L9.44679 45.3318L9.08058 45.453L8.41506 45.7235L7.7777 45.9273L7.27461 46.1132L7.26887 46.1065L7.03118 46.2031L6.53643 46.3489L6.33219 46.4596L6.3454 46.475L6.3181 46.493L6.36153 46.4938L6.38501 46.5211L6.51353 46.4965L6.77058 46.4474L6.98262 46.3849L7.17025 46.3402L7.33816 46.2961L7.3463 46.2963L7.52237 46.2524L7.52798 46.2476L7.74597 46.1892L8.32169 46.0381L8.84988 45.9064L9.02596 45.8625L9.10267 45.8273L9.28805 45.7693L9.29711 45.7799L9.43971 45.7219L10.0771 45.5181L10.208 45.4824L10.0948 45.6846L10.0937 45.6943L10.0807 45.7179L10.0843 45.7718L10.0765 45.8361L10.0578 45.8655L9.95556 45.8994L9.60871 46.0681L9.47138 46.2069L9.57173 46.249L9.70025 46.2244L9.78827 46.2025L10.0048 46.1559L10.1228 46.119L10.2284 46.0927L10.3631 46.0506L10.6881 46.0518L10.8959 46.0267L10.7003 46.0945L10.5272 46.1418L10.5242 46.1384L10.3006 46.2017L10.077 46.2649L9.74429 46.4002L9.66681 46.4593L9.41679 46.6163L9.41366 46.6237L9.06995 46.7849L8.9467 46.8904L8.87979 46.8622L8.74246 47.001L8.87625 47.0573L9.25657 46.9027L9.30409 46.8834L9.42734 46.7779L9.49425 46.8061L9.81293 46.7042L10.2206 46.6414L10.3663 46.7027L10.1422 46.7639L9.76186 46.9185L9.39566 47.0398L8.91499 47.1522L8.31108 47.37L7.67372 47.5738L7.54637 47.5997L7.5452 47.5984L6.85504 47.7406L6.41722 47.8449L6.24585 47.8776L6.21516 47.893L6.19833 47.897L6.14609 47.9274L5.94653 48.027L5.94367 48.0454L5.8849 48.0797L5.78628 48.3134L5.79683 48.475L5.91654 48.5647L6.0257 48.4926L6.12432 48.2589L6.3902 48.0955L6.95183 47.9779L7.58038 47.8883L7.77581 47.8918L7.53812 47.9885L7.17192 48.1097L7.11555 48.2432L7.21591 48.2854L7.37789 48.2749L7.44129 48.2491L7.76055 48.1977L7.76348 48.2011L8.23004 48.122L8.44483 48.173L8.35126 48.2347L7.93599 48.3522L7.7226 48.4273L7.71237 48.4154L7.42713 48.5314L7.11373 48.7141L7.00984 48.867L7.11019 48.9091L7.30035 48.8318L7.92362 48.6614L8.37082 48.535L8.98001 48.398L9.17544 48.4015L9.06274 48.6686L8.99583 48.6405L8.96766 48.7073L8.90075 48.6791L8.67715 48.7424L7.77391 49.1095L7.40771 49.2308L7.33199 49.3169L7.41826 49.3924L7.80384 49.3187L7.91379 49.2863L7.93239 49.2941L8.1648 49.2233L8.26779 49.1992L8.5891 49.1378L8.59077 49.1338L9.00813 49.078L9.06682 49.0634L9.13665 49.0535L9.60871 48.931L9.6173 48.941L9.88845 48.8585L10.5029 48.8023L10.9747 48.8041L11.0944 48.8937L10.8374 48.9429L10.8133 48.957L10.7899 48.9622L10.7852 48.9734L10.524 49.1256L10.0821 49.3329L9.94474 49.4717L10.0785 49.528L10.1736 49.4893L10.6208 49.3629L11.2159 49.2592L11.8867 49.0695L12.3533 48.9905L12.1966 49.0818L11.8304 49.2031L11.8022 49.2698L11.7353 49.2417L11.193 49.4069L10.4553 49.5685L10.1366 49.6703L9.82323 49.8531L9.43764 49.9268L9.02388 50.0674L8.90064 50.1728L9.02035 50.2624L9.22986 50.2326L9.33138 50.2097L9.4869 50.1834L9.7172 50.123L10.4482 49.9586L11.0239 49.8075L11.6331 49.6705L12.561 49.4316L13.1367 49.2806L13.8551 49.0715L14.4308 48.9205L14.959 48.7887L15.6967 48.6271L16.4819 48.4462L17.1245 48.3233L17.7531 48.2337L17.982 48.2513L17.9203 48.304L17.459 48.4639L15.9748 48.9013L15.9466 48.968L15.8797 48.9399L15.1667 49.2298L14.6103 49.4283L14.4871 49.5337L14.554 49.5618L15.0346 49.4494L15.1966 49.4389L15.1684 49.5057L14.9783 49.583L14.517 49.7428L14.1508 49.864L14.1226 49.9308L14.0557 49.9027L13.8039 50.0327L13.6666 50.1715L13.7529 50.2471L13.8339 50.2418L13.8497 50.2354L14.0434 50.212L14.5909 50.1277L15.4096 49.9608L15.8568 49.8344L16.7231 49.6482L17.2988 49.4971L19.4116 48.9701L20.0965 48.7471L20.9627 48.5609L21.7004 48.3993L22.1609 48.2957L22.146 48.3918L22.3273 48.4287L22.3635 48.2519L22.9522 48.1393L23.4329 48.0269L24.4276 47.8161L25.0562 47.7265L26.0897 47.6107L26.0949 47.6915L25.9664 47.7161L25.5333 47.8092L23.4769 48.2026L22.9011 48.3536L22.1828 48.5627L21.3641 48.7295L20.5313 48.9298L19.7795 49.1248L19.2848 49.2705L18.8235 49.4304L18.1192 49.6061L17.4959 49.7765L16.9871 49.9556L16.3779 50.0927L16.0311 50.2613L15.977 50.3228L15.9694 50.314L15.8796 50.4335L15.8127 50.4054L15.7845 50.4722L15.5504 50.3737L15.5786 50.307L15.4448 50.2507L15.355 50.3702L15.3937 50.4651L15.6278 50.5635L15.9324 50.495L16.2845 50.4072L16.9131 50.3176L17.4606 50.2333L17.5944 50.2895L17.524 50.4565L17.1102 50.597L16.6437 50.676L16.2775 50.7973L16.2796 50.7997L16.2299 50.8166L16.1067 50.922L16.2405 50.9782L16.531 50.9431L17.3022 50.7956L18.1068 50.6621L18.1972 50.6181L18.2018 50.6235L18.4536 50.4935L18.6015 50.5163L18.5005 50.6311L18.3823 50.7092L18.2467 50.7504L17.9219 50.8202L17.3743 50.9045L17.0838 50.9397L16.6172 51.0187L16.4412 51.0626L16.3127 51.0872L16.3003 51.0977L16.2651 51.1065L16.251 51.1399L16.1894 51.1926L16.1225 51.1645L15.9323 51.2418L15.882 51.2678L15.8373 51.2804L15.5133 51.3015L15.2756 51.3981L14.8566 51.4578L14.8144 51.558L14.837 51.5843L14.8337 51.6054L14.8596 51.6107L14.8672 51.6195L15.0151 51.6423L15.3531 51.5879L15.8672 51.4895L15.8725 51.5704L15.7299 51.6284L15.5148 51.6917L15.5063 51.6916L15.2351 51.7741L15.1453 51.8936L15.2457 51.9358L15.3601 51.9446L15.8073 51.8181L16.1594 51.7303L16.4359 51.7286L16.3513 51.9289L16.471 52.0185L16.6665 52.022L17.3901 51.8938L17.4152 51.8876L17.5186 51.8692L17.8232 51.8008L18.3052 51.7085L18.8373 51.6374L18.924 51.6188L18.9659 51.6128L19.1261 51.5754L19.2704 51.5443L20.2176 51.3529L21.0839 51.1667L22.0311 50.9752L22.3551 50.9542L22.1702 51.1123L21.4571 51.4022L21.0856 51.4426L20.5381 51.5269L20.3866 51.6991L20.244 51.757L19.8532 51.75L19.3866 51.829L19.0539 51.9643L18.869 52.1224L18.6506 52.2665L18.4153 52.289L18.4077 52.2823L18.1172 52.3174L17.6506 52.3964L17.0555 52.5001L16.6558 52.6072L16.1047 52.8865L15.7385 53.0077L15.2297 53.1869L14.7349 53.3327L14.5976 53.4715L14.7314 53.5278L14.9409 53.4979L15.1504 53.4681L16.0836 53.31L16.8406 53.1959L17.0026 53.1853L17.2764 53.1432L17.4216 53.1256L17.5136 53.1067L17.5502 53.101L18.2403 52.9588L18.978 52.7972L19.1515 52.7522L19.1541 52.7533L19.5062 52.6655L19.6077 52.6426L19.9298 52.5762L20.1187 52.5517L20.1719 52.5558L20.1342 52.5678L19.7016 52.669L19.6136 52.6909L19.3971 52.7375L19.1735 52.8007L18.9974 52.8446L18.8689 52.8692L18.0977 53.0167L18.0695 53.0835L18.0026 53.0554L17.8891 53.0803L17.8741 53.08L17.8015 53.0995L17.2649 53.217L17.1923 53.2365L16.6558 53.354L16.2086 53.4805L15.8283 53.6351L15.705 53.7405L15.8388 53.7967L16.3389 53.7318L16.8917 53.7283L17.2685 53.7688L17.1734 53.8074L17.0695 53.9603L17.2368 54.0306L17.8987 53.9551L18.3512 53.9094L18.5569 53.8701L18.6893 53.855L18.7225 53.8384L18.8653 53.8111L19.2122 53.6424L19.4886 53.6407L19.8125 53.6196L19.8935 53.6144L19.8975 53.6048L20.0019 53.5867L20.0221 53.5898L20.224 53.5512L20.2316 53.5599L20.4076 53.516L20.4358 53.4493L20.6172 53.4862L20.589 53.5529L20.7422 53.6566L20.8156 53.6426L20.8232 53.6513L20.8707 53.632L21.1084 53.5354L21.3901 53.6145L21.6665 53.6128L21.6816 53.5955L21.876 53.5829L21.9042 53.5161L21.9429 53.611L21.8211 53.6384L21.8144 53.6356L21.6383 53.6795L21.5489 53.7048L21.2862 53.7673L20.677 53.9043L20.1154 54.022L19.5255 54.2065L18.7825 54.2872L18.5783 54.3979L18.5554 54.5455L18.7702 54.5965L19.6699 54.4244L20.1223 54.3787L20.5555 54.2856L21.0544 54.1902L21.0414 54.254L20.9745 54.2259L20.6558 54.3278L20.1752 54.4402L19.7755 54.5474L19.1804 54.651L18.3758 54.7845L18.1591 54.8537L18.1522 54.8477L17.7384 54.9882L17.6152 55.0936L17.7824 55.164L18.0729 55.1288L18.4638 55.1359L18.8687 55.1096L19.2878 55.0499L19.9639 54.941L20.2737 54.9533L20.3221 54.9475L20.3547 54.9481L20.4301 54.9344L20.5642 54.9182L20.5998 54.9037L21.3353 54.7707L21.8635 54.6389L22.1065 54.6231L22.0167 54.7426L21.9498 54.7145L21.5026 54.841L20.8459 54.9973L20.3599 55.0289L20.0272 55.1641L19.5324 55.3099L18.6415 55.3678L18.1468 55.5136L17.8704 55.5153L17.6609 55.5452L17.4232 55.6418L17.5763 55.7455L17.9954 55.6858L18.7718 55.6191L19.5341 55.5858L20.1151 55.5155L20.6785 55.4248L21.1627 55.3663L21.3233 55.3355L21.5007 55.3118L22.2578 55.1977L22.962 55.022L23.8952 54.864L24.5378 54.741L25.89 54.5232L26.728 54.4038L27.3707 54.2809L27.8372 54.2019L28.7844 54.0104L29.0943 54.0227L29.0186 54.1088L28.9429 54.1949L28.876 54.1668L28.8143 54.2195L28.2527 54.3372L27.4622 54.4373L26.2527 54.5971L24.8864 54.8482L24.1012 55.0292L23.33 55.1767L22.4251 55.268L22.006 55.3277L21.2965 55.4225L20.5729 55.5507L20.1063 55.6298L19.2348 55.7351L18.6397 55.8387L18.3879 55.9687L18.5552 56.039L18.6362 56.0338L18.6348 56.0304L18.7038 56.0229L18.7172 56.0285L19.2031 55.9969L19.2126 55.9862L19.6891 55.9653L20.4321 55.8846L21.094 55.8091L21.6574 55.7183L21.9796 55.6703L21.9955 55.6639L23.4603 55.428L24.4885 55.2313L25.2122 55.1031L25.9692 54.9889L26.5168 54.9046L26.9358 54.8449L27.1453 54.8151L27.8408 54.7536L28.0221 54.7905L27.7034 54.8924L27.4798 54.9557L26.6136 55.1419L26.2421 55.1822L25.728 55.2806L25.6999 55.3474L25.7668 55.3755L26.1858 55.3158L26.214 55.249L26.3143 55.2912L26.6999 55.2174L27.4429 55.1366L27.7048 55.0993L27.7334 55.1015L28.0714 55.0471L28.2809 55.0172L28.957 54.9084L29.7616 54.7749L29.7869 54.7705L29.8023 54.7937L29.9554 54.8974L29.9836 54.8306L29.9275 54.746L30.3567 54.6712L30.9659 54.5342L31.0947 54.5066L31.0944 54.5097L31.3515 54.4605L31.561 54.4306L31.723 54.4201L32.2021 54.3464L32.3568 54.4114L32.2617 54.45L31.767 54.5958L31.3378 54.6923L31.3339 54.6889L31.009 54.7587L30.5627 54.8364L29.663 55.0086L28.9869 55.1174L28.7842 55.1523L28.7774 55.1473L27.9253 55.3001L27.3971 55.4318L26.9974 55.539L27.0502 55.6005L27.3883 55.546L27.5978 55.5162L27.6964 55.4862L28.1479 55.3916L28.3736 55.3575L28.707 55.3142L28.7169 55.3057L28.8358 55.2878L28.8355 55.2896L28.8784 55.2814L29.3831 55.2053L29.4688 55.1889L29.7211 55.1509L29.7258 55.1397L30.0257 55.0824L30.7351 54.9861L30.7352 54.9875L30.9447 54.9577L31.0733 54.9331L31.274 55.0175L31.4835 54.9876L31.9976 54.8893L32.4976 54.8243L32.774 54.8225L32.9976 54.7593L33.2072 54.7295L33.4977 54.6943L33.7974 54.614L33.9171 54.5871L34.1737 54.5855L33.9889 54.7436L33.98 54.8578L34.1473 54.9281L34.2758 54.9035L34.5646 54.5925L34.7741 54.5627L34.7653 54.6769L34.885 54.7665L34.966 54.7613L35.2319 54.5979L35.4361 54.4872L35.6685 54.3097L35.9308 54.3414L36.0541 54.2359L36.297 54.2201L36.4872 54.1428L36.8446 54.1358L37.1386 53.9057L37.3922 54.0515L37.364 54.1183L37.4503 54.1939L37.526 54.1078L37.4538 53.9988L37.5295 53.9127L37.7531 53.8495L38.3007 53.7652L38.7813 53.6528L38.9486 53.7231L39.0243 53.637L39.2197 53.6405L39.6863 53.5615L39.7109 53.6898L39.6546 53.8233L39.5841 53.9902L39.4979 53.9147L39.4538 53.7389L39.3059 53.7161L39.1798 53.8596L38.9679 53.7705L38.8253 53.8285L38.7778 53.8478L38.7704 53.8725L38.7161 53.9006L38.5894 54.201L38.3358 54.0552L38.1545 54.0183L38.07 54.2186L37.8165 54.0727L37.7883 54.1395L37.8464 54.2818L37.8851 54.3767L37.7942 54.5105L37.7196 54.5823L37.7085 54.6366L37.6773 54.6824L37.6879 54.8441L37.7847 55.0813L37.9519 55.1517L38.3516 55.0445L38.3619 55.0357L38.3992 55.0252L38.4749 54.9391L38.5981 54.8336L38.6968 54.5999L38.7777 54.5947L38.7355 54.6948L38.8411 54.8178L39.0365 54.8214L39.0594 54.6738L39.2109 54.5016L39.2285 54.2732L39.4908 54.3048L39.4627 54.3716L39.3024 54.658L39.5366 54.7564L39.5841 54.7371L39.6921 54.7301L39.813 54.7547L39.8109 54.7223L39.8433 54.7202L39.8605 54.7353L39.9081 54.716L40.0454 54.5772L40.1598 54.586L40.1804 54.5685L40.2074 54.5667L40.2292 54.5267L40.4063 54.3752L40.5155 54.3031L40.5241 54.2478L40.5578 54.203L40.519 54.1081L40.4603 54.1227L40.438 54.1134L40.4134 54.1345L40.3429 54.152L40.1282 54.1011L40.1511 53.9534L40.0454 53.8304L40.1247 53.5493L40.2726 53.5721L40.2691 53.7672L40.4504 53.8041L40.6458 53.8076L40.5419 53.9605L40.6282 54.036L40.6335 54.1169L40.7866 54.2206L40.9151 54.196L40.9655 54.17L41.0102 54.1574L41.041 54.131L41.1669 54.066L41.1781 54.0707L41.1722 54.1468L41.269 54.384L41.4222 54.4877L41.6405 54.3436L41.6567 54.289L41.6687 54.2769L41.6638 54.265L41.7339 54.0291L41.8483 54.0379L42.0683 54.1697L42.2004 53.9501L42.3729 54.1012L42.6599 54.2611L42.8131 54.3648L42.9363 54.2594L43.1036 54.3297L43.2127 54.2577L43.2497 54.0767L43.0825 54.0064L42.9927 54.1259L42.5913 53.9571L42.5077 53.8597L42.5367 53.6197L42.5068 53.4106L42.6072 53.4528L42.7885 53.4897L42.8731 53.2894L42.8009 53.1805L42.6336 53.1101L42.5861 53.1295L42.5156 53.2964L42.3959 53.2068L42.3572 53.1119L42.3555 52.836L42.5896 52.9344L42.6706 52.9292L42.8625 53.1277L43.0298 53.198L43.2006 53.0733L43.3907 52.996L43.4805 52.9832L43.5052 53.0048L43.6002 52.9662L43.8009 53.0505L43.8485 53.0312L43.8513 53.0173L43.9101 52.9785L43.9229 52.9614L43.9576 52.9592L43.9999 52.859L44.0527 52.9205L44.1724 53.0102L44.2675 52.9715L44.315 52.9522L44.3864 52.8335L44.5104 52.9558L44.583 52.9705L44.6443 53.012L44.6918 52.9927L44.7744 52.8497L44.9436 52.8627L44.9207 53.0103L45.021 53.0525L45.0774 52.9189L45.3309 53.0648L45.4735 53.0068L45.5932 53.0964L45.6314 53.1065L45.6601 53.1246L45.676 53.1181L45.8415 53.1615L45.8468 53.2423L45.8591 53.2531L45.8661 53.2898L46.0668 53.3741L46.1777 53.578L46.3168 53.715L46.2464 53.882L46.3802 53.9382L46.4752 53.8996L46.5457 53.7326L46.4929 53.6711L46.5686 53.585L46.683 53.5938L46.6126 53.7607L46.8326 53.8926L46.8943 53.8399L46.9946 53.882L47.0334 53.9769L47.1865 54.0806L47.3485 54.0701L47.3767 54.0033L47.3238 53.9418L47.551 53.6835L47.7887 53.5869L48.0175 53.6045L48.1126 53.5658L48.1831 53.3989L48.2007 53.1705L48.0528 53.1476L48.1567 52.9947L48.2606 52.8419L48.4085 52.8647L48.4507 52.7646L48.2976 52.6609L48.3821 52.4606L48.6057 52.3973L48.5617 52.2216L48.3416 52.0898L48.3504 51.9756L48.4684 51.7893L48.4156 51.7278L48.4579 51.6277L48.5565 51.394L48.7519 51.3975L48.8135 51.3448L49.0565 51.329L49.104 51.3097L49.4368 51.1744L49.9174 51.062L50.4456 50.9303L50.708 50.9619L50.7696 50.9092L50.8453 50.8231L51.1693 50.802L51.34 50.6773L51.6024 50.7089L51.6886 50.7845L51.59 51.0182L51.37 50.8864L51.2414 50.911L51.1657 50.9971L50.9985 50.9268L50.9421 51.0603L51.0566 51.0691L51.0847 51.0023L51.2044 51.092L51.1481 51.2255L51.2678 51.3151L51.3242 51.1816L51.3964 51.2905L51.4633 51.3187L51.5495 51.3942L51.2837 51.5576L50.9879 51.5119L50.9791 51.6261L51.2326 51.772L51.2238 51.8862L51.016 52.1919L51.2361 52.3237L51.1603 52.4098L51.0459 52.401L50.7748 52.4836L50.5741 52.3992L50.4649 52.4713L50.2976 52.401L50.1938 52.5538L49.9737 52.422L49.8117 52.4326L49.8628 52.2182L49.81 52.1567L49.5512 51.93L49.6833 51.7103L49.5442 51.5733L49.4544 51.6928L49.3118 51.7507L49.2219 51.8702L49.2378 52.1127L49.0476 52.19L48.9296 52.3763L48.9701 52.747L49.1374 52.8174L49.3134 52.7734L49.2482 53.0212L49.5493 53.1477L49.3644 53.3059L49.4841 53.3955L49.4612 53.5431L49.5616 53.5853L49.757 53.5888L49.5915 53.7944L49.6443 53.8559L49.8873 53.8401L49.7112 53.884L49.7024 53.9982L49.9225 54.13L49.9982 54.0439L50.0351 53.863L50.2658 54.1564L50.3468 54.1512L50.4982 53.979L50.6267 53.9544L50.8274 54.0388L51.0087 54.0757L51.1619 54.1793L51.4154 54.3252L51.4827 54.3484L51.5158 54.3674L51.9312 54.5027L52.2886 54.4957L52.2834 54.4149L52.102 54.378L51.6865 54.2427L51.5862 54.2005L51.3186 54.088L51.1513 54.0177L51.0932 53.8754L50.9929 53.8332L51.0968 53.6803L51.0246 53.5714L51.014 53.4097L51.1566 53.3517L51.2218 53.104L51.5317 53.1163L51.7694 53.0197L51.8733 52.8668L51.8345 52.7719L51.6673 52.7016L51.6376 52.7137L51.5194 52.6788L51.4472 52.5698L51.456 52.4556L51.5229 52.4837L51.4887 52.4581L51.5704 52.4644L51.7571 52.5822L51.8662 52.5101L51.9508 52.3098L51.8927 52.1675L52.0388 51.9145L51.9666 51.8055L51.9755 51.6913L52.0899 51.7001L52.8346 51.8952L52.9156 51.8899L52.891 51.7617L52.4702 51.5455L52.2889 51.5086L51.9262 51.4347L52.0107 51.2344L51.972 51.1395L51.8664 51.0165L51.8893 50.8689L51.9069 50.6405L52.0354 50.6159L52.1587 50.5105L52.5178 50.406L52.8295 50.3208L52.9097 50.293L53.6288 50.1065L53.9237 50.0143L54.1711 49.9414L54.1983 49.9284L54.2186 49.922L54.7134 49.7763L55.0236 49.667L55.0321 49.6744L55.2222 49.5971L55.4535 49.3633L55.6521 49.2667L55.9107 49.1789L56.3579 49.0524L56.6959 48.998L57.0568 48.796L57.4759 48.7363L58.1748 48.4798L58.622 48.3533L58.8263 48.2426L59.1978 48.2022L59.5974 48.0951L60.2436 47.7771L60.6433 47.67L60.7806 47.5312L60.8475 47.5593L60.9039 47.4257L60.7366 47.3554L60.6873 47.0989L60.7771 46.9794L60.8441 47.0075L61.0817 46.9109L61.4145 46.7756L61.5043 46.6561L61.4656 46.5613L61.2367 46.5437L60.8846 46.6315L60.8091 46.6503L60.6772 46.6479L60.6289 46.6057L60.5589 46.3767L60.6628 46.2238L60.786 46.1184L60.853 46.1465L60.9956 46.0885L61.2051 46.0587L61.3618 45.9673L61.2755 45.8918L61.1329 45.9497L60.9375 45.9462L60.7332 46.0569L60.4762 46.1061L60.3477 46.1307L60.0801 46.0182L60.103 45.8706L60.0026 45.8284L59.8741 45.853L59.3459 45.9847L59.1557 46.062L58.8987 46.1112L58.4382 46.2755L58.2279 46.3009L58.6892 46.1411L59.1839 45.9953L59.5167 45.86L60.0114 45.7142L60.3442 45.5789L60.434 45.4595L60.3336 45.4173L60.1241 45.4471L60.1077 45.4659L59.9005 45.5104L59.6523 45.4453L59.5696 45.1747L59.3495 45.0429L59.4393 44.9234L59.5062 44.9516L59.8249 44.8497L60.3337 44.6705L60.5714 44.5739L60.7087 44.435L60.575 44.3788L60.3573 44.4874L60.1946 44.5334L60.0186 44.5773L59.9934 44.5903L59.6458 44.6886L59.2238 44.7621L59.0952 44.7788L59.0658 44.7664L59.2093 44.6923L59.4211 44.6152L59.7703 44.5123L60.2175 44.3858L60.5696 44.298L60.6454 44.2119L60.545 44.1697L60.1401 44.196L60.133 44.2127L59.8495 44.2311L59.8777 44.1644L59.758 44.0747L59.6154 44.1327L59.0203 44.2363L58.7192 44.1098L58.795 44.0237L59.2422 43.8972L59.2879 43.851L59.3513 43.8252L59.5749 43.7619L59.8126 43.6653L60.3214 43.4861L60.5591 43.3895L60.5063 43.328L60.2017 43.3965L59.7545 43.523L59.545 43.5528L59.3883 43.6442L59.1485 43.7084L59.1312 43.6933L58.9886 43.7513L58.7316 43.8005L58.9446 43.5756L59.0767 43.356L59.2 43.2506L59.3479 43.2734L59.3725 43.4017L59.4588 43.4773L59.5063 43.4579L59.5149 43.4026L59.5485 43.3578L59.5292 43.3103L59.521 43.1846L59.6278 43.0766L60.1225 42.9308L60.7599 42.7271L61.3832 42.5567L61.9114 42.4249L62.3304 42.3652L62.9396 42.2282L63.216 42.2265L63.4889 42.4198L63.6385 42.7186L63.6666 42.7552L63.73 42.8749L63.7795 42.9025L63.8163 42.9505L63.9264 42.9844L64.017 43.0349L64.1649 43.0577L64.3744 43.0279L64.5593 42.8697L64.7741 42.9207L64.9502 42.8768L65.1192 42.4762L65.3464 42.2179L65.4133 42.246L65.4321 42.2015L65.5083 42.2074L65.6122 42.0545L65.3869 41.8419L65.3957 41.7277L65.4855 41.6082L65.614 41.5836L65.7566 41.5256L65.4556 41.3991L65.2461 41.4289L64.408 41.5483L63.9749 41.6414L63.5083 41.7205L62.9185 41.9049L62.0276 41.9628L61.4801 42.0471L60.8463 42.0558L61.0839 41.9592L61.5311 41.8328L63.2407 41.608L63.8076 41.5712L64.2742 41.4921L65.026 41.2971L65.3722 41.2025L65.3781 41.2093L65.6492 41.1268L65.9486 40.9774L65.938 40.8158L66.0419 40.6629L66.1264 40.4626L66.0965 40.2535L65.7286 40.0988L65.4856 40.1146L65.4046 40.1199L65.0525 40.2077L64.924 40.2323L64.6669 40.2815L64.4662 40.1971L64.5226 40.0636L64.5895 40.0917L64.8606 40.0091L64.9979 39.8703L64.8307 39.8L64.9064 39.7139L65.1494 39.6981L65.3923 39.6823L65.3166 39.7684L65.1934 39.8739L65.2937 39.916L65.5314 39.8194L66.0261 39.6736L66.5491 39.461L66.653 39.3082L66.5949 39.1659L66.3079 39.0059L66.0121 38.9602L66.0737 38.9075L66.3449 38.8249L66.778 38.7318L67.4206 38.6089L68.0298 38.4719L68.72 38.3296L68.8374 38.3003L69.0246 38.2611L69.0525 38.2467L69.2482 38.1979L69.6672 38.1382L70.0669 38.031L70.3045 37.9344L70.2517 37.8729L69.9137 37.9273L69.5616 38.0152L69.0809 38.1276L68.852 38.11L69.061 37.9882L69.3556 37.85L69.8168 37.6901L70.3116 37.5443L70.6444 37.4091L70.5247 37.3194L70.3961 37.344L70.243 37.3897L70.1725 37.4073L69.57 37.5826L69.3192 37.6251L69.1626 37.6353L69.1602 37.5975L69.1976 37.5478L69.3151 37.4793L69.6813 37.3581L70.0141 37.2228L70.328 37.1189L70.5563 37.0577L70.6647 37.005L70.794 36.961L70.8302 36.9245L70.9032 36.889L70.9064 36.8475L70.9314 36.8222L70.9096 36.8059L70.912 36.7748L70.8515 36.7625L70.8116 36.7326L70.7565 36.7432L70.7307 36.7379L70.6189 36.7695L70.5546 36.7818L69.9788 36.9329L69.4647 37.0312L69.2359 37.0136L69.264 36.9469L69.3309 36.975L69.6971 36.8538L70.2817 36.5885L70.3997 36.4022L70.2324 36.3319L69.9754 36.3811L69.5035 36.3793L69.5792 36.2932L69.8028 36.2299L70.2641 36.0701L70.3539 35.9506L70.1391 35.8996L69.5969 36.0647L69.4349 36.0752L69.5335 35.8416L69.5758 35.7414L69.5781 35.6114L69.5994 35.5307L69.8733 35.3162L70.3963 35.1036L71.0195 34.9333L71.6622 34.8103L71.7854 34.7049L71.7185 34.6768L71.509 34.7066L71.2498 34.7235L71.0512 34.6715L71.222 34.5467L71.84 34.2955L71.9774 34.1567L71.8436 34.1005L71.5865 34.1496L71.3518 34.2082L71.1059 34.2621L70.4632 34.385L70.1868 34.3867L70.3576 34.262L70.9474 34.0775L71.343 33.9657L71.3471 33.9704L71.3946 33.9511L71.8277 33.858L71.9035 33.7719L71.7221 33.735L71.1746 33.8193L70.3559 33.9861L70.4316 33.9L70.5742 33.842L70.6217 33.8227L71.3929 33.6752L71.826 33.5821L72.1922 33.4609L72.1954 33.4566L72.2397 33.4416L72.2521 33.3812L72.282 33.3414L72.27 33.2935L72.2767 33.2606L72.2556 33.2359L72.238 33.1657L72.0655 33.0145L71.7415 33.0356L71.275 33.1146L70.6464 33.2042L70.0707 33.3553L69.4808 33.5397L68.8048 33.6486L68.4139 33.6415L68.4896 33.5554L68.8417 33.4676L69.6076 33.2392L70.3929 33.0583L70.4605 33.0474L70.4739 33.0531L70.5055 33.0402L70.7309 33.0039L71.0689 32.9495L71.2925 32.8862L71.4158 32.7808L71.3489 32.7527L70.8964 32.7983L70.3488 32.8826L70.1393 32.9125L70.0846 32.9255L70.0108 32.937L69.7289 33.0102L69.4826 33.0688L69.1372 33.1594L68.6499 33.269L68.1498 33.334L67.8065 33.3076L68.2396 33.2145L68.8629 33.0442L69.3101 32.9177L69.6035 32.8445L70.0953 32.7368L70.5091 32.5962L70.8841 32.3608L71.5831 32.1043L72.0401 31.9395L72.0444 31.9445L72.187 31.8865L72.2768 31.767L72.2381 31.6721L71.9705 31.5597L72.0603 31.4402L72.393 31.3049L72.4881 31.2662L72.4835 31.2609L72.7399 31.1362L72.9371 30.6689L72.8984 30.574L72.8725 30.5585L72.8456 30.5125L72.7517 30.4861L72.6783 30.4422L72.4494 30.4246L72.1088 30.4386L71.7311 30.4429L71.5198 30.3876L71.5956 30.3015L71.7382 30.2435L72.2329 30.0977L72.2892 29.9642L72.1889 29.922L71.6889 29.987L71.3561 30.1222L71.3086 30.1416L71.1712 30.2804L71.1043 30.2522L70.7522 30.3401L70.4054 30.5087L69.9916 30.6492L69.4106 30.7195L69.0427 30.5648L68.9423 30.5227L68.9067 30.5371L68.8613 30.5279L68.4898 30.5683L67.6993 30.6684L66.9951 30.844L66.5285 30.9231L65.8577 31.1128L65.3629 31.2586L65.0879 31.231L65.0672 31.2129L64.8717 31.2094L64.8295 31.3095L64.8013 31.3763L64.6252 31.4202L64.2634 31.4718L63.7678 31.4922L63.016 31.6872L62.4597 31.8857L62.0125 32.0121L61.4895 32.2247L60.9279 32.3424L60.4138 32.4407L60.0476 32.562L59.7096 32.6164L59.7853 32.5303L60.361 32.3792L60.5371 32.3353L60.6226 32.2927L61.0934 32.1368L61.6023 31.9576L61.9685 31.8364L62.3963 31.6625L63.0002 31.4447L63.5566 31.2462L64.2556 30.9897L65.0743 30.8228L65.8789 30.6894L66.3015 30.6136L66.5622 30.5853L66.6677 30.5487L66.731 30.5366L67.7645 30.4207L68.3455 30.3504L69.659 30.0378L70.1114 29.9921L70.6115 29.9272L71.4213 29.8745L71.564 29.8166L71.5587 29.7357L71.3914 29.6654L70.9531 29.6777L70.6661 29.5177L70.689 29.3701L70.9135 29.2581L71.1672 29.1702L71.3237 29.126L71.7735 29.0399L72.4496 28.931L73.1591 28.8362L73.7631 28.6184L73.8476 28.418L73.6223 28.2054L73.7065 28.0934L73.8136 28.0631L74.3213 27.9489L74.4414 27.9208L74.6258 27.8804L75.0924 27.8014L75.5977 27.8172L75.7738 27.7733L75.9199 27.5203L75.9674 27.501L76.0854 27.3147L76.0555 27.1056L75.9587 26.868ZM70.4825 16.2331L70.9402 16.2683L70.898 16.3684L70.7553 16.4264L70.7582 16.4289L70.5317 16.4896L70.4455 16.4141L70.4825 16.2331ZM69.1083 8.03176L69.1753 8.05987L69.1471 8.12665L68.9904 8.21801L68.8707 8.12838L69.1083 8.03176ZM68.3302 7.82258L68.3513 7.84719L68.3495 7.87004L68.1735 7.91395L68.1892 7.92769L68.0784 7.95259L68.0731 7.87175L68.3302 7.82258ZM60.6525 4.83115L60.7951 4.77317L60.8813 4.84874L60.744 4.98754L60.6436 4.94537L60.6525 4.83115ZM58.5006 4.82085L58.5221 4.83975L58.6647 4.78178L59.1929 4.65005L59.205 4.62144L59.2975 4.60063L59.369 4.60614L59.4879 4.55783L59.5506 4.54373L59.5786 4.5763L59.5645 4.60968L59.4835 4.61494L59.4553 4.68172L59.1983 4.73089L59.0363 4.74141L59.0081 4.80819L58.8796 4.83277L58.7352 4.86381L58.7176 4.8433L58.4606 4.89247L58.4571 4.83858L58.5006 4.82085ZM56.992 6.31913L57.0102 6.27622L57.0537 6.26643L57.1065 6.32795L56.9745 6.36088L56.978 6.35253L56.7685 6.38238L56.992 6.31913ZM56.5118 1.95075L56.5646 2.01226L56.4502 2.00347L56.5118 1.95075ZM28.6377 3.79497L28.6905 3.85649L28.5761 3.84769L28.6377 3.79497ZM28.0762 2.41905L28.0146 2.47177L28.0093 2.39094L28.0762 2.41905ZM27.2152 3.43285L27.2821 3.46097L27.2064 3.54707L27.2152 3.43285ZM26.6483 3.46972L26.7856 3.33092L26.9335 3.35377L26.9029 3.33303L26.981 3.33445L27.0585 3.52424L26.9441 3.51544L26.9247 3.46801L26.7108 3.55496L26.6201 3.5365L26.6483 3.46972ZM26.5989 3.95995L26.6518 4.02147L26.562 4.14094L26.4616 4.09877L26.4563 4.01794L26.5989 3.95995ZM8.10046 21.1048L7.34866 21.2998L7.31786 21.3261L7.27139 21.3066L7.58917 21.1965L8.00011 21.0626L8.19554 21.0661L8.10046 21.1048ZM9.36997 19.8696L9.17981 19.9469L8.96502 19.8959L9.02666 19.8432L9.2837 19.794L9.26993 19.778L9.35466 19.7694L9.44566 19.7835L9.72209 19.7818L9.36997 19.8696ZM7.51773 39.845L7.05998 39.8099L7.10224 39.7097L7.24484 39.6517L7.24196 39.6492L7.46844 39.5885L7.55471 39.6641L7.51773 39.845ZM8.89182 48.0464L8.82492 48.0183L8.85309 47.9515L9.0098 47.8601L9.12951 47.9498L8.89182 48.0464ZM9.67001 48.2556L9.64887 48.231L9.65063 48.2081L9.8267 48.1642L9.81101 48.1505L9.92178 48.1256L9.92705 48.2064L9.67001 48.2556ZM17.3477 51.247L17.2051 51.305L17.1188 51.2294L17.2562 51.0906L17.3565 51.1328L17.3477 51.247ZM19.4996 51.2573L19.478 51.2384L19.3354 51.2964L18.8072 51.4281L18.7952 51.4567L18.7027 51.4775L18.6312 51.472L18.5123 51.5203L18.4496 51.5344L18.4216 51.5019L18.4357 51.4685L18.5167 51.4632L18.5449 51.3964L18.8019 51.3473L18.9639 51.3367L18.9921 51.2699L19.1206 51.2454L19.265 51.2143L19.2826 51.2348L19.5396 51.1856L19.5431 51.2395L19.4996 51.2573ZM21.0082 49.759L20.99 49.8019L20.9465 49.8117L20.8937 49.7502L21.0257 49.7173L21.0222 49.7256L21.2317 49.6958L21.0082 49.759ZM21.4884 54.1274L21.4356 54.0659L21.55 54.0747L21.4884 54.1274ZM49.3624 52.2832L49.3096 52.2217L49.424 52.2305L49.3624 52.2832ZM49.9239 53.6591L49.9856 53.6064L49.9908 53.6872L49.9239 53.6591ZM50.785 52.6453L50.7181 52.6172L50.7938 52.5311L50.785 52.6453ZM51.3519 52.6085L51.2146 52.7473L51.0667 52.7244L51.0973 52.7451L51.0191 52.7437L50.9417 52.5539L51.0561 52.5627L51.0755 52.6102L51.2894 52.5232L51.38 52.5417L51.3519 52.6085ZM51.4012 52.1182L51.3484 52.0567L51.4382 51.9372L51.5386 51.9794L51.5438 52.0602L51.4012 52.1182ZM69.8997 34.9734L70.6515 34.7784L70.6823 34.752L70.7288 34.7715L70.411 34.8817L70 35.0155L69.8046 35.012L69.8997 34.9734ZM68.6302 36.2085L68.8204 36.1312L69.0351 36.1822L68.9735 36.2349L68.7165 36.2841L68.7302 36.3001L68.6455 36.3087L68.5545 36.2946L68.2781 36.2964L68.6302 36.2085ZM67.9947 27.2786L68.2527 27.3255L68.414 27.2946L68.3511 27.4437L68.2032 27.4209L68.1806 27.4232L68.0888 27.4121L67.9525 27.4352L67.7667 27.3571L67.8193 27.3121L67.9022 27.2943L67.9947 27.2786ZM17.7393 43.0393L17.7676 43.0511L17.7401 43.0506L17.7393 43.0393ZM17.8344 43.0006L17.9013 43.0287L17.8729 43.0531L17.8378 43.0524L17.8344 43.0006ZM18.4154 42.9304L18.4771 42.8777L18.639 42.8671L18.7007 42.8144L18.8307 42.7776L18.801 42.8213L18.639 42.8671L18.614 42.8817L18.4317 42.9372L18.4154 42.9304ZM60.2608 13.0388L60.2326 13.027L60.2601 13.0275L60.2608 13.0388ZM60.1658 13.0775L60.0989 13.0494L60.1273 13.0251L60.1624 13.0257L60.1658 13.0775ZM59.5848 13.1477L59.5231 13.2004L59.3612 13.211L59.2995 13.2637L59.1695 13.3004L59.1991 13.2568L59.3612 13.211L59.3861 13.1964L59.5684 13.1409L59.5848 13.1477ZM65.881 28.3725L65.9022 28.3768L65.8769 28.3823L65.881 28.3725ZM57.9039 44.0815L57.8616 44.1816L57.7947 44.1535L57.9039 44.0815ZM19.0403 44.5295L18.8977 44.5874L18.9153 44.6079L18.8836 44.6208L18.8137 44.6308L18.7691 44.612L18.3977 44.6524L18.4734 44.5663L18.4399 44.5523L18.7888 44.4855L18.8114 44.5119L19.0685 44.4627L19.0403 44.5295ZM20.0963 11.9967L20.1385 11.8965L20.2055 11.9246L20.0963 11.9967ZM58.9599 11.5486L59.1025 11.4907L59.0849 11.4702L59.1166 11.4573L59.1864 11.4473L59.231 11.4661L59.6025 11.4257L59.5268 11.5118L59.5602 11.5259L59.2114 11.5926L59.1888 11.5662L58.9317 11.6154L58.9599 11.5486ZM48.2754 12.1142L48.2429 12.1913L48.1699 12.1453L48.2754 12.1142ZM29.7247 43.9639L29.7573 43.8868L29.8302 43.9329L29.7247 43.9639ZM59.8893 13.0792L59.9369 13.0599L59.9703 13.074L59.7326 13.1706L59.7039 13.1454L59.6798 13.1091L59.8893 13.0792ZM64.1729 11.026L64.2917 11.0611L64.1185 11.1165L64.1729 11.026ZM66.1203 9.95783L66.3048 9.94584L66.2894 9.95207L65.9655 9.97313L66.1203 9.95783ZM45.7147 12.4492L45.7401 12.5615L45.6884 12.5736L45.6419 12.5718L45.5333 12.546L45.5322 12.5473L45.4401 12.5086L45.4132 12.4884L45.7147 12.4492ZM21.2743 10.6051L20.8605 10.7456L20.4608 10.8528L20.4556 10.7719L20.85 10.5839L21.2972 10.4575L21.3641 10.4856L21.2743 10.6051ZM20.6069 11.3465L20.7407 11.4028L20.7037 11.5838L20.1615 11.7489L19.9995 11.7594L19.9713 11.8262L19.9044 11.7981L19.8762 11.8649L19.8093 11.8367L19.6667 11.8947L19.4995 11.8244L19.503 11.6294L19.8076 11.5609L20.2548 11.4344L20.6069 11.3465ZM12.1191 27.7056L12.098 27.7013L12.1233 27.6958L12.1191 27.7056ZM10.6455 28.3047L10.5999 28.3056L10.6598 28.2963L10.6455 28.3047ZM10.4766 28.5699L10.4852 28.5911L10.4214 28.5795L10.4766 28.5699ZM18.1108 42.9989L18.0633 43.0182L18.0299 43.0041L18.2675 42.9075L18.2963 42.9327L18.3204 42.969L18.1108 42.9989ZM13.8272 45.0521L13.7085 45.017L13.8816 44.9617L13.8272 45.0521ZM11.8799 46.1203L11.6954 46.1323L11.7107 46.1261L12.0347 46.105L11.8799 46.1203ZM32.2855 43.6289L32.2601 43.5166L32.3118 43.5045L32.3583 43.5064L32.4669 43.5321L32.468 43.5309L32.5601 43.5695L32.587 43.5897L32.2855 43.6289ZM56.7259 45.473L57.1397 45.3325L57.5393 45.2253L57.5446 45.3062L57.1502 45.4942L56.703 45.6206L56.6361 45.5925L56.7259 45.473ZM57.3933 44.7316L57.2595 44.6754L57.2964 44.4944L57.8387 44.3292L58.0007 44.3187L58.0289 44.2519L58.0958 44.28L58.124 44.2133L58.1909 44.2414L58.3335 44.1834L58.5007 44.2537L58.4972 44.4487L58.1926 44.5173L57.7454 44.6437L57.3933 44.7316ZM67.3547 27.7734L67.4003 27.7725L67.3404 27.7818L67.3547 27.7734ZM67.5236 27.5082L67.515 27.4871L67.5788 27.4986L67.5236 27.5082ZM68.8417 14.5214L68.9227 14.5162L69.0706 14.539L69.2044 14.5953L69.1901 14.6875L69.053 14.7675L68.8329 14.6357L68.8417 14.5214ZM67.618 15.4614L67.6591 15.4263L67.9561 15.407L68.1902 15.5054L68.1004 15.6249L68.0337 15.6362L67.986 15.6161L67.5669 15.6758L67.581 15.6424L67.5476 15.6284L67.5314 15.5888L67.618 15.4614ZM61.3471 12.9845L60.7239 13.1549L60.2626 13.3147L59.8154 13.4412L59.8031 13.4435L59.702 13.4479L59.5618 13.4454L59.5672 13.3761L60.3806 13.1284L60.8753 12.9827L60.8919 12.9765L61.0383 13.0019L61.0494 13.0148L61.1639 13.0236L61.4685 12.9551L61.4756 12.9544L61.3471 12.9845ZM63.2435 11.3839L62.7346 11.5631L62.1114 11.7335L61.6501 11.8933L60.9511 12.1498L60.5461 12.1761L60.4458 12.1339L61.0162 11.902L61.511 11.7562L61.5391 11.6895L61.6061 11.7176L61.7487 11.6596L62.2434 11.5138L62.7682 11.3245L63.0074 11.3615L63.1641 11.2701L63.3595 11.2737L63.5497 11.1964L63.7884 11.222L63.7382 11.2381L63.2435 11.3839ZM66.5438 10.9827L66.2964 11.0555L65.8562 11.1653L65.6206 11.2196L65.0305 11.3489L64.9153 11.3791L64.9019 11.3735L64.8544 11.3928L64.6466 11.4496L64.4547 11.4999L64.4259 11.5099L64.2311 11.5632L63.8495 11.6976L63.4177 11.8108L63.5744 11.7195L63.9354 11.5174L64.3157 11.3629L64.8104 11.2171L65.2677 11.0971L65.2839 11.0999L65.5268 11.0841L65.5923 11.0096L65.6805 10.9856L65.6907 10.9975L65.9768 10.9061L66.0357 10.9049L66.063 10.8739L66.4372 10.7217L66.4397 10.721L66.6642 10.8154L66.7505 10.891L66.746 10.9194L66.5438 10.9827ZM66.0872 7.35144L66.3108 7.28822L66.4446 7.34445L66.4023 7.4446L66.2122 7.52191L66.0643 7.49906L66.0872 7.35144ZM52.8953 7.14551L52.6415 7.20259L51.9654 7.31148L51.5957 7.39793L51.4989 7.39049L51.5297 7.36413L51.9795 7.27808L52.5607 7.15826L52.7733 7.13516L52.9136 7.13428L52.8953 7.14551ZM52.7668 4.38586L52.7949 4.31908L52.8812 4.39465L52.7668 4.38586ZM54.5942 5.46844L54.5273 5.44033L54.3846 5.49831L54.3958 5.51135L53.8899 5.6441L53.3758 5.74246L53.1944 5.70555L53.2367 5.60539L53.3793 5.54741L53.8934 5.44905L54.0686 5.42908L54.0888 5.45261L54.6223 5.40168L54.5942 5.46844ZM53.7333 4.24184L53.795 4.18912L53.8478 4.25064L53.7333 4.24184ZM53.8619 4.21726L54.052 4.13995L54.1189 4.16807L54.0573 4.22077L53.8619 4.21726ZM54.2477 4.18948L54.1524 4.18215L54.214 4.12943L54.2524 4.17416L54.2334 4.17689L54.2477 4.18948ZM56.3479 3.92581L55.4905 3.99778L55.4002 4.01717L55.376 3.98899L54.8619 4.08735L54.3286 4.16332L54.295 4.12419L55.1137 3.95734L55.7898 3.84846L56.3567 3.81162L56.7898 3.71852L56.8426 3.78004L56.3479 3.92581ZM57.1807 3.72556L56.9852 3.72203L57.0469 3.66933L57.5275 3.55692L57.5804 3.61843L57.1807 3.72556ZM57.5944 3.58501L57.656 3.53229L57.7089 3.59381L57.5944 3.58501ZM56.1156 2.60965L56.2019 2.68522L56.1737 2.752L56.1068 2.72388L56.1156 2.60965ZM56.1723 3.04914L56.1948 3.07532L56.3708 3.03139L56.8374 2.95236L56.8482 2.94005L56.885 2.93304L56.9822 2.92672L56.9994 2.94183L57.0708 2.93463L57.0804 2.93659L57.1352 2.92816L57.4519 2.8962L57.966 2.79784L58.4942 2.6661L58.7319 2.56948L58.9414 2.53963L59.0224 2.53437L59.5083 2.50279L59.5752 2.5309L59.128 2.65738L58.533 2.761L57.8569 2.86988L57.4238 2.96297L56.9097 3.06133L56.429 3.17375L56.4458 3.19331L55.9818 3.30022L55.4536 3.43195L54.811 3.55489L54.3303 3.66731L54.1117 3.71148L54.0874 3.6831L53.8303 3.73227L53.3496 3.84468L52.714 3.97572L52.707 3.96762L52.4975 3.99747L52.2892 4.01101L52.2897 4.00449L52.7827 3.88152L53.6014 3.71465L54.1771 3.5636L54.1614 3.54529L54.9764 3.34929L55.5522 3.19824L56.1723 3.04914ZM52.8109 3.06797L52.8778 3.09608L52.9394 3.04336L52.9923 3.10487L52.8778 3.09608L52.8162 3.1488L52.8109 3.06797ZM53.0063 3.0715L53.068 3.01878L53.1208 3.08029L53.0063 3.0715ZM53.1349 3.04691L53.163 2.98014L53.2299 3.00825L53.487 2.95908L54.0486 2.8414L54.0627 2.80803L54.1296 2.83614L54.5152 2.76237L54.607 2.7448L54.6121 2.75065L54.5504 2.76507L54.5152 2.76237L54.4518 2.78812L54.2916 2.82559L54.0385 2.87775L54.0345 2.87476L53.4977 2.98542L53.1349 3.04691ZM54.8114 2.69037L55.0909 2.61131L55.1244 2.62537L55.0962 2.69215L55.0581 2.69757L55.0293 2.66403L54.8365 2.70092L54.8114 2.69037ZM51.3232 2.95362L51.2897 2.93956L51.9324 2.81662L53.1366 2.576L53.6173 2.46359L55.0311 2.19312L55.2099 2.17733L55.2265 2.19665L55.7124 2.16507L55.4888 2.2283L54.7036 2.40922L54.7232 2.43201L54.3849 2.51111L53.4377 2.70256L52.9711 2.7816L52.4515 2.89844L52.4236 2.86588L52.376 2.8852L51.7 2.99408L51.2052 3.13987L50.6524 3.14334L51.3232 2.95362ZM46.3064 12.3224L46.2641 12.4225L46.169 12.4612L45.9403 12.5147L45.9946 12.3861L45.9875 12.3799L46.2395 12.2942L46.3064 12.3224ZM45.5884 8.05067L45.6252 8.04366L45.6553 8.07879L45.9124 8.02962L45.7081 8.1403L45.7257 8.16079L45.6941 8.17368L45.4986 8.17015L45.5884 8.05067ZM45.4173 11.9094L45.5036 11.9849L45.3469 12.0763L45.2551 12.0939L45.2324 12.0675L44.9754 12.1167L44.784 12.1179L44.78 12.1132L44.9497 12.0255L45.0298 12.0592L45.0774 12.0399L45.0139 11.9924L45.0317 11.9832L45.4173 11.9094ZM44.8003 1.7054L44.805 1.69427L45.1048 1.63689L45.1101 1.71773L44.9868 1.75262L44.9482 1.72826L44.7232 1.77128L44.8003 1.7054ZM40.8054 2.30601L40.853 2.28669L40.9058 2.3482L40.8353 2.51511L40.7068 2.5397L40.8054 2.30601ZM40.0536 2.50099L40.4057 2.41316L40.4038 2.38405L40.4198 2.37976L40.4867 2.40787L40.4445 2.50803L40.316 2.53261L40.1734 2.5906L40.0255 2.56775L40.0536 2.50099ZM39.6733 2.65558L39.7631 2.5361L39.9044 2.55315L39.7455 2.76453L39.6525 2.75738L39.6733 2.65558ZM39.3545 2.60945L39.4867 2.53783L39.587 2.58L39.5448 2.68016L39.4779 2.65204L39.4497 2.71882L39.3494 2.67663L39.3545 2.60945ZM38.668 2.70468L38.9392 2.62211L39.0433 2.69262L39.1029 2.88747L39.036 2.85935L39.0078 2.92613L38.9268 2.9314L38.7314 2.92786L38.8071 2.84176L38.9215 2.85056L39.0307 2.77852L38.8212 2.80836L38.6398 2.77145L38.668 2.70468ZM38.2542 2.84523L38.5219 2.95771L38.4461 3.04381L38.2032 3.0596L38.2542 2.84523ZM38.1697 3.04554L38.1081 3.09826L38.1028 3.01743L38.1697 3.04554ZM37.9902 2.5377L38.0905 2.57987L38.0624 2.64665L37.8669 2.64312L37.9902 2.5377ZM37.7014 2.84869L37.9919 2.81358L38.1257 2.86984L38.0553 3.03675L38.013 3.1369L37.6926 2.96291L37.7014 2.84869ZM36.1574 2.86788L36.3475 2.79057L36.2612 2.715L36.337 2.6289L36.418 2.62364L36.4743 2.4901L36.4162 2.34777L36.4532 2.16678L36.5817 2.1422L36.6639 2.07193L36.7578 2.04085L36.8194 2.04559L36.8361 2.05264L36.8387 2.09305L36.8357 2.2621L36.801 2.31307L36.6644 2.41287L36.6169 2.43219L36.5746 2.53234L36.5465 2.59912L36.5658 2.64656L36.5517 2.67993L36.5949 2.71772L36.6046 2.74145L36.5236 2.74671L36.5007 2.89431L36.6627 2.88378L36.8528 2.80647L37.0342 2.84338L37.2014 2.91369L37.4249 2.88668L37.5923 2.92076L37.5359 3.05429L37.3458 3.1316L37.2402 3.00859L36.9919 2.94354L36.8916 2.90135L36.8 2.99388L36.7208 3.02609L36.4866 2.92766L36.3158 3.0524L36.1345 3.01549L36.1239 2.85382L36.1574 2.86788ZM35.946 3.36864L36.0464 3.41081L36.0376 3.52502L35.9231 3.51623L35.946 3.36864ZM33.4865 3.31747L33.5508 3.30517L33.5675 3.31221L33.5699 3.31814L33.5534 3.34561L33.5868 3.35966L33.6034 3.40033L33.5219 3.52894L33.4829 3.51254L33.4635 3.46511L33.4865 3.31747ZM32.7241 3.35078L32.9337 3.32093L33.0006 3.34905L32.9301 3.51598L32.8826 3.5353L32.7012 3.49839L32.7241 3.35078ZM31.724 4.22752L31.7592 4.26852L31.5532 4.35226L31.5492 4.36179L31.4581 4.3909L31.4529 4.31006L31.724 4.22752ZM20.1458 10.0128L20.3359 9.93554L20.3694 9.9496L20.607 9.85298L21.0067 9.74582L21.1933 9.86357L21.3359 9.80559L21.5789 9.7898L21.6458 9.81791L21.6229 9.9655L21.0525 10.1973L20.7391 10.3801L20.5912 10.3572L20.5472 10.1815L20.4187 10.2061L20.1176 10.0795L20.1458 10.0128ZM19.0242 10.524L18.8957 10.5486L18.614 10.4695L18.6387 10.4111L18.7707 10.3782L19.2513 10.2657L19.2687 10.2245L19.7461 10.12L19.7795 10.134L19.8094 10.3431L19.9291 10.4327L19.901 10.4995L19.6686 10.677L19.621 10.6963L19.6351 10.6629L19.2073 10.8369L19.0259 10.7999L19.0397 10.7114L19.0698 10.6639L19.0823 10.6664L19.1439 10.6137L19.0242 10.524ZM19.1527 11.2462L19.205 11.1222L19.4661 11.0635L19.4942 10.9968L19.5612 11.0249L19.801 10.9606L20.0894 10.8931L20.2372 10.916L19.6668 11.1479L19.6835 11.1549L19.6266 11.1758L19.6192 11.1672L19.3956 11.2304L19.1527 11.2462ZM13.8088 15.6036L14.1944 15.5298L14.3282 15.586L14.3053 15.7336L14.1627 15.7916L14.0166 16.0446L13.8687 16.0218L13.8722 15.8267L13.786 15.7511L13.8088 15.6036ZM13.0568 18.0389L13.3139 17.9898L13.8896 17.8387L13.9565 17.8668L13.8949 17.9195L13.1765 18.1286L13.0286 18.1057L13.0568 18.0389ZM13.3941 19.5815L13.5814 19.5959L13.5197 19.6486L13.187 19.7838L13.1588 19.8506L13.0804 19.8963L13.0778 19.8559L12.9686 19.9279L12.6781 19.963L12.083 20.0666L11.4738 20.2036L11.664 20.1263L12.0496 20.0526L12.5443 19.9068L12.5347 19.8956L12.6394 19.8681L12.8437 19.7575L13.3941 19.5815ZM12.2612 16.5646L12.5851 16.5435L12.6855 16.5857L12.6573 16.6525L12.5147 16.7105L12.233 16.6314L12.2612 16.5646ZM11.4757 19.7327L12.0514 19.5817L12.0707 19.6291L11.9281 19.6871L11.9197 19.7071L11.6429 19.803L11.3524 19.8382L11.4757 19.7327ZM10.2906 21.5144L10.8857 21.4108L10.9861 21.453L10.9103 21.5391L10.4772 21.6322L10.2624 21.5812L10.2906 21.5144ZM10.0545 23.3805L10.7447 23.2382L11.368 23.0678L11.4641 23.0553L11.4824 23.0766L11.8873 23.0503L11.6021 23.1662L11.1408 23.3261L10.5316 23.4631L9.99817 23.514L10.0545 23.3805ZM12.1091 24.2048L12.0078 24.2114L11.9946 24.196L11.3942 24.2188L11.3231 24.1565L11.3566 24.1537L11.3677 24.1665L11.4962 24.1419L11.792 24.1876L11.9152 24.0822L11.7621 23.9785L11.635 24.0102L11.7358 23.9692L11.7277 23.9598L12.0545 23.8674L12.3841 23.7554L12.5614 23.7642L12.4628 23.9979L12.5165 24.0791L12.4277 24.1029L12.4405 24.1178L12.1091 24.2048ZM13.426 23.6971L13.3874 23.7128L13.3379 23.6976L13.2883 23.5762L13.3204 23.5741L13.4542 23.6303L13.426 23.6971ZM14.3416 23.0207L14.0846 23.0698L13.3328 23.2648L12.7157 23.4335L12.3167 23.5042L11.6406 23.6131L11.403 23.7097L11.4892 23.7853L11.7114 23.7708L11.5633 23.8182L11.1161 23.9446L10.4726 24.0417L10.4541 24.0201L9.84495 24.1571L9.28859 24.3556L8.8273 24.5155L8.29911 24.6472L7.81845 24.7596L7.8294 24.7724L7.5843 24.8355L7.56138 24.8088L6.85711 24.9845L6.26729 25.1689L5.64401 25.3393L5.36759 25.3411L5.47148 25.1882L5.75144 24.9914L6.20745 24.7507L6.59658 24.4819L7.46281 24.2957L7.44521 24.2752L7.73396 24.2132L7.95229 24.0691L8.27096 23.9672L8.88542 23.9111L9.16712 23.9902L9.2393 24.0991L9.40656 24.1694L10.0158 24.0324L10.4295 23.8919L10.9243 23.7461L11.5282 23.5283L12.0845 23.3298L12.5317 23.2033L12.993 23.0434L13.6691 22.9346L14.317 22.8924L14.3839 22.9206L14.3416 23.0207ZM14.2643 21.3373L14.0167 21.3725L13.8259 21.3495L14.1393 21.1668L14.5672 20.9928L14.5619 20.9867L14.7321 20.9443L14.9105 21.0193L14.8682 21.1194L14.583 21.2354L14.5911 21.2448L14.2643 21.3373ZM15.5563 17.5459L15.432 17.5436L14.9848 17.6701L14.5657 17.7298L14.5939 17.663L14.6608 17.6912L14.689 17.6244L14.7559 17.6525L14.9795 17.5893L15.4883 17.4101L15.4771 17.397L15.5469 17.3787L15.5693 17.4048L15.7929 17.3415L16.2595 17.2625L16.4883 17.2801L16.0887 17.3873L15.6415 17.5137L15.6508 17.5246L15.5563 17.5459ZM15.8403 18.8159L15.8684 18.7491L16.092 18.6859L16.159 18.714L16.0357 18.8194L15.8403 18.8159ZM17.5902 20.4555L17.0197 20.6874L16.3964 20.8578L16.12 20.8595L16.1288 20.7453L16.4475 20.6434L17.2416 20.3482L17.6078 20.227L17.7081 20.2692L17.5902 20.4555ZM14.5511 25.8388L14.5473 25.78L14.5879 25.797L14.5511 25.8388ZM10.174 26.4573L10.5014 26.2412L11 26.0657L11.3323 26.117L11.3516 26.1043L11.4133 26.1118L11.5142 26.1542L11.3166 26.2694L11.3025 26.3028L11.2618 26.3194L10.9573 26.3525L10.7196 26.4491L10.7308 26.5274L10.3659 26.6559L10.137 26.6383L10.174 26.4573ZM10.4715 26.7789L10.2813 26.8562L10.2773 26.8657L10.2338 26.8755L10.1809 26.814L10.3471 26.7767L10.4715 26.7789ZM9.45154 26.0641L9.77081 26.0127L9.83772 26.0408L9.79546 26.141L9.70365 26.1585L9.68103 26.1322L9.35708 26.1532L9.46624 26.0812L9.45154 26.0641ZM5.8357 27.7783L6.52586 27.6361L7.58752 27.4534L8.23015 27.3305L8.40444 27.3094L8.42556 27.334L8.9115 27.3024L8.84986 27.3551L8.3692 27.4676L8.36568 27.4759L8.32167 27.4869L7.51705 27.6203L6.79343 27.7485L6.32687 27.8276L6.13408 27.8645L6.11736 27.8574L5.68424 27.9505L5.65961 27.8223L5.8357 27.7783ZM8.57168 27.8278L8.51005 27.8805L8.14384 28.0017L7.32514 28.1685L6.91138 28.3091L6.63496 28.3108L6.73592 28.196L6.88148 28.1L7.35685 27.9067L7.8234 27.8277L8.57168 27.8278ZM4.95356 28.4688L5.40076 28.3423L5.46767 28.3704L5.42542 28.4706L5.10674 28.5725L4.92539 28.5356L4.95356 28.4688ZM6.17534 29.4934L6.0488 29.5249L5.69824 29.4107L5.67888 29.3633L5.33557 29.3369L5.01162 29.358L4.53095 29.4704L4.38307 29.4475L4.42533 29.3474L4.45922 29.337L4.49223 29.3755L4.9676 29.1822L5.57679 29.0452L5.70281 28.9824L5.76692 28.968L6.02926 28.9996L6.19652 29.0699L6.21234 29.3124L6.17534 29.4934ZM9.2318 28.97L9.08919 29.028L8.65608 29.1211L8.28458 29.1615L7.9659 29.2633L7.75111 29.2123L7.67893 29.1034L7.71591 28.9224L7.56803 28.8996L7.39196 28.9435L7.36496 28.9452L7.35851 28.9294L7.27049 28.9514L7.22999 28.954L7.08351 29.0025L6.84603 29.0725L6.71588 29.0523L6.75814 28.9522L6.85322 28.9135L6.99055 28.7747L6.8902 28.7326L6.58838 28.8079L6.11905 28.8801L6.18068 28.8274L6.94162 28.668L6.95186 28.6799L7.25645 28.6113L7.30398 28.592L7.51877 28.643L7.75645 28.5464L7.90433 28.5692L7.98005 28.4831L8.49416 28.3848L8.62268 28.3602L9.21778 28.2566L10.6175 28.0195L10.7406 27.9902L10.746 27.9949L11.24 27.8717L11.2054 27.9111L11.1848 28.012L11.1032 28.035L11.0821 28.0165L10.9008 27.9796L10.8819 28.0011L10.8532 27.9989L10.8419 28.0466L10.8251 28.0657L10.8314 28.0908L10.8264 28.1115L10.5471 28.1864L9.95195 28.29L9.47129 28.4025L9.52409 28.464L9.78113 28.4148L10.1526 28.3744L10.2691 28.3565L10.2458 28.4118L10.349 28.4552L10.1799 28.5068L10.1772 28.5027L10.1297 28.522L9.88676 28.5378L9.67724 28.5677L9.22477 28.6133L9.1966 28.6801L9.42547 28.6977L9.43075 28.7785L9.36384 28.7504L9.33567 28.8172L9.47289 28.8277L9.39165 28.9473L9.2318 28.97ZM10.0055 28.7995L9.74751 28.7527L9.58615 28.7835L9.64907 28.6344L9.79695 28.6573L9.81958 28.655L9.91139 28.6661L10.0477 28.643L10.2334 28.7211L10.1809 28.766L10.098 28.7838L10.0055 28.7995ZM9.15845 41.5567L9.07745 41.5619L8.92957 41.5391L8.79578 41.4829L8.81009 41.3906L8.94719 41.3107L9.16726 41.4425L9.15845 41.5567ZM10.3821 40.6167L10.3411 40.6518L10.0441 40.6711L9.80995 40.5727L9.89976 40.4532L9.96642 40.4419L10.0142 40.462L10.4332 40.4023L10.4191 40.4357L10.4526 40.4497L10.4687 40.4893L10.3821 40.6167ZM16.653 43.0936L17.2763 42.9232L17.7376 42.7634L18.1848 42.6369L18.1971 42.6346L18.2981 42.6302L18.4384 42.6327L18.433 42.702L17.6196 42.9497L17.1248 43.0955L17.1083 43.1016L16.9618 43.0763L16.9507 43.0633L16.8363 43.0545L16.5317 43.123L16.5246 43.1237L16.653 43.0936ZM14.7567 44.6943L15.2655 44.5151L15.8888 44.3447L16.3501 44.1848L17.0491 43.9283L17.454 43.902L17.5544 43.9442L16.9839 44.1761L16.4892 44.3219L16.461 44.3886L16.3941 44.3605L16.2515 44.4185L15.7568 44.5643L15.232 44.7536L14.9928 44.7166L14.8361 44.808L14.6407 44.8045L14.4505 44.8818L14.2117 44.8561L14.2619 44.8401L14.7567 44.6943ZM11.4564 45.0955L11.7038 45.0226L12.144 44.9128L12.3795 44.8585L12.9697 44.7292L13.0848 44.699L13.0982 44.7046L13.1457 44.6853L13.3535 44.6285L13.5454 44.5782L13.5742 44.5682L13.769 44.5149L14.1506 44.3806L14.5824 44.2672L14.4258 44.3586L14.0648 44.5606L13.6845 44.7152L13.1898 44.861L12.7325 44.981L12.7163 44.9782L12.4733 44.994L12.4079 45.0684L12.3197 45.0926L12.3094 45.0806L12.0234 45.172L11.9645 45.1732L11.9372 45.2042L11.5629 45.3564L11.5605 45.3571L11.336 45.2627L11.2497 45.1872L11.2541 45.1587L11.4564 45.0955ZM11.913 48.7267L11.6894 48.79L11.5556 48.7337L11.5978 48.6336L11.788 48.5562L11.9359 48.5791L11.913 48.7267ZM25.1048 48.9327L25.3587 48.8756L26.0347 48.7667L26.4045 48.6802L26.5013 48.6876L26.4705 48.714L26.0207 48.8001L25.4395 48.9199L25.2268 48.943L25.0866 48.9439L25.1048 48.9327ZM25.2334 51.6923L25.2052 51.7591L25.119 51.6835L25.2334 51.6923ZM23.406 50.6097L23.4729 50.6378L23.6155 50.5799L23.6043 50.5668L24.1103 50.4341L24.6244 50.3357L24.8057 50.3726L24.7635 50.4728L24.6209 50.5307L24.1068 50.6291L23.9315 50.6491L23.9113 50.6255L23.3779 50.6765L23.406 50.6097ZM24.2668 51.8363L24.2052 51.889L24.1524 51.8275L24.2668 51.8363ZM24.1383 51.8609L23.9482 51.9382L23.8812 51.9101L23.9429 51.8574L24.1383 51.8609ZM23.7524 51.8887L23.8478 51.896L23.7862 51.9487L23.7478 51.904L23.7668 51.9013L23.7524 51.8887ZM21.6523 52.1524L22.5097 52.0804L22.5999 52.061L22.6242 52.0892L23.1383 51.9908L23.6716 51.9148L23.7052 51.954L22.8865 52.1208L22.2104 52.2297L21.6435 52.2665L21.2104 52.3596L21.1575 52.2981L21.6523 52.1524ZM20.8195 52.3526L21.015 52.3561L20.9534 52.4088L20.4727 52.5213L20.4199 52.4597L20.8195 52.3526ZM20.4058 52.4931L20.3441 52.5459L20.2913 52.4844L20.4058 52.4931ZM21.8846 53.4685L21.7983 53.3929L21.8265 53.3262L21.8934 53.3543L21.8846 53.4685ZM21.8279 53.029L21.8054 53.0028L21.6293 53.0467L21.1628 53.1258L21.152 53.1381L21.1152 53.1451L21.018 53.1514L21.0008 53.1363L20.9293 53.1435L20.9198 53.1416L20.865 53.15L20.5483 53.182L20.0342 53.2803L19.506 53.4121L19.2683 53.5087L19.0588 53.5385L18.9778 53.5438L18.4918 53.5754L18.4249 53.5473L18.8721 53.4208L19.4672 53.3172L20.1433 53.2083L20.5764 53.1152L21.0905 53.0168L21.5712 52.9044L21.5544 52.8848L22.0184 52.7779L22.5466 52.6462L23.1892 52.5233L23.6698 52.4109L23.8884 52.3667L23.9128 52.3951L24.1699 52.3459L24.6505 52.2335L25.2862 52.1024L25.2931 52.1105L25.5026 52.0807L25.7109 52.0671L25.7104 52.0736L25.2174 52.1966L24.3987 52.3635L23.823 52.5145L23.8387 52.5328L23.0237 52.7288L22.4479 52.8799L21.8279 53.029ZM25.1893 53.0102L25.1224 52.9821L25.0608 53.0348L25.0079 52.9733L25.1224 52.9821L25.184 52.9294L25.1893 53.0102ZM24.9939 53.0067L24.9322 53.0594L24.8794 52.9979L24.9939 53.0067ZM24.8653 53.0312L24.8372 53.098L24.7703 53.0699L24.5132 53.1191L23.9516 53.2368L23.9375 53.2702L23.8706 53.242L23.485 53.3158L23.3932 53.3334L23.3882 53.3275L23.4498 53.3131L23.485 53.3158L23.5484 53.29L23.7086 53.2526L23.9617 53.2004L23.9656 53.2034L24.5024 53.0928L24.8653 53.0312ZM23.1888 53.3878L22.9093 53.4668L22.8758 53.4528L22.904 53.386L22.9421 53.3806L22.9709 53.4141L23.1637 53.3773L23.1888 53.3878ZM26.677 53.1245L26.7104 53.1386L26.0678 53.2615L24.8635 53.5022L24.3829 53.6146L22.9691 53.8851L22.7903 53.9009L22.7737 53.8815L22.2877 53.9131L22.5113 53.8498L23.2966 53.6689L23.277 53.6461L23.6153 53.567L24.5625 53.3756L25.029 53.2965L25.5486 53.1797L25.5766 53.2123L25.6241 53.1929L26.3002 53.0841L26.7949 52.9383L27.3478 52.9348L26.677 53.1245ZM31.6938 43.7557L31.7361 43.6556L31.8311 43.6169L32.0598 43.5634L32.0056 43.692L32.0127 43.6983L31.7607 43.7839L31.6938 43.7557ZM32.4117 48.0275L32.375 48.0345L32.3448 47.9993L32.0878 48.0485L32.292 47.9379L32.2744 47.9173L32.3061 47.9045L32.5015 47.908L32.4117 48.0275ZM32.5829 44.1687L32.4966 44.0932L32.6533 44.0018L32.7451 43.9842L32.7677 44.0106L33.0248 43.9614L33.2162 43.9602L33.2202 43.9649L33.0505 44.0526L32.9704 44.0189L32.9228 44.0382L32.9863 44.0857L32.9685 44.095L32.5829 44.1687ZM33.1999 54.3727L33.1952 54.3839L32.8953 54.4412L32.8901 54.3604L33.0134 54.3255L33.052 54.3499L33.2769 54.3069L33.1999 54.3727ZM37.1948 53.7722L37.1472 53.7915L37.0944 53.73L37.1649 53.563L37.2934 53.5384L37.1948 53.7722ZM37.9466 53.5772L37.5944 53.665L37.5963 53.6941L37.5804 53.6984L37.5134 53.6703L37.5557 53.5701L37.6842 53.5455L37.8268 53.4876L37.9747 53.5104L37.9466 53.5772ZM38.3269 53.4226L38.2371 53.5421L38.0958 53.525L38.2547 53.3136L38.3477 53.3208L38.3269 53.4226ZM38.6456 53.4687L38.5135 53.5403L38.4131 53.4982L38.4554 53.398L38.5223 53.4261L38.5505 53.3593L38.6508 53.4015L38.6456 53.4687ZM39.3322 53.3735L39.061 53.4561L38.9569 53.3855L38.8973 53.1907L38.9642 53.2188L38.9924 53.152L39.0734 53.1468L39.2688 53.1503L39.1931 53.2364L39.0787 53.2276L38.9695 53.2996L39.179 53.2698L39.3604 53.3067L39.3322 53.3735ZM39.7459 53.2329L39.4783 53.1204L39.554 53.0344L39.797 53.0186L39.7459 53.2329ZM39.8305 53.0326L39.8921 52.9799L39.8974 53.0607L39.8305 53.0326ZM40.01 53.5405L39.9096 53.4983L39.9378 53.4315L40.1332 53.435L40.01 53.5405ZM40.2988 53.2295L40.0082 53.2646L39.8745 53.2083L39.9449 53.0414L39.9872 52.9413L40.3076 53.1153L40.2988 53.2295ZM41.8428 53.2103L41.6527 53.2876L41.7389 53.3632L41.6632 53.4493L41.5822 53.4545L41.5259 53.5881L41.5839 53.7304L41.547 53.9114L41.4184 53.936L41.3363 54.0062L41.2424 54.0373L41.1808 54.0326L41.164 54.0256L41.1614 53.9852L41.1645 53.8161L41.1991 53.7652L41.3357 53.6654L41.3833 53.646L41.4255 53.5459L41.4537 53.4791L41.4343 53.4317L41.4484 53.3983L41.4053 53.3605L41.3956 53.3368L41.4766 53.3315L41.4995 53.1839L41.3375 53.1944L41.1473 53.2717L40.966 53.2348L40.7987 53.1645L40.5753 53.1915L40.4079 53.1574L40.4642 53.0239L40.6544 52.9466L40.76 53.0696L41.0082 53.1347L41.1086 53.1768L41.2001 53.0843L41.2794 53.0521L41.5135 53.1505L41.6843 53.0258L41.8657 53.0627L41.8762 53.2244L41.8428 53.2103ZM42.0541 52.7095L41.9538 52.6673L41.9626 52.5531L42.077 52.5619L42.0541 52.7095ZM44.5137 52.7607L44.4494 52.773L44.4327 52.766L44.4303 52.76L44.4468 52.7326L44.4133 52.7185L44.3967 52.6778L44.4782 52.5492L44.5172 52.5656L44.5366 52.6131L44.5137 52.7607ZM45.276 52.7274L45.0665 52.7572L44.9996 52.7291L45.07 52.5622L45.1176 52.5429L45.2989 52.5798L45.276 52.7274ZM46.2761 51.8506L46.2409 51.8096L46.4469 51.7259L46.4509 51.7164L46.542 51.6873L46.5472 51.7681L46.2761 51.8506ZM57.8544 46.0653L57.6642 46.1426L57.6308 46.1286L57.3931 46.2252L56.9935 46.3323L56.8068 46.2146L56.6642 46.2726L56.4213 46.2883L56.3544 46.2602L56.3773 46.1126L56.9477 45.8807L57.2611 45.698L57.409 45.7209L57.453 45.8966L57.5815 45.872L57.8826 45.9986L57.8544 46.0653ZM58.9759 45.5541L59.1045 45.5295L59.3862 45.6086L59.3615 45.667L59.2295 45.7L58.7488 45.8124L58.7314 45.8536L58.2541 45.9582L58.2206 45.9441L58.1907 45.735L58.071 45.6454L58.0992 45.5786L58.3316 45.4011L58.3792 45.3818L58.3651 45.4152L58.7929 45.2413L58.9743 45.2782L58.9605 45.3667L58.9304 45.4143L58.9179 45.4117L58.8563 45.4644L58.9759 45.5541ZM58.8475 44.8319L58.7952 44.9559L58.5341 45.0146L58.5059 45.0814L58.439 45.0532L58.1992 45.1175L57.9108 45.185L57.7629 45.1621L58.3334 44.9302L58.3167 44.9232L58.3736 44.9023L58.3809 44.9109L58.6045 44.8476L58.8475 44.8319ZM64.1913 40.4746L63.8057 40.5483L63.672 40.4921L63.6948 40.3445L63.8375 40.2865L63.9836 40.0335L64.1315 40.0563L64.128 40.2514L64.2142 40.327L64.1913 40.4746ZM64.9433 38.0392L64.6863 38.0883L64.1106 38.2394L64.0437 38.2113L64.1053 38.1586L64.8236 37.9495L64.9715 37.9724L64.9433 38.0392ZM64.6061 36.4967L64.4188 36.4823L64.4804 36.4295L64.8132 36.2943L64.8414 36.2275L64.9197 36.1818L64.9224 36.2222L65.0315 36.1502L65.322 36.1151L65.9171 36.0115L66.5263 35.8745L66.3362 35.9518L65.9506 36.0255L65.4558 36.1713L65.4654 36.1825L65.3608 36.21L65.1565 36.3207L64.6061 36.4967ZM65.739 39.5135L65.415 39.5346L65.3147 39.4924L65.3429 39.4256L65.4855 39.3677L65.7672 39.4468L65.739 39.5135ZM66.5245 36.3454L65.9488 36.4965L65.9294 36.449L66.072 36.391L66.0805 36.371L66.3573 36.2751L66.6478 36.24L66.5245 36.3454ZM67.7096 34.5637L67.1145 34.6673L67.0141 34.6252L67.0898 34.5391L67.5229 34.446L67.7377 34.497L67.7096 34.5637ZM67.9457 32.6976L67.2555 32.8399L66.6322 33.0103L66.5361 33.0228L66.5178 33.0015L66.1128 33.0278L66.3981 32.9118L66.8594 32.752L67.4686 32.615L68.002 32.5641L67.9457 32.6976ZM65.8911 31.8733L65.9923 31.8668L66.0055 31.8821L66.6059 31.8594L66.677 31.9216L66.6435 31.9245L66.6325 31.9116L66.504 31.9362L66.2082 31.8904L66.0849 31.9959L66.2381 32.0995L66.3652 32.0679L66.2644 32.1088L66.2725 32.1183L65.9457 32.2107L65.6161 32.3227L65.4388 32.3139L65.5374 32.0802L65.4836 31.9991L65.5724 31.9752L65.5596 31.9603L65.8911 31.8733ZM64.5742 32.381L64.6128 32.3653L64.6623 32.3805L64.7119 32.5019L64.6798 32.504L64.546 32.4478L64.5742 32.381ZM63.6586 33.0575L63.9156 33.0083L64.6674 32.8133L65.2845 32.6446L65.6834 32.5739L66.3595 32.465L66.5972 32.3684L66.5109 32.2928L66.2888 32.3073L66.4368 32.26L66.884 32.1335L67.5275 32.0365L67.546 32.058L68.1552 31.921L68.7116 31.7225L69.1729 31.5626L69.7011 31.4309L70.1817 31.3185L70.1708 31.3057L70.4158 31.2426L70.4388 31.2693L71.143 31.0936L71.7328 30.9092L72.3561 30.7388L72.6325 30.737L72.5286 30.8899L72.2487 31.0867L71.7927 31.3274L71.4035 31.5962L70.5373 31.7823L70.5549 31.8029L70.2662 31.8649L70.0478 32.009L69.7292 32.1109L69.1147 32.167L68.833 32.0879L68.7608 31.979L68.5936 31.9087L67.9844 32.0457L67.5706 32.1862L67.0759 32.332L66.472 32.5498L65.9156 32.7483L65.4684 32.8748L65.0071 33.0346L64.331 33.1435L63.6831 33.1856L63.6162 33.1575L63.6586 33.0575ZM63.7359 34.7408L63.9835 34.7056L64.1742 34.7286L63.8608 34.9113L63.433 35.0852L63.4383 35.0914L63.2681 35.1338L63.0897 35.0588L63.1319 34.9587L63.4172 34.8427L63.4091 34.8333L63.7359 34.7408ZM62.4439 38.5322L62.5682 38.5345L63.0154 38.408L63.4344 38.3483L63.4063 38.4151L63.3394 38.387L63.3112 38.4537L63.2443 38.4256L63.0207 38.4889L62.5119 38.6681L62.5231 38.6811L62.4533 38.6994L62.4309 38.6733L62.2073 38.7366L61.7407 38.8156L61.5118 38.798L61.9115 38.6909L62.3587 38.5644L62.3494 38.5535L62.4439 38.5322ZM62.1599 37.2622L62.1317 37.329L61.9081 37.3923L61.8412 37.3641L61.9645 37.2587L62.1599 37.2622ZM60.41 35.6226L60.9805 35.3907L61.6037 35.2203L61.8802 35.2186L61.8713 35.3328L61.5527 35.4347L60.7586 35.7299L60.3924 35.8511L60.292 35.8089L60.41 35.6226ZM63.449 30.2394L63.4529 30.2981L63.4123 30.2811L63.449 30.2394ZM67.8262 29.6208L67.4987 29.8369L67.0002 30.0125L66.6679 29.9611L66.6486 29.9738L66.5869 29.9663L66.4859 29.9239L66.6835 29.8087L66.6976 29.7753L66.7384 29.7587L67.0428 29.7257L67.2805 29.629L67.2693 29.5507L67.6343 29.4222L67.8632 29.4398L67.8262 29.6208ZM67.5287 29.2992L67.7189 29.2219L67.7229 29.2124L67.7664 29.2026L67.8193 29.2641L67.6531 29.3014L67.5287 29.2992ZM68.5486 30.014L68.2294 30.0654L68.1625 30.0373L68.2047 29.9371L68.2965 29.9196L68.3191 29.9459L68.6431 29.9249L68.5339 29.9969L68.5486 30.014ZM67.3827 28.0586L67.2596 28.0879L67.2542 28.0832L66.7601 28.2064L66.7948 28.167L66.8154 28.0662L66.897 28.0431L66.9181 28.0616L67.0994 28.0985L67.1183 28.077L67.1469 28.0792L67.1583 28.0315L67.1751 28.0124L67.1688 27.9873L67.1738 27.9666L67.4531 27.8917L68.0482 27.7881L68.5289 27.6757L68.4761 27.6141L68.219 27.6633L67.8475 27.7037L67.731 27.7216L67.7544 27.6663L67.6511 27.6229L67.8202 27.5714L67.8229 27.5754L67.8704 27.5561L68.1134 27.5403L68.3229 27.5104L68.7754 27.4648L68.8035 27.398L68.5747 27.3804L68.5694 27.2996L68.6363 27.3277L68.6645 27.2609L68.5272 27.2504L68.6085 27.1308L68.7683 27.108L68.9109 27.0501L69.3441 26.957L69.7156 26.9166L70.0342 26.8147L70.249 26.8657L70.3212 26.9746L70.2842 27.1556L70.4321 27.1785L70.6082 27.1346L70.6352 27.1328L70.6416 27.1486L70.7296 27.1267L70.7701 27.124L70.9166 27.0755L71.1541 27.0056L71.2842 27.0257L71.242 27.1258L71.1469 27.1645L71.0096 27.3033L71.1099 27.3455L71.4118 27.2702L71.8811 27.1979L71.8194 27.2506L71.0585 27.4101L71.0483 27.3982L70.7437 27.4667L70.6962 27.486L70.4814 27.4351L70.2437 27.5317L70.0958 27.5088L70.0201 27.5949L69.506 27.6933L69.3774 27.7179L68.7824 27.8215L67.3827 28.0586ZM71.3652 27.7673L71.2643 27.8821L71.1187 27.9781L70.6433 28.1714L70.1768 28.2504L69.4285 28.2503L69.4901 28.1976L69.8563 28.0764L70.6751 27.9096L71.0888 27.769L71.3652 27.7673ZM72.1645 28.2998L71.4743 28.4421L70.4127 28.6247L69.77 28.7477L69.5957 28.7687L69.5746 28.7441L69.0887 28.7757L69.1503 28.723L69.631 28.6106L69.6345 28.6022L69.6785 28.5913L70.4831 28.4578L71.2067 28.3296L71.6733 28.2505L71.8661 28.2137L71.8828 28.2207L72.3159 28.1276L72.3406 28.2559L72.1645 28.2998ZM73.0466 27.6093L72.5994 27.7358L72.5325 27.7077L72.5748 27.6075L72.8935 27.5056L73.0748 27.5425L73.0466 27.6093ZM73.5749 26.7308L73.541 26.7411L73.508 26.7027L73.0326 26.8959L72.4234 27.0329L72.2974 27.0958L72.2333 27.1102L71.9709 27.0786L71.8037 27.0082L71.7879 26.7658L71.8249 26.5848L71.9514 26.5532L72.302 26.6674L72.3213 26.7149L72.6646 26.7412L72.9886 26.7202L73.4692 26.6078L73.6171 26.6306L73.5749 26.7308Z" fill="#235AA8"/>
</g>
<defs>
<clipPath id="clip0_190_2">
<rect width="78" height="57" fill="white"/>
</clipPath>
</defs>
</svg>
