<svg width="40" height="27" viewBox="0 0 40 27" fill="none" xmlns="http://www.w3.org/2000/svg">
<path d="M34.6384 21.9991H12.2818L10.8753 20.2402H0L2.80909 25.4795L37.2925 25.488L39.8571 20.2402H35.8193L34.6384 21.9991Z" fill="#E53600"/>
<path d="M10.587 17.8418H0.036377V20.3397H10.587V17.8418Z" fill="#F0F0F0"/>
<path d="M9.95255 14.4277H1.2998V17.841H9.95255V14.4277Z" fill="#F0F0F0"/>
<path d="M9.95255 17.543H1.2998V17.8395H9.95255V17.543Z" fill="#D2D2D2"/>
<path d="M2.49263 15.1934C2.23204 15.1934 2.02124 15.4041 2.02124 15.6633C2.02124 15.9231 2.23204 16.1338 2.49263 16.1338C2.7526 16.1338 2.96339 15.9237 2.96339 15.6633C2.96339 15.4035 2.7526 15.1934 2.49263 15.1934Z" fill="#596273"/>
<path d="M4.46382 15.1934C4.20385 15.1934 3.99243 15.4041 3.99243 15.6633C3.99243 15.9231 4.20385 16.1338 4.46382 16.1338C4.7244 16.1338 4.93642 15.9237 4.93642 15.6633C4.93581 15.4035 4.72379 15.1934 4.46382 15.1934Z" fill="#596273"/>
<path d="M6.43721 15.1934C6.17785 15.1934 5.96704 15.4041 5.96704 15.6633C5.96704 15.9231 6.17785 16.1338 6.43721 16.1338C6.69779 16.1338 6.90919 15.9237 6.90919 15.6633C6.90919 15.4035 6.69718 15.1934 6.43721 15.1934Z" fill="#596273"/>
<path d="M8.40718 15.1934C8.14721 15.1934 7.93579 15.4041 7.93579 15.6633C7.93579 15.9231 8.14721 16.1338 8.40718 16.1338C8.66899 16.1338 8.87918 15.9237 8.87918 15.6633C8.87918 15.4035 8.66838 15.1934 8.40718 15.1934Z" fill="#596273"/>
<path d="M1.59733 18.4531H0.668701V19.3789H1.59733V18.4531Z" fill="#596273"/>
<path d="M3.00384 18.4531H2.07397V19.3789H3.00384V18.4531Z" fill="#596273"/>
<path d="M4.40546 18.4531H3.47681V19.3789H4.40546V18.4531Z" fill="#596273"/>
<path d="M5.80497 18.4531H4.87817V19.3789H5.80497V18.4531Z" fill="#596273"/>
<path d="M7.21063 18.4531H6.28198V19.3789H7.21063V18.4531Z" fill="#596273"/>
<path d="M8.61406 18.4531H7.68481V19.3789H8.61406V18.4531Z" fill="#596273"/>
<path d="M10.0187 18.4531H9.08887V19.3789H10.0187V18.4531Z" fill="#596273"/>
<path d="M3.45914 11.5547H2.17773V14.4257H3.45914V11.5547Z" fill="#596273"/>
<path d="M5.57192 10.1816H4.29297V14.427H5.57192V10.1816Z" fill="#596273"/>
<path d="M9.10048 12.9922H6.26294V14.4565H9.10048V12.9922Z" fill="#F0F0F0"/>
<path d="M16.7317 19.3477H11.9238V22.0269H16.7317V19.3477Z" fill="#F36336"/>
<path d="M21.7203 19.3477H16.9111V22.0269H21.7203V19.3477Z" fill="#FFB136"/>
<path d="M26.7545 19.3477H21.946V22.0269H26.7545V19.3477Z" fill="#F36336"/>
<path d="M16.7317 16.5H11.9238V19.1781H16.7317V16.5Z" fill="#FFB136"/>
<path d="M21.7203 16.5H16.9111V19.1781H21.7203V16.5Z" fill="#F36336"/>
<path d="M26.7545 16.5H21.946V19.1781H26.7545V16.5Z" fill="#FFB136"/>
<path d="M29.2026 16.168H27.0061V22.0106H29.2026V16.168Z" fill="#FFB136"/>
<path d="M31.5388 16.168H29.3423V22.0106H31.5388V16.168Z" fill="#F36336"/>
<path d="M33.9065 17.8418H31.7087V22.0117H33.9065V17.8418Z" fill="#FFB136"/>
<path d="M8.61382 13.2617H7.68457V14.1875H8.61382V13.2617Z" fill="#596273"/>
<path d="M2.77765 25.502L1.99365 27.0013H37.3387L36.6946 25.502H2.77765Z" fill="#596273"/>
<path d="M19.5847 0C17.0753 0 15.0398 2.02738 15.0398 4.52899C15.0398 7.0312 19.5847 14.8509 19.5847 14.8509C19.5847 14.8509 24.1283 7.0312 24.1283 4.52899C24.1277 2.02738 22.094 0 19.5847 0Z" fill="#F36336"/>
<path d="M19.5848 1.63281C17.899 1.63281 16.5303 2.99482 16.5303 4.67542C16.5303 6.35786 17.899 7.72048 19.5848 7.72048C21.2718 7.72048 22.638 6.35725 22.638 4.67542C22.638 2.99482 21.2718 1.63281 19.5848 1.63281Z" fill="#E53600"/>
<path d="M19.5851 2.18945C18.2065 2.18945 17.0898 3.30332 17.0898 4.67636C17.0898 6.05061 18.2059 7.16447 19.5851 7.16447C20.9636 7.16447 22.0797 6.05123 22.0797 4.67636C22.079 3.30332 20.9636 2.18945 19.5851 2.18945Z" fill="white"/>
</svg>
