<svg width="38" height="38" viewBox="0 0 38 38" fill="none" xmlns="http://www.w3.org/2000/svg">
<g clip-path="url(#clip0_9360_28351)">
<path d="M0.244286 30.8378L2.61218 32.5169C3.69858 33.2873 4.96287 33.6818 6.23834 33.6818C7.06652 33.6814 7.88679 33.5157 8.65373 33.1935L11.6802 31.9254C12.3783 31.6328 13.1289 31.4973 13.8818 31.528C14.6348 31.5585 15.3727 31.7545 16.0463 32.1027L16.1303 32.1462C17.9283 33.0759 20.0753 33.0759 21.8731 32.1462L21.9572 32.1027C22.6307 31.7545 23.3686 31.5585 24.1216 31.528C24.8745 31.4973 25.6252 31.6328 26.3232 31.9254L29.3497 33.1935C31.3523 34.0326 33.6105 33.7796 35.3913 32.5169L37.7592 30.8377C37.8806 30.7517 37.9639 30.6193 37.9907 30.4699C38.0175 30.3205 37.9856 30.1662 37.902 30.0411C37.8185 29.9159 37.6901 29.83 37.5451 29.8024C37.4002 29.7748 37.2505 29.8077 37.1291 29.8938L34.7612 31.5729C33.2895 32.6165 31.423 32.8255 29.7684 32.1321L29.528 32.0314C31.0658 29.3254 32.0848 26.6441 32.5586 24.0522C32.5847 23.9078 32.5775 23.7591 32.5377 23.6181C32.4979 23.4771 32.4264 23.3477 32.3293 23.2403C32.1796 23.0757 32.0281 22.9128 31.8749 22.7518L31.4448 18.7354C31.4199 18.5006 31.3117 18.2836 31.141 18.126C30.9703 17.9684 30.7491 17.8814 30.52 17.8816H30.2411L29.3169 12.9283C29.2772 12.7167 29.1674 12.5258 29.0061 12.3886C28.8449 12.2513 28.6424 12.1761 28.4332 12.1758H27.9772L27.6987 10.3202C27.6749 10.1712 27.595 10.0379 27.4763 9.94934C27.3578 9.86073 27.21 9.82402 27.0652 9.84713C26.9205 9.87013 26.7904 9.9512 26.7032 10.0726C26.6161 10.194 26.5791 10.3459 26.6 10.4953L26.8523 12.1758H23.8954L23.1285 7.06587H26.0853L26.2336 8.05397C26.2562 8.20409 26.3357 8.33883 26.4546 8.42857C26.5735 8.5183 26.7222 8.55569 26.8678 8.53251C26.94 8.52101 27.0093 8.49499 27.0716 8.45592C27.134 8.41685 27.1883 8.3655 27.2315 8.3048C27.2745 8.2441 27.3056 8.17523 27.3229 8.10215C27.3402 8.02905 27.3434 7.95317 27.3322 7.87882L26.6341 3.22782C26.5479 2.65265 26.0754 2.23521 25.5108 2.23521H22.4035L22.2171 0.992604C22.1307 0.417436 21.6582 0 21.0936 0H16.9098C16.3452 0 15.8727 0.417436 15.7863 0.992604L15.5999 2.23521H12.4926C11.928 2.23521 11.4555 2.65265 11.3692 3.22782L10.0262 12.1759H9.57019C9.36108 12.1762 9.15856 12.2514 8.99735 12.3887C8.83613 12.5259 8.72626 12.7168 8.68656 12.9283L7.76238 17.8817H7.67019C7.44101 17.8815 7.21984 17.9685 7.04913 18.1262C6.87842 18.2837 6.7702 18.5007 6.74527 18.7355L6.33883 22.5317C6.11357 22.7641 5.89199 23.0003 5.67419 23.2402C5.577 23.3476 5.50561 23.4771 5.46579 23.6182C5.42596 23.7592 5.41881 23.9079 5.44489 24.0524C5.69139 25.4007 6.08922 26.7874 6.62728 28.1739C6.68328 28.3131 6.79025 28.4241 6.92502 28.4825C7.05979 28.541 7.21151 28.5424 7.34729 28.4865C7.48307 28.4305 7.59198 28.3216 7.65042 28.1835C7.70887 28.0453 7.71213 27.889 7.65951 27.7483C7.52086 27.3904 7.39093 27.0289 7.26983 26.6644C10.2157 23.6681 13.8817 21.2539 18.4459 19.3047V31.6679C17.8193 31.6004 17.2026 31.4188 16.6288 31.1222L16.5447 31.0787C15.7297 30.6573 14.8368 30.4202 13.9256 30.3831C13.0146 30.3461 12.1063 30.5101 11.2616 30.864L9.5168 31.595C9.19846 31.0416 8.90001 30.487 8.62876 29.941C8.59574 29.8735 8.55011 29.8136 8.49453 29.7643C8.43893 29.7152 8.37446 29.6779 8.30481 29.6545C8.23516 29.6311 8.16171 29.6221 8.08869 29.6281C8.01567 29.634 7.94451 29.6548 7.8793 29.6893C7.81409 29.7236 7.75613 29.771 7.70874 29.8286C7.66135 29.8861 7.62546 29.9528 7.60316 30.0247C7.58084 30.0966 7.57254 30.1723 7.57872 30.2476C7.58492 30.3228 7.60547 30.396 7.6392 30.463C7.90348 30.9939 8.18233 31.5169 8.47541 32.0314L8.23492 32.1321C6.58044 32.8255 4.71385 32.6165 3.2422 31.573L0.874315 29.8939C0.8142 29.8506 0.746362 29.82 0.674712 29.8038C0.603061 29.7876 0.529014 29.7863 0.45684 29.7997C0.384666 29.8132 0.31579 29.8412 0.254184 29.8822C0.192578 29.9232 0.139459 29.9765 0.0978895 30.0388C0.0563196 30.101 0.0271212 30.1711 0.011977 30.2451C-0.0031672 30.3191 -0.0039577 30.3954 0.00965103 30.4697C0.0232598 30.5439 0.0509987 30.6147 0.0912688 30.678C0.131539 30.7411 0.183544 30.7955 0.244286 30.8378ZM26.7419 30.8641C25.8972 30.5101 24.9889 30.3462 24.0777 30.3832C23.1666 30.4202 22.2737 30.6574 21.4586 31.0788L21.3746 31.1223C20.8008 31.4189 20.184 31.6004 19.5575 31.668V19.3051C20.2087 19.5829 20.8536 19.8763 21.4917 20.1851C21.6249 20.2481 21.7768 20.2544 21.9143 20.2025C22.052 20.1507 22.1641 20.045 22.2266 19.9084C22.289 19.7717 22.2965 19.6153 22.2474 19.4729C22.1984 19.3306 22.097 19.214 21.9649 19.1484C21.1949 18.7748 20.3855 18.4124 19.5575 18.0679V15.8344C24.4952 17.9431 28.3906 20.6012 31.4465 23.9454C31.3511 24.4487 31.2365 24.948 31.1028 25.4421C29.1044 23.4903 26.7566 21.7509 24.1076 20.2661C23.978 20.1936 23.8258 20.1769 23.6845 20.22C23.5431 20.2631 23.4241 20.3623 23.3537 20.4957C23.2832 20.6292 23.2672 20.7861 23.309 20.9318C23.3507 21.0774 23.4469 21.2001 23.5765 21.2727C26.3172 22.8088 28.7222 24.6224 30.7326 26.665C30.193 28.2842 29.4426 29.9328 28.4866 31.5952L26.7419 30.8641ZM30.6232 21.5086C29.6863 20.6314 28.6838 19.8055 27.6116 19.0277H30.3575L30.6232 21.5086ZM16.2952 5.09807H21.7083L22.7705 12.1761H15.2328L16.2952 5.09807ZM25.5109 3.38112C25.5233 3.38112 25.5338 3.39037 25.5356 3.40312L25.9135 5.92035H22.9566L22.5755 3.3812L25.5109 3.38112ZM16.9098 1.14599H21.0936C21.1058 1.14599 21.1165 1.15545 21.1184 1.16799L21.5362 3.9524H16.4671L16.885 1.16791C16.8859 1.16178 16.8889 1.15619 16.8935 1.15216C16.898 1.14813 16.9038 1.14594 16.9098 1.14599ZM12.4925 3.38112H15.4279L15.0468 5.92027H12.09L12.4678 3.40305C12.4687 3.39694 12.4717 3.39136 12.4762 3.38733C12.4807 3.3833 12.4865 3.3811 12.4925 3.38112ZM11.918 7.0661H14.8748L14.1078 12.1761H11.1511L11.918 7.0661ZM9.74516 13.3219H28.2582L29.109 17.8818H25.9279C23.9573 16.6247 21.7742 15.5062 19.3556 14.5126C19.128 14.419 18.8743 14.4192 18.6469 14.513C16.2287 15.5065 14.0458 16.6249 12.0755 17.8818H8.89445L9.74516 13.3219ZM7.83242 19.0276H10.3916C9.39826 19.7482 8.46438 20.5101 7.58741 21.3159L7.83242 19.0276ZM6.90024 25.4386C6.76679 24.9457 6.65221 24.4474 6.55672 23.9453C9.61265 20.6012 13.5083 17.9431 18.4458 15.8343V18.0671C13.7602 20.0161 9.97048 22.4348 6.90024 25.4386Z" fill="#FA6444"/>
<path d="M37.1272 33.3915L34.7592 35.0523C33.2876 36.0845 31.4211 36.2912 29.7662 35.6054L26.7396 34.3511C25.8949 34.001 24.9865 33.8389 24.0753 33.8755C23.1642 33.9121 22.2712 34.1467 21.4561 34.5635L21.372 34.6065C19.8861 35.3662 18.1119 35.3662 16.626 34.6065L16.5421 34.5635C15.727 34.1466 14.8339 33.9121 13.9228 33.8755C13.0116 33.8389 12.1033 34.001 11.2586 34.3511L8.23188 35.6054C6.57725 36.2912 4.71065 36.0845 3.23894 35.0523L0.87094 33.3915C0.8108 33.3494 0.7431 33.3197 0.671703 33.3042C0.600307 33.2887 0.526614 33.2876 0.454832 33.3012C0.38305 33.3147 0.314584 33.3425 0.253344 33.383C0.192104 33.4235 0.139288 33.4759 0.0979137 33.5372C0.0565382 33.5986 0.0274133 33.6675 0.0122021 33.7403C-0.00300909 33.813 -0.00400871 33.8882 0.00926032 33.9614C0.0225294 34.0345 0.0498072 34.1043 0.0895364 34.1668C0.129266 34.2291 0.180668 34.283 0.240809 34.3252L2.6088 35.9859C3.69527 36.7479 4.9596 37.1381 6.23513 37.1381C7.06336 37.1378 7.88366 36.9737 8.65063 36.6551L11.6773 35.4008C12.3755 35.1116 13.1261 34.9775 13.8791 35.0078C14.632 35.0381 15.37 35.2319 16.0435 35.5763L16.1276 35.6193C17.9258 36.5388 20.0727 36.5388 21.8707 35.6193L21.9547 35.5763C22.6282 35.2319 23.3662 35.0381 24.1192 35.0078C24.8721 34.9775 25.6228 35.1116 26.3209 35.4008L29.3475 36.6551C31.3502 37.485 33.6086 37.2348 35.3894 35.9858L37.7574 34.3251C37.8179 34.2831 37.8695 34.2292 37.9095 34.1668C37.9495 34.1043 37.9771 34.0344 37.9906 33.9611C38.004 33.8878 38.0031 33.8125 37.9879 33.7394C37.9727 33.6665 37.9435 33.5973 37.902 33.5359C37.8605 33.4744 37.8076 33.4219 37.7461 33.3814C37.6847 33.3409 37.616 33.3131 37.544 33.2996C37.472 33.2863 37.3982 33.2874 37.3266 33.3032C37.2551 33.319 37.1873 33.349 37.1272 33.3915ZM25.7623 15.8168H26.2276C26.5348 15.8168 26.7835 15.5631 26.7835 15.2502C26.7835 14.9372 26.5348 14.6836 26.2276 14.6836H25.7623C25.6149 14.6836 25.4735 14.7432 25.3693 14.8495C25.265 14.9558 25.2064 15.0999 25.2064 15.2502C25.2064 15.4004 25.265 15.5445 25.3693 15.6508C25.4735 15.7571 25.6149 15.8168 25.7623 15.8168ZM12.2357 15.8168C12.5428 15.8168 12.7916 15.5631 12.7916 15.2502C12.7916 14.9372 12.5428 14.6836 12.2357 14.6836H11.7703C11.4633 14.6836 11.2145 14.9372 11.2145 15.2502C11.2145 15.5631 11.4633 15.8168 11.7703 15.8168H12.2357Z" fill="#FA6444"/>
</g>
<defs>
<clipPath id="clip0_9360_28351">
<rect width="38" height="38" fill="white"/>
</clipPath>
</defs>
</svg>
