<svg width="35" height="36" viewBox="0 0 35 36" fill="none" xmlns="http://www.w3.org/2000/svg">
<path d="M25.0443 27.002H0V30.4586H25.0443V27.002Z" fill="#596273"/>
<path d="M25.6738 17.0469V30.4616H34.9999V24.6687L31.2032 17.0469H25.6738Z" fill="#596273"/>
<path d="M27.2732 18.6719V24.8371H34.369V24.7023L31.3844 18.6719H27.2732Z" fill="#D4F0FF"/>
<path d="M27.4712 27.918C24.8417 27.918 22.7107 29.9846 22.7107 32.5345H32.2309C32.2309 29.9846 30.0998 27.918 27.4712 27.918Z" fill="#95979A"/>
<path d="M27.4709 29.0723C25.5017 29.0723 23.8979 30.6226 23.8979 32.5355C23.8979 34.4467 25.5017 35.9962 27.4709 35.9962C29.4434 35.9962 31.0421 34.4467 31.0421 32.5355C31.0421 30.6218 29.4434 29.0723 27.4709 29.0723Z" fill="black"/>
<path d="M27.4678 30.7051C26.4252 30.7051 25.5801 31.5246 25.5801 32.5357C25.5801 33.546 26.4252 34.3648 27.4678 34.3648C28.5079 34.3648 29.3539 33.546 29.3539 32.5357C29.353 31.5246 28.5079 30.7051 27.4678 30.7051Z" fill="#B0B8B5"/>
<path d="M5.77554 27.918C3.14438 27.918 1.01587 29.9846 1.01587 32.5345H10.5369C10.5369 29.9846 8.40586 27.918 5.77554 27.918Z" fill="#95979A"/>
<path d="M5.77779 29.0723C3.80697 29.0723 2.20825 30.6226 2.20825 32.5355C2.20825 34.4467 3.80697 35.9962 5.77779 35.9962C7.75032 35.9962 9.34815 34.4467 9.34815 32.5355C9.34815 30.6218 7.75032 29.0723 5.77779 29.0723Z" fill="black"/>
<path d="M5.77877 30.7051C4.73783 30.7051 3.89185 31.5246 3.89185 32.5357C3.89185 33.546 4.73783 34.3648 5.77877 34.3648C6.82055 34.3648 7.66737 33.546 7.66737 32.5357C7.66737 31.5246 6.82055 30.7051 5.77877 30.7051Z" fill="#B0B8B5"/>
<path d="M25.0443 13.8613H0V26.394H25.0443V13.8613Z" fill="#F36336"/>
<path d="M25.0443 20.1289H0V26.3944H25.0443V20.1289Z" fill="#E53600"/>
<path d="M14.8693 0C11.5956 0 8.94067 2.57378 8.94067 5.74929C8.94067 8.9248 14.8693 18.8508 14.8693 18.8508C14.8693 18.8508 20.7995 8.92562 20.7995 5.74929C20.7995 2.57378 18.1438 0 14.8693 0Z" fill="#F36336"/>
<path d="M14.8696 2.07422C12.6682 2.07422 10.8848 3.80376 10.8848 5.93694C10.8848 8.07257 12.6682 9.80214 14.8696 9.80214C17.0719 9.80214 18.8537 8.07257 18.8537 5.93694C18.8537 3.80376 17.071 2.07422 14.8696 2.07422Z" fill="#E53600"/>
<path d="M14.8678 2.7793C13.0682 2.7793 11.6128 4.19237 11.6128 5.93589C11.6128 7.68024 13.0682 9.09415 14.8678 9.09415C16.6674 9.09415 18.1246 7.68024 18.1246 5.93589C18.1237 4.19237 16.6674 2.7793 14.8678 2.7793Z" fill="white"/>
</svg>
