<svg width="36" height="36" viewBox="0 0 36 36" fill="none" xmlns="http://www.w3.org/2000/svg">
<g clip-path="url(#clip0_9360_28362)">
<path d="M13.3086 10.5818V6.21818C13.3086 5.89091 13.0905 5.67273 12.7632 5.67273C12.4359 5.67273 12.2177 5.89091 12.2177 6.21818V10.5818C11.2359 10.8 10.5268 11.7273 10.5268 12.7636C10.5268 13.4182 10.7995 13.9636 11.1813 14.4L9.21769 17.7273C9.05411 18 9.16316 18.3273 9.43594 18.4909C9.70864 18.6545 10.0359 18.5455 10.1995 18.2727L12.1632 14.9455C12.3813 15 12.5995 15.0545 12.8177 15.0545C14.0723 15.0545 15.0541 14.0182 15.0541 12.8182C14.9995 11.6727 14.2359 10.8 13.3086 10.5818ZM12.7632 13.9091C12.1086 13.9091 11.6177 13.3636 11.6177 12.7636C11.6177 12.1091 12.1632 11.6182 12.7632 11.6182C13.4177 11.6182 13.9086 12.1636 13.9086 12.7636C13.9086 13.3636 13.3632 13.9091 12.7632 13.9091ZM12.7632 4.25455C13.0905 4.25455 13.3086 4.03636 13.3086 3.70909V2.61818C13.3086 2.29091 13.0905 2.07273 12.7632 2.07273C12.4359 2.07273 12.2177 2.29091 12.2177 2.61818V3.70909C12.2177 3.98182 12.4359 4.25455 12.7632 4.25455ZM12.7632 21.2182C12.4359 21.2182 12.2177 21.4363 12.2177 21.7636V22.8545C12.2177 23.1818 12.4359 23.4 12.7632 23.4C13.0905 23.4 13.3086 23.1818 13.3086 22.8545V21.7636C13.3086 21.4909 13.0359 21.2182 12.7632 21.2182ZM4.25408 12.7636C4.25408 12.4363 4.0359 12.2182 3.70863 12.2182H2.61772C2.29045 12.2182 2.07227 12.4363 2.07227 12.7636C2.07227 13.0909 2.29045 13.3091 2.61772 13.3091H3.70863C3.98136 13.3091 4.25408 13.0363 4.25408 12.7636ZM21.2177 12.7636C21.2177 13.0909 21.4359 13.3091 21.7632 13.3091H22.8541C23.1813 13.3091 23.3995 13.0909 23.3995 12.7636C23.3995 12.4363 23.1813 12.2182 22.8541 12.2182H21.7632C21.4905 12.2182 21.2177 12.4363 21.2177 12.7636ZM3.65408 8.1273L4.6359 8.6727C4.90863 8.83635 5.2359 8.7273 5.39954 8.45452C5.56318 8.18182 5.45408 7.85452 5.18136 7.69087L4.19954 7.14545C3.92681 6.98182 3.59954 7.09091 3.4359 7.36363C3.32681 7.69087 3.38136 8.01817 3.65408 8.1273ZM8.50864 20.0727C8.23594 19.9091 7.90864 20.0182 7.74499 20.2909L7.19954 21.2727C7.0359 21.5455 7.145 21.8727 7.41772 22.0363C7.69046 22.2 8.01769 22.0909 8.18134 21.8182L8.72681 20.8363C8.83594 20.5636 8.78134 20.2363 8.50864 20.0727ZM16.9632 5.4C17.2359 5.56363 17.5632 5.45455 17.7268 5.18182L18.2723 4.2C18.4359 3.92727 18.3268 3.6 18.0541 3.43636C17.7813 3.27273 17.4541 3.38182 17.2905 3.65455L16.745 4.63636C16.6359 4.90909 16.6905 5.23636 16.9632 5.4ZM8.39951 5.45455C8.67229 5.29091 8.72681 4.96363 8.56316 4.69091L8.01769 3.70909C7.85411 3.43636 7.52681 3.38182 7.25408 3.54545C6.98136 3.70909 6.92681 4.03636 7.09045 4.30909L7.63594 5.29091C7.79951 5.50909 8.12681 5.61818 8.39951 5.45455ZM4.69045 16.9091L3.70863 17.4545C3.4359 17.6182 3.38136 17.9455 3.545 18.2182C3.70863 18.4909 4.0359 18.5455 4.30863 18.3818L5.29045 17.8363C5.56318 17.6727 5.61772 17.3455 5.45408 17.0727C5.29045 16.8 4.96318 16.7455 4.69045 16.9091ZM20.7813 8.61817L21.7632 8.0727C22.0359 7.90912 22.0905 7.58182 21.9268 7.30909C21.7632 7.03636 21.4359 6.98182 21.1632 7.14545L20.1813 7.69087C19.9086 7.85452 19.8541 8.18182 20.0177 8.45452C20.1813 8.6727 20.5086 8.7273 20.7813 8.61817ZM22.3086 1.09091H31.745V14.1818L29.5086 11.9455C29.2905 11.7273 28.9632 11.7273 28.745 11.9455C28.5268 12.1636 28.5268 12.4909 28.745 12.7091L31.9086 15.8727C32.0177 15.9818 32.1268 16.0363 32.2905 16.0363C32.4541 16.0363 32.5632 15.9818 32.6723 15.8727L35.8359 12.7091C36.0541 12.4909 36.0541 12.1636 35.8359 11.9455C35.6177 11.7273 35.2905 11.7273 35.0723 11.9455L32.8359 14.1818V0.545455C32.8359 0.218182 32.6177 0 32.2905 0H22.3086C21.9813 0 21.7632 0.218182 21.7632 0.545455C21.7632 0.87273 22.0359 1.09091 22.3086 1.09091Z" fill="#FA6444"/>
<path d="M35.6182 19.8545C35.5091 19.8 25.4727 14.2909 25.3636 14.2909C25.4182 13.7455 25.4727 13.2545 25.4727 12.7636C25.4727 5.72727 19.7455 0 12.7091 0C5.72727 0 0 5.72727 0 12.7636C0 19.8 5.72727 25.5273 12.7091 25.5273C13.2545 25.5273 13.9091 25.4727 14.5636 25.3636V29.0727C14.5636 29.2363 14.6727 29.4545 14.8363 29.5091L24.9273 35.8909C25.0363 35.9455 25.0909 36 25.2 36C25.3091 36 25.4182 35.9455 25.4727 35.9455L35.6727 30.5455C35.8363 30.4363 35.9455 30.2727 35.9455 30.0545V20.3455C35.9455 20.1273 35.8363 19.9636 35.6182 19.8545ZM34.2545 20.3455L31.8545 21.6545L22.8 16.6909L25.2 15.4363L34.2545 20.3455ZM29.6727 23.1273L20.2909 18L21.6545 17.2364L31.3091 22.5273V25.2545L30 26.0727V23.6182C30 23.4 29.8363 23.1818 29.6727 23.1273ZM25.2545 25.2545L16.2545 20.1818L19.1455 18.6545L28.3091 23.6182L25.2545 25.2545ZM12.7091 24.3818C6.32727 24.3818 1.09091 19.1455 1.09091 12.7636C1.09091 6.32727 6.32727 1.09091 12.7091 1.09091C19.1455 1.09091 24.3818 6.32727 24.3818 12.7636C24.3818 13.3091 24.3273 14.0727 24.2182 14.7273C24.2182 14.7273 14.9455 19.6909 14.8363 19.6909C14.6727 19.8 14.5636 20.0182 14.5636 20.1818V24.2727C13.9091 24.3273 13.2545 24.3818 12.7091 24.3818ZM15.6545 28.7455V21.1091L24.6545 26.1818V34.4727L15.6545 28.7455ZM25.7455 34.5273V26.2364L28.8545 24.5455V27C28.8545 27.2182 28.9636 27.3818 29.1273 27.4909C29.2909 27.6 29.5091 27.6 29.6727 27.4909L32.1273 26.1273C32.2909 26.0182 32.4 25.8545 32.4 25.6364V22.5818L34.8 21.2727V29.7273L25.7455 34.5273Z" fill="#FA6444"/>
<path d="M23.4547 27.8726L17.5093 24.4363C17.2366 24.2726 16.9093 24.3817 16.7457 24.6544C16.582 24.9272 16.6912 25.2544 16.9639 25.4181L22.9093 28.7999C23.182 28.9636 23.5093 28.8544 23.6729 28.5817C23.782 28.3636 23.6729 27.9817 23.4547 27.8726ZM23.4002 30.109L17.4547 26.6181C17.182 26.4544 16.8547 26.5636 16.6912 26.8363C16.5275 27.109 16.6366 27.4363 16.9093 27.5999L22.8547 31.0363C23.1275 31.1999 23.4547 31.0908 23.6184 30.8181C23.7275 30.5454 23.6184 30.2181 23.4002 30.109Z" fill="#FA6444"/>
</g>
<defs>
<clipPath id="clip0_9360_28362">
<rect width="36" height="36" fill="white"/>
</clipPath>
</defs>
</svg>
