<svg width="38" height="38" viewBox="0 0 38 38" fill="none" xmlns="http://www.w3.org/2000/svg">
<g clip-path="url(#clip0_9360_28340)">
<path d="M30.4765 8.63672H8.3865V19.4321H30.4765V8.63672ZM18.8175 18.2319H9.61455V9.83699H18.8175V18.2319ZM29.2485 18.2319H20.0455V9.83699H29.2485V18.2319ZM10.8426 24.226C9.15028 24.226 7.77246 25.5727 7.77246 27.2268C7.77246 28.8809 9.15028 30.2276 10.8426 30.2276C12.5349 30.2276 13.9128 28.8809 13.9128 27.2268C13.9128 25.5727 12.5349 24.226 10.8426 24.226ZM10.8426 29.0273C9.82422 29.0273 9.00052 28.2222 9.00052 27.2268C9.00052 26.2314 9.82422 25.4264 10.8426 25.4264C11.861 25.4264 12.6847 26.2314 12.6847 27.2268C12.6847 28.2222 11.8536 29.0273 10.8426 29.0273ZM28.0204 24.226C26.3281 24.226 24.9503 25.5727 24.9503 27.2268C24.9503 28.8809 26.3281 30.2276 28.0204 30.2276C29.7128 30.2276 31.0906 28.8809 31.0906 27.2268C31.0906 25.5727 29.7128 24.226 28.0204 24.226ZM28.0204 29.0273C27.002 29.0273 26.1784 28.2222 26.1784 27.2268C26.1784 26.2314 27.002 25.4264 28.0204 25.4264C29.0388 25.4264 29.8625 26.2314 29.8625 27.2268C29.8625 28.2222 29.0388 29.0273 28.0204 29.0273ZM15.1333 29.6274H23.7223V24.8335H15.1333V29.6274ZM16.3614 26.0265H22.5017V28.4271H16.3614V26.0265Z" fill="#FA6444"/>
<path d="M37.136 19.6133V11.0335H33.5058V10.076C33.5058 6.88936 31.3439 4.17401 28.245 3.47834C27.1898 3.23897 26.1199 3.05944 25.0426 2.90984V1.84015C25.0426 0.822829 24.2311 0 23.2276 0H14.7644C13.7609 0 12.9493 0.822829 12.9493 1.84015V2.90236C11.8794 3.05944 10.8095 3.23897 9.74698 3.47086C6.64803 4.16653 4.48613 6.88188 4.48613 10.0685V11.026H0.863281V19.6059H4.49351V24.6326C4.49351 25.1188 4.25739 25.5677 3.85896 25.837C3.12111 26.3382 2.68577 27.1684 2.68577 28.0662V31.8661C2.68577 33.5566 4.04342 34.933 5.71096 34.933H6.316V36.1598C6.316 37.1771 7.12763 38 8.13111 38H10.5513C11.5547 38 12.3664 37.1771 12.3664 36.1598V34.933H25.6698V36.1598C25.6698 37.1771 26.4815 38 27.485 38H29.9051C30.9086 38 31.7202 37.1771 31.7202 36.1598V34.933H32.3253C33.9928 34.933 35.3504 33.5566 35.3504 31.8661V28.0662C35.3504 27.1684 34.9078 26.3382 34.1772 25.837C33.7788 25.5677 33.5427 25.1188 33.5427 24.6326V19.6059H37.136V19.6133ZM33.5058 12.2602H35.926V18.3866H33.5058V12.2602ZM14.1667 1.84015C14.1667 1.50354 14.4398 1.22677 14.7717 1.22677H23.2349C23.5669 1.22677 23.84 1.50354 23.84 1.84015V2.73779C20.6303 2.37125 17.3764 2.37125 14.1667 2.73779V1.84015ZM2.07336 18.3866V12.2602H4.49351V18.3866H2.07336ZM11.1416 36.1598C11.1416 36.4964 10.8685 36.7732 10.5365 36.7732H8.11636C7.78433 36.7732 7.51131 36.4964 7.51131 36.1598V34.933H11.1416V36.1598ZM30.488 36.1598C30.488 36.4964 30.215 36.7732 29.8829 36.7732H27.4628C27.1308 36.7732 26.8578 36.4964 26.8578 36.1598V34.933H30.488V36.1598ZM34.1108 28.0736V31.8736C34.1108 32.8909 33.2992 33.7137 32.2957 33.7137H5.69621C4.69273 33.7137 3.88109 32.8909 3.88109 31.8736V28.0736C3.88109 27.5874 4.1172 27.1385 4.51565 26.8693C5.2535 26.3681 5.68883 25.5377 5.68883 24.6401V10.0685C5.68883 7.45786 7.46705 5.23621 10.0053 4.66771C12.9493 4.00944 15.9745 3.67283 18.9923 3.67283C22.0101 3.67283 25.0352 4.00944 27.9793 4.66771C30.5175 5.23621 32.2957 7.45786 32.2957 10.0685V24.6326C32.2957 25.5303 32.7385 26.3606 33.4689 26.8617C33.8747 27.1311 34.1108 27.5874 34.1108 28.0736Z" fill="#FA6444"/>
</g>
<defs>
<clipPath id="clip0_9360_28340">
<rect width="38" height="38" fill="white"/>
</clipPath>
</defs>
</svg>
