<svg width="20" height="20" viewBox="0 0 20 20" fill="none" xmlns="http://www.w3.org/2000/svg">
<path d="M18.4985 10.143L10.8485 2.493C10.5298 2.17687 10.0989 1.99964 9.65 2H3.7C3.24913 2 2.81673 2.17911 2.49792 2.49792C2.17911 2.81673 2 3.24913 2 3.7V9.65C1.99982 9.87432 2.04404 10.0965 2.13012 10.3036C2.21619 10.5108 2.34241 10.6989 2.5015 10.857L10.1515 18.507C10.4702 18.8231 10.9011 19.0004 11.35 19C11.8001 18.9981 12.2312 18.8177 12.5485 18.4985L18.4985 12.5485C18.8177 12.2312 18.9981 11.8001 19 11.35C19.0002 11.1257 18.956 10.9035 18.8699 10.6964C18.7838 10.4892 18.6576 10.3011 18.4985 10.143ZM11.35 17.3L3.7 9.65V3.7H9.65L17.3 11.35M5.825 4.55C6.07717 4.55 6.32368 4.62478 6.53335 4.76488C6.74302 4.90498 6.90644 5.1041 7.00295 5.33708C7.09945 5.57005 7.1247 5.82641 7.0755 6.07374C7.02631 6.32107 6.90487 6.54825 6.72656 6.72656C6.54825 6.90487 6.32107 7.02631 6.07374 7.0755C5.82641 7.1247 5.57005 7.09945 5.33708 7.00295C5.1041 6.90644 4.90498 6.74302 4.76488 6.53335C4.62478 6.32368 4.55 6.07717 4.55 5.825C4.55 5.48685 4.68433 5.16255 4.92344 4.92344C5.16255 4.68433 5.48685 4.55 5.825 4.55Z" fill="#363D40"/>
</svg>
