<svg width="20" height="20" viewBox="0 0 20 20" fill="none" xmlns="http://www.w3.org/2000/svg">
<path d="M5.33333 9.65H7V11.35H5.33333V9.65ZM17 5.4V17.3C17 18.235 16.25 19 15.3333 19H3.66667C3.22464 19 2.80072 18.8209 2.48816 18.5021C2.17559 18.1833 2 17.7509 2 17.3L2.00833 5.4C2.00833 4.465 2.74167 3.7 3.66667 3.7H4.5V2H6.16667V3.7H12.8333V2H14.5V3.7H15.3333C16.25 3.7 17 4.465 17 5.4ZM3.66667 7.1H15.3333V5.4H3.66667V7.1ZM15.3333 17.3V8.8H3.66667V17.3H15.3333ZM12 11.35H13.6667V9.65H12V11.35ZM8.66667 11.35H10.3333V9.65H8.66667V11.35Z" fill="#363D40"/>
</svg>
