<svg width="20" height="20" viewBox="0 0 20 20" fill="none" xmlns="http://www.w3.org/2000/svg">
<path d="M16.45 3.7H14.75V2.85C14.75 2.62457 14.6604 2.40837 14.501 2.24896C14.3416 2.08955 14.1254 2 13.9 2C13.6746 2 13.4584 2.08955 13.299 2.24896C13.1396 2.40837 13.05 2.62457 13.05 2.85V3.7H7.95V2.85C7.95 2.62457 7.86045 2.40837 7.70104 2.24896C7.54164 2.08955 7.32543 2 7.1 2C6.87457 2 6.65837 2.08955 6.49896 2.24896C6.33955 2.40837 6.25 2.62457 6.25 2.85V3.7H4.55C3.8737 3.7 3.2251 3.96866 2.74688 4.44688C2.26866 4.9251 2 5.5737 2 6.25V16.45C2 17.1263 2.26866 17.7749 2.74688 18.2531C3.2251 18.7313 3.8737 19 4.55 19H16.45C17.1263 19 17.7749 18.7313 18.2531 18.2531C18.7313 17.7749 19 17.1263 19 16.45V6.25C19 5.5737 18.7313 4.9251 18.2531 4.44688C17.7749 3.96866 17.1263 3.7 16.45 3.7ZM17.3 16.45C17.3 16.6754 17.2104 16.8916 17.051 17.051C16.8916 17.2104 16.6754 17.3 16.45 17.3H4.55C4.32457 17.3 4.10837 17.2104 3.94896 17.051C3.78955 16.8916 3.7 16.6754 3.7 16.45V10.5H17.3V16.45ZM17.3 8.8H3.7V6.25C3.7 6.02457 3.78955 5.80837 3.94896 5.64896C4.10837 5.48955 4.32457 5.4 4.55 5.4H6.25V6.25C6.25 6.47543 6.33955 6.69163 6.49896 6.85104C6.65837 7.01045 6.87457 7.1 7.1 7.1C7.32543 7.1 7.54164 7.01045 7.70104 6.85104C7.86045 6.69163 7.95 6.47543 7.95 6.25V5.4H13.05V6.25C13.05 6.47543 13.1396 6.69163 13.299 6.85104C13.4584 7.01045 13.6746 7.1 13.9 7.1C14.1254 7.1 14.3416 7.01045 14.501 6.85104C14.6604 6.69163 14.75 6.47543 14.75 6.25V5.4H16.45C16.6754 5.4 16.8916 5.48955 17.051 5.64896C17.2104 5.80837 17.3 6.02457 17.3 6.25V8.8Z" fill="#000E12"/>
<rect x="6" y="12" width="2" height="2" fill="#000E12"/>
<rect x="9" y="12" width="2" height="2" fill="#000E12"/>
<rect x="12" y="12" width="2" height="2" fill="#000E12"/>
</svg>
