<svg width="36" height="36" viewBox="0 0 36 36" fill="none" xmlns="http://www.w3.org/2000/svg">
<g clip-path="url(#clip0_9360_18810)">
<path d="M17.5703 8.18253C17.4057 8.18253 17.296 8.12477 17.1863 8.00927C16.9669 7.77825 16.9669 7.43173 17.1863 7.20071L17.5154 6.85419C17.7897 6.50766 17.7897 5.98788 17.5154 5.69911C17.2412 5.41034 16.7475 5.41034 16.4184 5.69911L14.6084 7.60499C14.389 7.836 14.0599 7.836 13.8405 7.60499C13.6211 7.37397 13.6211 7.02745 13.8405 6.79643L15.6505 4.89055C16.4184 4.13975 17.5703 4.13975 18.2833 4.89055C18.9964 5.64135 18.9964 6.85419 18.2833 7.66274L17.9542 8.00927C17.8445 8.12477 17.7348 8.18253 17.5703 8.18253ZM10.4398 7.31622C10.2752 7.31622 10.1655 7.25846 10.0558 7.14296C9.83641 6.91194 9.83641 6.56542 10.0558 6.3344L10.6043 5.75686C10.8786 5.41034 10.8786 4.89055 10.6043 4.60178C10.3301 4.31301 9.78156 4.31301 9.50731 4.60178L7.47786 6.73868C7.25846 6.96969 6.92936 6.96969 6.70996 6.73868C6.49056 6.50766 6.49056 6.16114 6.70996 5.93012L8.73942 3.79322C9.39761 3.10018 10.714 3.10018 11.3722 3.79322C12.0853 4.54403 12.0853 5.75686 11.3722 6.56542L10.8237 7.14296C10.714 7.25846 10.6043 7.31622 10.4398 7.31622Z" fill="white"/>
<path d="M15.0974 16.3446C14.9861 16.3446 14.8748 16.2881 14.7634 16.2316C11.4239 13.9711 5.63544 10.6369 0.960115 8.71542C0.793136 8.65892 0.62616 8.54589 0.459184 8.37635C-0.153061 7.75471 -0.153061 6.79399 0.459184 6.11584L0.514842 6.05933C1.40538 5.21164 2.62987 4.81605 3.91002 4.92907L17.3237 6.51143L22.3887 7.35912C22.667 7.41563 22.8896 7.6982 22.834 7.98076C22.7783 8.26333 22.5 8.48938 22.2217 8.43286L17.1568 7.58517L3.79871 6.05933C2.85251 5.9463 1.96197 6.28538 1.23841 6.90702C1.07143 7.13307 1.07143 7.41563 1.23841 7.58517C1.29407 7.64169 1.34973 7.64169 1.40538 7.6982C6.08071 9.61962 11.9805 13.0104 15.3757 15.3274C15.654 15.497 15.7096 15.836 15.5427 16.1186C15.4314 16.2316 15.2644 16.3446 15.0974 16.3446ZM28.9564 22.1655C28.7894 22.1655 28.6781 22.1089 28.5668 21.9959C28.3442 21.7699 28.3442 21.4308 28.5668 21.2047L30.4035 19.3398C30.6818 19.0007 30.6818 18.4921 30.4035 18.2096C30.1252 17.927 29.6243 17.927 29.2904 18.2096L28.9564 18.5486C28.7338 18.7747 28.3998 18.7747 28.1772 18.5486C27.9545 18.3226 27.9545 17.9835 28.1772 17.7575L28.5111 17.4184C29.2904 16.6837 30.4592 16.6837 31.1827 17.4184C31.9063 18.1531 31.9063 19.3398 31.1827 20.131L29.346 21.9959C29.2347 22.1089 29.1234 22.1655 28.9564 22.1655ZM29.7913 29.4556C29.6243 29.4556 29.513 29.3991 29.4017 29.2861C29.179 29.06 29.179 28.7209 29.4017 28.4949L31.4054 26.4039C31.6837 26.0648 31.6837 25.5562 31.4054 25.2737C31.1271 24.9911 30.6262 24.9911 30.2922 25.2737L29.7356 25.8388C29.513 26.0648 29.179 26.0648 28.9564 25.8388C28.7338 25.6127 28.7338 25.2737 28.9564 25.0476L29.513 24.4825C30.2922 23.7478 31.461 23.7478 32.1846 24.4825C32.9082 25.2172 32.9082 26.4039 32.1846 27.1951L30.1809 29.2861C30.0696 29.3991 29.9583 29.4556 29.7913 29.4556Z" fill="white"/>
<path d="M28.6808 36.0007C28.2819 36.0007 27.8261 35.8297 27.5412 35.5446C27.3703 35.3735 27.2563 35.2025 27.1993 35.0314C25.2051 30.1851 21.8434 24.0845 19.5073 20.5495C19.3363 20.2644 19.3933 19.9223 19.6782 19.7513C19.9631 19.5802 20.305 19.6372 20.4759 19.9223C22.869 23.5143 26.2877 29.672 28.2819 34.5753C28.3389 34.6323 28.3389 34.6894 28.3959 34.7464C28.5668 34.9174 28.9087 34.9174 29.0796 34.7464C29.7634 34.0622 30.1052 33.0929 29.9913 32.1237L28.3959 18.3259L27.5982 12.9094C27.5412 12.6243 27.7691 12.2822 28.054 12.2822C28.3389 12.2252 28.6808 12.4533 28.6808 12.7384L29.4785 18.1548L31.0739 31.9526C31.1878 33.264 30.732 34.5753 29.8203 35.4876C29.5355 35.8867 29.0796 36.0007 28.6808 36.0007ZM7.76972 26.9352C7.65577 26.9352 7.54181 26.8782 7.42785 26.8212L1.33116 22.7161C1.04627 22.488 0.875338 22.1459 0.818359 21.8038C0.818359 21.4617 0.932316 21.1767 1.16023 20.8916L2.18584 19.8653C2.52771 19.5232 2.86958 19.5232 3.15447 19.5232H3.26843L9.76396 21.1196C10.0488 21.1767 10.2768 21.5188 10.1628 21.8038C10.1058 22.0889 9.76396 22.317 9.47906 22.2029L3.15447 20.7205H3.04052L2.01491 21.7468L8.11159 25.909C8.39649 26.08 8.45346 26.4221 8.28253 26.7072C8.11159 26.8212 7.94066 26.9352 7.76972 26.9352ZM14.2083 34.9744H14.0373C13.6955 34.9174 13.4106 34.7464 13.2396 34.4613L8.79532 27.8475C8.6244 27.5624 8.68138 27.2203 8.96626 27.0493C9.25115 26.8782 9.59302 26.9352 9.76396 27.2203L14.2083 33.7771L15.1769 32.8078L13.2396 26.023C13.1257 25.7379 13.3536 25.3958 13.6385 25.3388C13.9234 25.2818 14.2653 25.4528 14.3222 25.7379L16.2595 32.5228C16.3735 32.8649 16.2595 33.321 15.9176 33.6631L14.892 34.6894C14.7781 34.8604 14.4932 34.9744 14.2083 34.9744Z" fill="white"/>
<path d="M10.4 27.8182C10.233 27.8182 10.0104 27.8182 9.84339 27.7619C9.56508 27.7056 9.34243 27.424 9.39809 27.1424C9.45375 26.8609 9.73207 26.6356 10.0104 26.6919C11.1793 26.8609 13.1275 26.0725 13.6841 25.5094L32.2197 8.3905C34.0566 6.58852 35.5038 2.81561 34.3906 1.63305C34.1123 1.35149 33.667 1.18255 33.0547 1.23887C31.3848 1.23887 28.9357 2.42142 27.5998 3.77291L10.4557 22.1307C9.89905 22.6938 9.0641 24.5521 9.28677 25.7909C9.34243 26.0725 9.11976 26.4104 8.84145 26.4104C8.56314 26.4667 8.22916 26.2414 8.22916 25.9599C7.95085 24.3268 8.95277 22.1307 9.73207 21.3423L26.8761 2.92823C28.4347 1.29518 31.1622 0.0563121 33.1103 0H33.166C34.0566 0 34.7802 0.225248 35.2812 0.732057C37.0624 2.59036 35.2255 6.9827 33.1103 9.06625L14.519 26.2414C13.8511 26.9735 11.9586 27.8182 10.4 27.8182Z" fill="white"/>
<path d="M32.1678 5.7655C31.8881 5.7655 31.6083 5.54398 31.6083 5.26709C31.5524 4.76867 31.1608 4.4364 30.6014 4.38102H30.4895C30.1538 4.38102 29.93 4.1595 29.93 3.82723C29.93 3.49495 30.1538 3.27344 30.4895 3.27344H30.6573C31.8321 3.32882 32.6713 4.10412 32.7272 5.15633C32.7272 5.4886 32.5035 5.7655 32.1678 5.7655ZM8.0559 28.6371C7.66429 28.6371 7.27268 28.4709 6.99296 28.194C6.71324 27.9171 6.54541 27.5849 6.54541 27.1972C6.54541 26.8096 6.71324 26.4219 6.93702 26.145L10.1258 22.9884C10.6293 22.49 11.6923 22.49 12.1958 22.9884C12.4755 23.2653 12.5874 23.5976 12.5874 24.0406C12.5874 24.4836 12.4195 24.8159 12.1958 25.0928L9.00695 28.2494C8.83912 28.4709 8.44751 28.6371 8.0559 28.6371ZM11.2447 23.7083C11.1328 23.7083 11.0769 23.7637 11.0209 23.8191L7.83212 26.9757C7.77618 27.0311 7.72024 27.1418 7.72024 27.1972C7.72024 27.308 7.77618 27.3634 7.83212 27.4187C7.99996 27.5849 8.16779 27.5849 8.27968 27.4741L11.5244 24.2621C11.5804 24.2067 11.6363 24.096 11.6363 24.0406C11.6363 23.9852 11.5804 23.8745 11.5244 23.8191C11.4125 23.7083 11.3006 23.7083 11.2447 23.7083Z" fill="white"/>
</g>
<defs>
<clipPath id="clip0_9360_18810">
<rect width="36" height="36" fill="white"/>
</clipPath>
</defs>
</svg>
