<svg width="38" height="38" viewBox="0 0 38 38" fill="none" xmlns="http://www.w3.org/2000/svg">
<g clip-path="url(#clip0_9360_18822)">
<path d="M14.0486 11.1697V6.56364C14.0486 6.21818 13.8183 5.98788 13.4728 5.98788C13.1274 5.98788 12.897 6.21818 12.897 6.56364V11.1697C11.8608 11.4 11.1122 12.3788 11.1122 13.4727C11.1122 14.1636 11.4001 14.7394 11.8031 15.2L9.73038 18.7121C9.55772 19 9.67282 19.3455 9.96075 19.5181C10.2486 19.6909 10.5941 19.5758 10.7667 19.2878L12.8395 15.7758C13.0698 15.8333 13.3001 15.8909 13.5304 15.8909C14.8547 15.8909 15.891 14.797 15.891 13.5303C15.8334 12.3212 15.0274 11.4 14.0486 11.1697ZM13.4728 14.6819C12.7819 14.6819 12.2637 14.1061 12.2637 13.4727C12.2637 12.7819 12.8395 12.2636 13.4728 12.2636C14.1637 12.2636 14.6819 12.8394 14.6819 13.4727C14.6819 14.1061 14.1062 14.6819 13.4728 14.6819ZM13.4728 4.49091C13.8183 4.49091 14.0486 4.26061 14.0486 3.91515V2.76364C14.0486 2.41819 13.8183 2.18788 13.4728 2.18788C13.1274 2.18788 12.897 2.41819 12.897 2.76364V3.91515C12.897 4.20303 13.1274 4.49091 13.4728 4.49091ZM13.4728 22.397C13.1274 22.397 12.897 22.6273 12.897 22.9727V24.1242C12.897 24.4697 13.1274 24.7 13.4728 24.7C13.8183 24.7 14.0486 24.4697 14.0486 24.1242V22.9727C14.0486 22.6848 13.7608 22.397 13.4728 22.397ZM4.49102 13.4727C4.49102 13.1273 4.26071 12.897 3.91526 12.897H2.76374C2.41829 12.897 2.18799 13.1273 2.18799 13.4727C2.18799 13.8181 2.41829 14.0485 2.76374 14.0485H3.91526C4.20314 14.0485 4.49102 13.7606 4.49102 13.4727ZM22.397 13.4727C22.397 13.8181 22.6274 14.0485 22.9728 14.0485H24.1244C24.4698 14.0485 24.7001 13.8181 24.7001 13.4727C24.7001 13.1273 24.4698 12.897 24.1244 12.897H22.9728C22.685 12.897 22.397 13.1273 22.397 13.4727ZM3.85768 8.57882L4.89405 9.15452C5.18193 9.32726 5.52738 9.21215 5.70011 8.92422C5.87284 8.63637 5.75768 8.29089 5.46981 8.11815L4.43345 7.54242C4.14557 7.3697 3.80011 7.48485 3.62738 7.77273C3.51223 8.11815 3.56981 8.46363 3.85768 8.57882ZM8.98194 21.1878C8.69409 21.0152 8.3486 21.1303 8.17586 21.4181L7.60011 22.4545C7.42738 22.7424 7.54254 23.0878 7.83041 23.2606C8.11831 23.4333 8.46371 23.3181 8.63645 23.0303L9.21223 21.9939C9.32742 21.7061 9.26979 21.3606 8.98194 21.1878ZM17.9062 5.7C18.1941 5.87273 18.5395 5.75758 18.7122 5.4697L19.288 4.43333C19.4608 4.14545 19.3456 3.8 19.0577 3.62727C18.7698 3.45455 18.4244 3.5697 18.2516 3.85758L17.6759 4.89394C17.5608 5.18181 17.6183 5.52727 17.9062 5.7ZM8.86675 5.75758C9.15468 5.58485 9.21223 5.23939 9.03949 4.95152L8.46371 3.91515C8.29105 3.62727 7.94557 3.5697 7.65768 3.74242C7.36981 3.91515 7.31223 4.26061 7.48496 4.54848L8.06075 5.58485C8.23342 5.81515 8.5789 5.9303 8.86675 5.75758ZM4.95163 17.8485L3.91526 18.4242C3.62738 18.597 3.56981 18.9424 3.74254 19.2303C3.91526 19.5181 4.26071 19.5758 4.5486 19.403L5.58496 18.8273C5.87284 18.6545 5.93041 18.3091 5.75768 18.0212C5.58496 17.7333 5.23951 17.6758 4.95163 17.8485ZM21.9365 9.09696L22.9728 8.52118C23.2608 8.34852 23.3183 8.00304 23.1456 7.71515C22.9728 7.42727 22.6274 7.3697 22.3395 7.54242L21.3031 8.11815C21.0153 8.29089 20.9577 8.63637 21.1304 8.92422C21.3031 9.15452 21.6486 9.21215 21.9365 9.09696ZM23.5486 1.15152H33.5092V14.9697L31.1486 12.6091C30.9183 12.3788 30.5728 12.3788 30.3425 12.6091C30.1122 12.8394 30.1122 13.1848 30.3425 13.4152L33.6819 16.7545C33.797 16.8697 33.9122 16.9273 34.085 16.9273C34.2577 16.9273 34.3728 16.8697 34.488 16.7545L37.8274 13.4152C38.0577 13.1848 38.0577 12.8394 37.8274 12.6091C37.597 12.3788 37.2516 12.3788 37.0213 12.6091L34.6607 14.9697V0.575758C34.6607 0.230303 34.4304 0 34.085 0H23.5486C23.2031 0 22.9728 0.230303 22.9728 0.575758C22.9728 0.921215 23.2608 1.15152 23.5486 1.15152Z" fill="white"/>
<path d="M37.597 20.9576C37.4818 20.9 26.8878 15.0848 26.7727 15.0848C26.8303 14.5091 26.8878 13.9909 26.8878 13.4727C26.8878 6.04545 20.8424 0 13.4152 0C6.04545 0 0 6.04545 0 13.4727C0 20.9 6.04545 26.9455 13.4152 26.9455C13.9909 26.9455 14.6819 26.8878 15.3727 26.7727V30.6879C15.3727 30.8606 15.4878 31.0909 15.6606 31.1485L26.3121 37.8848C26.4273 37.9424 26.4848 38 26.6 38C26.7152 38 26.8303 37.9424 26.8878 37.9424L37.6545 32.2424C37.8273 32.1273 37.9424 31.9545 37.9424 31.7242V21.4758C37.9424 21.2455 37.8273 21.0727 37.597 20.9576ZM36.1576 21.4758L33.6242 22.8576L24.0667 17.6181L26.6 16.2939L36.1576 21.4758ZM31.3212 24.4121L21.4181 19L22.8576 18.1939L33.0485 23.7788V26.6576L31.6667 27.5212V24.9303C31.6667 24.7 31.4939 24.4697 31.3212 24.4121ZM26.6576 26.6576L17.1576 21.303L20.2091 19.6909L29.8819 24.9303L26.6576 26.6576ZM13.4152 25.7364C6.67878 25.7364 1.15152 20.2091 1.15152 13.4727C1.15152 6.67879 6.67878 1.15152 13.4152 1.15152C20.2091 1.15152 25.7364 6.67879 25.7364 13.4727C25.7364 14.0485 25.6788 14.8545 25.5636 15.5455C25.5636 15.5455 15.7758 20.7848 15.6606 20.7848C15.4878 20.9 15.3727 21.1303 15.3727 21.303V25.6212C14.6819 25.6788 13.9909 25.7364 13.4152 25.7364ZM16.5242 30.3424V22.2819L26.0242 27.6364V36.3879L16.5242 30.3424ZM27.1758 36.4455V27.6939L30.4576 25.9091V28.5C30.4576 28.7303 30.5727 28.903 30.7455 29.0181C30.9181 29.1333 31.1485 29.1333 31.3212 29.0181L33.9121 27.5788C34.0848 27.4636 34.2 27.2909 34.2 27.0606V23.8364L36.7333 22.4545V31.3788L27.1758 36.4455Z" fill="white"/>
<path d="M24.7576 29.4194L18.4819 25.7921C18.194 25.6194 17.8486 25.7345 17.6758 26.0224C17.5031 26.3103 17.6183 26.6557 17.9061 26.8285L24.1819 30.3982C24.4698 30.5709 24.8152 30.4557 24.9879 30.1679C25.1031 29.9376 24.9879 29.5345 24.7576 29.4194ZM24.7001 31.78L18.4243 28.0951C18.1364 27.9224 17.7909 28.0376 17.6183 28.3254C17.4455 28.6134 17.5606 28.9588 17.8486 29.1315L24.1243 32.7588C24.4122 32.9315 24.7576 32.8163 24.9304 32.5285C25.0455 32.2406 24.9304 31.8951 24.7001 31.78Z" fill="white"/>
</g>
<defs>
<clipPath id="clip0_9360_18822">
<rect width="38" height="38" fill="white"/>
</clipPath>
</defs>
</svg>
