<svg width="38" height="38" viewBox="0 0 38 38" fill="none" xmlns="http://www.w3.org/2000/svg">
<g clip-path="url(#clip0_9360_18791)">
<path d="M30.4765 8.63672H8.3865V19.4321H30.4765V8.63672ZM18.8175 18.2319H9.61455V9.83699H18.8175V18.2319ZM29.2485 18.2319H20.0455V9.83699H29.2485V18.2319ZM10.8426 24.226C9.15028 24.226 7.77246 25.5727 7.77246 27.2268C7.77246 28.8809 9.15028 30.2276 10.8426 30.2276C12.5349 30.2276 13.9128 28.8809 13.9128 27.2268C13.9128 25.5727 12.5349 24.226 10.8426 24.226ZM10.8426 29.0273C9.82422 29.0273 9.00052 28.2222 9.00052 27.2268C9.00052 26.2314 9.82422 25.4264 10.8426 25.4264C11.861 25.4264 12.6847 26.2314 12.6847 27.2268C12.6847 28.2222 11.8536 29.0273 10.8426 29.0273ZM28.0204 24.226C26.3281 24.226 24.9503 25.5727 24.9503 27.2268C24.9503 28.8809 26.3281 30.2276 28.0204 30.2276C29.7128 30.2276 31.0906 28.8809 31.0906 27.2268C31.0906 25.5727 29.7128 24.226 28.0204 24.226ZM28.0204 29.0273C27.002 29.0273 26.1784 28.2222 26.1784 27.2268C26.1784 26.2314 27.002 25.4264 28.0204 25.4264C29.0388 25.4264 29.8625 26.2314 29.8625 27.2268C29.8625 28.2222 29.0388 29.0273 28.0204 29.0273ZM15.1333 29.6274H23.7223V24.8335H15.1333V29.6274ZM16.3614 26.0265H22.5017V28.4271H16.3614V26.0265Z" fill="white"/>
<path d="M37.1362 19.6133V11.0335H33.5061V10.076C33.5061 6.88936 31.3441 4.17401 28.2452 3.47834C27.1901 3.23897 26.1202 3.05944 25.0429 2.90984V1.84015C25.0429 0.822829 24.2313 0 23.2278 0H14.7646C13.7611 0 12.9496 0.822829 12.9496 1.84015V2.90236C11.8796 3.05944 10.8097 3.23897 9.74722 3.47086C6.64828 4.16653 4.48638 6.88188 4.48638 10.0685V11.026H0.863525V19.6059H4.49375V24.6326C4.49375 25.1188 4.25764 25.5677 3.8592 25.837C3.12135 26.3382 2.68602 27.1684 2.68602 28.0662V31.8661C2.68602 33.5566 4.04366 34.933 5.7112 34.933H6.31625V36.1598C6.31625 37.1771 7.12788 38 8.13135 38H10.5515C11.555 38 12.3667 37.1771 12.3667 36.1598V34.933H25.6701V36.1598C25.6701 37.1771 26.4817 38 27.4852 38H29.9054C30.9088 38 31.7205 37.1771 31.7205 36.1598V34.933H32.3255C33.993 34.933 35.3507 33.5566 35.3507 31.8661V28.0662C35.3507 27.1684 34.908 26.3382 34.1775 25.837C33.779 25.5677 33.5429 25.1188 33.5429 24.6326V19.6059H37.1362V19.6133ZM33.5061 12.2602H35.9262V18.3866H33.5061V12.2602ZM14.167 1.84015C14.167 1.50354 14.44 1.22677 14.772 1.22677H23.2352C23.5672 1.22677 23.8402 1.50354 23.8402 1.84015V2.73779C20.6306 2.37125 17.3767 2.37125 14.167 2.73779V1.84015ZM2.0736 18.3866V12.2602H4.49375V18.3866H2.0736ZM11.1418 36.1598C11.1418 36.4964 10.8688 36.7732 10.5368 36.7732H8.1166C7.78457 36.7732 7.51156 36.4964 7.51156 36.1598V34.933H11.1418V36.1598ZM30.4883 36.1598C30.4883 36.4964 30.2152 36.7732 29.8832 36.7732H27.463C27.131 36.7732 26.858 36.4964 26.858 36.1598V34.933H30.4883V36.1598ZM34.1111 28.0736V31.8736C34.1111 32.8909 33.2994 33.7137 32.2959 33.7137H5.69645C4.69297 33.7137 3.88133 32.8909 3.88133 31.8736V28.0736C3.88133 27.5874 4.11744 27.1385 4.51589 26.8693C5.25374 26.3681 5.68907 25.5377 5.68907 24.6401V10.0685C5.68907 7.45786 7.46729 5.23621 10.0055 4.66771C12.9496 4.00944 15.9747 3.67283 18.9925 3.67283C22.0103 3.67283 25.0355 4.00944 27.9795 4.66771C30.5177 5.23621 32.2959 7.45786 32.2959 10.0685V24.6326C32.2959 25.5303 32.7387 26.3606 33.4691 26.8617C33.875 27.1311 34.1111 27.5874 34.1111 28.0736Z" fill="white"/>
</g>
<defs>
<clipPath id="clip0_9360_18791">
<rect width="38" height="38" fill="white"/>
</clipPath>
</defs>
</svg>
