<svg width="36" height="36" viewBox="0 0 36 36" fill="none" xmlns="http://www.w3.org/2000/svg">
<g clip-path="url(#clip0_9360_6455)">
<path d="M13.3091 10.5818V6.21818C13.3091 5.89091 13.091 5.67273 12.7637 5.67273C12.4364 5.67273 12.2182 5.89091 12.2182 6.21818V10.5818C11.2364 10.8 10.5273 11.7273 10.5273 12.7636C10.5273 13.4182 10.8 13.9636 11.1818 14.4L9.21818 17.7273C9.0546 18 9.16365 18.3273 9.43643 18.4909C9.70913 18.6545 10.0364 18.5455 10.2 18.2727L12.1637 14.9455C12.3818 15 12.6 15.0545 12.8182 15.0545C14.0728 15.0545 15.0546 14.0182 15.0546 12.8182C15 11.6727 14.2364 10.8 13.3091 10.5818ZM12.7637 13.9091C12.1091 13.9091 11.6182 13.3636 11.6182 12.7636C11.6182 12.1091 12.1637 11.6182 12.7637 11.6182C13.4182 11.6182 13.9091 12.1636 13.9091 12.7636C13.9091 13.3636 13.3637 13.9091 12.7637 13.9091ZM12.7637 4.25455C13.091 4.25455 13.3091 4.03636 13.3091 3.70909V2.61818C13.3091 2.29091 13.091 2.07273 12.7637 2.07273C12.4364 2.07273 12.2182 2.29091 12.2182 2.61818V3.70909C12.2182 3.98182 12.4364 4.25455 12.7637 4.25455ZM12.7637 21.2182C12.4364 21.2182 12.2182 21.4363 12.2182 21.7636V22.8545C12.2182 23.1818 12.4364 23.4 12.7637 23.4C13.091 23.4 13.3091 23.1818 13.3091 22.8545V21.7636C13.3091 21.4909 13.0364 21.2182 12.7637 21.2182ZM4.25457 12.7636C4.25457 12.4363 4.03639 12.2182 3.70912 12.2182H2.61821C2.29094 12.2182 2.07275 12.4363 2.07275 12.7636C2.07275 13.0909 2.29094 13.3091 2.61821 13.3091H3.70912C3.98185 13.3091 4.25457 13.0363 4.25457 12.7636ZM21.2182 12.7636C21.2182 13.0909 21.4364 13.3091 21.7637 13.3091H22.8546C23.1818 13.3091 23.4 13.0909 23.4 12.7636C23.4 12.4363 23.1818 12.2182 22.8546 12.2182H21.7637C21.491 12.2182 21.2182 12.4363 21.2182 12.7636ZM3.65457 8.1273L4.63639 8.6727C4.90912 8.83635 5.23639 8.7273 5.40003 8.45452C5.56367 8.18182 5.45457 7.85452 5.18185 7.69087L4.20003 7.14545C3.9273 6.98182 3.60003 7.09091 3.43639 7.36363C3.3273 7.69087 3.38185 8.01817 3.65457 8.1273ZM8.50913 20.0727C8.23643 19.9091 7.90913 20.0182 7.74548 20.2909L7.20003 21.2727C7.03639 21.5455 7.14548 21.8727 7.41821 22.0363C7.69095 22.2 8.01818 22.0909 8.18183 21.8182L8.7273 20.8363C8.83643 20.5636 8.78183 20.2363 8.50913 20.0727ZM16.9637 5.4C17.2364 5.56363 17.5637 5.45455 17.7273 5.18182L18.2728 4.2C18.4364 3.92727 18.3273 3.6 18.0546 3.43636C17.7818 3.27273 17.4546 3.38182 17.291 3.65455L16.7455 4.63636C16.6364 4.90909 16.691 5.23636 16.9637 5.4ZM8.4 5.45455C8.67278 5.29091 8.7273 4.96363 8.56365 4.69091L8.01818 3.70909C7.8546 3.43636 7.5273 3.38182 7.25457 3.54545C6.98185 3.70909 6.9273 4.03636 7.09094 4.30909L7.63643 5.29091C7.8 5.50909 8.1273 5.61818 8.4 5.45455ZM4.69094 16.9091L3.70912 17.4545C3.43639 17.6182 3.38185 17.9455 3.54548 18.2182C3.70912 18.4909 4.03639 18.5455 4.30912 18.3818L5.29094 17.8363C5.56367 17.6727 5.61821 17.3455 5.45457 17.0727C5.29094 16.8 4.96367 16.7455 4.69094 16.9091ZM20.7818 8.61817L21.7637 8.0727C22.0364 7.90912 22.091 7.58182 21.9273 7.30909C21.7637 7.03636 21.4364 6.98182 21.1637 7.14545L20.1818 7.69087C19.9091 7.85452 19.8546 8.18182 20.0182 8.45452C20.1818 8.6727 20.5091 8.7273 20.7818 8.61817ZM22.3091 1.09091H31.7455V14.1818L29.5091 11.9455C29.291 11.7273 28.9637 11.7273 28.7455 11.9455C28.5273 12.1636 28.5273 12.4909 28.7455 12.7091L31.9091 15.8727C32.0182 15.9818 32.1273 16.0363 32.291 16.0363C32.4546 16.0363 32.5637 15.9818 32.6728 15.8727L35.8364 12.7091C36.0546 12.4909 36.0546 12.1636 35.8364 11.9455C35.6182 11.7273 35.291 11.7273 35.0728 11.9455L32.8364 14.1818V0.545455C32.8364 0.218182 32.6182 0 32.291 0H22.3091C21.9818 0 21.7637 0.218182 21.7637 0.545455C21.7637 0.87273 22.0364 1.09091 22.3091 1.09091Z" fill="white"/>
<path d="M35.6182 19.8545C35.5091 19.8 25.4727 14.2909 25.3636 14.2909C25.4182 13.7455 25.4727 13.2545 25.4727 12.7636C25.4727 5.72727 19.7455 0 12.7091 0C5.72727 0 0 5.72727 0 12.7636C0 19.8 5.72727 25.5273 12.7091 25.5273C13.2545 25.5273 13.9091 25.4727 14.5636 25.3636V29.0727C14.5636 29.2363 14.6727 29.4545 14.8363 29.5091L24.9273 35.8909C25.0363 35.9455 25.0909 36 25.2 36C25.3091 36 25.4182 35.9455 25.4727 35.9455L35.6727 30.5455C35.8363 30.4363 35.9455 30.2727 35.9455 30.0545V20.3455C35.9455 20.1273 35.8363 19.9636 35.6182 19.8545ZM34.2545 20.3455L31.8545 21.6545L22.8 16.6909L25.2 15.4363L34.2545 20.3455ZM29.6727 23.1273L20.2909 18L21.6545 17.2364L31.3091 22.5273V25.2545L30 26.0727V23.6182C30 23.4 29.8363 23.1818 29.6727 23.1273ZM25.2545 25.2545L16.2545 20.1818L19.1455 18.6545L28.3091 23.6182L25.2545 25.2545ZM12.7091 24.3818C6.32727 24.3818 1.09091 19.1455 1.09091 12.7636C1.09091 6.32727 6.32727 1.09091 12.7091 1.09091C19.1455 1.09091 24.3818 6.32727 24.3818 12.7636C24.3818 13.3091 24.3273 14.0727 24.2182 14.7273C24.2182 14.7273 14.9455 19.6909 14.8363 19.6909C14.6727 19.8 14.5636 20.0182 14.5636 20.1818V24.2727C13.9091 24.3273 13.2545 24.3818 12.7091 24.3818ZM15.6545 28.7455V21.1091L24.6545 26.1818V34.4727L15.6545 28.7455ZM25.7455 34.5273V26.2364L28.8545 24.5455V27C28.8545 27.2182 28.9636 27.3818 29.1273 27.4909C29.2909 27.6 29.5091 27.6 29.6727 27.4909L32.1273 26.1273C32.2909 26.0182 32.4 25.8545 32.4 25.6364V22.5818L34.8 21.2727V29.7273L25.7455 34.5273Z" fill="white"/>
<path d="M23.4547 27.8726L17.5093 24.4363C17.2366 24.2726 16.9093 24.3817 16.7457 24.6544C16.582 24.9272 16.6912 25.2544 16.9639 25.4181L22.9093 28.7999C23.182 28.9636 23.5093 28.8544 23.6729 28.5817C23.782 28.3636 23.6729 27.9817 23.4547 27.8726ZM23.4002 30.109L17.4547 26.6181C17.182 26.4544 16.8547 26.5636 16.6912 26.8363C16.5275 27.109 16.6366 27.4363 16.9093 27.5999L22.8547 31.0363C23.1275 31.1999 23.4547 31.0908 23.6184 30.8181C23.7275 30.5454 23.6184 30.2181 23.4002 30.109Z" fill="white"/>
</g>
<defs>
<clipPath id="clip0_9360_6455">
<rect width="36" height="36" fill="white"/>
</clipPath>
</defs>
</svg>
