<svg width="34" height="36" viewBox="0 0 34 36" fill="none" xmlns="http://www.w3.org/2000/svg">
<g clip-path="url(#clip0_9360_6447)">
<path d="M31.8069 0.552734H12.6775C11.9116 0.552734 11.2885 1.12704 11.2885 1.83291V7.62069C8.77565 8.21926 6.50234 9.52269 4.84372 11.3251C3.04852 13.2759 2.05976 15.7279 2.05976 18.2291V19.6331C0.890902 19.8157 0 20.7179 0 21.8008V25.5797C0 26.794 1.11953 27.7817 2.49557 27.7817H3.77193C3.97752 28.5168 4.73081 29.0636 5.62641 29.0636C6.67972 29.0636 7.5366 28.3074 7.5366 27.378V20.0024C7.5366 19.1844 6.87265 18.501 5.99536 18.3488C6.16184 14.9311 8.0588 12.3977 11.2884 11.2628V13.8844C11.2884 14.5903 11.9116 15.1646 12.6774 15.1646H13.9105V19.669C13.9105 19.7777 13.9462 19.8842 14.0134 19.9754C14.0804 20.0666 14.176 20.1386 14.2887 20.1829C14.4012 20.2271 14.5259 20.2416 14.6476 20.2246C14.7693 20.2076 14.8829 20.1599 14.9744 20.0871L21.1727 15.1645H22.2886C22.8523 16.2624 23.0076 17.2254 23.0299 18.3471C22.1477 18.4958 21.4786 19.1813 21.4786 20.0024V27.3779C21.4786 28.3073 22.3356 29.0635 23.3889 29.0635C23.5884 29.0635 23.7809 29.0362 23.9618 28.9859C23.7295 31.5848 22.7528 32.8316 19.584 32.8316H17.6364C17.3592 31.9832 16.4718 31.3606 15.4221 31.3606H13.5931C12.3223 31.3606 11.2884 32.2728 11.2884 33.3941C11.2884 34.5154 12.3223 35.4277 13.5931 35.4277H15.4221C16.4718 35.4277 17.3591 34.805 17.6364 33.9566H19.584C24.6275 33.9566 25.2507 30.9686 25.2957 27.7817H26.5197C27.8959 27.7817 29.0153 26.7938 29.0153 25.5797V21.8008C29.0153 20.7188 28.1261 19.8173 26.9589 19.6336C26.9683 18.0892 26.968 16.7141 26.459 15.1646H31.8068C32.5727 15.1646 33.1958 14.5903 33.1958 13.8844V1.83291C33.1958 1.12704 32.5728 0.552734 31.8069 0.552734ZM15.4222 34.3028H13.5932C13.0254 34.3028 12.5635 33.8952 12.5635 33.3942C12.5635 32.8933 13.0254 32.4857 13.5932 32.4857H15.4222C15.99 32.4857 16.4519 32.8933 16.4519 33.3942C16.4519 33.8952 15.99 34.3028 15.4222 34.3028ZM1.27508 25.5797V21.8008C1.27508 21.2069 1.82261 20.7239 2.49565 20.7239H3.71622V26.6568H2.49565C1.82261 26.6568 1.27508 26.1736 1.27508 25.5797ZM6.26169 20.0025V27.3781C6.26169 27.6872 5.97672 27.9386 5.62641 27.9386C5.27611 27.9386 4.99122 27.6872 4.99122 27.3781V20.0025C4.99122 19.6934 5.27611 19.442 5.62641 19.442C5.97672 19.442 6.26169 19.6934 6.26169 20.0025ZM6.42257 13.3404C5.35826 14.774 4.77073 16.5602 4.71271 18.5228C4.24901 18.7466 3.90166 19.1353 3.77201 19.5989H3.33476V18.2292C3.33476 13.8977 6.63486 10.0376 11.2885 8.79121V10.0627C9.20635 10.6933 7.57039 11.7944 6.42257 13.3404ZM23.3889 27.9386C23.0386 27.9386 22.7537 27.6872 22.7537 27.3781V20.0025C22.7537 19.6934 23.0387 19.442 23.389 19.442C23.7393 19.442 24.0242 19.6934 24.0242 20.0025V27.3461L24.0238 27.387C24.0183 27.6919 23.7358 27.9386 23.3889 27.9386ZM27.7404 21.8008V25.5797C27.7404 26.1737 27.1929 26.6567 26.5198 26.6567H25.2992V20.7238H26.5198C27.1929 20.7238 27.7404 21.2069 27.7404 21.8008ZM25.6841 19.5989H25.2435C25.1143 19.1369 24.7687 18.7493 24.3074 18.5251C24.2983 17.3631 24.1695 16.3112 23.6698 15.1646H25.1246C25.6893 16.6787 25.6938 17.9936 25.6841 19.5989ZM31.9208 13.8845C31.9208 13.9778 31.8523 14.0396 31.8068 14.0396H20.928C20.7705 14.0396 20.6185 14.0911 20.5015 14.1841L15.1854 18.4061V14.6021C15.1854 14.453 15.1183 14.3099 14.9987 14.2044C14.8792 14.0989 14.717 14.0396 14.5479 14.0396H12.6773C12.632 14.0396 12.5633 13.9778 12.5633 13.8845V1.83291C12.5633 1.73961 12.6319 1.67773 12.6773 1.67773H31.8067C31.8521 1.67773 31.9207 1.73961 31.9207 1.83291L31.9208 13.8845ZM29.0966 4.72937C29.0966 4.87855 29.0295 5.02162 28.9099 5.12712C28.7903 5.2326 28.6282 5.29187 28.4591 5.29187H15.8896C15.7205 5.29187 15.5584 5.2326 15.4388 5.12712C15.3193 5.02162 15.2521 4.87855 15.2521 4.72937C15.2521 4.58018 15.3193 4.43711 15.4388 4.33162C15.5584 4.22613 15.7205 4.16687 15.8896 4.16687H28.4591C28.6282 4.16687 28.7903 4.22613 28.9099 4.33162C29.0295 4.43711 29.0966 4.58018 29.0966 4.72937ZM29.0966 7.85866C29.0966 8.00791 29.0295 8.15094 28.9099 8.25646C28.7903 8.36191 28.6282 8.42116 28.4591 8.42116H15.8896C15.7205 8.42116 15.5584 8.36191 15.4388 8.25646C15.3193 8.15094 15.2521 8.00791 15.2521 7.85866C15.2521 7.70949 15.3193 7.56646 15.4388 7.46095C15.5584 7.35546 15.7205 7.2962 15.8896 7.2962H28.4591C28.6282 7.2962 28.7903 7.35546 28.9099 7.46095C29.0295 7.56646 29.0966 7.70949 29.0966 7.85866ZM20.4631 10.988C20.4631 11.1372 20.3958 11.2803 20.2763 11.3858C20.1567 11.4913 19.9946 11.5505 19.8256 11.5505H15.8896C15.7204 11.5505 15.5583 11.4913 15.4387 11.3858C15.3192 11.2803 15.2521 11.1372 15.2521 10.988C15.2521 10.8389 15.3192 10.6958 15.4387 10.5903C15.5583 10.4848 15.7204 10.4255 15.8896 10.4255H19.8256C19.9946 10.4255 20.1567 10.4848 20.2763 10.5903C20.3958 10.6958 20.4631 10.8389 20.4631 10.988ZM11.0392 23.6903C11.0392 23.8395 10.9721 23.9826 10.8525 24.0881C10.7329 24.1936 10.5708 24.2528 10.4017 24.2528H10.3494C10.1804 24.2528 10.0182 24.1936 9.89867 24.0881C9.77908 23.9826 9.71193 23.8395 9.71193 23.6903C9.71193 23.5412 9.77908 23.3981 9.89867 23.2926C10.0182 23.1871 10.1804 23.1278 10.3494 23.1278H10.4017C10.5708 23.1278 10.7329 23.1871 10.8525 23.2926C10.9721 23.3981 11.0392 23.5412 11.0392 23.6903ZM13.1041 24.2528C12.935 24.2528 12.7729 24.1936 12.6534 24.0881C12.5338 23.9826 12.4666 23.8395 12.4666 23.6903C12.4666 23.5412 12.5338 23.3981 12.6534 23.2926C12.7729 23.1871 12.935 23.1278 13.1041 23.1278H13.1564C13.3254 23.1278 13.4876 23.1871 13.6072 23.2926C13.7267 23.3981 13.7939 23.5412 13.7939 23.6903C13.7939 23.8395 13.7267 23.9826 13.6072 24.0881C13.4876 24.1936 13.3254 24.2528 13.1564 24.2528H13.1041ZM15.859 24.2528C15.6898 24.2528 15.5277 24.1936 15.4081 24.0881C15.2886 23.9826 15.2215 23.8395 15.2215 23.6903C15.2215 23.5412 15.2886 23.3981 15.4081 23.2926C15.5277 23.1871 15.6898 23.1278 15.859 23.1278H15.9112C16.0803 23.1278 16.2424 23.1871 16.362 23.2926C16.4815 23.3981 16.5487 23.5412 16.5487 23.6903C16.5487 23.8395 16.4815 23.9826 16.362 24.0881C16.2424 24.1936 16.0803 24.2528 15.9112 24.2528H15.859ZM18.6136 24.2492C18.4446 24.2492 18.2824 24.1899 18.1629 24.0844C18.0433 23.9789 17.9761 23.8358 17.9761 23.6867C17.9761 23.5375 18.0433 23.3944 18.1629 23.2889C18.2824 23.1834 18.4446 23.1242 18.6136 23.1242H18.6659C18.835 23.1242 18.9972 23.1834 19.1167 23.2889C19.2363 23.3944 19.3034 23.5375 19.3034 23.6867C19.3034 23.8358 19.2363 23.9789 19.1167 24.0844C18.9972 24.1899 18.835 24.2492 18.6659 24.2492H18.6136Z" fill="white"/>
</g>
<defs>
<clipPath id="clip0_9360_6447">
<rect width="34" height="36" fill="white"/>
</clipPath>
</defs>
</svg>
