<svg width="40" height="40" viewBox="0 0 40 40" fill="none" xmlns="http://www.w3.org/2000/svg">
<g clip-path="url(#clip0_9360_7778)">
<path d="M39.4597 30.6479H31.5599V21.5318C31.5611 21.4146 31.5283 21.2996 31.4653 21.2007C31.4023 21.1019 31.312 21.0234 31.2053 20.9749L22.3392 17.0295C23.3573 15.5614 24.2755 14.0265 25.0876 12.4351H34.6169C36.96 12.4829 38.8206 14.4213 38.7728 16.7643C38.7262 19.0399 36.8926 20.8735 34.6169 20.92C32.9892 20.6417 32.9892 22.4255 34.6169 22.1436C37.6357 22.0893 40.0388 19.5979 39.9845 16.5791C39.9315 13.6369 37.5592 11.2646 34.6169 11.2116H25.6444C32.0582 -3.68353 8.03808 -3.66587 14.45 11.2116H2.07999L3.47727 9.8231C4.03582 9.28052 3.18114 8.42227 2.62079 8.95785L0.187982 11.3959C0.0744668 11.5114 0.010851 11.6668 0.010851 11.8286C0.010851 11.9904 0.0744668 12.1459 0.187982 12.2613L2.62087 14.6853C3.16527 15.2562 4.03949 14.3607 3.47734 13.8234L2.07999 12.4351H15.0051C15.8065 14.0239 16.7215 15.5529 17.7429 17.01L8.836 20.991C8.7255 21.094 8.63933 21.2204 8.58383 21.3608C8.52825 21.5013 8.50475 21.6524 8.515 21.8031C8.47417 23.6172 8.53625 30.4724 8.515 30.648H5.46687C3.11647 30.648 1.21109 28.7426 1.21109 26.3923C1.21109 24.0419 3.11647 22.1364 5.46687 22.1364C7.09293 22.4238 7.09998 20.6346 5.46687 20.9129C2.44759 20.9129 0 23.3605 0 26.3798C0 29.3991 2.44759 31.8467 5.46687 31.8467H8.5115C8.5115 32.1836 8.5115 33.5578 8.52033 34.3983C8.53275 34.675 8.62492 34.964 8.87492 35.0349C8.87492 35.0349 19.7927 39.8989 19.8193 39.9184C19.9729 39.9704 20.1403 39.9634 20.2892 39.8989L31.2052 35.0349C31.5368 34.8788 31.5793 34.5686 31.5793 34.2299C31.5687 33.3876 31.5421 32.2155 31.5652 31.8467H39.4649C39.6125 31.8299 39.7487 31.7591 39.8473 31.6481C39.946 31.537 40.0002 31.3935 39.9995 31.2449C39.9989 31.0964 39.9434 30.9534 39.8438 30.8432C39.7442 30.733 39.6074 30.6635 39.4597 30.6479ZM20.0482 25.7468L15.7622 23.8369L25.1905 19.622L29.4676 21.5318L20.0482 25.7468ZM14.5103 6.65263C15.2143 -3.52394 34.5638 0.41976 20.0481 18.1095C18.6171 16.2546 14.5103 10.5094 14.5103 6.65263ZM19.5623 19.4784C20.5233 20.1717 20.6138 19.1663 21.6175 18.0385L23.6975 18.957L14.2746 23.172C13.3702 22.7624 11.5012 21.9308 10.6004 21.5318L18.4558 18.0385C19.0675 18.8666 19.5002 19.4074 19.5623 19.4784ZM9.72617 34.0933V22.468C12.12 23.5319 17.0621 25.7468 19.4275 26.8107V38.4289L9.72617 34.0933ZM30.3542 34.0933L20.6439 38.4342V26.8107L30.3542 22.468V34.0933ZM23.4723 6.7058C23.4723 4.80784 21.9337 3.26928 20.0358 3.26928C18.1378 3.26928 16.5993 4.80784 16.5993 6.7058C16.5993 8.60377 18.1378 10.1424 20.0358 10.1424C21.9337 10.1424 23.4723 8.60377 23.4723 6.7058ZM20.0482 8.9401C18.8196 8.90535 17.8518 7.88131 17.8865 6.65278C17.9198 5.47298 18.8683 4.52438 20.0482 4.49108C21.2768 4.52579 22.2446 5.54984 22.2098 6.77837C22.1766 7.95818 21.2279 8.90677 20.0482 8.9401Z" fill="white"/>
</g>
<defs>
<clipPath id="clip0_9360_7778">
<rect width="40" height="40" fill="white"/>
</clipPath>
</defs>
</svg>
