<svg width="40" height="40" viewBox="0 0 40 40" fill="none" xmlns="http://www.w3.org/2000/svg">
<g clip-path="url(#clip0_9360_7753)">
<path d="M14.788 11.7576V6.90909C14.788 6.54546 14.5455 6.30303 14.1819 6.30303C13.8183 6.30303 13.5758 6.54546 13.5758 6.90909V11.7576C12.485 12 11.697 13.0303 11.697 14.1818C11.697 14.9091 12 15.5152 12.4243 16L10.2425 19.697C10.0607 20 10.1819 20.3637 10.485 20.5454C10.788 20.7272 11.1516 20.6061 11.3334 20.303L13.5152 16.6061C13.7576 16.6667 14 16.7272 14.2425 16.7272C15.6365 16.7272 16.7274 15.5758 16.7274 14.2424C16.6667 12.9697 15.8183 12 14.788 11.7576ZM14.1819 15.4546C13.4546 15.4546 12.9091 14.8485 12.9091 14.1818C12.9091 13.4546 13.5152 12.9091 14.1819 12.9091C14.9091 12.9091 15.4546 13.5152 15.4546 14.1818C15.4546 14.8485 14.8485 15.4546 14.1819 15.4546ZM14.1819 4.72727C14.5455 4.72727 14.788 4.48485 14.788 4.12121V2.90909C14.788 2.54546 14.5455 2.30303 14.1819 2.30303C13.8183 2.30303 13.5758 2.54546 13.5758 2.90909V4.12121C13.5758 4.42424 13.8183 4.72727 14.1819 4.72727ZM14.1819 23.5757C13.8183 23.5757 13.5758 23.8182 13.5758 24.1818V25.3939C13.5758 25.7576 13.8183 26 14.1819 26C14.5455 26 14.788 25.7576 14.788 25.3939V24.1818C14.788 23.8787 14.485 23.5757 14.1819 23.5757ZM4.72734 14.1818C4.72734 13.8182 4.48492 13.5757 4.12128 13.5757H2.90916C2.54553 13.5757 2.3031 13.8182 2.3031 14.1818C2.3031 14.5454 2.54553 14.7879 2.90916 14.7879H4.12128C4.42432 14.7879 4.72734 14.4848 4.72734 14.1818ZM23.5758 14.1818C23.5758 14.5454 23.8183 14.7879 24.1819 14.7879H25.394C25.7576 14.7879 26 14.5454 26 14.1818C26 13.8182 25.7576 13.5757 25.394 13.5757H24.1819C23.8789 13.5757 23.5758 13.8182 23.5758 14.1818ZM4.06068 9.03033L5.15158 9.63633C5.45462 9.81817 5.81825 9.697 6.00008 9.39392C6.18189 9.09092 6.06068 8.72725 5.75765 8.54542L4.66674 7.93939C4.36371 7.75758 4.00008 7.87879 3.81825 8.18182C3.69704 8.54542 3.75765 8.90908 4.06068 9.03033ZM9.45463 22.303C9.15163 22.1212 8.78796 22.2424 8.60613 22.5454L8.00008 23.6363C7.81825 23.9394 7.93947 24.303 8.24249 24.4848C8.54554 24.6667 8.90913 24.5454 9.09096 24.2424L9.69704 23.1515C9.81829 22.8485 9.75763 22.4848 9.45463 22.303ZM18.8485 6C19.1516 6.18182 19.5152 6.06061 19.697 5.75758L20.3031 4.66667C20.485 4.36363 20.3637 4 20.0607 3.81818C19.7576 3.63637 19.394 3.75757 19.2122 4.06061L18.6061 5.15152C18.485 5.45454 18.5455 5.81818 18.8485 6ZM9.33338 6.06061C9.63646 5.87879 9.69704 5.51515 9.51521 5.21212L8.90913 4.12121C8.72738 3.81818 8.36371 3.75758 8.06068 3.93939C7.75765 4.12121 7.69704 4.48485 7.87886 4.78787L8.48496 5.87879C8.66671 6.12121 9.03038 6.24242 9.33338 6.06061ZM5.21219 18.7879L4.12128 19.3939C3.81825 19.5757 3.75765 19.9394 3.93947 20.2424C4.12128 20.5454 4.48492 20.6061 4.78795 20.4242L5.87886 19.8182C6.18189 19.6363 6.24249 19.2727 6.06068 18.9697C5.87886 18.6667 5.51523 18.6061 5.21219 18.7879ZM23.091 9.57575L24.1819 8.96967C24.485 8.78792 24.5455 8.42425 24.3637 8.12121C24.1819 7.81818 23.8183 7.75758 23.5152 7.93939L22.4243 8.54542C22.1213 8.72725 22.0607 9.09092 22.2425 9.39392C22.4243 9.63633 22.788 9.697 23.091 9.57575ZM24.788 1.21212H35.2728V15.7576L32.788 13.2727C32.5455 13.0303 32.1819 13.0303 31.9395 13.2727C31.697 13.5152 31.697 13.8787 31.9395 14.1212L35.4546 17.6363C35.5758 17.7576 35.697 17.8182 35.8789 17.8182C36.0607 17.8182 36.1819 17.7576 36.3031 17.6363L39.8183 14.1212C40.0607 13.8787 40.0607 13.5152 39.8183 13.2727C39.5758 13.0303 39.2122 13.0303 38.9698 13.2727L36.485 15.7576V0.606061C36.485 0.242424 36.2425 0 35.8789 0H24.788C24.4243 0 24.1819 0.242424 24.1819 0.606061C24.1819 0.9697 24.485 1.21212 24.788 1.21212Z" fill="white"/>
<path d="M39.5757 22.0606C39.4546 22 28.303 15.8787 28.1818 15.8787C28.2424 15.2727 28.303 14.7272 28.303 14.1818C28.303 6.36363 21.9394 0 14.1212 0C6.36363 0 0 6.36363 0 14.1818C0 22 6.36363 28.3637 14.1212 28.3637C14.7272 28.3637 15.4546 28.303 16.1818 28.1818V32.303C16.1818 32.4848 16.303 32.7272 16.4848 32.7879L27.697 39.8787C27.8182 39.9394 27.8787 40 28 40C28.1212 40 28.2424 39.9394 28.303 39.9394L39.6363 33.9394C39.8182 33.8182 39.9394 33.6363 39.9394 33.3939V22.6061C39.9394 22.3637 39.8182 22.1818 39.5757 22.0606ZM38.0606 22.6061L35.3939 24.0606L25.3333 18.5454L28 17.1515L38.0606 22.6061ZM32.9697 25.697L22.5454 20L24.0606 19.1515L34.7879 25.0303V28.0606L33.3333 28.9697V26.2424C33.3333 26 33.1515 25.7576 32.9697 25.697ZM28.0606 28.0606L18.0606 22.4242L21.2727 20.7272L31.4546 26.2424L28.0606 28.0606ZM14.1212 27.0909C7.0303 27.0909 1.21212 21.2727 1.21212 14.1818C1.21212 7.0303 7.0303 1.21212 14.1212 1.21212C21.2727 1.21212 27.0909 7.0303 27.0909 14.1818C27.0909 14.7879 27.0303 15.6363 26.9091 16.3637C26.9091 16.3637 16.6061 21.8787 16.4848 21.8787C16.303 22 16.1818 22.2424 16.1818 22.4242V26.9697C15.4546 27.0303 14.7272 27.0909 14.1212 27.0909ZM17.3939 31.9394V23.4546L27.3939 29.0909V38.303L17.3939 31.9394ZM28.6061 38.3637V29.1515L32.0606 27.2727V30C32.0606 30.2424 32.1818 30.4242 32.3637 30.5454C32.5454 30.6667 32.7879 30.6667 32.9697 30.5454L35.697 29.0303C35.8787 28.9091 36 28.7272 36 28.4848V25.0909L38.6667 23.6363V33.0303L28.6061 38.3637Z" fill="white"/>
<path d="M26.0609 30.97L19.4549 27.1518C19.1518 26.97 18.7882 27.0913 18.6064 27.3943C18.4245 27.6973 18.5458 28.0609 18.8488 28.2428L25.4549 32.0003C25.7579 32.1822 26.1215 32.0609 26.3033 31.7579C26.4245 31.5155 26.3033 31.0913 26.0609 30.97ZM26.0003 33.4549L19.3942 29.5761C19.0912 29.3943 18.7275 29.5155 18.5458 29.8185C18.3639 30.1216 18.4851 30.4852 18.7882 30.667L25.3942 34.4852C25.6973 34.667 26.0609 34.5458 26.2427 34.2428C26.3639 33.9398 26.2427 33.5761 26.0003 33.4549Z" fill="white"/>
</g>
<defs>
<clipPath id="clip0_9360_7753">
<rect width="40" height="40" fill="white"/>
</clipPath>
</defs>
</svg>
