<svg width="38" height="40" viewBox="0 0 38 40" fill="none" xmlns="http://www.w3.org/2000/svg">
<g clip-path="url(#clip0_9360_7788)">
<path d="M35.5489 0.613281H14.169C13.313 0.613281 12.6166 1.2514 12.6166 2.0357V8.46656C9.80808 9.13165 7.26732 10.5799 5.41357 12.5826C3.40717 14.7501 2.30209 17.4746 2.30209 20.2537V21.8137C0.995714 22.0166 0 23.019 0 24.2222V28.4211C0 29.7702 1.25124 30.8677 2.78917 30.8677H4.21568C4.44547 31.6845 5.28738 32.292 6.28834 32.292C7.46557 32.292 8.42326 31.4518 8.42326 30.4191V22.2241C8.42326 21.3151 7.68119 20.5558 6.7007 20.3866C6.88676 16.5892 9.00689 13.7743 12.6165 12.5134V15.4262C12.6165 16.2106 13.3129 16.8486 14.1689 16.8486H15.547V21.8536C15.547 21.9744 15.5869 22.0926 15.662 22.194C15.7369 22.2953 15.8438 22.3754 15.9697 22.4246C16.0955 22.4736 16.2348 22.4898 16.3709 22.4709C16.5069 22.4521 16.6338 22.399 16.7361 22.3181L23.6636 16.8486H24.9108C25.5408 18.0685 25.7144 19.1385 25.7393 20.3848C24.7533 20.55 24.0055 21.3116 24.0055 22.224V30.4191C24.0055 31.4517 24.9633 32.2919 26.1406 32.2919C26.3635 32.2919 26.5786 32.2616 26.7809 32.2057C26.5212 35.0933 25.4296 36.4786 21.888 36.4786H19.7113C19.4015 35.536 18.4097 34.8442 17.2365 34.8442H15.1923C13.772 34.8442 12.6165 35.8578 12.6165 37.1036C12.6165 38.3496 13.772 39.3632 15.1923 39.3632H17.2365C18.4097 39.3632 19.4014 38.6714 19.7113 37.7286H21.888C27.5248 37.7286 28.2214 34.4087 28.2717 30.8676H29.6397C31.1778 30.8676 32.4289 29.7701 32.4289 28.421V24.2222C32.4289 23.02 31.435 22.0183 30.1305 21.8142C30.141 20.0982 30.1407 18.5703 29.5718 16.8486H35.5488C36.4048 16.8486 37.1012 16.2106 37.1012 15.4262V2.0357C37.1012 1.2514 36.4049 0.613281 35.5489 0.613281ZM17.2366 38.1134H15.1924C14.5578 38.1134 14.0416 37.6605 14.0416 37.1038C14.0416 36.5472 14.5578 36.0944 15.1924 36.0944H17.2366C17.8712 36.0944 18.3874 36.5472 18.3874 37.1038C18.3874 37.6605 17.8712 38.1134 17.2366 38.1134ZM1.42509 28.4211V24.2222C1.42509 23.5624 2.03704 23.0256 2.78926 23.0256H4.15343V29.6178H2.78926C2.03704 29.6178 1.42509 29.0809 1.42509 28.4211ZM6.99835 22.2241V30.4192C6.99835 30.7626 6.67987 31.0421 6.28834 31.0421C5.89683 31.0421 5.57843 30.7626 5.57843 30.4192V22.2241C5.57843 21.8807 5.89683 21.6013 6.28834 21.6013C6.67987 21.6013 6.99835 21.8807 6.99835 22.2241ZM7.17817 14.8218C5.98865 16.4146 5.33199 18.3993 5.26715 20.58C4.7489 20.8287 4.36068 21.2606 4.21578 21.7756H3.72709V20.2538C3.72709 15.441 7.41543 11.152 12.6166 9.76715V11.1799C10.2894 11.8806 8.46102 13.1041 7.17817 14.8218ZM26.1406 31.0421C25.749 31.0421 25.4306 30.7626 25.4306 30.4192V22.2241C25.4306 21.8807 25.7491 21.6013 26.1407 21.6013C26.5322 21.6013 26.8506 21.8807 26.8506 22.2241V30.3837L26.8501 30.4291C26.844 30.7679 26.5283 31.0421 26.1406 31.0421ZM31.004 24.2222V28.4211C31.004 29.081 30.392 29.6177 29.6398 29.6177H28.2756V23.0256H29.6398C30.392 23.0256 31.004 23.5623 31.004 24.2222ZM28.7058 21.7756H28.2133C28.0689 21.2623 27.6827 20.8317 27.1671 20.5826C27.1569 19.2915 27.013 18.1227 26.4545 16.8487H28.0804C28.7116 18.531 28.7166 19.992 28.7058 21.7756ZM35.6762 15.4263C35.6762 15.53 35.5996 15.5987 35.5488 15.5987H23.3901C23.2141 15.5987 23.0442 15.6559 22.9134 15.7592L16.9719 20.4503V16.2237C16.9719 16.058 16.8969 15.899 16.7632 15.7818C16.6297 15.6646 16.4484 15.5987 16.2594 15.5987H14.1688C14.1181 15.5987 14.0414 15.53 14.0414 15.4263V2.0357C14.0414 1.93203 14.118 1.86328 14.1688 1.86328H35.5487C35.5994 1.86328 35.6761 1.93203 35.6761 2.0357L35.6762 15.4263ZM32.5197 5.25399C32.5197 5.41975 32.4447 5.57871 32.311 5.69593C32.1774 5.81314 31.9962 5.87899 31.8072 5.87899H17.759C17.57 5.87899 17.3888 5.81314 17.2551 5.69593C17.1216 5.57871 17.0465 5.41975 17.0465 5.25399C17.0465 5.08822 17.1216 4.92925 17.2551 4.81205C17.3888 4.69483 17.57 4.62899 17.759 4.62899H31.8072C31.9962 4.62899 32.1774 4.69483 32.311 4.81205C32.4447 4.92925 32.5197 5.08822 32.5197 5.25399ZM32.5197 8.73098C32.5197 8.89681 32.4447 9.05573 32.311 9.17298C32.1774 9.29015 31.9962 9.35598 31.8072 9.35598H17.759C17.57 9.35598 17.3888 9.29015 17.2551 9.17298C17.1216 9.05573 17.0465 8.89681 17.0465 8.73098C17.0465 8.56523 17.1216 8.40631 17.2551 8.28908C17.3888 8.17186 17.57 8.10602 17.759 8.10602H31.8072C31.9962 8.10602 32.1774 8.17186 32.311 8.28908C32.4447 8.40631 32.5197 8.56523 32.5197 8.73098ZM22.8705 12.2081C22.8705 12.3738 22.7953 12.5328 22.6618 12.65C22.5281 12.7672 22.3469 12.8331 22.158 12.8331H17.7589C17.5699 12.8331 17.3887 12.7672 17.255 12.65C17.1215 12.5328 17.0464 12.3738 17.0464 12.2081C17.0464 12.0423 17.1215 11.8833 17.255 11.7661C17.3887 11.6489 17.5699 11.5831 17.7589 11.5831H22.158C22.3469 11.5831 22.5281 11.6489 22.6618 11.7661C22.7953 11.8833 22.8705 12.0423 22.8705 12.2081ZM12.3379 26.3217C12.3379 26.4875 12.2629 26.6465 12.1292 26.7636C11.9956 26.8809 11.8144 26.9467 11.6254 26.9467H11.567C11.3781 26.9467 11.1968 26.8809 11.0632 26.7636C10.9296 26.6465 10.8545 26.4875 10.8545 26.3217C10.8545 26.156 10.9296 25.997 11.0632 25.8798C11.1968 25.7626 11.3781 25.6967 11.567 25.6967H11.6254C11.8144 25.6967 11.9956 25.7626 12.1292 25.8798C12.2629 25.997 12.3379 26.156 12.3379 26.3217ZM14.6458 26.9467C14.4568 26.9467 14.2756 26.8809 14.142 26.7636C14.0083 26.6465 13.9333 26.4875 13.9333 26.3217C13.9333 26.156 14.0083 25.997 14.142 25.8798C14.2756 25.7626 14.4568 25.6967 14.6458 25.6967H14.7042C14.8931 25.6967 15.0744 25.7626 15.2081 25.8798C15.3416 25.997 15.4167 26.156 15.4167 26.3217C15.4167 26.4875 15.3416 26.6465 15.2081 26.7636C15.0744 26.8809 14.8931 26.9467 14.7042 26.9467H14.6458ZM17.7247 26.9467C17.5357 26.9467 17.3545 26.8809 17.2208 26.7636C17.0873 26.6465 17.0122 26.4875 17.0122 26.3217C17.0122 26.156 17.0873 25.997 17.2208 25.8798C17.3545 25.7626 17.5357 25.6967 17.7247 25.6967H17.7831C17.9721 25.6967 18.1533 25.7626 18.2869 25.8798C18.4205 25.997 18.4956 26.156 18.4956 26.3217C18.4956 26.4875 18.4205 26.6465 18.2869 26.7636C18.1533 26.8809 17.9721 26.9467 17.7831 26.9467H17.7247ZM20.8035 26.9426C20.6145 26.9426 20.4333 26.8768 20.2997 26.7596C20.166 26.6424 20.091 26.4834 20.091 26.3176C20.091 26.1519 20.166 25.9929 20.2997 25.8757C20.4333 25.7585 20.6145 25.6926 20.8035 25.6926H20.8619C21.0509 25.6926 21.2321 25.7585 21.3657 25.8757C21.4994 25.9929 21.5744 26.1519 21.5744 26.3176C21.5744 26.4834 21.4994 26.6424 21.3657 26.7596C21.2321 26.8768 21.0509 26.9426 20.8619 26.9426H20.8035Z" fill="white"/>
</g>
<defs>
<clipPath id="clip0_9360_7788">
<rect width="38" height="40" fill="white"/>
</clipPath>
</defs>
</svg>
