<svg width="43" height="34" viewBox="0 0 43 34" fill="none" xmlns="http://www.w3.org/2000/svg">
<g clip-path="url(#clip0_9360_7765)">
<path d="M42.0623 3.38409L33.6534 0.0596466C33.4526 -0.0198822 33.2285 -0.0198822 33.0277 0.0596466L24.6188 3.38409C24.463 3.44583 24.3294 3.5523 24.2353 3.68975C24.1412 3.82722 24.0908 3.98939 24.0908 4.15536V12.7457C24.0951 14.3242 24.5108 15.8749 25.2975 17.2485C26.0843 18.6221 27.2157 19.7722 28.5828 20.5881L32.9084 23.153C33.0389 23.2302 33.1884 23.2711 33.3406 23.2711C33.4928 23.2711 33.6421 23.2302 33.7728 23.153L36.79 21.3634C37.1232 21.1657 37.545 21.4059 37.545 21.7935V30.224C37.5445 30.5854 37.3991 30.9318 37.1406 31.1873C36.8821 31.4428 36.5316 31.5866 36.166 31.587H3.60673C3.24112 31.5866 2.89061 31.4428 2.63209 31.1873C2.37356 30.9318 2.22812 30.5854 2.22768 30.224V12.1354C2.22768 11.8592 2.45153 11.6354 2.72768 11.6354H21.5681C21.7912 11.6354 22.005 11.5478 22.1627 11.392C22.3204 11.236 22.409 11.0247 22.409 10.8042C22.409 10.5838 22.3204 10.3724 22.1627 10.2166C22.005 10.0607 21.7912 9.97313 21.5681 9.97313H2.72768C2.45153 9.97313 2.22768 9.74927 2.22768 9.47313V8.01172C2.22812 7.65036 2.37356 7.30392 2.63209 7.0484C2.89061 6.79289 3.24112 6.64913 3.60673 6.6487H21.5681C21.7912 6.6487 22.005 6.56113 22.1627 6.40527C22.3204 6.2494 22.409 6.03801 22.409 5.81759C22.409 5.59716 22.3204 5.38577 22.1627 5.2299C22.005 5.07403 21.7912 4.98647 21.5681 4.98647H3.60673C2.79509 4.98692 2.01681 5.30578 1.44289 5.87303C0.868967 6.44028 0.546344 7.20951 0.545898 8.01172V30.219C0.546344 31.0212 0.868967 31.7905 1.44289 32.3577C2.01681 32.9249 2.79509 33.2438 3.60673 33.2442H36.166C36.9776 33.2438 37.7559 32.9249 38.3298 32.3577C38.9037 31.7905 39.2263 31.0212 39.2268 30.219V20.0169C39.2268 19.8671 39.2945 19.7258 39.4079 19.6279C40.3718 18.796 41.1523 17.7758 41.6996 16.6306C42.2808 15.4145 42.5848 14.0873 42.5904 12.7424V4.15536C42.5903 3.98939 42.54 3.82722 42.4459 3.68975C42.3517 3.5523 42.2182 3.44583 42.0623 3.38409ZM40.9086 12.7457C40.9051 14.0373 40.5651 15.3061 39.9211 16.43C39.2772 17.5538 38.351 18.4948 37.2322 19.1619L33.5957 21.3193C33.4384 21.4127 33.2427 21.4127 33.0855 21.3193L29.449 19.1619C28.33 18.4948 27.404 17.5538 26.76 16.43C26.1161 15.3061 25.776 14.0373 25.7726 12.7457V5.05718C25.7726 4.85199 25.8979 4.66763 26.0887 4.5922L33.1567 1.79787C33.2748 1.75118 33.4063 1.75118 33.5244 1.79787L40.5924 4.5922C40.7832 4.66763 40.9086 4.85199 40.9086 5.05718V12.7457Z" fill="white"/>
<path d="M30.5717 10.3598C30.4936 10.2825 30.4009 10.2213 30.2989 10.1794C30.1968 10.1375 30.0874 10.1159 29.9769 10.1159C29.8665 10.1158 29.7571 10.1372 29.6549 10.1789C29.5529 10.2207 29.46 10.2818 29.3818 10.359C29.3037 10.4361 29.2416 10.5278 29.1993 10.6287C29.1569 10.7296 29.1351 10.8376 29.135 10.9469C29.1349 11.056 29.1566 11.1642 29.1988 11.2651C29.2411 11.366 29.3029 11.4577 29.381 11.535L31.6245 13.7507C31.7822 13.9066 31.996 13.9941 32.219 13.9941C32.442 13.9941 32.6558 13.9066 32.8135 13.7507L37.2988 9.31761C37.4565 9.16155 37.5449 8.94997 37.5448 8.72943C37.5447 8.50888 37.4559 8.29743 37.2979 8.14159C37.1401 7.98575 36.926 7.89829 36.7029 7.89844C36.4797 7.8986 36.2658 7.98636 36.1081 8.14242L32.2182 11.9888L30.5717 10.3598ZM6.43146 26.5964C6.20845 26.5964 5.99456 26.684 5.83686 26.8398C5.67917 26.9957 5.59058 27.2071 5.59058 27.4275C5.59058 27.648 5.67917 27.8593 5.83686 28.0152C5.99456 28.1711 6.20845 28.2586 6.43146 28.2586H13.1586C13.3816 28.2586 13.5955 28.1711 13.7531 28.0152C13.9109 27.8593 13.9995 27.648 13.9995 27.4275C13.9995 27.2071 13.9109 26.9957 13.7531 26.8398C13.5955 26.684 13.3816 26.5964 13.1586 26.5964H6.43146Z" fill="white"/>
<rect x="5" y="22" width="9" height="1.5" rx="0.75" fill="white"/>
<rect x="5" y="18" width="9" height="1.5" rx="0.75" fill="white"/>
</g>
<defs>
<clipPath id="clip0_9360_7765">
<rect width="43" height="34" fill="white"/>
</clipPath>
</defs>
</svg>
