<svg width="20" height="20" viewBox="0 0 20 20" fill="none" xmlns="http://www.w3.org/2000/svg">
<path d="M15.8332 3.33268H14.1665V2.49935C14.1665 2.27834 14.0787 2.06637 13.9224 1.91009C13.7661 1.75381 13.5542 1.66602 13.3332 1.66602C13.1122 1.66602 12.9002 1.75381 12.7439 1.91009C12.5876 2.06637 12.4998 2.27834 12.4998 2.49935V3.33268H7.49984V2.49935C7.49984 2.27834 7.41204 2.06637 7.25576 1.91009C7.09948 1.75381 6.88752 1.66602 6.6665 1.66602C6.44549 1.66602 6.23353 1.75381 6.07725 1.91009C5.92097 2.06637 5.83317 2.27834 5.83317 2.49935V3.33268H4.1665C3.50346 3.33268 2.86758 3.59607 2.39874 4.06492C1.9299 4.53376 1.6665 5.16964 1.6665 5.83268V15.8327C1.6665 16.4957 1.9299 17.1316 2.39874 17.6004C2.86758 18.0693 3.50346 18.3327 4.1665 18.3327H15.8332C16.4962 18.3327 17.1321 18.0693 17.6009 17.6004C18.0698 17.1316 18.3332 16.4957 18.3332 15.8327V5.83268C18.3332 5.16964 18.0698 4.53376 17.6009 4.06492C17.1321 3.59607 16.4962 3.33268 15.8332 3.33268ZM16.6665 15.8327C16.6665 16.0537 16.5787 16.2657 16.4224 16.4219C16.2661 16.5782 16.0542 16.666 15.8332 16.666H4.1665C3.94549 16.666 3.73353 16.5782 3.57725 16.4219C3.42097 16.2657 3.33317 16.0537 3.33317 15.8327V9.99935H16.6665V15.8327ZM16.6665 8.33268H3.33317V5.83268C3.33317 5.61167 3.42097 5.39971 3.57725 5.24343C3.73353 5.08715 3.94549 4.99935 4.1665 4.99935H5.83317V5.83268C5.83317 6.0537 5.92097 6.26566 6.07725 6.42194C6.23353 6.57822 6.44549 6.66602 6.6665 6.66602C6.88752 6.66602 7.09948 6.57822 7.25576 6.42194C7.41204 6.26566 7.49984 6.0537 7.49984 5.83268V4.99935H12.4998V5.83268C12.4998 6.0537 12.5876 6.26566 12.7439 6.42194C12.9002 6.57822 13.1122 6.66602 13.3332 6.66602C13.5542 6.66602 13.7661 6.57822 13.9224 6.42194C14.0787 6.26566 14.1665 6.0537 14.1665 5.83268V4.99935H15.8332C16.0542 4.99935 16.2661 5.08715 16.4224 5.24343C16.5787 5.39971 16.6665 5.61167 16.6665 5.83268V8.33268Z" fill="#FA6444"/>
<rect x="6" y="12" width="2" height="2" rx="0.1" fill="#FA6444"/>
<rect x="9" y="12" width="2" height="2" rx="0.1" fill="#FA6444"/>
<rect x="12" y="12" width="2" height="2" rx="0.1" fill="#FA6444"/>
</svg>
