<svg width="32" height="32" viewBox="0 0 32 32" fill="none" xmlns="http://www.w3.org/2000/svg">
<g clip-path="url(#clip0_9360_25709)">
<path d="M15.6183 7.27379C15.472 7.27379 15.3745 7.22246 15.277 7.11978C15.0819 6.91443 15.0819 6.60641 15.277 6.40107L15.5695 6.09304C15.8133 5.78502 15.8133 5.32299 15.5695 5.06631C15.3257 4.80962 14.8869 4.80962 14.5944 5.06631L12.9854 6.76042C12.7904 6.96577 12.4979 6.96577 12.3029 6.76042C12.1078 6.55508 12.1078 6.24705 12.3029 6.04171L13.9118 4.34759C14.5944 3.68021 15.6183 3.68021 16.2521 4.34759C16.8859 5.01497 16.8859 6.09304 16.2521 6.81176L15.9595 7.11978C15.862 7.22246 15.7645 7.27379 15.6183 7.27379ZM9.28001 6.50374C9.13374 6.50374 9.03623 6.4524 8.93872 6.34973C8.7437 6.14438 8.7437 5.83636 8.93872 5.63101L9.42628 5.11764C9.67006 4.80962 9.67006 4.34759 9.42628 4.0909C9.1825 3.83422 8.69494 3.83422 8.45116 4.0909L6.64721 5.99037C6.45218 6.19572 6.15965 6.19572 5.96463 5.99037C5.7696 5.78502 5.7696 5.477 5.96463 5.27165L7.76859 3.37219C8.35365 2.75615 9.52379 2.75615 10.1089 3.37219C10.7427 4.03957 10.7427 5.11764 10.1089 5.83636L9.6213 6.34973C9.52379 6.4524 9.42628 6.50374 9.28001 6.50374Z" fill="#FA6444"/>
<path d="M13.4199 14.5292C13.321 14.5292 13.222 14.479 13.1231 14.4288C10.1546 12.4194 5.00928 9.45563 0.853436 7.74769C0.705009 7.69746 0.556586 7.597 0.408163 7.4463C-0.136054 6.89373 -0.136054 6.03976 0.408163 5.43695L0.457638 5.38672C1.24923 4.63322 2.33767 4.28158 3.47558 4.38205L15.3989 5.78859L19.9011 6.54209C20.1484 6.59233 20.3463 6.84349 20.2968 7.09466C20.2474 7.34583 20 7.54676 19.7526 7.49653L15.2505 6.74303L3.37663 5.38672C2.53556 5.28625 1.74397 5.58765 1.10081 6.14022C0.952384 6.34116 0.952384 6.59233 1.10081 6.74303C1.15028 6.79326 1.19976 6.79326 1.24923 6.84349C5.40508 8.55143 10.6493 11.5654 13.6673 13.625C13.9147 13.7757 13.9641 14.0771 13.8157 14.3283C13.7168 14.4288 13.5683 14.5292 13.4199 14.5292ZM25.739 19.7033C25.5906 19.7033 25.4916 19.6531 25.3927 19.5526C25.1948 19.3516 25.1948 19.0502 25.3927 18.8493L27.0254 17.1916C27.2727 16.8902 27.2727 16.4381 27.0254 16.1869C26.778 15.9358 26.3327 15.9358 26.0359 16.1869L25.739 16.4883C25.5411 16.6893 25.2443 16.6893 25.0464 16.4883C24.8485 16.2874 24.8485 15.986 25.0464 15.7851L25.3432 15.4837C26.0359 14.8306 27.0748 14.8306 27.718 15.4837C28.3612 16.1367 28.3612 17.1916 27.718 17.8949L26.0853 19.5526C25.9864 19.6531 25.8874 19.7033 25.739 19.7033ZM26.4811 26.1834C26.3327 26.1834 26.2338 26.1332 26.1348 26.0327C25.9369 25.8318 25.9369 25.5304 26.1348 25.3294L27.9159 23.4708C28.1633 23.1694 28.1633 22.7173 27.9159 22.4661C27.6685 22.215 27.2233 22.215 26.9264 22.4661L26.4317 22.9685C26.2338 23.1694 25.9369 23.1694 25.739 22.9685C25.5411 22.7675 25.5411 22.4661 25.739 22.2652L26.2338 21.7629C26.9264 21.1098 27.9654 21.1098 28.6085 21.7629C29.2517 22.4159 29.2517 23.4708 28.6085 24.1741L26.8275 26.0327C26.7285 26.1332 26.6296 26.1834 26.4811 26.1834Z" fill="#FA6444"/>
<path d="M25.4941 32.0011C25.1396 32.0011 24.7344 31.849 24.4812 31.5956C24.3292 31.4436 24.228 31.2915 24.1773 31.1395C22.4046 26.8317 19.4164 21.4088 17.3399 18.2666C17.188 18.0132 17.2386 17.7092 17.4918 17.5571C17.7451 17.4051 18.049 17.4558 18.2009 17.7092C20.3281 20.902 23.3669 26.3755 25.1396 30.7341C25.1903 30.7847 25.1903 30.8354 25.2409 30.8861C25.3928 31.0381 25.6967 31.0381 25.8487 30.8861C26.4564 30.2779 26.7603 29.4164 26.659 28.5548L25.2409 16.2901L24.5318 11.4755C24.4812 11.2221 24.6838 10.918 24.937 10.918C25.1903 10.8673 25.4941 11.07 25.4941 11.3234L26.2032 16.1381L27.6213 28.4028C27.7226 29.5684 27.3174 30.7341 26.5071 31.5449C26.2538 31.8997 25.8487 32.0011 25.4941 32.0011ZM6.90653 23.9429C6.80523 23.9429 6.70394 23.8922 6.60264 23.8415L1.18337 20.1925C0.930129 19.9898 0.778187 19.6857 0.727539 19.3816C0.727539 19.0775 0.828834 18.8241 1.03142 18.5707L1.94308 17.6585C2.24696 17.3544 2.55085 17.3544 2.80409 17.3544H2.90538L8.67918 18.7735C8.93242 18.8241 9.13501 19.1282 9.03371 19.3816C8.98307 19.635 8.67918 19.8377 8.42594 19.7364L2.80409 18.4187H2.70279L1.79114 19.3309L7.21041 23.0306C7.46365 23.1827 7.5143 23.4867 7.36236 23.7401C7.21041 23.8415 7.05847 23.9429 6.90653 23.9429ZM12.6297 31.0888H12.4777C12.1739 31.0381 11.9206 30.8861 11.7687 30.6327L7.81817 24.7538C7.66624 24.5003 7.71689 24.1963 7.97012 24.0442C8.22335 23.8922 8.52724 23.9429 8.67918 24.1963L12.6297 30.0245L13.4907 29.163L11.7687 23.132C11.6674 22.8786 11.87 22.5745 12.1232 22.5238C12.3764 22.4731 12.6803 22.6252 12.731 22.8786L14.453 28.9096C14.5543 29.2136 14.453 29.6191 14.1491 29.9232L13.2375 30.8354C13.1362 30.9875 12.8829 31.0888 12.6297 31.0888Z" fill="#FA6444"/>
<path d="M9.24435 24.7273C9.09592 24.7273 8.89801 24.7273 8.74957 24.6772C8.50218 24.6272 8.30427 24.3769 8.35375 24.1266C8.40323 23.8763 8.65062 23.6761 8.89801 23.7262C9.93704 23.8763 11.6688 23.1756 12.1635 22.675L28.6397 7.45823C30.2724 5.85646 31.5589 2.50276 30.5693 1.4516C30.3219 1.20132 29.9261 1.05116 29.3818 1.10121C27.8975 1.10121 25.7205 2.15237 24.533 3.3537L9.29383 19.6717C8.79905 20.1722 8.05687 21.8241 8.2548 22.9253C8.30427 23.1756 8.10635 23.4759 7.85896 23.4759C7.61157 23.5259 7.3147 23.3257 7.3147 23.0754C7.06731 21.6238 7.95791 19.6717 8.65062 18.9709L23.8898 2.60287C25.2752 1.15127 27.6996 0.0500552 29.4313 0H29.4808C30.2724 0 30.9156 0.200221 31.3609 0.650718C32.9442 2.30254 31.3115 6.20685 29.4313 8.05889L12.9057 23.3257C12.312 23.9764 10.6297 24.7273 9.24435 24.7273Z" fill="#FA6444"/>
<path d="M28.5938 5.12532C28.3452 5.12532 28.0965 4.92842 28.0965 4.68229C28.0468 4.23926 27.6987 3.9439 27.2014 3.89467H27.102C26.8036 3.89467 26.6047 3.69777 26.6047 3.40242C26.6047 3.10706 26.8036 2.91016 27.102 2.91016H27.2511C28.2954 2.95938 29.0414 3.64854 29.0911 4.58384C29.0911 4.87919 28.8922 5.12532 28.5938 5.12532ZM7.16102 25.4556C6.81292 25.4556 6.46482 25.3079 6.21618 25.0618C5.96754 24.8157 5.81836 24.5203 5.81836 24.1757C5.81836 23.8312 5.96754 23.4866 6.16646 23.2404L9.00095 20.4346C9.4485 19.9915 10.3933 19.9915 10.8409 20.4346C11.0895 20.6807 11.189 20.9761 11.189 21.3699C11.189 21.7637 11.0398 22.059 10.8409 22.3052L8.00639 25.111C7.85721 25.3079 7.50911 25.4556 7.16102 25.4556ZM9.99551 21.0745C9.89605 21.0745 9.84632 21.1237 9.7966 21.173L6.9621 23.9788C6.91238 24.0281 6.86265 24.1265 6.86265 24.1757C6.86265 24.2742 6.91238 24.3234 6.9621 24.3726C7.11129 24.5203 7.26047 24.5203 7.35993 24.4219L10.2441 21.5668C10.2939 21.5175 10.3436 21.4191 10.3436 21.3699C10.3436 21.3206 10.2939 21.2222 10.2441 21.173C10.1447 21.0745 10.0452 21.0745 9.99551 21.0745Z" fill="#FA6444"/>
</g>
<defs>
<clipPath id="clip0_9360_25709">
<rect width="32" height="32" fill="white"/>
</clipPath>
</defs>
</svg>
