<svg width="32" height="32" viewBox="0 0 32 32" fill="none" xmlns="http://www.w3.org/2000/svg">
<g clip-path="url(#clip0_9360_25733)">
<path d="M11.8307 9.40607V5.52727C11.8307 5.23637 11.6367 5.04243 11.3458 5.04243C11.0549 5.04243 10.8609 5.23637 10.8609 5.52727V9.40607C9.98826 9.6 9.35793 10.4243 9.35793 11.3455C9.35793 11.9273 9.60033 12.4121 9.93973 12.8L8.19426 15.7576C8.04886 16 8.14579 16.2909 8.38826 16.4363C8.63066 16.5818 8.92159 16.4849 9.06699 16.2424L10.8125 13.2849C11.0064 13.3333 11.2003 13.3818 11.3943 13.3818C12.5095 13.3818 13.3822 12.4606 13.3822 11.3939C13.3337 10.3757 12.6549 9.6 11.8307 9.40607ZM11.3458 12.3637C10.764 12.3637 10.3276 11.8788 10.3276 11.3455C10.3276 10.7637 10.8125 10.3273 11.3458 10.3273C11.9276 10.3273 12.364 10.8121 12.364 11.3455C12.364 11.8788 11.8791 12.3637 11.3458 12.3637ZM11.3458 3.78182C11.6367 3.78182 11.8307 3.58788 11.8307 3.29697V2.32727C11.8307 2.03637 11.6367 1.84243 11.3458 1.84243C11.0549 1.84243 10.8609 2.03637 10.8609 2.32727V3.29697C10.8609 3.53939 11.0549 3.78182 11.3458 3.78182ZM11.3458 18.8606C11.0549 18.8606 10.8609 19.0545 10.8609 19.3455V20.3151C10.8609 20.6061 11.0549 20.8 11.3458 20.8C11.6367 20.8 11.8307 20.6061 11.8307 20.3151V19.3455C11.8307 19.103 11.5883 18.8606 11.3458 18.8606ZM3.78217 11.3455C3.78217 11.0545 3.58823 10.8606 3.29732 10.8606H2.32762C2.03671 10.8606 1.84277 11.0545 1.84277 11.3455C1.84277 11.6363 2.03671 11.8303 2.32762 11.8303H3.29732C3.53975 11.8303 3.78217 11.5879 3.78217 11.3455ZM18.8609 11.3455C18.8609 11.6363 19.0549 11.8303 19.3458 11.8303H20.3155C20.6064 11.8303 20.8003 11.6363 20.8003 11.3455C20.8003 11.0545 20.6064 10.8606 20.3155 10.8606H19.3458C19.1034 10.8606 18.8609 11.0545 18.8609 11.3455ZM3.24883 7.22427L4.12156 7.70907C4.36399 7.85453 4.65489 7.7576 4.80035 7.51513C4.94581 7.27273 4.84883 6.9818 4.60641 6.83633L3.73369 6.35151C3.49126 6.20606 3.20035 6.30303 3.05489 6.54545C2.95793 6.83633 3.00641 7.12727 3.24883 7.22427ZM7.56399 17.8424C7.32159 17.697 7.03066 17.7939 6.88519 18.0363L6.40035 18.9091C6.25489 19.1515 6.35187 19.4424 6.59429 19.5879C6.83673 19.7333 7.12759 19.6363 7.27306 19.3939L7.75793 18.5212C7.85493 18.2788 7.80639 17.9879 7.56399 17.8424ZM15.0791 4.8C15.3216 4.94545 15.6125 4.84849 15.7579 4.60606L16.2428 3.73333C16.3883 3.49091 16.2913 3.2 16.0489 3.05455C15.8064 2.90909 15.5155 3.00606 15.3701 3.24849L14.8852 4.12121C14.7883 4.36363 14.8367 4.65455 15.0791 4.8ZM7.46699 4.84849C7.70946 4.70303 7.75793 4.41212 7.61246 4.1697L7.12759 3.29697C6.98219 3.05455 6.69126 3.00606 6.44883 3.15151C6.20641 3.29697 6.15793 3.58788 6.30338 3.8303L6.78826 4.70303C6.93366 4.89697 7.22459 4.99394 7.46699 4.84849ZM4.17005 15.0303L3.29732 15.5151C3.05489 15.6606 3.00641 15.9515 3.15187 16.1939C3.29732 16.4363 3.58823 16.4849 3.83065 16.3394L4.70338 15.8545C4.94581 15.7091 4.99429 15.4182 4.84883 15.1757C4.70338 14.9333 4.41247 14.8849 4.17005 15.0303ZM18.4731 7.6606L19.3458 7.17573C19.5883 7.03033 19.6367 6.7394 19.4913 6.49697C19.3458 6.25455 19.0549 6.20606 18.8125 6.35151L17.9397 6.83633C17.6973 6.9818 17.6489 7.27273 17.7943 7.51513C17.9397 7.70907 18.2307 7.7576 18.4731 7.6606ZM19.8307 0.9697H28.2185V12.6061L26.2307 10.6182C26.0367 10.4243 25.7458 10.4243 25.5519 10.6182C25.3579 10.8121 25.3579 11.103 25.5519 11.297L28.364 14.1091C28.4609 14.2061 28.5579 14.2545 28.7034 14.2545C28.8489 14.2545 28.9458 14.2061 29.0428 14.1091L31.8549 11.297C32.0489 11.103 32.0489 10.8121 31.8549 10.6182C31.6609 10.4243 31.3701 10.4243 31.1761 10.6182L29.1883 12.6061V0.484849C29.1883 0.193939 28.9943 0 28.7034 0H19.8307C19.5397 0 19.3458 0.193939 19.3458 0.484849C19.3458 0.77576 19.5883 0.9697 19.8307 0.9697Z" fill="#FA6444"/>
<path d="M31.6606 17.6485C31.5637 17.6 22.6424 12.703 22.5455 12.703C22.5939 12.2182 22.6424 11.7818 22.6424 11.3455C22.6424 5.09091 17.5515 0 11.297 0C5.09091 0 0 5.09091 0 11.3455C0 17.6 5.09091 22.6909 11.297 22.6909C11.7818 22.6909 12.3637 22.6424 12.9455 22.5455V25.8424C12.9455 25.9879 13.0424 26.1818 13.1879 26.2303L22.1576 31.903C22.2545 31.9515 22.303 32 22.4 32C22.497 32 22.5939 31.9515 22.6424 31.9515L31.7091 27.1515C31.8545 27.0545 31.9515 26.9091 31.9515 26.7151V18.0849C31.9515 17.8909 31.8545 17.7455 31.6606 17.6485ZM30.4485 18.0849L28.3151 19.2485L20.2667 14.8363L22.4 13.7212L30.4485 18.0849ZM26.3757 20.5576L18.0363 16L19.2485 15.3212L27.8303 20.0243V22.4485L26.6667 23.1757V20.9939C26.6667 20.8 26.5212 20.6061 26.3757 20.5576ZM22.4485 22.4485L14.4485 17.9394L17.0182 16.5818L25.1637 20.9939L22.4485 22.4485ZM11.297 21.6727C5.62424 21.6727 0.9697 17.0182 0.9697 11.3455C0.9697 5.62424 5.62424 0.9697 11.297 0.9697C17.0182 0.9697 21.6727 5.62424 21.6727 11.3455C21.6727 11.8303 21.6243 12.5091 21.5273 13.0909C21.5273 13.0909 13.2849 17.503 13.1879 17.503C13.0424 17.6 12.9455 17.7939 12.9455 17.9394V21.5757C12.3637 21.6243 11.7818 21.6727 11.297 21.6727ZM13.9151 25.5515V18.7637L21.9151 23.2727V30.6424L13.9151 25.5515ZM22.8849 30.6909V23.3212L25.6485 21.8182V24C25.6485 24.1939 25.7455 24.3394 25.8909 24.4363C26.0363 24.5333 26.2303 24.5333 26.3757 24.4363L28.5576 23.2243C28.703 23.1273 28.8 22.9818 28.8 22.7879V20.0727L30.9333 18.9091V26.4243L22.8849 30.6909Z" fill="#FA6444"/>
<path d="M20.849 24.7752L15.5642 21.7207C15.3217 21.5752 15.0308 21.6722 14.8854 21.9146C14.7399 22.1571 14.8369 22.448 15.0793 22.5934L20.3642 25.5995C20.6066 25.745 20.8975 25.648 21.0429 25.4056C21.1399 25.2116 21.0429 24.8722 20.849 24.7752ZM20.8005 26.7632L15.5156 23.6601C15.2732 23.5146 14.9823 23.6116 14.8369 23.854C14.6914 24.0965 14.7884 24.3874 15.0308 24.5328L20.3156 27.5874C20.5581 27.7328 20.849 27.6358 20.9944 27.3934C21.0914 27.151 20.9944 26.8601 20.8005 26.7632Z" fill="#FA6444"/>
</g>
<defs>
<clipPath id="clip0_9360_25733">
<rect width="32" height="32" fill="white"/>
</clipPath>
</defs>
</svg>
