<svg width="32" height="32" viewBox="0 0 32 32" fill="none" xmlns="http://www.w3.org/2000/svg">
<g clip-path="url(#clip0_9360_25665)">
<path d="M25.6641 7.27344H7.062V16.3643H25.6641V7.27344ZM15.846 15.3536H8.09616V8.28419H15.846V15.3536ZM24.63 15.3536H16.8801V8.28419H24.63V15.3536ZM9.13034 20.4013C7.70519 20.4013 6.54492 21.5353 6.54492 22.9282C6.54492 24.3212 7.70519 25.4553 9.13034 25.4553C10.5554 25.4553 11.7157 24.3212 11.7157 22.9282C11.7157 21.5353 10.5554 20.4013 9.13034 20.4013ZM9.13034 24.4444C8.27272 24.4444 7.57908 23.7664 7.57908 22.9282C7.57908 22.09 8.27272 21.4121 9.13034 21.4121C9.98793 21.4121 10.6815 22.09 10.6815 22.9282C10.6815 23.7664 9.98163 24.4444 9.13034 24.4444ZM23.5958 20.4013C22.1707 20.4013 21.0105 21.5353 21.0105 22.9282C21.0105 24.3212 22.1707 25.4553 23.5958 25.4553C25.021 25.4553 26.1813 24.3212 26.1813 22.9282C26.1813 21.5353 25.021 20.4013 23.5958 20.4013ZM23.5958 24.4444C22.7382 24.4444 22.0447 23.7664 22.0447 22.9282C22.0447 22.09 22.7382 21.4121 23.5958 21.4121C24.4534 21.4121 25.1471 22.09 25.1471 22.9282C25.1471 23.7664 24.4534 24.4444 23.5958 24.4444ZM12.7435 24.9498H19.9764V20.9128H12.7435V24.9498ZM13.7777 21.9175H18.9485V23.9391H13.7777V21.9175Z" fill="#FA6444"/>
<path d="M31.273 16.5165V9.29134H28.216V8.48504C28.216 5.80157 26.3954 3.51495 23.7858 2.92913C22.8973 2.72755 21.9963 2.57637 21.0891 2.45039V1.5496C21.0891 0.692908 20.4057 0 19.5606 0H12.4337C11.5887 0 10.9053 0.692908 10.9053 1.5496V2.44409C10.0042 2.57637 9.10329 2.72755 8.20855 2.92283C5.59891 3.50866 3.77836 5.79527 3.77836 8.47875V9.28505H0.727539V16.5102H3.78457V20.7433C3.78457 21.1527 3.58574 21.5307 3.25022 21.7574C2.62887 22.1795 2.26227 22.8787 2.26227 23.6347V26.8346C2.26227 28.2582 3.40555 29.4173 4.80979 29.4173H5.3193V30.4504C5.3193 31.3071 6.00278 32 6.84782 32H8.88585C9.73088 32 10.4144 31.3071 10.4144 30.4504V29.4173H21.6173V30.4504C21.6173 31.3071 22.3008 32 23.1458 32H25.1838C26.0289 32 26.7124 31.3071 26.7124 30.4504V29.4173H27.2218C28.6261 29.4173 29.7693 28.2582 29.7693 26.8346V23.6347C29.7693 22.8787 29.3966 22.1795 28.7814 21.7574C28.4458 21.5307 28.247 21.1527 28.247 20.7433V16.5102H31.273V16.5165ZM28.216 10.3244H30.254V15.4835H28.216V10.3244ZM11.9304 1.5496C11.9304 1.26614 12.1604 1.03307 12.4399 1.03307H19.5668C19.8464 1.03307 20.0763 1.26614 20.0763 1.5496V2.3055C17.3735 1.99685 14.6333 1.99685 11.9304 2.3055V1.5496ZM1.74655 15.4835V10.3244H3.78457V15.4835H1.74655ZM9.38293 30.4504C9.38293 30.7338 9.153 30.9669 8.87344 30.9669H6.83539C6.55579 30.9669 6.32588 30.7338 6.32588 30.4504V29.4173H9.38293V30.4504ZM25.6747 30.4504C25.6747 30.7338 25.4448 30.9669 25.1651 30.9669H23.1271C22.8475 30.9669 22.6176 30.7338 22.6176 30.4504V29.4173H25.6747V30.4504ZM28.7255 23.6409V26.8409C28.7255 27.6976 28.042 28.3905 27.1969 28.3905H4.79737C3.95234 28.3905 3.26885 27.6976 3.26885 26.8409V23.6409C3.26885 23.2315 3.46768 22.8535 3.80321 22.6268C4.42456 22.2047 4.79116 21.5055 4.79116 20.7496V8.47875C4.79116 6.2803 6.28861 4.40944 8.42607 3.9307C10.9053 3.37637 13.4528 3.09291 15.9941 3.09291C18.5354 3.09291 21.0829 3.37637 23.5621 3.9307C25.6995 4.40944 27.1969 6.2803 27.1969 8.47875V20.7433C27.1969 21.4992 27.5698 22.1984 28.1849 22.6204C28.5267 22.8472 28.7255 23.2315 28.7255 23.6409Z" fill="#FA6444"/>
</g>
<defs>
<clipPath id="clip0_9360_25665">
<rect width="32" height="32" fill="white"/>
</clipPath>
</defs>
</svg>
