<svg width="32" height="32" viewBox="0 0 32 32" fill="none" xmlns="http://www.w3.org/2000/svg">
<g clip-path="url(#clip0_9360_25686)">
<path d="M0.205715 25.9687L2.19973 27.3826C3.1146 28.0314 4.17926 28.3636 5.25334 28.3636C5.95075 28.3633 6.64151 28.2237 7.28735 27.9524L9.83598 26.8845C10.4239 26.6382 11.056 26.5241 11.69 26.5499C12.3241 26.5756 12.9455 26.7406 13.5127 27.0339L13.5834 27.0705C15.0975 27.8534 16.9055 27.8534 18.4194 27.0705L18.4902 27.0339C19.0575 26.7406 19.6788 26.5756 20.313 26.5499C20.947 26.5241 21.5791 26.6382 22.1669 26.8845L24.7155 27.9524C26.4019 28.659 28.3036 28.446 29.8032 27.3826L31.7972 25.9686C31.8995 25.8962 31.9696 25.7847 31.9922 25.6589C32.0148 25.5331 31.9879 25.4031 31.9175 25.2978C31.8472 25.1923 31.739 25.12 31.617 25.0968C31.4949 25.0735 31.3688 25.1012 31.2666 25.1737L29.2726 26.5877C28.0333 27.4666 26.4615 27.6425 25.0681 27.0586L24.8657 26.9738C26.1607 24.6951 27.0187 22.4371 27.4177 20.2545C27.4397 20.1329 27.4337 20.0077 27.4001 19.8889C27.3666 19.7702 27.3065 19.6612 27.2246 19.5708C27.0986 19.4322 26.9711 19.295 26.842 19.1594L26.4798 15.7772C26.4589 15.5795 26.3678 15.3967 26.224 15.264C26.0803 15.1313 25.894 15.058 25.701 15.0582H25.4662L24.6879 10.887C24.6545 10.7088 24.562 10.5481 24.4262 10.4325C24.2904 10.3169 24.1199 10.2536 23.9437 10.2533H23.5598L23.3252 8.69069C23.3052 8.56521 23.2379 8.453 23.138 8.37839C23.0381 8.30378 22.9137 8.27286 22.7918 8.29232C22.6699 8.31169 22.5603 8.37995 22.4869 8.48219C22.4136 8.58442 22.3824 8.71237 22.4 8.83818L22.6124 10.2533H20.1224L19.4766 5.9502H21.9666L22.0914 6.78229C22.1105 6.90871 22.1774 7.02217 22.2776 7.09774C22.3777 7.17331 22.5029 7.20479 22.6255 7.18527C22.6863 7.17559 22.7446 7.15368 22.7971 7.12077C22.8497 7.08787 22.8954 7.04463 22.9318 6.99351C22.968 6.9424 22.9942 6.88441 23.0088 6.82286C23.0233 6.76131 23.026 6.69741 23.0166 6.6348L22.4288 2.71816C22.3561 2.23381 21.9582 1.88229 21.4828 1.88229H18.8661L18.7091 0.835877C18.6364 0.351525 18.2385 0 17.763 0H14.2398C13.7643 0 13.3665 0.351525 13.2937 0.835877L13.1367 1.88229H10.5201C10.0446 1.88229 9.64672 2.23381 9.57409 2.71816L8.44315 10.2534H8.05911C7.88302 10.2537 7.71247 10.317 7.57672 10.4326C7.44095 10.5482 7.34843 10.7088 7.315 10.887L6.53674 15.0583H6.45911C6.26612 15.0581 6.07986 15.1314 5.93611 15.2641C5.79235 15.3968 5.70123 15.5796 5.68023 15.7773L5.33796 18.9741C5.14827 19.1698 4.96168 19.3687 4.77827 19.5707C4.69642 19.6611 4.63631 19.7702 4.60277 19.889C4.56923 20.0077 4.56321 20.133 4.58517 20.2547C4.79275 21.3901 5.12777 22.5578 5.58087 23.7254C5.62802 23.8426 5.7181 23.936 5.8316 23.9853C5.94508 24.0346 6.07285 24.0357 6.18719 23.9886C6.30153 23.9415 6.39325 23.8498 6.44246 23.7335C6.49168 23.6171 6.49442 23.4855 6.45012 23.367C6.33336 23.0656 6.22394 22.7612 6.12196 22.4542C8.60274 19.9311 11.6898 17.898 15.5334 16.2566V26.6677C15.0058 26.6109 14.4864 26.4579 14.0032 26.2081L13.9324 26.1715C13.2461 25.8167 12.4941 25.617 11.7269 25.5858C10.9596 25.5546 10.1948 25.6927 9.48346 25.9907L8.01415 26.6063C7.74607 26.1403 7.49474 25.6732 7.26632 25.2134C7.23852 25.1566 7.2001 25.1062 7.15328 25.0647C7.10646 25.0233 7.05217 24.9919 6.99352 24.9722C6.93487 24.9525 6.87302 24.9449 6.81153 24.9499C6.75003 24.955 6.69011 24.9725 6.6352 25.0015C6.58029 25.0304 6.53148 25.0703 6.49157 25.1188C6.45166 25.1673 6.42144 25.2234 6.40266 25.2839C6.38387 25.3445 6.37688 25.4083 6.38208 25.4717C6.3873 25.535 6.40461 25.5966 6.43301 25.653C6.65556 26.1001 6.89038 26.5405 7.13719 26.9738L6.93467 27.0586C5.54142 27.6425 3.96956 27.4666 2.73027 26.5878L0.736265 25.1738C0.685642 25.1373 0.628516 25.1115 0.568179 25.0979C0.507841 25.0843 0.445486 25.0832 0.384707 25.0945C0.323929 25.1059 0.265929 25.1294 0.214049 25.164C0.162171 25.1985 0.117439 25.2434 0.0824333 25.2958C0.047427 25.3482 0.0228389 25.4073 0.0100859 25.4696C-0.00266711 25.5318 -0.0033328 25.5961 0.00812718 25.6587C0.0195872 25.7212 0.0429462 25.7808 0.076858 25.8341C0.11077 25.8873 0.154564 25.933 0.205715 25.9687ZM22.5195 25.9908C21.8082 25.6927 21.0433 25.5547 20.276 25.5858C19.5087 25.617 18.7568 25.8168 18.0704 26.1716L17.9996 26.2082C17.5165 26.458 16.9971 26.6109 16.4695 26.6678V16.2569C17.0179 16.4908 17.561 16.7379 18.0983 16.9979C18.2104 17.051 18.3383 17.0563 18.4542 17.0126C18.5701 16.969 18.6645 16.88 18.7171 16.765C18.7697 16.6499 18.776 16.5181 18.7347 16.3982C18.6934 16.2784 18.608 16.1802 18.4968 16.1249C17.8483 15.8103 17.1668 15.5052 16.4695 15.2151V13.3342C20.6276 15.11 23.9079 17.3484 26.4813 20.1645C26.401 20.5884 26.3044 21.0089 26.1919 21.425C24.509 19.7813 22.5319 18.3166 20.3011 17.0662C20.192 17.0051 20.0639 16.9911 19.9448 17.0274C19.8258 17.0637 19.7256 17.1472 19.6663 17.2595C19.6069 17.372 19.5934 17.5041 19.6286 17.6267C19.6637 17.7494 19.7448 17.8527 19.8539 17.9138C22.1618 19.2075 24.1872 20.7347 25.88 22.4548C25.4257 23.8182 24.7937 25.2066 23.9887 26.6065L22.5195 25.9908ZM25.788 18.1125C24.999 17.3738 24.1548 16.6783 23.2519 16.0233H25.5642L25.788 18.1125ZM13.7223 4.29311H18.2807L19.1751 10.2536H12.8276L13.7223 4.29311ZM21.4828 2.84726C21.4933 2.84726 21.5021 2.85505 21.5036 2.86579L21.8219 4.98556H19.3318L19.0109 2.84733L21.4828 2.84726ZM14.2398 0.965042H17.763C17.7733 0.965042 17.7823 0.973015 17.7839 0.983568L18.1358 3.32833H13.8671L14.2189 0.983502C14.2197 0.978341 14.2222 0.973633 14.2261 0.970236C14.2299 0.966848 14.2348 0.965001 14.2398 0.965042ZM10.52 2.84726H12.9919L12.671 4.98549H10.1811L10.4992 2.86572C10.4999 2.86058 10.5025 2.85588 10.5062 2.85249C10.5101 2.84909 10.515 2.84724 10.52 2.84726ZM10.0362 5.9504H12.5261L11.8803 10.2536H9.39043L10.0362 5.9504ZM8.20645 11.2184H23.7964L24.5128 15.0584H21.834C20.1746 13.9998 18.3362 13.0578 16.2995 12.2211C16.1078 12.1423 15.8942 12.1425 15.7027 12.2214C13.6663 13.0581 11.828 13.9999 10.1688 15.0584H7.49006L8.20645 11.2184ZM6.59572 16.0232H8.7508C7.91433 16.6301 7.1279 17.2717 6.38939 17.9503L6.59572 16.0232ZM5.81073 21.422C5.69835 21.0069 5.60186 20.5873 5.52145 20.1645C8.09486 17.3484 11.3754 15.11 15.5333 13.3341V15.2144C11.5875 16.8556 8.3962 18.8924 5.81073 21.422Z" fill="#FA6444"/>
<path d="M31.265 28.1193L29.2709 29.5178C28.0317 30.3871 26.4599 30.5611 25.0663 29.9836L22.5175 28.9274C21.8062 28.6325 21.0413 28.496 20.274 28.5268C19.5067 28.5577 18.7547 28.7552 18.0683 29.1062L17.9975 29.1424C16.7462 29.7822 15.2521 29.7822 14.0009 29.1424L13.9302 29.1062C13.2438 28.7552 12.4917 28.5577 11.7245 28.5268C10.9572 28.496 10.1923 28.6325 9.48092 28.9274L6.93211 29.9836C5.53873 30.5611 3.96686 30.3871 2.72753 29.5178L0.733423 28.1193C0.682779 28.0838 0.625768 28.0588 0.565644 28.0457C0.505522 28.0327 0.443464 28.0318 0.383017 28.0432C0.322568 28.0546 0.264913 28.078 0.213342 28.1121C0.161772 28.1462 0.117295 28.1903 0.0824536 28.2419C0.0476112 28.2936 0.0230849 28.3517 0.0102755 28.413C-0.00253397 28.4742 -0.00337575 28.5375 0.00779817 28.5992C0.0189721 28.6607 0.0419429 28.7195 0.0753991 28.7721C0.108856 28.8246 0.152142 28.87 0.202787 28.9055L2.19689 30.3041C3.11181 30.9457 4.17651 31.2743 5.25064 31.2743C5.94809 31.274 6.63887 31.1359 7.28474 30.8676L9.83355 29.8113C10.4214 29.5677 11.0536 29.4549 11.6876 29.4804C12.3217 29.5058 12.9432 29.6691 13.5103 29.9591L13.5811 29.9953C15.0954 30.7696 16.9033 30.7696 18.4174 29.9953L18.4882 29.9591C19.0554 29.6691 19.6768 29.5058 20.3109 29.4804C20.945 29.4549 21.5771 29.5677 22.165 29.8113L24.7137 30.8676C26.4002 31.5664 28.302 31.3557 29.8016 30.304L31.7957 28.9054C31.8466 28.8701 31.8901 28.8247 31.9238 28.7721C31.9575 28.7195 31.9807 28.6606 31.9921 28.5989C32.0033 28.5372 32.0026 28.4738 31.9898 28.4123C31.977 28.3509 31.9525 28.2926 31.9175 28.2409C31.8825 28.1891 31.838 28.1449 31.7862 28.1107C31.7345 28.0766 31.6766 28.0532 31.616 28.0419C31.5554 28.0307 31.4932 28.0316 31.433 28.0449C31.3727 28.0582 31.3156 28.0835 31.265 28.1193ZM21.6946 13.3195H22.0864C22.3451 13.3195 22.5546 13.1059 22.5546 12.8423C22.5546 12.5788 22.3451 12.3652 22.0864 12.3652H21.6946C21.5705 12.3652 21.4513 12.4155 21.3636 12.5049C21.2758 12.5944 21.2265 12.7158 21.2265 12.8423C21.2265 12.9689 21.2758 13.0902 21.3636 13.1798C21.4513 13.2692 21.5705 13.3195 21.6946 13.3195ZM10.3038 13.3195C10.5624 13.3195 10.7719 13.1059 10.7719 12.8423C10.7719 12.5788 10.5624 12.3652 10.3038 12.3652H9.91186C9.65332 12.3652 9.4438 12.5788 9.4438 12.8423C9.4438 13.1059 9.65332 13.3195 9.91186 13.3195H10.3038Z" fill="#FA6444"/>
</g>
<defs>
<clipPath id="clip0_9360_25686">
<rect width="32" height="32" fill="white"/>
</clipPath>
</defs>
</svg>
