<svg width="22" height="22" viewBox="0 0 22 22" fill="none" xmlns="http://www.w3.org/2000/svg">
<path d="M11.5133 19.085C11.3637 19.1924 11.1842 19.2502 11 19.2502C10.8158 19.2502 10.6363 19.1924 10.4866 19.085C6.06006 15.9298 1.36215 9.43983 6.1114 4.75017C7.41521 3.46761 9.17108 2.7492 11 2.75C12.8333 2.75 14.5924 3.46958 15.8886 4.74925C20.6378 9.43892 15.9399 15.928 11.5133 19.085Z" stroke="#FA6444" stroke-width="1.5" stroke-linecap="round" stroke-linejoin="round"/>
<path d="M10.9995 11.0007C11.4858 11.0007 11.9521 10.8075 12.2959 10.4637C12.6397 10.1199 12.8329 9.65355 12.8329 9.16732C12.8329 8.68109 12.6397 8.21477 12.2959 7.87096C11.9521 7.52714 11.4858 7.33398 10.9995 7.33398C10.5133 7.33398 10.047 7.52714 9.70317 7.87096C9.35935 8.21477 9.1662 8.68109 9.1662 9.16732C9.1662 9.65355 9.35935 10.1199 9.70317 10.4637C10.047 10.8075 10.5133 11.0007 10.9995 11.0007Z" stroke="#FA6444" stroke-width="1.5" stroke-linecap="round" stroke-linejoin="round"/>
</svg>
