<svg width="22" height="22" viewBox="0 0 22 22" fill="none" xmlns="http://www.w3.org/2000/svg">
<path d="M14.2805 3.10082L16.1138 4.06332C18.0856 5.09823 19.0719 5.61523 19.6201 6.54565C20.1673 7.47515 20.1673 8.6329 20.1673 10.9475V11.0547C20.1673 13.3684 20.1673 14.5262 19.6201 15.4557C19.0719 16.3861 18.0856 16.904 16.1138 17.9389L14.2805 18.9005C12.6708 19.7447 11.866 20.1673 11.0007 20.1673C10.1353 20.1673 9.33048 19.7457 7.72082 18.9005L5.88748 17.938C3.91573 16.9031 2.9294 16.3861 2.38123 15.4557C1.83398 14.5262 1.83398 13.3684 1.83398 11.0557V10.9484C1.83398 8.63382 1.83398 7.47607 2.38123 6.54657C2.9294 5.61615 3.91573 5.09823 5.88748 4.06423L7.72082 3.10173C9.33048 2.25657 10.1353 1.83398 11.0007 1.83398C11.866 1.83398 12.6708 2.25565 14.2805 3.10082Z" stroke="#FA6444" stroke-width="1.5" stroke-linecap="round"/>
<path d="M19.25 6.875L15.5833 8.70833M15.5833 8.70833L15.125 8.9375L11 11M15.5833 8.70833V11.9167M15.5833 8.70833L6.875 4.125M11 11L2.75 6.875M11 11V19.7083" stroke="#FA6444" stroke-width="1.5" stroke-linecap="round"/>
</svg>
