<svg width="22" height="22" viewBox="0 0 22 22" fill="none" xmlns="http://www.w3.org/2000/svg">
<path d="M14.2805 3.09887L16.1138 4.06137C18.0856 5.09628 19.0719 5.61328 19.6201 6.5437C20.1673 7.4732 20.1673 8.63095 20.1673 10.9456V11.0528C20.1673 13.3665 20.1673 14.5243 19.6201 15.4538C19.0719 16.3842 18.0856 16.9021 16.1138 17.937L14.2805 18.8986C12.6708 19.7428 11.866 20.1653 11.0007 20.1653C10.1353 20.1653 9.33048 19.7438 7.72082 18.8986L5.88748 17.9361C3.91573 16.9012 2.9294 16.3842 2.38123 15.4538C1.83398 14.5243 1.83398 13.3665 1.83398 11.0538V10.9465C1.83398 8.63187 1.83398 7.47412 2.38123 6.54462C2.9294 5.6142 3.91573 5.09628 5.88748 4.06228L7.72082 3.09978C9.33048 2.25462 10.1353 1.83203 11.0007 1.83203C11.866 1.83203 12.6708 2.2537 14.2805 3.09887Z" stroke="#235AA8" stroke-width="1.5" stroke-linecap="round"/>
<path d="M19.25 6.875L15.5833 8.70833M15.5833 8.70833L15.125 8.9375L11 11M15.5833 8.70833V11.9167M15.5833 8.70833L6.875 4.125M11 11L2.75 6.875M11 11V19.7083" stroke="#235AA8" stroke-width="1.5" stroke-linecap="round"/>
</svg>
