<svg width="16" height="20" viewBox="0 0 16 20" fill="none" xmlns="http://www.w3.org/2000/svg">
<path d="M8.70016 6.66667C9.35136 6.79371 9.94976 7.11217 10.4189 7.58129C10.888 8.05041 11.2065 8.64884 11.3335 9.3M8.70016 4C10.053 4.15029 11.3146 4.75611 12.2777 5.71801C13.2408 6.67989 13.8482 7.94067 14.0002 9.29333M11.6668 16.6667C5.95989 16.6667 1.3335 12.0403 1.3335 6.33333C1.3335 6.07585 1.34292 5.82057 1.36142 5.56782C1.38266 5.27775 1.39328 5.13271 1.4693 5.00069C1.53226 4.89134 1.64383 4.78764 1.75748 4.73283C1.8947 4.66667 2.05475 4.66667 2.37484 4.66667H4.25304C4.52222 4.66667 4.6568 4.66667 4.77218 4.71097C4.87409 4.7501 4.96484 4.81366 5.03644 4.89607C5.1175 4.98935 5.1635 5.11584 5.25549 5.36881L6.0329 7.5067C6.1399 7.80102 6.19343 7.94818 6.18436 8.0878C6.17636 8.21091 6.1343 8.32939 6.06296 8.43004C5.98207 8.54419 5.8478 8.62475 5.57925 8.78587L4.66683 9.33333C5.4681 11.0993 6.90023 12.5333 8.66683 13.3333L9.2143 12.4209C9.37543 12.1523 9.45596 12.0181 9.5701 11.9372C9.67076 11.8659 9.78923 11.8238 9.91236 11.8158C10.052 11.8067 10.1992 11.8603 10.4935 11.9673L12.6314 12.7447C12.8843 12.8367 13.0108 12.8827 13.1041 12.9637C13.1865 13.0353 13.2501 13.1261 13.2892 13.228C13.3335 13.3433 13.3335 13.4779 13.3335 13.7471V15.6253C13.3335 15.9454 13.3335 16.1055 13.2673 16.2427C13.2125 16.3563 13.1088 16.4679 12.9995 16.5309C12.8674 16.6069 12.7224 16.6175 12.4324 16.6387C12.1796 16.6573 11.9243 16.6667 11.6668 16.6667Z" stroke="#235AA8" stroke-linecap="round" stroke-linejoin="round"/>
</svg>
