<svg width="20" height="20" viewBox="0 0 20 20" fill="none" xmlns="http://www.w3.org/2000/svg">
<path d="M9.99102 1.66602C5.39102 1.66602 1.66602 5.39935 1.66602 9.99935C1.66602 14.5993 5.39102 18.3327 9.99102 18.3327C14.5993 18.3327 18.3327 14.5993 18.3327 9.99935C18.3327 5.39935 14.5993 1.66602 9.99102 1.66602ZM9.99935 16.666C6.31602 16.666 3.33268 13.6827 3.33268 9.99935C3.33268 6.31602 6.31602 3.33268 9.99935 3.33268C13.6827 3.33268 16.666 6.31602 16.666 9.99935C16.666 13.6827 13.6827 16.666 9.99935 16.666ZM9.81602 5.83268H9.76602C9.43268 5.83268 9.16602 6.09935 9.16602 6.43268V10.366C9.16602 10.6577 9.31602 10.9327 9.57435 11.0827L13.0327 13.1577C13.316 13.3243 13.6827 13.241 13.8493 12.9577C13.8912 12.8902 13.919 12.815 13.9312 12.7365C13.9434 12.6581 13.9396 12.578 13.9202 12.501C13.9007 12.424 13.866 12.3517 13.818 12.2885C13.7701 12.2252 13.7099 12.1722 13.641 12.1327L10.416 10.216V6.43268C10.416 6.09935 10.1493 5.83268 9.81602 5.83268Z" fill="#000E12"/>
</svg>
