<svg width="24" height="24" viewBox="0 0 24 24" fill="none" xmlns="http://www.w3.org/2000/svg">
<path d="M18.2214 17C19.6164 18.988 20.2834 20.047 19.8864 20.9C19.8464 20.9853 19.7997 21.0677 19.7464 21.147C19.1714 22 17.6864 22 14.7164 22H9.28238C6.31238 22 4.82838 22 4.25338 21.147C4.20092 21.0681 4.15414 20.9855 4.11338 20.9C3.71638 20.048 4.38338 18.988 5.77838 17M14.4994 9C14.4994 9.66304 14.236 10.2989 13.7671 10.7678C13.2983 11.2366 12.6624 11.5 11.9994 11.5C11.3363 11.5 10.7005 11.2366 10.2316 10.7678C9.76277 10.2989 9.49938 9.66304 9.49938 9C9.49938 8.33696 9.76277 7.70107 10.2316 7.23223C10.7005 6.76339 11.3363 6.5 11.9994 6.5C12.6624 6.5 13.2983 6.76339 13.7671 7.23223C14.236 7.70107 14.4994 8.33696 14.4994 9Z" stroke="#000E12" stroke-width="1.5" stroke-linecap="round" stroke-linejoin="round"/>
<path d="M13.2555 17.494C12.9178 17.819 12.4672 18.0005 11.9985 18.0005C11.5298 18.0005 11.0793 17.819 10.7415 17.494C7.65253 14.501 3.51353 11.158 5.53153 6.304C6.62453 3.679 9.24453 2 11.9985 2C14.7525 2 17.3735 3.68 18.4655 6.304C20.4815 11.151 16.3525 14.511 13.2555 17.494Z" stroke="#000E12" stroke-width="1.5" stroke-linecap="round" stroke-linejoin="round"/>
</svg>
