<svg width="34" height="36" viewBox="0 0 34 36" fill="none" xmlns="http://www.w3.org/2000/svg">
<g clip-path="url(#clip0_9579_14984)">
<path d="M31.8069 0.554688H12.6775C11.9116 0.554688 11.2885 1.129 11.2885 1.83487V7.62264C8.77565 8.22122 6.50234 9.52464 4.84372 11.327C3.04852 13.2779 2.05976 15.7298 2.05976 18.2311V19.6351C0.890902 19.8176 0 20.7198 0 21.8027V25.5817C0 26.7959 1.11953 27.7837 2.49557 27.7837H3.77193C3.97752 28.5188 4.73081 29.0655 5.62641 29.0655C6.67972 29.0655 7.5366 28.3094 7.5366 27.38V20.0044C7.5366 19.1864 6.87265 18.503 5.99536 18.3507C6.16184 14.933 8.0588 12.3996 11.2884 11.2648V13.8863C11.2884 14.5922 11.9116 15.1665 12.6774 15.1665H13.9105V19.6709C13.9105 19.7797 13.9462 19.8861 14.0134 19.9773C14.0804 20.0685 14.176 20.1406 14.2887 20.1848C14.4012 20.229 14.5259 20.2436 14.6476 20.2265C14.7693 20.2096 14.8829 20.1618 14.9744 20.0891L21.1727 15.1664H22.2886C22.8523 16.2644 23.0076 17.2274 23.0299 18.3491C22.1477 18.4977 21.4786 19.1832 21.4786 20.0043V27.3799C21.4786 28.3093 22.3356 29.0654 23.3889 29.0654C23.5884 29.0654 23.7809 29.0381 23.9618 28.9879C23.7295 31.5867 22.7528 32.8335 19.584 32.8335H17.6364C17.3592 31.9851 16.4718 31.3625 15.4221 31.3625H13.5931C12.3223 31.3625 11.2884 32.2748 11.2884 33.396C11.2884 34.5173 12.3223 35.4296 13.5931 35.4296H15.4221C16.4718 35.4296 17.3591 34.807 17.6364 33.9585H19.584C24.6275 33.9585 25.2507 30.9706 25.2957 27.7836H26.5197C27.8959 27.7836 29.0153 26.7958 29.0153 25.5816V21.8027C29.0153 20.7207 28.1261 19.8192 26.9589 19.6355C26.9683 18.0911 26.968 16.716 26.459 15.1665H31.8068C32.5727 15.1665 33.1958 14.5922 33.1958 13.8863V1.83487C33.1958 1.129 32.5728 0.554688 31.8069 0.554688ZM15.4222 34.3048H13.5932C13.0254 34.3048 12.5635 33.8972 12.5635 33.3962C12.5635 32.8952 13.0254 32.4877 13.5932 32.4877H15.4222C15.99 32.4877 16.4519 32.8952 16.4519 33.3962C16.4519 33.8972 15.99 34.3048 15.4222 34.3048ZM1.27508 25.5817V21.8027C1.27508 21.2089 1.82261 20.7258 2.49565 20.7258H3.71622V26.6588H2.49565C1.82261 26.6588 1.27508 26.1755 1.27508 25.5817ZM6.26169 20.0045V27.38C6.26169 27.6891 5.97672 27.9406 5.62641 27.9406C5.27611 27.9406 4.99122 27.6891 4.99122 27.38V20.0045C4.99122 19.6954 5.27611 19.4439 5.62641 19.4439C5.97672 19.4439 6.26169 19.6954 6.26169 20.0045ZM6.42257 13.3424C5.35826 14.7759 4.77073 16.5621 4.71271 18.5247C4.24901 18.7486 3.90166 19.1372 3.77201 19.6008H3.33476V18.2312C3.33476 13.8996 6.63486 10.0395 11.2885 8.79317V10.0646C9.20635 10.6952 7.57039 11.7964 6.42257 13.3424ZM23.3889 27.9406C23.0386 27.9406 22.7537 27.6891 22.7537 27.38V20.0045C22.7537 19.6954 23.0387 19.4439 23.389 19.4439C23.7393 19.4439 24.0242 19.6954 24.0242 20.0045V27.3481L24.0238 27.389C24.0183 27.6938 23.7358 27.9406 23.3889 27.9406ZM27.7404 21.8027V25.5817C27.7404 26.1756 27.1929 26.6587 26.5198 26.6587H25.2992V20.7257H26.5198C27.1929 20.7257 27.7404 21.2088 27.7404 21.8027ZM25.6841 19.6008H25.2435C25.1143 19.1388 24.7687 18.7513 24.3074 18.527C24.2983 17.3651 24.1695 16.3132 23.6698 15.1666H25.1246C25.6893 16.6806 25.6938 17.9955 25.6841 19.6008ZM31.9208 13.8864C31.9208 13.9797 31.8523 14.0416 31.8068 14.0416H20.928C20.7705 14.0416 20.6185 14.093 20.5015 14.186L15.1854 18.408V14.6041C15.1854 14.4549 15.1183 14.3118 14.9987 14.2064C14.8792 14.1008 14.717 14.0416 14.5479 14.0416H12.6773C12.632 14.0416 12.5633 13.9797 12.5633 13.8864V1.83487C12.5633 1.74156 12.6319 1.67969 12.6773 1.67969H31.8067C31.8521 1.67969 31.9207 1.74156 31.9207 1.83487L31.9208 13.8864ZM29.0966 4.73132C29.0966 4.88051 29.0295 5.02358 28.9099 5.12907C28.7903 5.23456 28.6282 5.29382 28.4591 5.29382H15.8896C15.7205 5.29382 15.5584 5.23456 15.4388 5.12907C15.3193 5.02358 15.2521 4.88051 15.2521 4.73132C15.2521 4.58213 15.3193 4.43906 15.4388 4.33358C15.5584 4.22808 15.7205 4.16882 15.8896 4.16882H28.4591C28.6282 4.16882 28.7903 4.22808 28.9099 4.33358C29.0295 4.43906 29.0966 4.58213 29.0966 4.73132ZM29.0966 7.86061C29.0966 8.00986 29.0295 8.15289 28.9099 8.25842C28.7903 8.36387 28.6282 8.42311 28.4591 8.42311H15.8896C15.7205 8.42311 15.5584 8.36387 15.4388 8.25842C15.3193 8.15289 15.2521 8.00986 15.2521 7.86061C15.2521 7.71144 15.3193 7.56842 15.4388 7.4629C15.5584 7.35741 15.7205 7.29815 15.8896 7.29815H28.4591C28.6282 7.29815 28.7903 7.35741 28.9099 7.4629C29.0295 7.56842 29.0966 7.71144 29.0966 7.86061ZM20.4631 10.99C20.4631 11.1392 20.3958 11.2823 20.2763 11.3877C20.1567 11.4932 19.9946 11.5525 19.8256 11.5525H15.8896C15.7204 11.5525 15.5583 11.4932 15.4387 11.3877C15.3192 11.2823 15.2521 11.1392 15.2521 10.99C15.2521 10.8408 15.3192 10.6977 15.4387 10.5923C15.5583 10.4867 15.7204 10.4275 15.8896 10.4275H19.8256C19.9946 10.4275 20.1567 10.4867 20.2763 10.5923C20.3958 10.6977 20.4631 10.8408 20.4631 10.99ZM11.0392 23.6923C11.0392 23.8415 10.9721 23.9846 10.8525 24.09C10.7329 24.1955 10.5708 24.2548 10.4017 24.2548H10.3494C10.1804 24.2548 10.0182 24.1955 9.89867 24.09C9.77908 23.9846 9.71193 23.8415 9.71193 23.6923C9.71193 23.5431 9.77908 23.4 9.89867 23.2946C10.0182 23.189 10.1804 23.1298 10.3494 23.1298H10.4017C10.5708 23.1298 10.7329 23.189 10.8525 23.2946C10.9721 23.4 11.0392 23.5431 11.0392 23.6923ZM13.1041 24.2548C12.935 24.2548 12.7729 24.1955 12.6534 24.09C12.5338 23.9846 12.4666 23.8415 12.4666 23.6923C12.4666 23.5431 12.5338 23.4 12.6534 23.2946C12.7729 23.189 12.935 23.1298 13.1041 23.1298H13.1564C13.3254 23.1298 13.4876 23.189 13.6072 23.2946C13.7267 23.4 13.7939 23.5431 13.7939 23.6923C13.7939 23.8415 13.7267 23.9846 13.6072 24.09C13.4876 24.1955 13.3254 24.2548 13.1564 24.2548H13.1041ZM15.859 24.2548C15.6898 24.2548 15.5277 24.1955 15.4081 24.09C15.2886 23.9846 15.2215 23.8415 15.2215 23.6923C15.2215 23.5431 15.2886 23.4 15.4081 23.2946C15.5277 23.189 15.6898 23.1298 15.859 23.1298H15.9112C16.0803 23.1298 16.2424 23.189 16.362 23.2946C16.4815 23.4 16.5487 23.5431 16.5487 23.6923C16.5487 23.8415 16.4815 23.9846 16.362 24.09C16.2424 24.1955 16.0803 24.2548 15.9112 24.2548H15.859ZM18.6136 24.2511C18.4446 24.2511 18.2824 24.1919 18.1629 24.0863C18.0433 23.9809 17.9761 23.8378 17.9761 23.6886C17.9761 23.5394 18.0433 23.3963 18.1629 23.2909C18.2824 23.1854 18.4446 23.1261 18.6136 23.1261H18.6659C18.835 23.1261 18.9972 23.1854 19.1167 23.2909C19.2363 23.3963 19.3034 23.5394 19.3034 23.6886C19.3034 23.8378 19.2363 23.9809 19.1167 24.0863C18.9972 24.1919 18.835 24.2511 18.6659 24.2511H18.6136Z" fill="white"/>
</g>
<defs>
<clipPath id="clip0_9579_14984">
<rect width="34" height="36" fill="white"/>
</clipPath>
</defs>
</svg>
