<svg width="60" height="60" viewBox="0 0 60 60" fill="none" xmlns="http://www.w3.org/2000/svg">
<path d="M32.0204 20.6095C32.0204 22.8095 32.5954 24.657 33.7454 26.152C34.5604 27.182 35.6662 27.8586 37.0629 28.182C38.4379 28.502 39.7379 28.5245 40.9129 28.252C41.3129 30.627 40.6629 33.142 39.0129 35.807C37.3596 38.4703 35.2279 40.4728 32.6179 41.8145L36.5704 47.502C38.5704 46.512 40.4704 45.257 42.2204 43.7395C43.9954 42.222 45.5704 40.477 46.9704 38.5045C48.3704 36.532 49.4204 34.3045 50.0954 31.7795C50.7704 29.2545 50.9579 26.6795 50.6354 24.0295C50.2154 20.5295 49.0854 17.7295 47.2454 15.6544C45.4071 13.5528 43.1171 12.5019 40.3754 12.5019C37.9629 12.5019 35.9604 13.227 34.3754 14.6969C32.8071 16.137 32.0237 18.1103 32.0254 20.617L32.0204 20.6095ZM9.2104 20.6095C9.2104 22.8095 9.7854 24.657 10.9354 26.152C11.7521 27.202 12.8579 27.8828 14.2529 28.1945C15.6529 28.5028 16.9362 28.5211 18.1029 28.2495C18.5029 30.5995 17.8779 33.1245 16.2229 35.7995C14.5729 38.4495 12.4429 40.4495 9.8329 41.7995L13.7754 47.502C15.7771 46.512 17.6604 45.2578 19.4254 43.7395C21.2164 42.1993 22.8071 40.4406 24.1604 38.5045C25.5504 36.5295 26.5854 34.3045 27.2604 31.7795C27.9461 29.2564 28.1304 26.6234 27.8029 24.0295C27.3879 20.5295 26.2629 17.7295 24.4279 15.6544C22.5946 13.5678 20.3087 12.5245 17.5704 12.5245C15.1537 12.5211 13.1521 13.2519 11.5654 14.7169C9.99707 16.1569 9.21207 18.1303 9.2104 20.6369V20.6095Z" fill="#FA6444"/>
</svg>
