<svg width="40" height="40" viewBox="0 0 40 40" fill="none" xmlns="http://www.w3.org/2000/svg">
<g clip-path="url(#clip0_9360_25565)">
<path d="M14.7876 11.7576V6.90909C14.7876 6.54546 14.5452 6.30303 14.1815 6.30303C13.8179 6.30303 13.5754 6.54546 13.5754 6.90909V11.7576C12.4846 12 11.6967 13.0303 11.6967 14.1818C11.6967 14.9091 11.9997 15.5152 12.4239 16L10.2421 19.697C10.0603 20 10.1815 20.3637 10.4846 20.5454C10.7876 20.7272 11.1513 20.6061 11.333 20.303L13.5148 16.6061C13.7573 16.6667 13.9997 16.7272 14.2421 16.7272C15.6361 16.7272 16.727 15.5758 16.727 14.2424C16.6663 12.9697 15.8179 12 14.7876 11.7576ZM14.1815 15.4546C13.4543 15.4546 12.9088 14.8485 12.9088 14.1818C12.9088 13.4546 13.5148 12.9091 14.1815 12.9091C14.9088 12.9091 15.4543 13.5152 15.4543 14.1818C15.4543 14.8485 14.8482 15.4546 14.1815 15.4546ZM14.1815 4.72727C14.5452 4.72727 14.7876 4.48485 14.7876 4.12121V2.90909C14.7876 2.54546 14.5452 2.30303 14.1815 2.30303C13.8179 2.30303 13.5754 2.54546 13.5754 2.90909V4.12121C13.5754 4.42424 13.8179 4.72727 14.1815 4.72727ZM14.1815 23.5757C13.8179 23.5757 13.5754 23.8182 13.5754 24.1818V25.3939C13.5754 25.7576 13.8179 26 14.1815 26C14.5452 26 14.7876 25.7576 14.7876 25.3939V24.1818C14.7876 23.8787 14.4846 23.5757 14.1815 23.5757ZM4.72698 14.1818C4.72698 13.8182 4.48455 13.5757 4.12092 13.5757H2.90879C2.54516 13.5757 2.30273 13.8182 2.30273 14.1818C2.30273 14.5454 2.54516 14.7879 2.90879 14.7879H4.12092C4.42395 14.7879 4.72698 14.4848 4.72698 14.1818ZM23.5754 14.1818C23.5754 14.5454 23.8179 14.7879 24.1815 14.7879H25.3937C25.7573 14.7879 25.9997 14.5454 25.9997 14.1818C25.9997 13.8182 25.7573 13.5757 25.3937 13.5757H24.1815C23.8785 13.5757 23.5754 13.8182 23.5754 14.1818ZM4.06031 9.03033L5.15122 9.63633C5.45425 9.81817 5.81788 9.697 5.99971 9.39392C6.18153 9.09092 6.06031 8.72725 5.75728 8.54542L4.66638 7.93939C4.36334 7.75758 3.99971 7.87879 3.81788 8.18182C3.69668 8.54542 3.75728 8.90908 4.06031 9.03033ZM9.45426 22.303C9.15126 22.1212 8.78759 22.2424 8.60576 22.5454L7.99971 23.6363C7.81788 23.9394 7.9391 24.303 8.24213 24.4848C8.54518 24.6667 8.90876 24.5454 9.09059 24.2424L9.69668 23.1515C9.81793 22.8485 9.75726 22.4848 9.45426 22.303ZM18.8482 6C19.1513 6.18182 19.5148 6.06061 19.6967 5.75758L20.3028 4.66667C20.4846 4.36363 20.3633 4 20.0603 3.81818C19.7573 3.63637 19.3937 3.75757 19.2118 4.06061L18.6058 5.15152C18.4846 5.45454 18.5452 5.81818 18.8482 6ZM9.33301 6.06061C9.63609 5.87879 9.69668 5.51515 9.51484 5.21212L8.90876 4.12121C8.72701 3.81818 8.36334 3.75758 8.06031 3.93939C7.75728 4.12121 7.69668 4.48485 7.87849 4.78787L8.48459 5.87879C8.66634 6.12121 9.03001 6.24242 9.33301 6.06061ZM5.21183 18.7879L4.12092 19.3939C3.81788 19.5757 3.75728 19.9394 3.9391 20.2424C4.12092 20.5454 4.48455 20.6061 4.78758 20.4242L5.87849 19.8182C6.18153 19.6363 6.24213 19.2727 6.06031 18.9697C5.87849 18.6667 5.51486 18.6061 5.21183 18.7879ZM23.0906 9.57575L24.1815 8.96967C24.4846 8.78792 24.5452 8.42425 24.3633 8.12121C24.1815 7.81818 23.8179 7.75758 23.5148 7.93939L22.4239 8.54542C22.1209 8.72725 22.0603 9.09092 22.2421 9.39392C22.4239 9.63633 22.7876 9.697 23.0906 9.57575ZM24.7876 1.21212H35.2724V15.7576L32.7876 13.2727C32.5452 13.0303 32.1815 13.0303 31.9391 13.2727C31.6967 13.5152 31.6967 13.8787 31.9391 14.1212L35.4543 17.6363C35.5754 17.7576 35.6967 17.8182 35.8785 17.8182C36.0603 17.8182 36.1815 17.7576 36.3028 17.6363L39.8179 14.1212C40.0603 13.8787 40.0603 13.5152 39.8179 13.2727C39.5754 13.0303 39.2118 13.0303 38.9694 13.2727L36.4846 15.7576V0.606061C36.4846 0.242424 36.2421 0 35.8785 0H24.7876C24.4239 0 24.1815 0.242424 24.1815 0.606061C24.1815 0.9697 24.4846 1.21212 24.7876 1.21212Z" fill="#FA6444"/>
<path d="M39.5757 22.0606C39.4546 22 28.303 15.8787 28.1818 15.8787C28.2424 15.2727 28.303 14.7272 28.303 14.1818C28.303 6.36363 21.9394 0 14.1212 0C6.36363 0 0 6.36363 0 14.1818C0 22 6.36363 28.3637 14.1212 28.3637C14.7272 28.3637 15.4546 28.303 16.1818 28.1818V32.303C16.1818 32.4848 16.303 32.7272 16.4848 32.7879L27.697 39.8787C27.8182 39.9394 27.8787 40 28 40C28.1212 40 28.2424 39.9394 28.303 39.9394L39.6363 33.9394C39.8182 33.8182 39.9394 33.6363 39.9394 33.3939V22.6061C39.9394 22.3637 39.8182 22.1818 39.5757 22.0606ZM38.0606 22.6061L35.3939 24.0606L25.3333 18.5454L28 17.1515L38.0606 22.6061ZM32.9697 25.697L22.5454 20L24.0606 19.1515L34.7879 25.0303V28.0606L33.3333 28.9697V26.2424C33.3333 26 33.1515 25.7576 32.9697 25.697ZM28.0606 28.0606L18.0606 22.4242L21.2727 20.7272L31.4546 26.2424L28.0606 28.0606ZM14.1212 27.0909C7.0303 27.0909 1.21212 21.2727 1.21212 14.1818C1.21212 7.0303 7.0303 1.21212 14.1212 1.21212C21.2727 1.21212 27.0909 7.0303 27.0909 14.1818C27.0909 14.7879 27.0303 15.6363 26.9091 16.3637C26.9091 16.3637 16.6061 21.8787 16.4848 21.8787C16.303 22 16.1818 22.2424 16.1818 22.4242V26.9697C15.4546 27.0303 14.7272 27.0909 14.1212 27.0909ZM17.3939 31.9394V23.4546L27.3939 29.0909V38.303L17.3939 31.9394ZM28.6061 38.3637V29.1515L32.0606 27.2727V30C32.0606 30.2424 32.1818 30.4242 32.3637 30.5454C32.5454 30.6667 32.7879 30.6667 32.9697 30.5454L35.697 29.0303C35.8787 28.9091 36 28.7272 36 28.4848V25.0909L38.6667 23.6363V33.0303L28.6061 38.3637Z" fill="#FA6444"/>
<path d="M26.0605 30.97L19.4545 27.1518C19.1514 26.97 18.7878 27.0913 18.606 27.3943C18.4242 27.6973 18.5454 28.0609 18.8484 28.2428L25.4545 32.0003C25.7575 32.1822 26.1212 32.0609 26.3029 31.7579C26.4242 31.5155 26.3029 31.0913 26.0605 30.97ZM25.9999 33.4549L19.3938 29.5761C19.0908 29.3943 18.7272 29.5155 18.5454 29.8185C18.3636 30.1216 18.4847 30.4852 18.7878 30.667L25.3938 34.4852C25.6969 34.667 26.0605 34.5458 26.2423 34.2428C26.3636 33.9398 26.2423 33.5761 25.9999 33.4549Z" fill="#FA6444"/>
</g>
<defs>
<clipPath id="clip0_9360_25565">
<rect width="40" height="40" fill="white"/>
</clipPath>
</defs>
</svg>
