<svg width="44" height="44" viewBox="0 0 44 44" fill="none" xmlns="http://www.w3.org/2000/svg">
<path d="M0.282858 35.707L3.02463 37.6511C4.28257 38.5432 5.74648 39 7.22334 39C8.18229 38.9995 9.13207 38.8076 10.0201 38.4346L13.5245 36.9662C14.3328 36.6275 15.2019 36.4706 16.0737 36.5061C16.9456 36.5414 17.8 36.7684 18.5799 37.1716L18.6772 37.2219C20.7591 38.2984 23.2451 38.2984 25.3267 37.2219L25.4241 37.1716C26.204 36.7684 27.0584 36.5414 27.9303 36.5061C28.8021 36.4706 29.6712 36.6275 30.4795 36.9662L33.9838 38.4346C36.3026 39.4062 38.9174 39.1133 40.9794 37.6511L43.7211 35.7069C43.8618 35.6072 43.9582 35.454 43.9893 35.281C44.0203 35.108 43.9833 34.9293 43.8866 34.7844C43.7899 34.6395 43.6412 34.54 43.4733 34.5081C43.3055 34.4761 43.1321 34.5142 42.9916 34.6138L40.2498 36.5581C38.5458 37.7665 36.3846 38.0084 34.4687 37.2056L34.1903 37.089C35.9709 33.9558 37.1508 30.851 37.6994 27.8499C37.7296 27.6827 37.7213 27.5105 37.6752 27.3473C37.6291 27.184 37.5464 27.0342 37.4339 26.9098C37.2605 26.7193 37.0852 26.5306 36.9078 26.3442L36.4098 21.6936C36.3809 21.4218 36.2557 21.1705 36.058 20.988C35.8604 20.8056 35.6042 20.7048 35.3389 20.705H35.016L33.9459 14.9696C33.8999 14.7245 33.7728 14.5036 33.586 14.3447C33.3993 14.1857 33.1648 14.0987 32.9226 14.0983H32.3947L32.0722 11.9497C32.0446 11.7772 31.9521 11.6229 31.8147 11.5203C31.6774 11.4177 31.5063 11.3752 31.3387 11.4019C31.171 11.4286 31.0205 11.5224 30.9195 11.663C30.8186 11.8036 30.7757 11.9795 30.8001 12.1525L31.0921 14.0983H27.6683L26.7804 8.18153H30.204L30.3757 9.32565C30.4019 9.49948 30.494 9.65548 30.6317 9.75939C30.7694 9.8633 30.9415 9.90659 31.1101 9.87975C31.1937 9.86644 31.2739 9.83631 31.346 9.79106C31.4183 9.74582 31.4812 9.68636 31.5312 9.61608C31.581 9.5458 31.6171 9.46606 31.6371 9.38143C31.6571 9.2968 31.6607 9.20893 31.6479 9.12285L30.8395 3.73747C30.7397 3.07149 30.1926 2.58814 29.5388 2.58814H25.9409L25.725 1.14933C25.625 0.483347 25.0779 0 24.4242 0H19.5798C18.926 0 18.3789 0.483347 18.2789 1.14933L18.063 2.58814H14.4651C13.8113 2.58814 13.2642 3.07149 13.1644 3.73747L11.6093 14.0985H11.0813C10.8391 14.0988 10.6047 14.1859 10.418 14.3448C10.2313 14.5037 10.1041 14.7247 10.0581 14.9696L8.98802 20.7051H8.88127C8.61591 20.7049 8.35981 20.8057 8.16215 20.9882C7.96448 21.1706 7.83918 21.4219 7.81031 21.6937L7.3397 26.0893C7.07887 26.3584 6.8223 26.632 6.57012 26.9097C6.45758 27.0341 6.37492 27.184 6.32881 27.3474C6.28269 27.5106 6.27441 27.6828 6.30461 27.8502C6.59003 29.4114 7.05068 31.017 7.67369 32.6224C7.73853 32.7836 7.86239 32.9121 8.01845 32.9797C8.17449 33.0475 8.35016 33.0491 8.50738 32.9844C8.6646 32.9195 8.79072 32.7935 8.85838 32.6335C8.92606 32.4735 8.92983 32.2925 8.86891 32.1296C8.70837 31.7152 8.55791 31.2967 8.4177 30.8745C11.8288 27.4052 16.0735 24.6097 21.3584 22.3528V36.6681C20.6329 36.5899 19.9187 36.3797 19.2544 36.0362L19.1571 35.9858C18.2134 35.4979 17.1794 35.2234 16.1244 35.1804C15.0695 35.1376 14.0178 35.3274 13.0398 35.7372L11.0195 36.5837C10.6508 35.9429 10.3053 35.3007 9.99119 34.6685C9.95296 34.5904 9.90013 34.521 9.83577 34.464C9.77139 34.4071 9.69674 34.3639 9.61609 34.3368C9.53545 34.3097 9.45041 34.2993 9.36586 34.3062C9.2813 34.3131 9.1989 34.3371 9.12339 34.377C9.0479 34.4168 8.98078 34.4717 8.92591 34.5383C8.87103 34.605 8.82948 34.6822 8.80365 34.7654C8.77782 34.8487 8.7682 34.9364 8.77536 35.0235C8.78253 35.1106 8.80634 35.1954 8.84539 35.2729C9.1514 35.8877 9.47427 36.4933 9.81364 37.089L9.53517 37.2056C7.61946 38.0084 5.45814 37.7665 3.75412 36.5582L1.01236 34.614C0.942758 34.5638 0.864209 34.5284 0.781246 34.5097C0.698281 34.491 0.612543 34.4894 0.528973 34.5049C0.445402 34.5205 0.365652 34.553 0.294318 34.6005C0.222985 34.648 0.161478 34.7096 0.113346 34.7817C0.0652122 34.8538 0.0314035 34.935 0.0138681 35.0207C-0.00366728 35.1063 -0.0045826 35.1947 0.0111749 35.2807C0.0269324 35.3667 0.0590511 35.4486 0.10568 35.5219C0.152309 35.595 0.212525 35.6579 0.282858 35.707ZM30.9643 35.7374C29.9862 35.3274 28.9345 35.1377 27.8795 35.1805C26.8245 35.2234 25.7906 35.4981 24.8468 35.986L24.7495 36.0363C24.0852 36.3798 23.371 36.5899 22.6455 36.6682V22.3533C23.3996 22.6749 24.1463 23.0146 24.8851 23.3722C25.0393 23.4452 25.2152 23.4524 25.3745 23.3924C25.5338 23.3324 25.6637 23.21 25.736 23.0518C25.8083 22.8936 25.817 22.7124 25.7602 22.5476C25.7034 22.3828 25.586 22.2477 25.4331 22.1718C24.5414 21.7392 23.6043 21.3197 22.6455 20.9207V18.3345C28.3629 20.7762 32.8734 23.8541 36.4117 27.7263C36.3013 28.309 36.1686 28.8872 36.0138 29.4593C33.6998 27.1992 30.9813 25.1853 27.914 23.466C27.764 23.382 27.5878 23.3628 27.4241 23.4126C27.2605 23.4625 27.1226 23.5774 27.0411 23.7319C26.9595 23.8865 26.9409 24.0681 26.9893 24.2368C27.0376 24.4055 27.149 24.5475 27.2991 24.6315C30.4725 26.4102 33.2573 28.5101 35.5851 30.8753C34.9603 32.7501 34.0914 34.6591 32.9845 36.5839L30.9643 35.7374ZM35.4585 24.9047C34.3736 23.889 33.2128 22.9327 31.9713 22.032H35.1508L35.4585 24.9047ZM18.8681 5.90303H25.1359L26.3658 14.0987H17.638L18.8681 5.90303ZM29.5389 3.91499C29.5533 3.91499 29.5654 3.92569 29.5675 3.94046L30.005 6.85514H26.5813L26.14 3.91508L29.5389 3.91499ZM19.5798 1.32693H24.4242C24.4383 1.32693 24.4507 1.3379 24.4529 1.35241L24.9367 4.57646H19.0672L19.551 1.35231C19.552 1.34522 19.5556 1.33875 19.5608 1.33407C19.5661 1.32942 19.5728 1.32688 19.5798 1.32693ZM14.465 3.91499H17.8639L17.4226 6.85505H13.999L14.4364 3.94037C14.4374 3.93329 14.4409 3.92683 14.4461 3.92217C14.4514 3.9175 14.4581 3.91495 14.465 3.91499ZM13.7998 8.1818H17.2234L16.3354 14.0987H12.9118L13.7998 8.1818ZM11.2839 15.4253H32.72L33.7051 20.7052H30.0218C27.74 19.2497 25.2122 17.9545 22.4118 16.804C22.1482 16.6957 21.8545 16.6959 21.5911 16.8045C18.7911 17.9549 16.2636 19.2499 13.9821 20.7052H10.2988L11.2839 15.4253ZM9.06911 22.0319H12.0324C10.8822 22.8664 9.80085 23.7485 8.78542 24.6816L9.06911 22.0319ZM7.98975 29.4552C7.83524 28.8845 7.70255 28.3076 7.59199 27.7261C11.1304 23.8541 15.6412 20.7762 21.3583 18.3344V20.9198C15.9328 23.1765 11.5448 25.9771 7.98975 29.4552Z" fill="#FA6444"/>
<path d="M42.9893 38.6618L40.2475 40.5848C38.5436 41.78 36.3824 42.0193 34.4662 41.2252L30.9616 39.7729C29.9835 39.3675 28.9318 39.1798 27.8767 39.2222C26.8217 39.2646 25.7877 39.5363 24.8439 40.0188L24.7466 40.0686C23.026 40.9483 20.9716 40.9483 19.2512 40.0686L19.154 40.0188C18.2102 39.5361 17.1761 39.2646 16.1212 39.2222C15.0661 39.1798 14.0143 39.3675 13.0363 39.7729L9.53165 41.2252C7.61576 42.0193 5.45444 41.78 3.75035 40.5848L1.00846 38.6618C0.938821 38.6131 0.860431 38.5786 0.777761 38.5607C0.695092 38.5428 0.609764 38.5415 0.526648 38.5572C0.443531 38.5729 0.364255 38.6051 0.293345 38.652C0.222436 38.6988 0.161281 38.7595 0.113374 38.8305C0.0654653 38.9015 0.0317417 38.9814 0.0141288 39.0657C-0.00348421 39.1499 -0.00464166 39.2369 0.0107225 39.3217C0.0260867 39.4063 0.0576715 39.4871 0.103674 39.5595C0.149677 39.6317 0.209195 39.694 0.278832 39.7429L3.02072 41.6659C4.27873 42.5482 5.7427 43 7.21962 43C8.17863 42.9996 9.12844 42.8096 10.0165 42.4407L13.5211 40.9883C14.3295 40.6534 15.1987 40.4983 16.0705 40.5333C16.9423 40.5683 17.7969 40.7928 18.5767 41.1916L18.6741 41.2414C20.7562 42.306 23.242 42.306 25.3239 41.2414L25.4213 41.1916C26.2011 40.7928 27.0556 40.5683 27.9275 40.5333C28.7993 40.4983 29.6685 40.6534 30.4769 40.9883L33.9813 42.4407C36.3002 43.4016 38.9152 43.1119 40.9772 41.6658L43.719 39.7428C43.7891 39.6941 43.8489 39.6318 43.8953 39.5595C43.9416 39.4871 43.9735 39.4062 43.9891 39.3213C44.0046 39.2364 44.0036 39.1492 43.986 39.0647C43.9684 38.9802 43.9346 38.9001 43.8866 38.829C43.8385 38.7578 43.7772 38.697 43.7061 38.6501C43.6349 38.6032 43.5554 38.571 43.472 38.5554C43.3886 38.54 43.3032 38.5413 43.2203 38.5596C43.1375 38.5778 43.059 38.6126 42.9893 38.6618ZM29.8301 18.3121H30.3688C30.7245 18.3121 31.0125 18.0184 31.0125 17.656C31.0125 17.2936 30.7245 17 30.3688 17H29.8301C29.6594 17 29.4956 17.0691 29.3749 17.1921C29.2543 17.3152 29.1864 17.482 29.1864 17.656C29.1864 17.83 29.2543 17.9969 29.3749 18.12C29.4956 18.243 29.6594 18.3121 29.8301 18.3121ZM14.1677 18.3121C14.5233 18.3121 14.8114 18.0184 14.8114 17.656C14.8114 17.2936 14.5233 17 14.1677 17H13.6288C13.2733 17 12.9852 17.2936 12.9852 17.656C12.9852 18.0184 13.2733 18.3121 13.6288 18.3121H14.1677Z" fill="#FA6444"/>
</svg>
