<svg width="44" height="44" viewBox="0 0 44 44" fill="none" xmlns="http://www.w3.org/2000/svg">
<path d="M35.2889 10H9.71099V22.5H35.2889V10ZM21.789 21.1102H11.133V11.3898H21.789V21.1102ZM33.867 21.1102H23.2109V11.3898H33.867V21.1102ZM12.5549 28.0508C10.5954 28.0508 9 29.6101 9 31.5253C9 33.4407 10.5954 35 12.5549 35C14.5145 35 16.1098 33.4407 16.1098 31.5253C16.1098 29.6101 14.5145 28.0508 12.5549 28.0508ZM12.5549 33.6101C11.3757 33.6101 10.422 32.6779 10.422 31.5253C10.422 30.3728 11.3757 29.4407 12.5549 29.4407C13.7341 29.4407 14.6878 30.3728 14.6878 31.5253C14.6878 32.6779 13.7255 33.6101 12.5549 33.6101ZM32.445 28.0508C30.4855 28.0508 28.8901 29.6101 28.8901 31.5253C28.8901 33.4407 30.4855 35 32.445 35C34.4046 35 36 33.4407 36 31.5253C36 29.6101 34.4046 28.0508 32.445 28.0508ZM32.445 33.6101C31.2658 33.6101 30.3121 32.6779 30.3121 31.5253C30.3121 30.3728 31.2658 29.4407 32.445 29.4407C33.6242 29.4407 34.578 30.3728 34.578 31.5253C34.578 32.6779 33.6242 33.6101 32.445 33.6101ZM17.5231 34.305H27.4682V28.7542H17.5231V34.305ZM18.9451 30.1356H26.0549V32.9152H18.9451V30.1356Z" fill="#FA6444"/>
<path d="M43 22.7102V12.7756H38.7966V11.6669C38.7966 7.97715 36.2933 4.83306 32.7051 4.02755C31.4834 3.75039 30.2446 3.54251 28.9971 3.36928V2.1307C28.9971 0.952749 28.0574 0 26.8955 0H17.096C15.9341 0 14.9944 0.952749 14.9944 2.1307V3.36063C13.7555 3.54251 12.5167 3.75039 11.2864 4.01889C7.69813 4.8244 5.19488 7.96849 5.19488 11.6583V12.7669H1V22.7015H5.20342V28.522C5.20342 29.085 4.93003 29.6047 4.46868 29.9165C3.61433 30.4969 3.11026 31.4582 3.11026 32.4977V36.8976C3.11026 38.855 4.68227 40.4487 6.6131 40.4487H7.31368V41.8693C7.31368 43.0472 8.25346 44 9.41538 44H12.2177C13.3796 44 14.3194 43.0472 14.3194 41.8693V40.4487H29.7234V41.8693C29.7234 43.0472 30.6632 44 31.8251 44H34.6274C35.7893 44 36.7291 43.0472 36.7291 41.8693V40.4487H37.4297C39.3605 40.4487 40.9325 38.855 40.9325 36.8976V32.4977C40.9325 31.4582 40.4199 30.4969 39.5741 29.9165C39.1127 29.6047 38.8393 29.085 38.8393 28.522V22.7015H43V22.7102ZM38.7966 14.196H41.5989V21.2898H38.7966V14.196ZM16.404 2.1307C16.404 1.74094 16.7201 1.42047 17.1045 1.42047H26.904C27.2884 1.42047 27.6046 1.74094 27.6046 2.1307V3.17007C23.8882 2.74566 20.1205 2.74566 16.404 3.17007V2.1307ZM2.40114 21.2898V14.196H5.20342V21.2898H2.40114ZM12.9012 41.8693C12.9012 42.259 12.585 42.5795 12.2006 42.5795H9.3983C9.01384 42.5795 8.69772 42.259 8.69772 41.8693V40.4487H12.9012V41.8693ZM35.3023 41.8693C35.3023 42.259 34.9862 42.5795 34.6017 42.5795H31.7994C31.415 42.5795 31.0989 42.259 31.0989 41.8693V40.4487H35.3023V41.8693ZM39.4972 32.5063V36.9062C39.4972 38.0842 38.5574 39.037 37.3954 39.037H6.59602C5.4341 39.037 4.4943 38.0842 4.4943 36.9062V32.5063C4.4943 31.9433 4.7677 31.4236 5.22905 31.1118C6.08341 30.5314 6.58748 29.57 6.58748 28.5306V11.6583C6.58748 8.63542 8.64647 6.06298 11.5855 5.40472C14.9944 4.64251 18.4972 4.25275 21.9915 4.25275C25.4858 4.25275 28.9886 4.64251 32.3975 5.40472C35.3365 6.06298 37.3954 8.63542 37.3954 11.6583V28.522C37.3954 29.5614 37.9081 30.5228 38.7539 31.1031C39.2238 31.4149 39.4972 31.9433 39.4972 32.5063Z" fill="#FA6444"/>
</svg>
