<svg width="26" height="32" viewBox="0 0 26 32" fill="none" xmlns="http://www.w3.org/2000/svg">
<g clip-path="url(#clip0_9360_26935)">
<path d="M5.89301 22.7742H4.85301C4.7151 22.7742 4.58284 22.8301 4.48531 22.9294C4.38779 23.0287 4.33301 23.1634 4.33301 23.3039C4.33301 23.4443 4.38779 23.5791 4.48531 23.6784C4.58284 23.7777 4.7151 23.8335 4.85301 23.8335H5.89301C6.03092 23.8335 6.16318 23.7777 6.2607 23.6784C6.35822 23.5791 6.41301 23.4443 6.41301 23.3039C6.41301 23.1634 6.35822 23.0287 6.2607 22.9294C6.16318 22.8301 6.03092 22.7742 5.89301 22.7742ZM20.453 22.7742H7.97301C7.8351 22.7742 7.70284 22.8301 7.60531 22.9294C7.50779 23.0287 7.45301 23.1634 7.45301 23.3039C7.45301 23.4443 7.50779 23.5791 7.60531 23.6784C7.70284 23.7777 7.8351 23.8335 7.97301 23.8335H20.453C20.5909 23.8335 20.7232 23.7777 20.8207 23.6784C20.9182 23.5791 20.973 23.4443 20.973 23.3039C20.973 23.1634 20.9182 23.0287 20.8207 22.9294C20.7232 22.8301 20.5909 22.7742 20.453 22.7742ZM5.89301 19.5963H4.85301C4.7151 19.5963 4.58284 19.6521 4.48531 19.7514C4.38779 19.8507 4.33301 19.9855 4.33301 20.1259C4.33301 20.2664 4.38779 20.4011 4.48531 20.5005C4.58284 20.5998 4.7151 20.6556 4.85301 20.6556H5.89301C6.03092 20.6556 6.16318 20.5998 6.2607 20.5005C6.35822 20.4011 6.41301 20.2664 6.41301 20.1259C6.41301 19.9855 6.35822 19.8507 6.2607 19.7514C6.16318 19.6521 6.03092 19.5963 5.89301 19.5963ZM20.453 19.5963H7.97301C7.8351 19.5963 7.70284 19.6521 7.60531 19.7514C7.50779 19.8507 7.45301 19.9855 7.45301 20.1259C7.45301 20.2664 7.50779 20.4011 7.60531 20.5005C7.70284 20.5998 7.8351 20.6556 7.97301 20.6556H20.453C20.5909 20.6556 20.7232 20.5998 20.8207 20.5005C20.9182 20.4011 20.973 20.2664 20.973 20.1259C20.973 19.9855 20.9182 19.8507 20.8207 19.7514C20.7232 19.6521 20.5909 19.5963 20.453 19.5963ZM5.89301 16.4184H4.85301C4.7151 16.4184 4.58284 16.4742 4.48531 16.5735C4.38779 16.6728 4.33301 16.8075 4.33301 16.948C4.33301 17.0885 4.38779 17.2232 4.48531 17.3225C4.58284 17.4218 4.7151 17.4777 4.85301 17.4777H5.89301C6.03092 17.4777 6.16318 17.4218 6.2607 17.3225C6.35822 17.2232 6.41301 17.0885 6.41301 16.948C6.41301 16.8075 6.35822 16.6728 6.2607 16.5735C6.16318 16.4742 6.03092 16.4184 5.89301 16.4184ZM20.453 16.4184H7.97301C7.8351 16.4184 7.70284 16.4742 7.60531 16.5735C7.50779 16.6728 7.45301 16.8075 7.45301 16.948C7.45301 17.0885 7.50779 17.2232 7.60531 17.3225C7.70284 17.4218 7.8351 17.4777 7.97301 17.4777H20.453C20.5909 17.4777 20.7232 17.4218 20.8207 17.3225C20.9182 17.2232 20.973 17.0885 20.973 16.948C20.973 16.8075 20.9182 16.6728 20.8207 16.5735C20.7232 16.4742 20.5909 16.4184 20.453 16.4184ZM5.89301 13.2404H4.85301C4.7151 13.2404 4.58284 13.2963 4.48531 13.3956C4.38779 13.4949 4.33301 13.6296 4.33301 13.7701C4.33301 13.9106 4.38779 14.0453 4.48531 14.1446C4.58284 14.2439 4.7151 14.2997 4.85301 14.2997H5.89301C6.03092 14.2997 6.16318 14.2439 6.2607 14.1446C6.35822 14.0453 6.41301 13.9106 6.41301 13.7701C6.41301 13.6296 6.35822 13.4949 6.2607 13.3956C6.16318 13.2963 6.03092 13.2404 5.89301 13.2404ZM20.453 13.2404H7.97301C7.8351 13.2404 7.70284 13.2963 7.60531 13.3956C7.50779 13.4949 7.45301 13.6296 7.45301 13.7701C7.45301 13.9106 7.50779 14.0453 7.60531 14.1446C7.70284 14.2439 7.8351 14.2997 7.97301 14.2997H20.453C20.5909 14.2997 20.7232 14.2439 20.8207 14.1446C20.9182 14.0453 20.973 13.9106 20.973 13.7701C20.973 13.6296 20.9182 13.4949 20.8207 13.3956C20.7232 13.2963 20.5909 13.2404 20.453 13.2404ZM5.89301 10.0625H4.85301C4.7151 10.0625 4.58284 10.1183 4.48531 10.2176C4.38779 10.317 4.33301 10.4517 4.33301 10.5922C4.33301 10.7326 4.38779 10.8673 4.48531 10.9667C4.58284 11.066 4.7151 11.1218 4.85301 11.1218H5.89301C6.03092 11.1218 6.16318 11.066 6.2607 10.9667C6.35822 10.8673 6.41301 10.7326 6.41301 10.5922C6.41301 10.4517 6.35822 10.317 6.2607 10.2176C6.16318 10.1183 6.03092 10.0625 5.89301 10.0625ZM20.453 10.0625H7.97301C7.8351 10.0625 7.70284 10.1183 7.60531 10.2176C7.50779 10.317 7.45301 10.4517 7.45301 10.5922C7.45301 10.7326 7.50779 10.8673 7.60531 10.9667C7.70284 11.066 7.8351 11.1218 7.97301 11.1218H20.453C20.5909 11.1218 20.7232 11.066 20.8207 10.9667C20.9182 10.8673 20.973 10.7326 20.973 10.5922C20.973 10.4517 20.9182 10.317 20.8207 10.2176C20.7232 10.1183 20.5909 10.0625 20.453 10.0625Z" fill="#FA6444"/>
<path d="M25.9933 7.91146C25.9907 7.86505 25.9817 7.81923 25.9667 7.77534C25.961 7.75839 25.9569 7.74197 25.9495 7.72555C25.9243 7.66792 25.8891 7.61536 25.8455 7.57036L18.5655 0.155189C18.5214 0.11091 18.4697 0.0750347 18.4132 0.0492579C18.3971 0.0418428 18.3809 0.0376055 18.3649 0.0317793C18.3213 0.0165476 18.2761 0.00728547 18.2301 0.00423724C18.2213 0.00582621 18.2115 0 18.2 0H3.64C3.50209 0 3.36983 0.0558028 3.27231 0.155133C3.17478 0.254462 3.12 0.389182 3.12 0.529655V2.11862H0.52C0.382087 2.11862 0.249823 2.17442 0.152305 2.27375C0.0547857 2.37309 0 2.50781 0 2.64828V31.2497C0 31.3901 0.0547857 31.5249 0.152305 31.6242C0.249823 31.7235 0.382087 31.7793 0.52 31.7793H22.36C22.4979 31.7793 22.6302 31.7235 22.7277 31.6242C22.8252 31.5249 22.88 31.3901 22.88 31.2497V28.6014H25.48C25.6179 28.6014 25.7502 28.5455 25.8477 28.4462C25.9452 28.3469 26 28.2122 26 28.0717V7.94483C26 7.93318 25.9943 7.92311 25.9933 7.91146ZM18.72 1.80824L24.2247 7.41517H18.72V1.80824ZM21.84 30.72H1.04V3.17793H3.12V28.0717C3.12 28.2122 3.17478 28.3469 3.27231 28.4462C3.36983 28.5455 3.50209 28.6014 3.64 28.6014H21.84V30.72ZM24.96 27.5421H4.16V1.05931H17.68V7.94483C17.68 8.0853 17.7348 8.22002 17.8323 8.31935C17.9298 8.41868 18.0621 8.47448 18.2 8.47448H24.96V27.5421Z" fill="#FA6444"/>
<path d="M14.473 4.76758H11.353C11.2151 4.76758 11.0828 4.82338 10.9853 4.92271C10.8878 5.02203 10.833 5.15675 10.833 5.29723V8.47516C10.833 8.61563 10.8878 8.75035 10.9853 8.84969C11.0828 8.94902 11.2151 9.00482 11.353 9.00482H14.473C14.6109 9.00482 14.7432 8.94902 14.8407 8.84969C14.9382 8.75035 14.993 8.61563 14.993 8.47516V5.29723C14.993 5.15675 14.9382 5.02203 14.8407 4.92271C14.7432 4.82338 14.6109 4.76758 14.473 4.76758ZM13.953 7.94551H11.873V5.82689H13.953V7.94551Z" fill="#FA6444"/>
</g>
<defs>
<clipPath id="clip0_9360_26935">
<rect width="26" height="32" fill="white"/>
</clipPath>
</defs>
</svg>
