<svg width="31" height="25" viewBox="0 0 31 25" fill="none" xmlns="http://www.w3.org/2000/svg">
<path d="M29.6232 2.44308L23.6232 0.0430606C23.4799 -0.0143535 23.32 -0.0143535 23.1768 0.0430606L17.1768 2.44308C17.0656 2.48765 16.9703 2.56451 16.9031 2.66374C16.8359 2.76298 16.8 2.88006 16.8 2.99988V9.20152C16.8031 10.3411 17.0997 11.4605 17.661 12.4522C18.2224 13.4438 19.0298 14.2741 20.0052 14.8632L23.0916 16.7148C23.1848 16.7706 23.2914 16.8001 23.4 16.8001C23.5086 16.8001 23.6152 16.7706 23.7084 16.7148L25.6427 15.554C25.976 15.354 26.4 15.5941 26.4 15.9827V21.8196C26.3997 22.0805 26.2959 22.3306 26.1115 22.5151C25.927 22.6995 25.6769 22.8033 25.416 22.8036H2.184C1.92312 22.8033 1.67303 22.6995 1.48856 22.5151C1.30409 22.3306 1.20031 22.0805 1.2 21.8196V8.8999C1.2 8.62376 1.42386 8.39991 1.7 8.39991H15C15.1591 8.39991 15.3117 8.3367 15.4242 8.2242C15.5368 8.11163 15.6 7.95904 15.6 7.7999C15.6 7.64076 15.5368 7.48817 15.4242 7.37567C15.3117 7.2631 15.1591 7.1999 15 7.1999H1.7C1.42386 7.1999 1.2 6.97604 1.2 6.6999V5.7839C1.20031 5.52302 1.30409 5.27292 1.48856 5.08845C1.67303 4.90398 1.92312 4.8002 2.184 4.79989H15C15.1591 4.79989 15.3117 4.73667 15.4242 4.62415C15.5368 4.51163 15.6 4.35902 15.6 4.19989C15.6 4.04076 15.5368 3.88814 15.4242 3.77562C15.3117 3.66309 15.1591 3.59988 15 3.59988H2.184C1.60486 3.6002 1.04954 3.8304 0.64003 4.23992C0.230519 4.64943 0.000317727 5.20476 0 5.7839V21.816C0.000317727 22.3951 0.230519 22.9505 0.64003 23.36C1.04954 23.7695 1.60486 23.9997 2.184 24H25.416C25.9951 23.9997 26.5505 23.7695 26.96 23.36C27.3695 22.9505 27.5997 22.3951 27.6 21.816V14.5149C27.6 14.3661 27.667 14.2258 27.7782 14.1268C28.4434 13.5342 28.9832 12.8132 29.3644 12.0061C29.7791 11.1282 29.996 10.1701 30 9.19914V2.99988C29.9999 2.88006 29.9641 2.76298 29.8969 2.66374C29.8298 2.56451 29.7344 2.48765 29.6232 2.44308ZM28.8 9.20152C28.7975 10.1339 28.5549 11.0499 28.0954 11.8613C27.6359 12.6726 26.9751 13.3519 26.1768 13.8336L23.6573 15.3459C23.4989 15.4409 23.3011 15.4409 23.1427 15.3459L20.6232 13.8336C19.8248 13.3519 19.1641 12.6726 18.7046 11.8613C18.2451 11.0499 18.0025 10.1339 18 9.20152V3.744C18 3.53955 18.1245 3.35569 18.3143 3.27976L23.2143 1.31975C23.3335 1.27207 23.4665 1.27206 23.5857 1.31975L28.4857 3.27976C28.6755 3.35569 28.8 3.53955 28.8 3.744V9.20152Z" fill="#FA6444"/>
<path d="M21.9809 7.81336C21.9247 7.75645 21.858 7.71129 21.7845 7.68047C21.711 7.64957 21.6323 7.63371 21.5528 7.63364C21.4733 7.63357 21.3945 7.64936 21.321 7.68012C21.2475 7.71087 21.1807 7.75589 21.1244 7.81274C21.0682 7.86959 21.0235 7.93715 20.9931 8.01146C20.9625 8.08577 20.9468 8.16537 20.9468 8.24588C20.9467 8.32631 20.9623 8.40598 20.9927 8.48036C21.0231 8.55467 21.0676 8.62223 21.1238 8.67915L22.7387 10.3116C22.8522 10.4264 23.0061 10.4909 23.1665 10.4909C23.3271 10.4909 23.481 10.4264 23.5945 10.3116L26.8229 7.04555C26.9364 6.93057 27.0001 6.7747 27 6.61222C26.9999 6.44973 26.936 6.29395 26.8223 6.17913C26.7087 6.06433 26.5546 5.99989 26.394 6C26.2333 6.00012 26.0794 6.06477 25.9658 6.17975L23.166 9.01348L21.9809 7.81336ZM4.60525 19.7754C4.44473 19.7754 4.29078 19.8399 4.17727 19.9547C4.06376 20.0696 4 20.2253 4 20.3877C4 20.5501 4.06376 20.7058 4.17727 20.8207C4.29078 20.9355 4.44473 21 4.60525 21H9.44729C9.60782 21 9.76175 20.9355 9.87523 20.8207C9.98879 20.7058 10.0525 20.5501 10.0525 20.3877C10.0525 20.2253 9.98879 20.0696 9.87523 19.9547C9.76175 19.8399 9.60782 19.7754 9.44729 19.7754H4.60525Z" fill="#FA6444"/>
<rect x="4" y="16" width="6" height="1" rx="0.5" fill="#FA6444"/>
<rect x="4" y="13" width="6" height="1" rx="0.5" fill="#FA6444"/>
</svg>
