<svg width="32" height="32" viewBox="0 0 32 32" fill="none" xmlns="http://www.w3.org/2000/svg">
<g clip-path="url(#clip0_9360_26966)">
<path d="M31.5677 24.518H25.2479V17.225C25.2489 17.1313 25.2226 17.0393 25.1722 16.9602C25.1219 16.8811 25.0496 16.8184 24.9643 16.7796L17.8713 13.6232C18.6859 12.4488 19.4204 11.2208 20.0701 9.94769H27.6935C29.568 9.98596 31.0565 11.5366 31.0182 13.411C30.9809 15.2316 29.5141 16.6984 27.6935 16.7356C26.3913 16.513 26.3913 17.94 27.6935 17.7145C30.1086 17.671 32.0311 15.678 31.9876 13.2629C31.9452 10.9092 30.0473 9.01129 27.6935 8.96889H20.5155C25.6465 -2.94722 6.43047 -2.93308 11.56 8.96889H1.66399L2.78181 7.85809C3.22865 7.42402 2.54491 6.73742 2.09663 7.16589L0.150385 9.11636C0.0595735 9.20869 0.0086808 9.33302 0.0086808 9.46249C0.0086808 9.59196 0.0595735 9.71629 0.150385 9.80862L2.09669 11.7478C2.53221 12.2046 3.23159 11.4882 2.78187 11.0584L1.66399 9.94769H12.0041C12.6452 11.2188 13.3772 12.4419 14.1943 13.6076L7.0688 16.7924C6.9804 16.8748 6.91147 16.9759 6.86707 17.0883C6.8226 17.2006 6.8038 17.3216 6.812 17.4421C6.77933 18.8934 6.829 24.3776 6.812 24.518H4.37349C2.49318 24.518 0.968873 22.9937 0.968873 21.1134C0.968873 19.2331 2.49318 17.7088 4.37349 17.7088C5.67435 17.9386 5.67998 16.5073 4.37349 16.73C1.95807 16.73 0 18.688 0 21.1034C0 23.5189 1.95807 25.477 4.37349 25.477H6.8092C6.8092 25.7465 6.8092 26.8459 6.81627 27.5183C6.8262 27.7396 6.89993 27.9708 7.09993 28.0276C7.09993 28.0276 15.8341 31.9188 15.8554 31.9343C15.9783 31.9759 16.1123 31.9703 16.2313 31.9188L24.9641 28.0276C25.2294 27.9027 25.2635 27.6545 25.2635 27.3836C25.2549 26.7097 25.2337 25.772 25.2521 25.477H31.5719C31.69 25.4635 31.7989 25.4069 31.8779 25.3181C31.9568 25.2292 32.0001 25.1144 31.9996 24.9956C31.9991 24.8768 31.9547 24.7623 31.8751 24.6742C31.7953 24.586 31.6859 24.5304 31.5677 24.518ZM16.0385 20.597L12.6098 19.0692L20.1524 15.6972L23.5741 17.225L16.0385 20.597ZM11.6083 5.32171C12.1715 -2.81954 27.651 0.335417 16.0385 14.4872C14.8937 13.0033 11.6083 8.40709 11.6083 5.32171ZM15.6498 15.5823C16.4187 16.137 16.491 15.3326 17.294 14.4304L18.958 15.1652L11.4197 18.5372C10.6962 18.2096 9.20093 17.5442 8.48033 17.225L14.7647 14.4304C15.254 15.0929 15.6001 15.5256 15.6498 15.5823ZM7.78093 27.2742V17.974C9.696 18.8252 13.6497 20.597 15.542 21.4482V30.7427L7.78093 27.2742ZM24.2833 27.2742L16.5151 30.747V21.4482L24.2833 17.974V27.2742ZM18.7778 5.36425C18.7778 3.84588 17.5469 2.61503 16.0286 2.61503C14.5102 2.61503 13.2794 3.84588 13.2794 5.36425C13.2794 6.88262 14.5102 8.11349 16.0286 8.11349C17.5469 8.11349 18.7778 6.88262 18.7778 5.36425ZM16.0385 7.15169C15.0557 7.12389 14.2814 6.30466 14.3092 5.32184C14.3358 4.37799 15.0947 3.61912 16.0385 3.59247C17.0214 3.62024 17.7957 4.43948 17.7679 5.4223C17.7413 6.36615 16.9823 7.12502 16.0385 7.15169Z" fill="#FA6444"/>
</g>
<defs>
<clipPath id="clip0_9360_26966">
<rect width="32" height="32" fill="white"/>
</clipPath>
</defs>
</svg>
