<svg width="44" height="44" viewBox="0 0 44 44" fill="none" xmlns="http://www.w3.org/2000/svg">
<g clip-path="url(#clip0_9360_7731)">
<path d="M21.4749 10C21.2737 10 21.1397 9.92941 21.0056 9.78824C20.7374 9.50588 20.7374 9.08235 21.0056 8.8L21.4078 8.37647C21.743 7.95294 21.743 7.31765 21.4078 6.96471C21.0726 6.61176 20.4693 6.61176 20.067 6.96471L17.8547 9.29412C17.5866 9.57647 17.1844 9.57647 16.9162 9.29412C16.648 9.01177 16.648 8.58824 16.9162 8.30588L19.1285 5.97647C20.067 5.05882 21.4749 5.05882 22.3464 5.97647C23.2179 6.89412 23.2179 8.37647 22.3464 9.36471L21.9441 9.78824C21.8101 9.92941 21.676 10 21.4749 10ZM12.7598 8.94118C12.5587 8.94118 12.4246 8.87059 12.2905 8.72941C12.0223 8.44706 12.0223 8.02353 12.2905 7.74118L12.9609 7.03529C13.2961 6.61176 13.2961 5.97647 12.9609 5.62353C12.6257 5.27059 11.9553 5.27059 11.6201 5.62353L9.13967 8.23529C8.87151 8.51765 8.46927 8.51765 8.20112 8.23529C7.93296 7.95294 7.93296 7.52941 8.20112 7.24706L10.6816 4.63529C11.486 3.78824 13.095 3.78824 13.8994 4.63529C14.7709 5.55294 14.7709 7.03529 13.8994 8.02353L13.229 8.72941C13.095 8.87059 12.9609 8.94118 12.7598 8.94118Z" fill="white"/>
<path d="M18.4524 19.9755C18.3163 19.9755 18.1803 19.9064 18.0442 19.8373C13.9626 17.0745 6.88776 12.9993 1.17347 10.6509C0.969388 10.5818 0.765306 10.4437 0.561225 10.2365C-0.187075 9.47668 -0.187075 8.30247 0.561225 7.47361L0.629252 7.40454C1.71769 6.36848 3.21429 5.88498 4.77892 6.02312L21.1735 7.95711L27.3639 8.99318C27.7041 9.06225 27.9762 9.40761 27.9082 9.75296C27.8401 10.0983 27.5 10.3746 27.1599 10.3055L20.9694 9.26946L4.64286 7.40454C3.4864 7.2664 2.39796 7.68083 1.51361 8.44061C1.30953 8.7169 1.30953 9.06225 1.51361 9.26946C1.58164 9.33854 1.64966 9.33854 1.71769 9.40761C7.43198 11.756 14.6429 15.9003 18.7925 18.7322C19.1327 18.9394 19.2007 19.3538 18.9966 19.6992C18.8605 19.8373 18.6565 19.9755 18.4524 19.9755ZM35.3912 27.0898C35.1871 27.0898 35.051 27.0207 34.915 26.8826C34.6429 26.6063 34.6429 26.1919 34.915 25.9156L37.1599 23.6363C37.5 23.2218 37.5 22.6002 37.1599 22.2548C36.8197 21.9095 36.2075 21.9095 35.7993 22.2548L35.3912 22.6693C35.119 22.9455 34.7109 22.9455 34.4388 22.6693C34.1667 22.393 34.1667 21.9786 34.4388 21.7023L34.8469 21.2878C35.7993 20.3899 37.2279 20.3899 38.1122 21.2878C38.9966 22.1858 38.9966 23.6363 38.1122 24.6033L35.8673 26.8826C35.7313 27.0207 35.5952 27.0898 35.3912 27.0898ZM36.4116 36C36.2075 36 36.0714 35.9309 35.9354 35.7928C35.6633 35.5165 35.6633 35.1021 35.9354 34.8258L38.3844 32.2702C38.7245 31.8557 38.7245 31.2341 38.3844 30.8887C38.0442 30.5434 37.432 30.5434 37.0238 30.8887L36.3435 31.5794C36.0714 31.8557 35.6633 31.8557 35.3912 31.5794C35.119 31.3032 35.119 30.8887 35.3912 30.6124L36.0714 29.9217C37.0238 29.0238 38.4524 29.0238 39.3367 29.9217C40.2211 30.8197 40.2211 32.2702 39.3367 33.2372L36.8878 35.7928C36.7517 35.9309 36.6156 36 36.4116 36Z" fill="white"/>
<path d="M35.0541 44C34.5666 44 34.0095 43.7909 33.6613 43.4425C33.4524 43.2335 33.3131 43.0244 33.2434 42.8153C30.806 36.8921 26.6972 29.4357 23.842 25.1152C23.6331 24.7667 23.7027 24.3486 24.0509 24.1396C24.3991 23.9305 24.817 24.0002 25.0259 24.3486C27.9508 28.7388 32.1292 36.2649 34.5666 42.2579C34.6362 42.3275 34.6362 42.3972 34.7059 42.4669C34.9148 42.676 35.3326 42.676 35.5416 42.4669C36.3772 41.6307 36.7951 40.446 36.6558 39.2614L34.7059 22.3974L33.7309 15.7773C33.6613 15.4289 33.9398 15.0107 34.288 15.0107C34.6362 14.9411 35.0541 15.2198 35.0541 15.5682L36.029 22.1884L37.979 39.0523C38.1182 40.6551 37.5611 42.2579 36.4469 43.3728C36.0987 43.8606 35.5416 44 35.0541 44ZM9.49611 32.92C9.35683 32.92 9.21755 32.8503 9.07827 32.7806L1.62676 27.7632C1.27856 27.4845 1.06964 27.0664 1 26.6483C1 26.2301 1.13928 25.8817 1.41784 25.5333L2.67137 24.2789C3.08921 23.8608 3.50705 23.8608 3.85525 23.8608H3.99453L11.9335 25.812C12.2817 25.8817 12.5603 26.2998 12.421 26.6483C12.3513 26.9967 11.9335 27.2754 11.5853 27.1361L3.85525 25.3242H3.71597L2.46245 26.5786L9.91395 31.6656C10.2622 31.8747 10.3318 32.2928 10.1229 32.6412C9.91395 32.7806 9.70503 32.92 9.49611 32.92ZM17.3654 42.7457H17.1565C16.7387 42.676 16.3905 42.4669 16.1816 42.1185L10.7496 34.0349C10.5407 33.6865 10.6104 33.2684 10.9585 33.0593C11.3067 32.8503 11.7246 32.92 11.9335 33.2684L17.3654 41.2823L18.5493 40.0976L16.1816 31.805C16.0423 31.4566 16.3208 31.0385 16.669 30.9688C17.0172 30.8991 17.4351 31.1081 17.5047 31.4566L19.8725 39.7492C20.0118 40.1673 19.8725 40.7248 19.4547 41.1429L18.2011 42.3972C18.0619 42.6063 17.7136 42.7457 17.3654 42.7457Z" fill="white"/>
<path d="M12.7114 34C12.5073 34 12.2351 34 12.031 33.9312C11.6909 33.8623 11.4187 33.5182 11.4868 33.1741C11.5548 32.83 11.895 32.5547 12.2351 32.6235C13.6638 32.83 16.0449 31.8664 16.7252 31.1781L39.3799 10.2551C41.625 8.05263 43.3938 3.4413 42.0332 1.99595C41.693 1.65182 41.1487 1.44534 40.4004 1.51417C38.3594 1.51417 35.366 2.95951 33.7332 4.61134L12.7794 27.0486C12.0991 27.7368 11.0786 30.0081 11.3507 31.5223C11.4187 31.8664 11.1466 32.2794 10.8064 32.2794C10.4663 32.3482 10.0581 32.0729 10.0581 31.7287C9.71792 29.7328 10.9425 27.0486 11.895 26.085L32.8488 3.57895C34.7537 1.583 38.0873 0.0688259 40.4684 0H40.5365C41.625 0 42.5094 0.275304 43.1217 0.894737C45.2987 3.16599 43.0536 8.53441 40.4684 11.081L17.7457 32.0729C16.9293 32.9676 14.6162 34 12.7114 34Z" fill="white"/>
<path d="M39.3162 7.04585C38.9744 7.04585 38.6325 6.77511 38.6325 6.43668C38.5641 5.82751 38.0855 5.4214 37.4017 5.35371H37.265C36.8547 5.35371 36.5812 5.08297 36.5812 4.67686C36.5812 4.27074 36.8547 4 37.265 4H37.4701C38.906 4.06769 39.9316 5.01528 40 6.30131C40 6.70742 39.7265 7.04585 39.3162 7.04585ZM9.84615 35C9.36752 35 8.88889 34.7969 8.54701 34.4585C8.20513 34.1201 8 33.714 8 33.2402C8 32.7664 8.20513 32.2926 8.47863 31.9541L12.3761 28.0961C12.9914 27.4869 14.2906 27.4869 14.906 28.0961C15.2479 28.4345 15.3846 28.8406 15.3846 29.3821C15.3846 29.9236 15.1795 30.3297 14.906 30.6681L11.0085 34.5262C10.8034 34.7969 10.3248 35 9.84615 35ZM13.7436 28.976C13.6068 28.976 13.5385 29.0437 13.4701 29.1114L9.57265 32.9694C9.50427 33.0371 9.4359 33.1725 9.4359 33.2402C9.4359 33.3755 9.50427 33.4432 9.57265 33.5109C9.77778 33.714 9.98291 33.714 10.1197 33.5786L14.0855 29.6528C14.1538 29.5852 14.2222 29.4498 14.2222 29.3821C14.2222 29.3144 14.1538 29.179 14.0855 29.1114C13.9487 28.976 13.812 28.976 13.7436 28.976Z" fill="white"/>
</g>
<defs>
<clipPath id="clip0_9360_7731">
<rect width="44" height="44" fill="white"/>
</clipPath>
</defs>
</svg>
