<svg width="44" height="44" viewBox="0 0 44 44" fill="none" xmlns="http://www.w3.org/2000/svg">
<g clip-path="url(#clip0_9730_8889)">
<path d="M21.3851 9.69336C21.1789 9.69336 21.0414 9.62461 20.9039 9.48711C20.6289 9.21211 20.6289 8.79961 20.9039 8.52461L21.3164 8.11211C21.6601 7.69961 21.6601 7.08086 21.3164 6.73711C20.9726 6.39336 20.3539 6.39336 19.9414 6.73711L17.6726 9.00586C17.3976 9.28086 16.9851 9.28086 16.7101 9.00586C16.4351 8.73086 16.4351 8.31836 16.7101 8.04336L18.9789 5.77461C19.9414 4.88086 21.3851 4.88086 22.2789 5.77461C23.1726 6.66836 23.1726 8.11211 22.2789 9.07461L21.8664 9.48711C21.7289 9.62461 21.5914 9.69336 21.3851 9.69336ZM12.4476 8.66211C12.2414 8.66211 12.1039 8.59336 11.9664 8.45586C11.6914 8.18086 11.6914 7.76836 11.9664 7.49336L12.6539 6.80586C12.9976 6.39336 12.9976 5.77461 12.6539 5.43086C12.3101 5.08711 11.6226 5.08711 11.2789 5.43086L8.73516 7.97461C8.46016 8.24961 8.04766 8.24961 7.77266 7.97461C7.49766 7.69961 7.49766 7.28711 7.77266 7.01211L10.3164 4.46836C11.1414 3.64336 12.7914 3.64336 13.6164 4.46836C14.5101 5.36211 14.5101 6.80586 13.6164 7.76836L12.9289 8.45586C12.7914 8.59336 12.6539 8.66211 12.4476 8.66211Z" fill="white"/>
<path d="M18.6357 20.2816C18.4982 20.2816 18.3607 20.2128 18.2232 20.1441C14.0982 17.3941 6.94825 13.3378 1.17325 11.0003C0.966992 10.9316 0.760742 10.7941 0.554492 10.5879C-0.201758 9.83161 -0.201758 8.66286 0.554492 7.83786L0.623242 7.76911C1.72325 6.73786 3.23575 6.25661 4.817 6.39411L21.3857 8.31911L27.642 9.35036C27.9857 9.41911 28.2607 9.76286 28.192 10.1066C28.1232 10.4504 27.7795 10.7254 27.4357 10.6566L21.1795 9.62536L4.6795 7.76911C3.51075 7.63161 2.41075 8.04411 1.517 8.80036C1.31075 9.07536 1.31075 9.41911 1.517 9.62536C1.58575 9.69411 1.6545 9.69411 1.72325 9.76286C7.49825 12.1003 14.7857 16.2253 18.9795 19.0441C19.3232 19.2503 19.392 19.6628 19.1857 20.0066C19.0482 20.1441 18.842 20.2816 18.6357 20.2816ZM35.7545 27.3628C35.5482 27.3628 35.4107 27.2941 35.2732 27.1566C34.9982 26.8816 34.9982 26.4691 35.2732 26.1941L37.542 23.9253C37.8857 23.5128 37.8857 22.8941 37.542 22.5503C37.1982 22.2066 36.5795 22.2066 36.167 22.5503L35.7545 22.9628C35.4795 23.2378 35.067 23.2378 34.792 22.9628C34.517 22.6878 34.517 22.2753 34.792 22.0003L35.2045 21.5878C36.167 20.6941 37.6107 20.6941 38.5045 21.5878C39.3982 22.4816 39.3982 23.9253 38.5045 24.8878L36.2357 27.1566C36.0982 27.2941 35.9607 27.3628 35.7545 27.3628ZM36.7857 36.2316C36.5795 36.2316 36.442 36.1628 36.3045 36.0253C36.0295 35.7503 36.0295 35.3378 36.3045 35.0628L38.7795 32.5191C39.1232 32.1066 39.1232 31.4878 38.7795 31.1441C38.4357 30.8003 37.817 30.8003 37.4045 31.1441L36.717 31.8316C36.442 32.1066 36.0295 32.1066 35.7545 31.8316C35.4795 31.5566 35.4795 31.1441 35.7545 30.8691L36.442 30.1816C37.4045 29.2878 38.8482 29.2878 39.742 30.1816C40.6357 31.0753 40.6357 32.5191 39.742 33.4816L37.267 36.0253C37.1295 36.1628 36.992 36.2316 36.7857 36.2316Z" fill="white"/>
<path d="M34.9976 43.7942C34.5164 43.7942 33.9664 43.588 33.6226 43.2442C33.4164 43.038 33.2789 42.8317 33.2101 42.6255C30.8039 36.7817 26.7476 29.4254 23.9289 25.1629C23.7226 24.8192 23.7914 24.4067 24.1351 24.2004C24.4789 23.9942 24.8914 24.0629 25.0976 24.4067C27.9851 28.7379 32.1101 36.163 34.5164 42.0755C34.5851 42.1442 34.5851 42.213 34.6539 42.2817C34.8601 42.488 35.2726 42.488 35.4789 42.2817C36.3039 41.4567 36.7164 40.288 36.5789 39.1192L34.6539 22.4817L33.6914 15.9504C33.6226 15.6067 33.8976 15.1942 34.2414 15.1942C34.5851 15.1254 34.9976 15.4004 34.9976 15.7442L35.9601 22.2754L37.8851 38.913C38.0226 40.4942 37.4726 42.0755 36.3726 43.1755C36.0289 43.6567 35.4789 43.7942 34.9976 43.7942ZM9.76641 32.8629C9.62891 32.8629 9.49141 32.7942 9.35391 32.7254L1.99766 27.7754C1.65391 27.5004 1.44766 27.0879 1.37891 26.6754C1.37891 26.2629 1.51641 25.9192 1.79141 25.5754L3.02891 24.3379C3.44141 23.9254 3.85391 23.9254 4.19766 23.9254H4.33516L12.1726 25.8504C12.5164 25.9192 12.7914 26.3317 12.6539 26.6754C12.5851 27.0192 12.1726 27.2942 11.8289 27.1567L4.19766 25.3692H4.06016L2.82266 26.6067L10.1789 31.6254C10.5227 31.8317 10.5914 32.2442 10.3852 32.5879C10.1789 32.7254 9.97266 32.8629 9.76641 32.8629ZM17.5351 42.5567H17.3289C16.9164 42.488 16.5726 42.2817 16.3664 41.938L11.0039 33.9629C10.7977 33.6192 10.8664 33.2067 11.2101 33.0004C11.5539 32.7942 11.9664 32.8629 12.1726 33.2067L17.5351 41.113L18.7039 39.9442L16.3664 31.7629C16.2289 31.4192 16.5039 31.0067 16.8476 30.9379C17.1914 30.8692 17.6039 31.0754 17.6726 31.4192L20.0101 39.6005C20.1476 40.013 20.0101 40.563 19.5976 40.9755L18.3601 42.213C18.2226 42.4192 17.8789 42.5567 17.5351 42.5567Z" fill="white"/>
<path d="M12.447 34.0309C12.2407 34.0309 11.9657 34.0309 11.7595 33.9621C11.4157 33.8934 11.1407 33.5496 11.2095 33.2059C11.2782 32.8621 11.622 32.5871 11.9657 32.6559C13.4095 32.8621 15.8157 31.8996 16.5032 31.2121L39.397 10.3121C41.6657 8.11211 43.4532 3.50586 42.0782 2.06211C41.7345 1.71836 41.1845 1.51211 40.4282 1.58086C38.3657 1.58086 35.3407 3.02461 33.6907 4.67461L12.5157 27.0871C11.8282 27.7746 10.797 30.0434 11.072 31.5559C11.1407 31.8996 10.8657 32.3121 10.522 32.3121C10.1782 32.3809 9.76572 32.1059 9.76572 31.7621C9.42197 29.7684 10.6595 27.0871 11.622 26.1246L32.797 3.64336C34.722 1.64961 38.0907 0.137109 40.497 0.0683594H40.5657C41.6657 0.0683594 42.5595 0.343359 43.1782 0.962109C45.3782 3.23086 43.1095 8.59336 40.497 11.1371L17.5345 32.1059C16.7095 32.9996 14.372 34.0309 12.447 34.0309Z" fill="white"/>
<path d="M39.0539 7.5625C38.7101 7.5625 38.3664 7.2875 38.3664 6.94375C38.2976 6.325 37.8164 5.9125 37.1289 5.84375H36.9914C36.5789 5.84375 36.3039 5.56875 36.3039 5.15625C36.3039 4.74375 36.5789 4.46875 36.9914 4.46875H37.1976C38.6414 4.5375 39.6726 5.5 39.7414 6.80625C39.7414 7.21875 39.4664 7.5625 39.0539 7.5625ZM9.42266 35.9563C8.94141 35.9563 8.46016 35.75 8.11641 35.4063C7.77266 35.0625 7.56641 34.65 7.56641 34.1688C7.56641 33.6875 7.77266 33.2063 8.04766 32.8625L11.9664 28.9438C12.5851 28.325 13.8914 28.325 14.5101 28.9438C14.8539 29.2875 14.9914 29.7 14.9914 30.25C14.9914 30.8 14.7851 31.2125 14.5101 31.5563L10.5914 35.475C10.3852 35.75 9.90391 35.9563 9.42266 35.9563ZM13.3414 29.8375C13.2039 29.8375 13.1351 29.9063 13.0664 29.975L9.14766 33.8938C9.07891 33.9625 9.01016 34.1 9.01016 34.1688C9.01016 34.3063 9.07891 34.375 9.14766 34.4438C9.35391 34.65 9.56016 34.65 9.69766 34.5125L13.6851 30.525C13.7539 30.4563 13.8226 30.3188 13.8226 30.25C13.8226 30.1813 13.7539 30.0438 13.6851 29.975C13.5476 29.8375 13.4101 29.8375 13.3414 29.8375Z" fill="white"/>
</g>
<defs>
<clipPath id="clip0_9730_8889">
<rect width="44" height="44" fill="white"/>
</clipPath>
</defs>
</svg>
