<svg width="44" height="43" viewBox="0 0 44 43" fill="none" xmlns="http://www.w3.org/2000/svg">
<g clip-path="url(#clip0_9730_8910)">
<path d="M0.282884 34.7291L3.0249 36.62C4.28296 37.4876 5.747 37.9319 7.224 37.9319C8.18303 37.9315 9.1329 37.7448 10.021 37.382L13.5257 35.9538C14.3341 35.6244 15.2033 35.4718 16.0752 35.5063C16.9471 35.5407 17.8016 35.7614 18.5816 36.1536L18.6789 36.2026C20.761 37.2496 23.2472 37.2496 25.329 36.2026L25.4264 36.1536C26.2064 35.7614 27.0609 35.5407 27.9328 35.5063C28.8047 35.4718 29.6739 35.6244 30.4823 35.9538L33.9869 37.382C36.3059 38.327 38.921 38.0421 40.9831 36.62L43.7251 34.729C43.8658 34.6321 43.9622 34.483 43.9933 34.3147C44.0243 34.1465 43.9873 33.9727 43.8905 33.8318C43.7939 33.6908 43.6451 33.5941 43.4773 33.563C43.3094 33.5319 43.1361 33.569 42.9955 33.6659L40.2535 35.5569C38.5493 36.7322 36.3879 36.9675 34.4718 36.1867L34.1934 36.0732C35.9742 33.0259 37.1541 30.0061 37.7028 27.0872C37.7331 26.9246 37.7247 26.7571 37.6786 26.5983C37.6325 26.4396 37.5498 26.2938 37.4373 26.1729C37.2639 25.9875 37.0886 25.8041 36.9112 25.6227L36.4131 21.0995C36.3843 20.8351 36.259 20.5907 36.0613 20.4132C35.8636 20.2358 35.6074 20.1378 35.3421 20.138H35.0192L33.949 14.5597C33.903 14.3213 33.7758 14.1064 33.589 13.9518C33.4024 13.7972 33.1679 13.7126 32.9256 13.7122H32.3976L32.0751 11.6224C32.0475 11.4546 31.955 11.3046 31.8176 11.2048C31.6803 11.105 31.5092 11.0637 31.3415 11.0897C31.1739 11.1156 31.0233 11.2069 30.9223 11.3436C30.8214 11.4803 30.7785 11.6514 30.8029 11.8197L31.0949 13.7122H27.6708L26.7828 7.95747H30.2068L30.3785 9.07025C30.4047 9.23932 30.4967 9.39105 30.6344 9.49212C30.7722 9.59318 30.9443 9.63528 31.1129 9.60917C31.1965 9.59623 31.2767 9.56692 31.3489 9.52292C31.4212 9.47892 31.4841 9.42109 31.534 9.35273C31.5839 9.28437 31.6199 9.20682 31.64 9.12451C31.66 9.04219 31.6636 8.95673 31.6507 8.873L30.8423 3.63512C30.7425 2.98737 30.1953 2.51726 29.5415 2.51726H25.9433L25.7273 1.11785C25.6274 0.47011 25.0802 0 24.4264 0H19.5815C18.9277 0 18.3806 0.47011 18.2806 1.11785L18.0646 2.51726H14.4664C13.8126 2.51726 13.2654 2.98737 13.1656 3.63512L11.6104 13.7123H11.0823C10.8401 13.7127 10.6056 13.7974 10.4189 13.9519C10.2322 14.1065 10.105 14.3214 10.059 14.5597L8.98884 20.1381H8.88208C8.6167 20.1379 8.36057 20.2359 8.16289 20.4134C7.96521 20.5908 7.8399 20.8352 7.81102 21.0996L7.34037 25.3748C7.07951 25.6366 6.82293 25.9026 6.57072 26.1728C6.45817 26.2937 6.3755 26.4396 6.32939 26.5985C6.28327 26.7572 6.27498 26.9247 6.30519 27.0874C6.59063 28.6059 7.05132 30.1676 7.67439 31.729C7.73924 31.8858 7.86311 32.0107 8.01918 32.0765C8.17523 32.1425 8.35092 32.144 8.50816 32.0811C8.66539 32.018 8.79152 31.8954 8.85919 31.7398C8.92687 31.5841 8.93065 31.4082 8.86972 31.2497C8.70916 30.8466 8.55869 30.4396 8.41846 30.029C11.8298 26.6547 16.075 23.9358 21.3603 21.7407V35.6638C20.6348 35.5879 19.9206 35.3834 19.2562 35.0493L19.1588 35.0003C18.215 34.5258 17.181 34.2587 16.1259 34.2169C15.0709 34.1753 14.0191 34.36 13.0409 34.7585L11.0205 35.5818C10.6518 34.9585 10.3062 34.3339 9.9921 33.719C9.95387 33.6431 9.90103 33.5756 9.83666 33.5201C9.77228 33.4648 9.69762 33.4228 9.61697 33.3964C9.53632 33.3701 9.45127 33.3599 9.36671 33.3667C9.28214 33.3734 9.19974 33.3968 9.12422 33.4356C9.04872 33.4743 8.9816 33.5276 8.92672 33.5925C8.87184 33.6573 8.83028 33.7324 8.80445 33.8133C8.77862 33.8943 8.769 33.9796 8.77616 34.0644C8.78333 34.149 8.80714 34.2315 8.8462 34.3069C9.15223 34.9048 9.47514 35.4938 9.81453 36.0732L9.53604 36.1867C7.62015 36.9675 5.45864 36.7322 3.75446 35.557L1.01246 33.666C0.942844 33.6173 0.864288 33.5828 0.781317 33.5646C0.698345 33.5464 0.612599 33.5448 0.529021 33.5599C0.445443 33.5751 0.365685 33.6067 0.294345 33.6529C0.223005 33.6991 0.161493 33.7591 0.113356 33.8292C0.0652181 33.8993 0.0314063 33.9782 0.0138694 34.0616C-0.00366762 34.1448 -0.00458301 34.2308 0.0111759 34.3145C0.0269348 34.3981 0.0590565 34.4778 0.105689 34.549C0.152322 34.6202 0.212544 34.6813 0.282884 34.7291ZM30.9671 34.7586C29.989 34.36 28.9371 34.1754 27.882 34.2171C26.8269 34.2587 25.7929 34.5259 24.8491 35.0004L24.7518 35.0494C24.0874 35.3835 23.3731 35.5879 22.6476 35.664V21.7411C23.4017 22.0539 24.1485 22.3843 24.8874 22.7321C25.0416 22.8031 25.2175 22.8102 25.3768 22.7517C25.5362 22.6934 25.6661 22.5743 25.7383 22.4205C25.8106 22.2666 25.8193 22.0904 25.7625 21.9301C25.7058 21.7698 25.5883 21.6385 25.4354 21.5646C24.5436 21.1438 23.6064 20.7358 22.6476 20.3478V17.8324C28.3655 20.2072 32.8764 23.2008 36.4151 26.9669C36.3046 27.5338 36.1718 28.0961 36.0171 28.6525C33.7029 26.4543 30.9841 24.4955 27.9166 22.8234C27.7665 22.7417 27.5903 22.7229 27.4266 22.7715C27.2629 22.82 27.1251 22.9317 27.0436 23.0819C26.962 23.2323 26.9434 23.409 26.9918 23.573C27.0401 23.7371 27.1515 23.8752 27.3016 23.9569C30.4753 25.687 33.2604 27.7294 35.5883 30.0297C34.9635 31.8532 34.0945 33.7099 32.9875 35.582L30.9671 34.7586ZM35.4617 24.2226C34.3768 23.2347 33.2158 22.3046 31.9742 21.4286H35.154L35.4617 24.2226ZM18.8698 5.74137H25.1382L26.3682 13.7126H17.6396L18.8698 5.74137ZM29.5416 3.80777C29.556 3.80777 29.5681 3.81818 29.5702 3.83254L30.0078 6.6674H26.5837L26.1424 3.80786L29.5416 3.80777ZM19.5815 1.29059H24.4264C24.4406 1.29059 24.4529 1.30125 24.4551 1.31537L24.939 4.45113H19.0689L19.5528 1.31528C19.5538 1.30838 19.5573 1.30208 19.5626 1.29754C19.5679 1.29301 19.5746 1.29054 19.5815 1.29059ZM14.4663 3.80777H17.8655L17.4242 6.66731H14.0002L14.4377 3.83246C14.4387 3.82558 14.4422 3.81929 14.4474 3.81476C14.4527 3.81022 14.4594 3.80774 14.4663 3.80777ZM13.801 7.95773H17.225L16.3369 13.7126H12.913L13.801 7.95773ZM11.2849 15.0029H32.723L33.7082 20.1382H30.0245C27.7425 18.7225 25.2145 17.4628 22.4138 16.3438C22.1503 16.2384 21.8564 16.2387 21.5931 16.3443C18.7928 17.4632 16.265 18.7227 13.9834 20.1382H10.2998L11.2849 15.0029ZM9.06994 21.4285H12.0334C10.8832 22.2401 9.80175 23.0981 8.78622 24.0057L9.06994 21.4285ZM7.99048 28.6486C7.83595 28.0934 7.70326 27.5323 7.59268 26.9668C11.1314 23.2008 15.6427 20.2072 21.3602 17.8323V20.3469C15.9343 22.5418 11.5458 25.2657 7.99048 28.6486Z" fill="white"/>
<path d="M42.9952 37.9501L40.2532 39.8411C38.5492 41.0164 36.3879 41.2517 34.4716 40.4709L30.9669 39.0427C29.9888 38.644 28.937 38.4595 27.8819 38.5011C26.8268 38.5428 25.7927 38.81 24.8489 39.2845L24.7516 39.3335C23.031 40.1985 20.9765 40.1985 19.256 39.3335L19.1587 39.2845C18.2149 38.8099 17.1808 38.5428 16.1258 38.5011C15.0707 38.4595 14.0189 38.644 13.0408 39.0427L9.53599 40.4709C7.62001 41.2517 5.45859 41.0164 3.75443 39.8411L1.01241 37.9501C0.94277 37.9021 0.864377 37.8683 0.781703 37.8506C0.69903 37.833 0.613698 37.8318 0.530578 37.8472C0.447458 37.8627 0.368178 37.8943 0.297265 37.9404C0.226352 37.9865 0.165195 38.0461 0.117285 38.1159C0.0693746 38.1858 0.0356494 38.2643 0.0180357 38.3472C0.000421881 38.43 -0.000735621 38.5156 0.0146292 38.5989C0.0299941 38.6822 0.0615804 38.7617 0.107585 38.8328C0.15359 38.9038 0.213111 38.9651 0.28275 39.0132L3.02476 40.9042C4.28283 41.7718 5.74687 42.2161 7.22386 42.2161C8.1829 42.2157 9.13277 42.0289 10.0209 41.6662L13.5256 40.2379C14.334 39.9086 15.2033 39.756 16.0751 39.7905C16.947 39.8249 17.8016 40.0456 18.5815 40.4378L18.6788 40.4868C20.761 41.5336 23.247 41.5336 25.329 40.4868L25.4263 40.4378C26.2062 40.0456 27.0607 39.8249 27.9327 39.7905C28.8045 39.756 29.6738 39.9086 30.4821 40.2379L33.9867 41.6662C36.3058 42.6111 38.9209 42.3262 40.983 40.9041L43.7249 39.0131C43.795 38.9652 43.8548 38.9039 43.9012 38.8328C43.9475 38.7617 43.9794 38.6821 43.995 38.5986C44.0105 38.5151 44.0095 38.4294 43.9919 38.3462C43.9743 38.2632 43.9405 38.1844 43.8925 38.1145C43.8444 38.0445 43.7831 37.9847 43.712 37.9385C43.6408 37.8924 43.5613 37.8608 43.4779 37.8455C43.3945 37.8302 43.309 37.8316 43.2262 37.8495C43.1434 37.8675 43.0648 37.9017 42.9952 37.9501ZM29.8353 17.9388H30.3741C30.7298 17.9388 31.0178 17.6499 31.0178 17.2935C31.0178 16.9372 30.7298 16.6484 30.3741 16.6484H29.8353C29.6646 16.6484 29.5008 16.7164 29.3802 16.8373C29.2595 16.9584 29.1916 17.1224 29.1916 17.2935C29.1916 17.4647 29.2595 17.6287 29.3802 17.7498C29.5008 17.8707 29.6646 17.9388 29.8353 17.9388ZM14.1722 17.9388C14.5279 17.9388 14.8159 17.6499 14.8159 17.2935C14.8159 16.9372 14.5279 16.6484 14.1722 16.6484H13.6333C13.2778 16.6484 12.9897 16.9372 12.9897 17.2935C12.9897 17.6499 13.2778 17.9388 13.6333 17.9388H14.1722Z" fill="white"/>
</g>
<defs>
<clipPath id="clip0_9730_8910">
<rect width="44" height="43" fill="white"/>
</clipPath>
</defs>
</svg>
