<svg width="44" height="44" viewBox="0 0 44 44" fill="none" xmlns="http://www.w3.org/2000/svg">
<g clip-path="url(#clip0_9730_8871)">
<path d="M0.208772 42.8792L9.31067 33.9973C9.05925 33.3959 8.93008 32.7504 8.93065 32.0985V10.8768C8.93065 8.14816 11.1425 5.9363 13.8712 5.9363H21.4234V4.70739C20.5112 4.54318 19.8167 3.74387 19.8167 2.78498V1.3065H18.6418C17.5 1.3065 16.5744 2.23214 16.5744 3.37391V3.69162C16.5744 4.04937 16.2987 4.36125 15.9412 4.37198C15.8538 4.37468 15.7668 4.35978 15.6852 4.32818C15.6035 4.29658 15.5292 4.24891 15.4664 4.18802C15.4036 4.12712 15.3536 4.05423 15.3195 3.97366C15.2854 3.8931 15.2678 3.80652 15.2678 3.71903V3.37382C15.2678 1.51052 16.7785 0 18.6418 0H25.7305C27.5938 0 29.1044 1.51061 29.1044 3.37391V3.69162C29.1044 4.04937 28.8289 4.36125 28.4714 4.37198C28.3839 4.37468 28.2968 4.35978 28.2152 4.32818C28.1337 4.29658 28.0592 4.24891 27.9964 4.18802C27.9336 4.12712 27.8837 4.05423 27.8495 3.97366C27.8154 3.8931 27.7979 3.80652 27.7979 3.71903V3.37382C27.7979 2.23205 26.8723 1.30643 25.7305 1.30643H24.5556V2.78498C24.5556 3.81932 23.7477 4.66787 22.7301 4.7343V5.93648H24.3121C24.4854 5.93648 24.6515 6.0053 24.774 6.1278C24.8965 6.2503 24.9653 6.41644 24.9653 6.58968C24.9653 6.76293 24.8965 6.92908 24.774 7.05157C24.6515 7.17408 24.4854 7.24289 24.3121 7.24289H13.8712C11.8641 7.24289 10.2372 8.86995 10.2372 10.8769V32.0985C10.2372 34.1055 11.8642 35.7325 13.8712 35.7325H17.4176V34.717C17.4176 33.3248 18.5462 32.1963 19.9383 32.1963H24.4337C25.8259 32.1963 26.9544 33.3249 26.9544 34.717V35.7325H30.501C32.508 35.7325 34.1349 34.1054 34.1349 32.0985V10.8768C34.1349 8.8697 32.5079 7.24281 30.501 7.24281H27.3605C27.1872 7.24281 27.0211 7.17399 26.8986 7.05149C26.776 6.92899 26.7073 6.76284 26.7073 6.5896C26.7073 6.41635 26.776 6.25021 26.8986 6.12771C27.0211 6.00521 27.1872 5.93639 27.3605 5.93639H30.501C33.2296 5.93639 35.4414 8.14825 35.4414 10.8769V32.0985C35.4418 32.7967 35.2933 33.487 35.0057 34.1231L43.7998 42.705C43.9233 42.8262 43.9936 42.9913 43.9954 43.1642C43.9972 43.337 43.9304 43.5037 43.8096 43.6274C43.6889 43.7512 43.524 43.822 43.3512 43.8243C43.1782 43.8267 43.0115 43.7604 42.8873 43.6401L34.297 35.2568C33.9747 35.6432 33.5956 35.9784 33.1728 36.251L38.0372 42.7823C38.1094 42.8794 38.1533 42.9947 38.164 43.1153C38.1746 43.2359 38.1515 43.357 38.0971 43.4653C38.0429 43.5735 37.9595 43.6645 37.8565 43.7282C37.7536 43.7919 37.6349 43.8256 37.5138 43.8258C37.3145 43.8258 37.1177 43.7348 36.9894 43.5625L35.7242 41.8638H8.41546L7.02035 43.7368C6.95957 43.8185 6.88047 43.8849 6.78941 43.9306C6.69835 43.9763 6.59785 44 6.49596 43.9999C6.34729 43.9999 6.19724 43.9494 6.07315 43.8442C5.80743 43.619 5.77778 43.2179 5.98584 42.9385L11.0445 36.1467C10.6482 35.869 10.2945 35.5352 9.99456 35.1554L1.12135 43.8142C0.999464 43.9334 0.835688 44.0001 0.66519 43.9999C0.578027 44 0.491728 43.9826 0.41141 43.9488C0.331091 43.915 0.258383 43.8654 0.197602 43.8029C0.137652 43.7415 0.0903815 43.6689 0.058495 43.5893C0.0266083 43.5096 0.01073 43.4245 0.0117664 43.3387C0.0128028 43.253 0.0307372 43.1682 0.0645415 43.0893C0.0983459 43.0105 0.147357 42.939 0.208772 42.8792ZM22.6018 3.43252C22.9587 3.43243 23.2491 3.14205 23.2491 2.78507V1.3065H21.1232V2.78507C21.1232 3.14205 21.4136 3.43252 21.7707 3.43252H22.6018ZM25.6481 34.717C25.6481 34.0474 25.1034 33.5027 24.4338 33.5027H19.9384C19.2688 33.5027 18.7241 34.0475 18.7241 34.717V35.7325H25.648L25.6481 34.717ZM9.38836 40.5574H34.7511L31.9656 36.8174C31.4914 36.9646 30.9977 37.0393 30.5012 37.039H13.8712C13.3088 37.0392 12.7506 36.9429 12.2208 36.7545L9.38836 40.5574Z" fill="white"/>
<path d="M12.2567 11.6849H18.9855C19.289 10.1961 20.6086 9.07227 22.1857 9.07227C23.763 9.07227 25.0826 10.196 25.3861 11.6849H32.1144C32.2001 11.6849 32.2852 11.7018 32.3644 11.7347C32.4437 11.7674 32.5156 11.8156 32.5763 11.8762C32.6369 11.9369 32.6851 12.0089 32.7179 12.0882C32.7507 12.1674 32.7676 12.2523 32.7676 12.3381V24.8804C32.7676 24.9662 32.7507 25.0512 32.7179 25.1304C32.6851 25.2098 32.6369 25.2817 32.5763 25.3424C32.5156 25.403 32.4437 25.4511 32.3644 25.484C32.2852 25.5168 32.2001 25.5337 32.1144 25.5337H19.4343C19.2611 25.5337 19.095 25.4648 18.9724 25.3423C18.8499 25.2199 18.7811 25.0537 18.7811 24.8804C18.7811 24.7072 18.8499 24.5411 18.9724 24.4185C19.095 24.2961 19.2611 24.2272 19.4343 24.2272H31.4613V12.9914H25.3863C25.0829 14.4805 23.7631 15.6046 22.1858 15.6046C20.6086 15.6046 19.2888 14.4806 18.9855 12.9914H12.91V24.2272H16.386C16.5592 24.2272 16.7253 24.2961 16.8479 24.4185C16.9703 24.5411 17.0392 24.7072 17.0392 24.8804C17.0392 25.0537 16.9703 25.2199 16.8479 25.3423C16.7253 25.4648 16.5592 25.5337 16.386 25.5337H12.2568C12.171 25.5337 12.0861 25.5168 12.0069 25.484C11.9276 25.4511 11.8555 25.403 11.7949 25.3424C11.7342 25.2817 11.6861 25.2098 11.6533 25.1304C11.6205 25.0512 11.6036 24.9662 11.6036 24.8804V12.3381C11.6036 12.2523 11.6203 12.1674 11.6532 12.0882C11.686 12.0089 11.7342 11.9369 11.7948 11.8762C11.8555 11.8156 11.9275 11.7674 12.0068 11.7347C12.086 11.7018 12.1709 11.6849 12.2567 11.6849ZM22.1858 14.298C23.2665 14.298 24.1455 13.4189 24.1455 12.3383C24.1455 11.2577 23.2665 10.3787 22.1858 10.3787C21.1053 10.3787 20.2262 11.2577 20.2262 12.3383C20.2262 13.4189 21.1053 14.298 22.1858 14.298ZM26.9994 26.6659H32.1144C32.2002 26.6659 32.2852 26.6829 32.3645 26.7157C32.4437 26.7486 32.5157 26.7966 32.5764 26.8572C32.6371 26.918 32.6851 26.99 32.718 27.0692C32.7508 27.1485 32.7677 27.2334 32.7677 27.3192V29.9317C32.7677 30.0175 32.7508 30.1024 32.718 30.1816C32.6851 30.261 32.6371 30.333 32.5764 30.3936C32.5157 30.4542 32.4437 30.5024 32.3645 30.5352C32.2852 30.5681 32.2002 30.5849 32.1144 30.5849H26.9994C26.9136 30.5849 26.8287 30.5681 26.7495 30.5352C26.6702 30.5024 26.5983 30.4542 26.5376 30.3936C26.4769 30.333 26.4288 30.261 26.396 30.1816C26.3631 30.1024 26.3463 30.0175 26.3463 29.9317V27.3192C26.3463 27.146 26.4151 26.9799 26.5377 26.8573C26.6601 26.7348 26.8262 26.666 26.9994 26.6659ZM27.6527 29.2784H31.4613V27.9725H27.6527V29.2784ZM12.2567 26.6659H17.3718C17.4576 26.6659 17.5425 26.6829 17.6218 26.7157C17.701 26.7486 17.7731 26.7966 17.8337 26.8572C17.8944 26.918 17.9425 26.99 17.9754 27.0692C18.0082 27.1485 18.0251 27.2334 18.025 27.3192V29.9317C18.0251 30.0175 18.0082 30.1024 17.9754 30.1816C17.9425 30.261 17.8944 30.333 17.8337 30.3936C17.7731 30.4542 17.701 30.5024 17.6218 30.5352C17.5425 30.5681 17.4576 30.5849 17.3718 30.5849H12.2567C12.1709 30.5849 12.086 30.5681 12.0068 30.5352C11.9275 30.5024 11.8555 30.4542 11.7948 30.3936C11.7342 30.333 11.686 30.261 11.6532 30.1816C11.6203 30.1024 11.6035 30.0175 11.6035 29.9317V27.3192C11.6035 27.2334 11.6203 27.1485 11.6532 27.0692C11.686 26.99 11.7342 26.918 11.7948 26.8572C11.8555 26.7966 11.9275 26.7486 12.0068 26.7157C12.086 26.6829 12.1709 26.6659 12.2567 26.6659ZM12.91 29.2784H16.7185V27.9725H12.91V29.2784Z" fill="white"/>
</g>
<defs>
<clipPath id="clip0_9730_8871">
<rect width="44" height="44" fill="white"/>
</clipPath>
</defs>
</svg>
