<svg width="18" height="17" viewBox="0 0 18 17" fill="none" xmlns="http://www.w3.org/2000/svg">
<path d="M8.63116 5.1042C8.63116 4.5407 8.63116 4.25894 8.5393 4.01425C8.46475 3.81564 8.34723 3.63595 8.19515 3.48804C8.00779 3.30581 7.74966 3.19288 7.2334 2.96701L0.485314 0.0146864L3.43757 6.7628C3.66344 7.27907 3.77638 7.53721 3.95861 7.72458C4.10652 7.87666 4.28621 7.99418 4.48483 8.06873C4.72953 8.16058 5.01129 8.16058 5.57481 8.16058L7.85358 8.16056C8.13147 8.16056 8.27042 8.16056 8.37579 8.10477C8.46083 8.05974 8.53037 7.9902 8.57539 7.90516C8.63118 7.79979 8.63118 7.66084 8.63118 7.38296L8.63116 5.1042Z" fill="#FA6444"/>
<path d="M12.3664 8.8394C12.9299 8.8394 13.2116 8.83941 13.4563 8.93126C13.6549 9.00581 13.8346 9.12333 13.9825 9.27541C14.1647 9.46277 14.2777 9.7209 14.5035 10.2372L17.4559 16.9852L10.7078 14.033C10.1915 13.8071 9.93335 13.6942 9.74599 13.512C9.59391 13.364 9.47639 13.1844 9.40183 12.9857C9.30998 12.741 9.30998 12.4593 9.30998 11.8958L9.31 9.61698C9.31 9.33909 9.31 9.20015 9.3658 9.09477C9.41082 9.00974 9.48036 8.9402 9.5654 8.89517C9.67077 8.83938 9.80972 8.83938 10.0876 8.83938L12.3664 8.8394Z" fill="#FA6444"/>
<path d="M17.4559 0.0147512L14.5035 6.76284C14.2777 7.2791 14.1647 7.53723 13.9825 7.72459C13.8346 7.87667 13.6549 7.99419 13.4563 8.06874C13.2116 8.16059 12.9299 8.1606 12.3664 8.1606L10.0876 8.16061C9.80972 8.16062 9.67077 8.16062 9.5654 8.10483C9.48036 8.0598 9.41082 7.99026 9.3658 7.90523C9.31 7.79985 9.31 7.66091 9.31 7.38302L9.30998 5.10424C9.30998 4.54072 9.30998 4.25896 9.40183 4.01426C9.47639 3.81565 9.59391 3.63596 9.74599 3.48804C9.93335 3.30581 10.1915 3.19288 10.7078 2.96701L17.4559 0.0147512Z" fill="#FA6444"/>
<path d="M8.63116 11.8958C8.63116 12.4593 8.63116 12.7411 8.5393 12.9857C8.46475 13.1844 8.34723 13.364 8.19515 13.512C8.00779 13.6942 7.74966 13.8071 7.2334 14.033L0.485314 16.9853L3.43757 10.2372C3.66344 9.72093 3.77638 9.46279 3.95861 9.27542C4.10652 9.12334 4.28621 9.00582 4.48483 8.93127C4.72953 8.83942 5.01129 8.83942 5.57481 8.83942L7.85359 8.83944C8.13147 8.83944 8.27042 8.83944 8.37579 8.89523C8.46083 8.94026 8.53037 9.0098 8.57539 9.09484C8.63118 9.20021 8.63118 9.33916 8.63118 9.61704L8.63116 11.8958Z" fill="#FA6444"/>
</svg>
