<svg width="22" height="22" viewBox="0 0 22 22" fill="none" xmlns="http://www.w3.org/2000/svg">
<path d="M5.40024 14.1863C4.2106 12.9959 3.6154 12.4015 3.39441 11.6292C3.17265 10.8569 3.36207 10.0368 3.74091 8.39754L3.95881 7.45199C4.27682 6.07217 4.43621 5.38225 4.90821 4.90948C5.38022 4.43671 6.0709 4.27809 7.45072 3.96008L8.39627 3.7414C10.0363 3.36334 10.8556 3.17392 11.6279 3.39491C12.4002 3.61667 12.9947 4.21187 14.1843 5.4015L15.5934 6.81059C17.6654 8.88186 18.6995 9.91673 18.6995 11.2026C18.6995 12.4893 17.6646 13.5241 15.5941 15.5946C13.5229 17.6659 12.488 18.7008 11.2013 18.7008C9.91546 18.7008 8.87982 17.6659 6.80932 15.5954L5.40024 14.1863Z" stroke="#FA6444" stroke-width="1.5"/>
<path d="M9.47578 9.68659C10.0772 9.08519 10.0772 8.11012 9.47578 7.50872C8.87438 6.90732 7.89932 6.90733 7.29792 7.50873C6.69652 8.11013 6.69652 9.08519 7.29792 9.68659C7.89932 10.288 8.87438 10.288 9.47578 9.68659Z" stroke="#FA6444" stroke-width="1.5"/>
<path d="M10.6465 16.0054L16.0202 10.6309" stroke="#FA6444" stroke-width="1.5" stroke-linecap="round"/>
</svg>
